<svg width="192" height="34" viewBox="0 0 192 34" fill="none" xmlns="http://www.w3.org/2000/svg">
<path d="M189.656 16.236C190.393 16.236 191.037 16.236 191.957 16.236C190.393 15.6629 188.92 16.1404 187.539 16.0449C186.803 15.7584 186.158 15.3764 185.054 15.5674C184.41 15.4719 183.765 15.4719 183.121 15.5674C182.937 15.3764 182.753 15.2809 182.569 15.0899C182.477 14.9944 182.201 14.8989 182.108 14.8034C181.648 14.6124 181.188 14.5169 180.728 14.3258C181.004 14.2303 181.188 14.1348 181.464 14.0393C182.016 14.0393 182.569 13.9438 183.029 13.6573C183.489 13.4663 184.041 13.2753 183.949 12.9888V12.8933V12.7978C184.686 12.7978 185.514 12.7978 185.698 12.3202C185.606 12.1292 185.514 12.0337 185.422 11.8427C185.974 11.8427 186.527 12.0337 186.895 11.6517C187.263 11.2697 187.723 10.9831 188.183 10.6966C188.644 10.5056 189.104 10.4101 189.656 10.2191C189.656 9.74157 190.024 9.35955 190.761 9.07303C191.129 9.07303 191.681 9.16854 191.957 8.97753C192.141 8.59551 191.681 8.59551 191.497 8.59551C190.945 8.5 190.301 8.5 189.748 8.40449C189.748 8.21348 189.748 8.02247 189.748 7.92697C189.84 7.83146 190.024 7.73596 190.116 7.54494C190.116 7.44944 190.116 7.44944 190.116 7.35393C190.485 7.25843 190.853 7.54494 191.313 7.44944C191.129 7.25843 190.853 7.16292 190.485 7.06742C190.301 6.8764 189.932 6.68539 189.472 6.58989C189.656 6.20787 188.46 6.11236 188.736 5.73034C189.288 5.82584 189.38 6.11236 190.116 6.11236C189.932 5.82584 189.564 5.73034 189.104 5.53933C188.828 5.34831 188.736 5.1573 188.183 5.1573C188.276 5.25281 188.368 5.44382 188.368 5.53933C187.907 5.53933 187.447 5.53933 186.987 5.53933C186.619 5.44382 186.251 5.34831 185.882 5.1573C185.882 5.0618 185.79 5.0618 185.698 4.96629C185.974 4.87079 186.343 4.87079 186.619 4.77528C187.447 4.67978 186.619 4.39326 186.895 4.29775C187.539 4.29775 187.907 4.01124 188.368 3.82022C189.012 3.72472 189.84 3.91573 190.577 3.53371C189.656 3.53371 188.92 3.62921 188.276 3.62921C188.183 3.53371 188.183 3.4382 188.091 3.3427C188.46 3.15169 189.196 3.15169 189.288 2.86517C189.196 2.86517 189.104 2.86517 189.012 2.86517C188.091 2.57865 187.079 2.76966 186.066 2.76966C184.962 2.76966 183.949 2.76966 182.845 2.76966C182.108 2.67416 181.372 2.67416 180.728 2.57865C180.636 2.57865 180.544 2.57865 180.452 2.57865C180.083 2.38764 178.703 2.57865 179.347 1.91011C177.782 1.24157 175.849 1.14607 173.916 1.05056C173.456 1.05056 172.996 1.05056 172.628 1.05056C170.879 0.955056 169.314 0.477528 167.565 0.764045C166.737 0.764045 166.001 0.382022 165.08 0.573034C164.528 0.573034 163.976 0.477528 163.607 0.668539C163.515 0.668539 163.423 0.668539 163.239 0.668539C162.595 0.382023 161.858 0.477528 161.122 0.477528C160.938 0.477528 160.662 0.477528 160.478 0.477528C159.005 0.191011 157.348 0.382022 155.783 0.191011C155.047 0.0955056 154.403 0.0955056 153.666 0.191011C152.838 0.191011 152.01 0.191011 151.181 0.191011C151.089 0.191011 150.997 0.191011 150.813 0.191011C149.985 0.191011 149.248 0.286517 148.42 0.286517C146.027 0.286517 143.633 0.191011 141.24 0.191011C141.148 0.191011 140.964 0.191011 140.872 0.191011C140.136 0.191011 139.399 0.191011 138.663 0.191011C138.571 0.286517 138.663 0.286517 138.755 0.382022H138.663C138.663 0.286517 138.663 0.286517 138.663 0.191011C138.479 0.191011 138.387 0.191011 138.203 0.191011C137.651 0 137.098 0 136.546 0C133.601 0 130.563 0 127.618 0C127.434 0.0955056 127.434 0.0955056 127.618 0.191011C130.563 0.191011 133.601 0.191011 136.546 0.191011C132.404 0.0955056 128.17 0.0955056 124.028 0.191011C123.936 0.286517 124.028 0.286517 124.12 0.286517H124.028C124.028 0.382022 124.028 0.382023 124.028 0.477528C124.12 0.382023 124.12 0.382022 124.028 0.286517V0.191011C123.66 0.191011 123.291 0.191011 122.923 0.191011C121.359 0.191011 119.702 0.0955056 118.137 0.286517C118.045 0.286517 118.045 0.286517 118.045 0.286517C117.953 0.286517 117.861 0.286517 117.769 0.286517C117.032 0.191011 116.388 0.191011 115.652 0.286517C111.878 0.286517 108.104 0.191011 104.33 0.477528C103.226 0.477528 102.029 0.477528 100.924 0.477528C100.648 0.477528 100.464 0.477528 100.188 0.477528C100.556 0.382023 100.924 0.286517 101.293 0.286517C100.74 0.191011 100.188 0.0955056 99.8199 0.382022C99.0835 0.382022 98.4392 0.382022 97.7028 0.382022C97.2426 0.382022 96.8744 0.382022 96.5983 0.573034C94.9415 0.573034 93.2847 0.382023 91.7199 0.668539C91.6278 0.668539 91.6278 0.668539 91.5358 0.668539C88.0381 0.668539 84.4483 0.668539 80.9506 0.764045C80.6744 0.764045 80.4903 0.764045 80.2142 0.764045C76.9926 0.764045 73.771 0.764045 70.5494 0.764045C68.4324 0.764045 66.4074 0.859551 64.4744 0.859551C64.1983 0.859551 64.0142 0.859551 63.7381 0.859551C62.6335 0.859551 61.621 0.859551 60.5165 0.859551C59.2279 0.859551 57.8472 0.859551 56.5585 0.859551C56.0063 0.859551 55.3619 0.859551 54.8097 0.859551C54.0733 0.859551 53.3369 0.859551 52.6926 0.859551C52.4165 0.859551 52.2324 0.859551 51.9563 0.859551C50.9438 0.859551 49.9313 0.859551 48.8267 0.859551C47.6301 0.668539 46.4335 0.668539 45.1449 0.668539C44.2245 0.668539 43.304 0.668539 42.3835 0.573034C41.5551 0.477528 40.6347 0.477528 39.8063 0.573034C39.4381 0.573034 39.162 0.573034 38.7938 0.573034C37.137 0.286517 35.4801 0.382022 33.7313 0.286517C32.8108 0 31.7063 0.191011 30.6017 0.0955056C30.0495 0 29.5892 -0.0955056 29.4972 0.286517C28.8529 0.668539 28.9449 1.24157 28.2085 1.6236C27.3801 2.00562 27.3801 2.48315 27.9324 2.86517C27.9324 2.96067 28.0245 2.96067 28.1165 2.96067C28.3926 3.3427 28.7608 3.53371 29.129 3.82022C27.9324 3.82022 27.196 4.20225 26.4597 4.48876C26.1835 4.58427 25.9074 4.67978 25.8154 4.87079C25.5392 4.87079 25.2631 4.96629 25.1711 5.0618C24.6188 5.1573 23.6983 4.87079 23.4222 5.34831H23.3301C22.7779 5.34831 22.2256 5.34831 21.6733 5.34831C21.1211 5.1573 20.6608 5.1573 19.8324 5.1573C20.4767 5.44382 21.029 5.53933 21.6733 5.53933C21.8574 5.63483 22.0415 5.63483 22.2256 5.73034C22.1336 6.20787 22.0415 6.58989 21.9495 7.06742C22.0415 7.06742 22.1336 7.16292 22.2256 7.16292H22.1336C21.9495 7.16292 21.8574 7.16292 21.6733 7.16292C21.3051 7.16292 20.937 7.16292 20.6608 7.16292C20.2006 7.25843 19.7404 7.25843 19.1881 7.35393C17.7154 7.54494 16.0586 7.64045 14.862 8.21348C13.8495 8.30899 13.2051 8.78652 12.1926 8.97753C12.929 9.16854 13.2972 8.88202 13.8495 8.88202C13.9415 8.97753 14.1256 8.97753 14.2176 9.07303C13.9415 9.26404 13.6654 9.35955 13.4813 9.55056C12.3767 9.64607 11.9165 10.0281 11.2722 10.4101C10.904 10.5056 10.5358 10.6966 10.6279 10.8876C10.904 11.5562 9.15515 11.7472 9.0631 12.4157C9.52333 12.2247 9.89151 12.1292 10.2597 12.0337C10.2597 12.1292 10.2597 12.1292 10.2597 12.2247C9.98356 12.4157 9.79947 12.6067 9.52333 12.7022C9.89151 12.9888 9.70742 13.2753 9.15515 13.5618C8.78697 13.6573 8.41879 13.8483 8.14265 13.9438C7.86651 13.9438 7.59038 13.9438 7.40629 14.1348C5.84151 14.5169 5.84151 14.6124 7.59038 15.0899C7.59038 15.1854 7.68242 15.2809 7.68242 15.3764C6.30174 15.3764 5.10515 15.6629 3.90856 15.9494C3.26424 16.1404 3.54038 16.236 4.09265 16.236C3.81652 16.7135 2.89606 16.7135 2.25174 16.9045C1.88356 17.0955 1.51538 17.191 1.05515 17.382C1.69947 17.382 2.25174 17.382 2.80402 17.4775C3.08015 17.6685 2.98811 17.764 2.43583 17.764C1.69947 17.764 1.05515 17.764 0.134699 17.764C1.69947 18.3371 3.1722 17.8596 4.55288 17.9551C5.28924 18.2416 5.93356 18.6236 7.0381 18.4326C7.68242 18.5281 8.32674 18.5281 8.97106 18.4326C8.97106 18.6236 9.24719 18.8146 9.33924 19.0056C9.43128 19.1011 9.70742 19.1966 9.89151 19.2921C10.3517 19.4831 10.812 19.5787 11.2722 19.7697C10.9961 19.8652 10.812 19.9607 10.5358 20.1517C9.98356 20.1517 9.43129 20.2472 8.97106 20.5337C8.51083 20.7247 7.95856 20.9157 8.0506 21.2022V21.2978V21.3933C7.31424 21.3933 6.48583 21.3933 6.30174 21.8708C6.39379 21.9663 6.48583 22.1573 6.57788 22.2528C6.02561 22.2528 5.47333 22.0618 5.10515 22.4438C4.73697 22.8258 4.27674 23.1124 3.81652 23.3989C3.35629 23.6854 2.80402 23.7809 2.34379 23.9719C2.34379 24.4494 1.97561 24.8315 1.23924 25.118C0.871062 25.118 0.31879 25.0225 0.0426534 25.2135C-0.141437 25.4045 0.31879 25.4045 0.502881 25.4045C1.05515 25.5 1.69947 25.5 2.25174 25.5955C2.25174 25.7865 2.25174 25.9775 2.25174 26.073C2.25174 26.264 2.1597 26.3596 1.97561 26.4551C1.97561 26.5506 1.97561 26.5506 1.97561 26.6461C1.60743 26.7416 1.23924 26.4551 0.779017 26.6461C0.963108 26.8371 1.33129 26.9326 1.60743 27.0281C1.88356 27.2191 2.25174 27.4101 2.71197 27.5056C2.52788 27.8876 3.72447 27.9831 3.44833 28.3652C2.89606 28.2697 2.80402 27.9831 2.06765 27.9831C2.25174 28.2697 2.61993 28.3652 3.08015 28.5562C3.35629 28.6517 3.44833 28.8427 4.00061 28.8427C3.90856 28.7472 3.90856 28.6517 3.81652 28.4607C4.27674 28.4607 4.73697 28.4607 5.1972 28.4607C5.56538 28.6517 5.93356 28.7472 6.30174 28.8427C6.30174 28.9382 6.39379 28.9382 6.48583 29.0337C6.2097 29.1292 5.84151 29.1292 5.56538 29.2247C4.73697 29.3202 5.56538 29.6067 5.28924 29.7022C4.64492 29.7022 4.27674 29.9888 3.81652 30.1798C3.08015 30.2753 2.34379 30.0843 1.51538 30.3708C2.43583 30.3708 3.1722 30.2753 3.81652 30.2753C3.90856 30.4663 3.90856 30.5618 4.00061 30.6573C4.1847 30.7528 4.27674 30.7528 4.46083 30.8483C4.46083 30.6573 4.36879 30.5618 4.00061 30.6573C3.72447 30.8483 2.89606 30.8483 2.80402 31.1348C2.89606 31.1348 2.98811 31.1348 3.08015 31.1348C4.00061 31.4213 5.01311 31.2303 6.02561 31.2303C7.13015 31.2303 8.14265 31.2303 9.24719 31.2303C9.89151 31.4213 10.6279 31.4213 11.3642 31.5169C11.4563 31.5169 11.5483 31.5169 11.6404 31.5169C12.0086 31.8034 13.3892 31.6124 12.7449 32.1854C14.3097 32.8539 16.2426 32.9494 18.1756 33.0449C18.6358 33.0449 19.0961 33.0449 19.4642 33.0449C21.2131 33.1404 22.7779 33.618 24.5267 33.3315C25.3551 33.3315 26.0915 33.7135 27.012 33.5225C27.5642 33.5225 28.1165 33.618 28.4847 33.427C28.5767 33.427 28.6688 33.427 28.8529 33.427C29.4972 33.7135 30.2335 33.7135 30.9699 33.618C31.154 33.618 31.4301 33.618 31.6142 33.618C33.087 33.9045 34.7438 33.7135 36.3085 33.9045C37.0449 34 37.6892 34 38.4256 33.9045C39.254 33.9045 40.0824 33.9045 40.9108 33.9045C41.0029 33.9045 41.187 33.9045 41.279 33.9045C42.1074 33.9045 42.8438 33.809 43.6722 33.809C46.0654 33.809 48.4585 33.9045 50.8517 33.9045C50.9438 33.9045 51.1279 33.9045 51.2199 33.9045C51.9563 33.9045 52.6926 33.9045 53.429 33.9045C53.521 33.809 53.429 33.809 53.3369 33.7135H53.429C53.429 33.809 53.429 33.809 53.429 33.9045C53.6131 33.9045 53.7051 33.9045 53.8892 33.9045C54.3494 34 54.9017 34 55.546 34C58.4915 34 61.529 34 64.4744 34C64.6585 33.9045 64.6585 33.9045 64.4744 33.809C61.529 33.809 58.4915 33.809 55.546 33.809C59.6881 33.9045 63.9222 33.9045 68.0642 33.809C68.1563 33.7135 68.0642 33.7135 67.9722 33.7135H68.0642C68.0642 33.618 68.0642 33.618 68.0642 33.5225C67.9722 33.618 67.9722 33.618 68.0642 33.7135V33.809C68.4324 33.809 68.8006 33.809 69.1688 33.809C70.7335 33.809 72.3903 33.9045 73.9551 33.7135H74.0472C74.1392 33.7135 74.2313 33.7135 74.3233 33.7135C75.0597 33.809 75.704 33.809 76.4403 33.7135C80.2142 33.7135 83.9881 33.809 87.7619 33.5225C88.8665 33.5225 90.0631 33.5225 91.1676 33.5225C91.4437 33.5225 91.6278 33.5225 91.904 33.5225C91.5358 33.618 91.1676 33.7135 90.7994 33.809C91.3517 33.9045 91.904 34 92.2722 33.7135C93.0085 33.7135 93.6528 33.7135 94.3892 33.7135C94.4812 33.618 94.4812 33.618 94.3892 33.5225C94.3892 33.618 94.3892 33.618 94.3892 33.7135C94.8494 33.7135 95.2176 33.7135 95.4937 33.5225C97.1506 33.427 98.8994 33.7135 100.556 33.427C104.054 33.427 107.644 33.427 111.141 33.3315C111.418 33.3315 111.602 33.3315 111.878 33.3315C115.099 33.3315 118.321 33.3315 121.543 33.3315C123.568 33.236 125.501 33.236 127.526 33.1404C127.802 33.1404 127.986 33.1404 128.262 33.1404C129.366 33.1404 130.379 33.1404 131.484 33.1404C132.772 33.1404 134.153 33.1404 135.441 33.1404C135.994 33.1404 136.638 33.1404 137.19 33.1404C137.927 33.1404 138.571 33.1404 139.307 33.1404C139.583 33.1404 139.768 33.1404 140.044 33.1404C141.056 33.1404 142.069 33.1404 143.173 33.1404C143.173 33.1404 143.173 33.1404 143.265 33.1404C144.462 33.3315 145.658 33.3315 146.855 33.236C147.776 33.236 148.696 33.236 149.616 33.3315C150.445 33.5225 151.365 33.427 152.194 33.427C152.562 33.427 152.838 33.427 153.206 33.427C154.863 33.7135 156.52 33.5225 158.177 33.618C159.189 33.9045 160.294 33.7135 161.306 33.809C161.859 34 162.319 34.0955 162.503 33.618C163.147 33.236 163.055 32.6629 163.791 32.2809C164.528 31.8989 164.528 31.5169 164.068 31.0393C164.068 30.9438 163.976 30.9438 163.883 30.9438C163.515 30.6573 163.147 30.3708 162.871 30.0843C164.068 30.1798 164.712 29.7978 165.448 29.4157C165.816 29.3202 166.001 29.2247 166.093 29.0337C166.369 29.0337 166.645 28.9382 166.737 28.8427C167.289 28.7472 168.21 29.0337 168.486 28.5562H168.578C169.13 28.5562 169.682 28.5562 170.235 28.5562C170.787 28.7472 171.247 28.7472 172.076 28.7472C171.431 28.4607 170.879 28.3652 170.235 28.3652C170.051 28.2697 169.774 28.2697 169.59 28.1742C169.682 27.6966 169.774 27.3146 169.866 26.8371C169.774 26.7416 169.682 26.7416 169.59 26.7416H169.682C169.866 26.7416 169.958 26.7416 170.143 26.7416C170.511 26.7416 170.879 26.7416 171.155 26.7416C171.615 26.6461 172.076 26.6461 172.628 26.5506C174.101 26.3596 175.757 26.264 176.954 25.691C177.966 25.5955 178.611 25.118 179.623 24.927C178.887 24.736 178.519 25.0225 177.966 25.0225C177.874 24.927 177.69 24.927 177.598 24.8315C177.874 24.6404 178.151 24.5449 178.335 24.3539C179.347 24.2584 179.899 23.8764 180.544 23.4944C180.912 23.3989 181.188 23.2079 181.188 23.0169C181.004 22.3483 182.661 22.1573 182.753 21.4888C182.293 21.6798 181.924 21.7753 181.556 21.8708C181.556 21.7753 181.556 21.7753 181.556 21.6798C181.832 21.4888 182.016 21.3933 182.293 21.2022C181.924 20.9157 182.108 20.6292 182.661 20.3427C183.029 20.2472 183.397 20.0562 183.673 19.9607C183.949 19.9607 184.226 19.9607 184.41 19.7697C185.974 19.2921 185.974 19.2921 184.133 18.7191C184.133 18.6236 184.041 18.5281 184.041 18.4326C185.422 18.4326 186.619 18.1461 187.815 17.8596C188.46 17.6685 188.183 17.573 187.631 17.573C187.907 17.0955 188.828 17.0955 189.472 16.9045C189.84 16.7135 190.301 16.618 190.761 16.427C190.116 16.427 189.564 16.427 189.012 16.3315C189.012 16.3315 189.104 16.236 189.656 16.236ZM4.55288 31.0393C4.46083 31.0393 4.46083 31.0393 4.36879 31.0393C4.36879 31.0393 4.46083 31.0393 4.55288 31.0393ZM70.9176 1.14607H70.8256C70.9176 1.14607 70.9176 1.14607 70.9176 1.14607ZM29.9574 5.44382C29.9574 5.53933 30.0495 5.53933 29.9574 5.44382V5.44382ZM71.4699 18.8146C71.3778 18.8146 71.3778 18.8146 71.4699 18.8146V18.8146ZM152.102 29.6067C152.194 29.6067 152.286 29.6067 152.378 29.7022C152.286 29.7022 152.194 29.7022 152.102 29.6067ZM54.4415 3.05618C54.5335 3.05618 54.6256 3.05618 54.7176 3.05618H54.6256C54.5335 3.05618 54.4415 3.05618 54.4415 3.05618ZM56.3744 2.86517C56.2824 2.76966 56.5585 2.86517 56.3744 2.86517V2.86517ZM41.7392 2.96067C41.6472 2.96067 41.5551 2.96067 41.5551 2.96067C41.6472 2.96067 41.7392 2.96067 41.7392 2.96067ZM13.1131 15.7584C13.0211 15.7584 13.0211 15.7584 12.929 15.7584C12.929 15.7584 12.929 15.7584 13.0211 15.7584C13.0211 15.7584 13.0211 15.7584 13.1131 15.7584ZM137.559 31.0393C137.466 31.0393 137.374 31.0393 137.282 31.0393H137.374C137.466 31.0393 137.559 30.9438 137.559 31.0393ZM135.626 31.1348C135.441 31.1348 135.718 31.3258 135.626 31.1348V31.1348ZM150.261 31.0393C150.353 31.0393 150.353 31.0393 150.445 31.0393C150.353 31.0393 150.353 31.1348 150.261 31.0393ZM178.979 18.2416C179.071 18.2416 179.071 18.2416 179.163 18.2416C179.163 18.2416 179.163 18.2416 179.071 18.2416C178.979 18.2416 178.979 18.2416 178.979 18.2416ZM181.188 8.40449C181.096 8.40449 181.096 8.40449 181.188 8.40449V8.40449ZM10.9961 15.4719C10.9961 15.3764 10.9961 15.3764 10.9961 15.4719V15.4719ZM10.812 25.5955C10.904 25.5955 10.904 25.691 10.812 25.5955C10.904 25.691 10.904 25.691 10.812 25.5955C10.904 25.691 10.812 25.691 10.812 25.5955ZM176.77 20.2472C176.862 20.2472 176.862 20.2472 176.77 20.2472C176.862 20.3427 176.862 20.3427 176.77 20.2472C176.862 20.3427 176.77 20.3427 176.77 20.2472ZM46.6176 2.19663C46.7097 2.10112 46.7097 2.10112 46.8017 2.10112C46.7097 2.19663 46.6176 2.19663 46.6176 2.19663ZM145.474 31.8034C145.382 31.8989 145.382 31.8989 145.29 31.8989C145.29 31.8034 145.382 31.8034 145.474 31.8034ZM176.954 13.2753H176.862C176.862 13.1798 176.862 13.1798 176.954 13.2753ZM160.018 1.6236C159.833 1.52809 159.649 1.6236 159.557 1.6236C159.649 1.6236 159.833 1.6236 160.018 1.6236ZM38.0574 2.10112C37.9654 2.19663 38.0574 2.19663 38.0574 2.10112C37.9654 2.10112 37.9654 2.19663 38.0574 2.10112ZM15.0461 20.8202H15.1381C15.2301 20.8202 15.1381 20.8202 15.0461 20.8202C15.1381 20.8202 15.1381 20.8202 15.0461 20.8202ZM31.9824 32.3764C32.1665 32.4719 32.3506 32.3764 32.4426 32.3764C32.3506 32.3764 32.2585 32.3764 31.9824 32.3764ZM39.6222 32.9494C39.5301 32.8539 39.4381 32.8539 39.254 32.8539C39.4381 32.8539 39.5301 32.9494 39.6222 32.9494ZM177.414 14.8034H177.506C177.506 14.8034 177.506 14.8034 177.414 14.8034ZM135.441 1.05056C135.441 0.955056 135.441 0.955056 135.441 1.05056C135.533 1.05056 135.626 1.05056 135.626 1.05056C135.533 1.05056 135.441 1.05056 135.441 1.05056ZM28.6688 6.68539C28.5767 6.68539 28.3926 6.68539 28.3006 6.68539C28.4847 6.68539 28.5767 6.68539 28.6688 6.68539ZM56.6506 33.0449C56.5585 33.0449 56.5585 33.0449 56.6506 33.0449V33.0449ZM106.355 0.859551C106.447 0.859551 106.447 0.859551 106.355 0.859551V0.859551ZM12.0086 14.0393C12.0086 14.1348 12.0086 14.1348 12.0086 14.0393V14.0393ZM122.831 32.5674C122.831 32.4719 122.831 32.4719 122.831 32.5674H122.923C122.923 32.5674 122.923 32.4719 122.831 32.5674ZM146.763 33.1404C146.855 33.1404 146.855 33.1404 146.763 33.1404C146.763 33.236 146.855 33.236 146.763 33.1404ZM187.447 16.1404V16.236C187.447 16.236 187.447 16.236 187.447 16.1404V16.236C187.355 16.1404 187.355 16.1404 187.447 16.1404C187.355 16.1404 187.355 16.1404 187.447 16.1404ZM185.33 3.05618C185.238 2.96067 185.238 2.96067 185.33 3.05618V3.05618ZM92.2722 1.05056C92.2722 0.955056 92.2722 0.955056 92.2722 0.859551C92.1801 0.859551 92.1801 0.955056 92.2722 1.05056ZM86.1051 0.859551C86.1972 0.859551 86.1972 0.859551 86.1051 0.859551V0.859551ZM68.6165 1.05056H68.5244H68.4324C68.4324 1.05056 68.5244 1.05056 68.6165 1.05056ZM67.5119 1.05056C67.604 0.955056 67.604 0.955056 67.696 0.955056C67.604 1.05056 67.5119 1.05056 67.5119 1.05056ZM37.6892 0.573034C37.5972 0.573034 37.5972 0.573034 37.5972 0.573034C37.6892 0.573034 37.6892 0.573034 37.6892 0.573034ZM4.64492 17.9551V17.8596C4.64492 17.8596 4.64492 17.8596 4.64492 17.9551V17.8596C4.64492 17.8596 4.73697 17.8596 4.64492 17.9551ZM6.66992 31.0393C6.76197 31.0393 6.76197 31.0393 6.66992 31.0393V31.0393ZM99.8199 33.236C99.9119 33.1404 99.8199 33.1404 99.8199 33.0449C99.8199 33.0449 99.8199 33.1404 99.8199 33.236ZM105.895 33.1404C105.895 33.236 105.895 33.236 105.895 33.1404V33.1404ZM123.66 33.0449C123.568 33.0449 123.568 33.0449 123.476 33.0449H123.568H123.66C123.936 33.0449 124.12 33.0449 124.396 33.0449C124.396 33.0449 124.488 33.0449 124.58 32.9494C124.58 32.9494 124.488 32.9494 124.488 33.0449H124.396C124.12 32.9494 123.936 32.9494 123.66 33.0449ZM154.311 33.427C154.403 33.427 154.403 33.427 154.403 33.427H154.311Z" fill="#FBB03B"/>
</svg>
