<svg width="478" height="286" viewBox="0 0 478 286" fill="none" xmlns="http://www.w3.org/2000/svg">
<path d="M97.6554 73.7581C97.6326 73.7695 97.5983 73.7924 97.564 73.8152C97.5754 73.7809 97.5983 73.7581 97.6097 73.7466C97.6211 73.7352 97.6211 73.7238 97.6326 73.7238C97.6326 73.7123 97.644 73.7123 97.644 73.7123C97.644 73.7009 97.644 73.7009 97.6554 73.6895C97.6669 73.6895 97.6669 73.7009 97.6669 73.7009L97.6783 73.7123C97.6898 73.7009 97.6897 73.7123 97.6897 73.7238C97.6897 73.7238 97.6783 73.7466 97.6554 73.7581Z" fill="#4C7CED"/>
<path d="M140.212 168.434C140.212 168.423 140.212 168.423 140.212 168.412C140.212 168.423 140.2 168.423 140.2 168.434C140.2 168.366 140.2 168.287 140.212 168.207C140.2 168.128 140.2 168.048 140.212 167.969H140.223C140.348 167.934 140.371 167.969 140.348 168.094C140.337 168.139 140.314 168.207 140.269 168.298C140.257 168.332 140.235 168.389 140.212 168.434Z" fill="#4C7CED"/>
<path d="M478 11.3492V274.651C478 280.916 472.904 286 466.624 286H62.7997C61.4687 284.706 60.4449 283.685 59.6827 282.868C57.4303 280.428 57.4303 279.758 58.1129 278.952C59.3073 277.533 60.7407 276.251 62.7541 276.217C64.1989 276.194 65.8597 276.728 66.7925 275.241C68.4989 272.506 62.5494 272.211 63.9713 269.056C64.9838 266.797 64.7676 265.197 63.3571 263.687C63.2206 263.529 63.0727 263.381 62.902 263.245C61.5825 262.019 59.4893 260.839 56.634 259.375C56.0766 259.102 55.4965 258.807 54.8822 258.512C54.3134 258.217 53.6991 257.922 53.0735 257.604C51.4126 256.776 49.8769 255.959 48.4436 255.187C38.797 249.91 34.224 245.892 29.5486 243.928C29.3893 243.86 29.2073 243.792 29.0367 243.736C27.9787 243.316 26.8981 243.009 25.7491 242.816C26.7615 240.592 23.6105 240.399 29.7192 241.534C29.8557 241.557 30.0036 241.602 30.1515 241.625C29.8102 242.669 32.6541 243.134 34.8724 243.282C34.8838 243.282 34.8951 243.282 34.8951 243.282C35.6459 243.327 36.3171 243.338 36.7835 243.327C39.7184 246.448 45.1446 246.596 50.2523 247.901C51.8563 248.321 53.4261 248.843 54.8822 249.603C55.4851 249.921 56.0766 250.284 56.634 250.693C57.1004 251.033 57.5441 251.43 57.9877 251.85C58.3518 252.225 59.3414 252.032 60.0354 251.998C60.8658 251.941 61.2981 251.385 60.6952 250.522C59.5007 248.82 58.056 248.752 56.634 248.809C56.2245 248.831 55.7922 248.854 55.3941 248.854C55.3827 248.854 55.3713 248.854 55.3713 248.854C55.2235 248.797 55.0642 248.741 54.8822 248.65C54.12 248.298 53.0052 247.64 51.9586 246.448C51.9245 246.335 51.879 246.198 51.8221 246.073C51.7084 245.699 51.3557 245.404 50.9803 245.109L50.969 245.097C50.7073 244.678 50.4684 244.224 50.2523 243.713C50.0589 243.259 49.8769 242.771 49.729 242.249C49.6835 242.09 49.5356 242.01 49.3764 242.056C49.2285 242.09 49.1261 242.249 49.183 242.408C49.183 242.43 49.1944 242.442 49.1944 242.464C49.001 242.226 48.7962 241.988 48.6028 241.749C47.9203 240.898 47.3401 240.013 47.4994 238.787C47.7838 236.438 46.0092 235.621 44.5758 234.577C42.915 233.351 41.9367 234.736 40.8446 235.689C40.1279 236.313 36.1578 235.984 33.0523 233.998C31.6531 233.113 30.4359 231.91 29.7647 230.298C26.2496 221.99 10.665 224.09 15.2721 230.639C23.5991 242.51 11.4954 235.042 1.10942 229.47C-0.483177 228.607 -0.18741 226.405 0.904654 225.963C1.97397 225.543 2.52 224.964 2.81577 224.34V224.317C3.64619 222.422 2.11047 220.027 5.73931 220.038C8.78799 220.061 5.50042 217.394 4.68137 216.134C2.55413 212.854 5.84169 208.292 10.0621 209.801C26.4658 215.635 25.8629 223.727 36.5332 224.453C36.5446 224.453 36.556 224.453 36.556 224.453C36.6697 224.465 36.8063 224.465 36.92 224.476C37.9097 224.533 38.8766 224.941 39.8322 225.486C40.8674 226.053 41.8912 226.734 42.9491 227.188C49.3764 229.98 48.0227 224.658 45.1787 223.681C45.2129 223.364 45.2356 223.08 45.247 222.842C45.2811 222.388 45.3039 222.059 45.3153 221.798C45.3949 220.81 45.5428 220.697 47.1126 217.201C48.0113 216.997 49.0237 216.906 50.1272 216.906H50.2523C54.9163 216.929 61.0592 218.688 65.4729 221.457C65.4843 221.457 65.4957 221.468 65.5071 221.48C66.5422 222.138 67.4751 222.842 68.2713 223.591C68.2713 223.591 69.2497 223.977 70.4782 224.476H70.4896C72.287 225.202 74.6417 226.156 75.2901 226.428C75.7565 226.632 76.1661 226.837 76.5301 227.064C79.7949 229.027 79.1237 231.762 78.6004 234.236C78.2478 235.961 77.952 237.562 79.1124 238.674C79.5105 239.048 80.0565 239.366 80.8528 239.627C80.9552 239.661 81.0576 239.707 81.1714 239.763C82.3089 240.263 83.2531 241.386 84.4362 241.693C87.61 242.487 89.3846 247.038 90.3174 243.997C90.7383 242.589 91.6256 241.103 91.4095 239.797C91.1137 237.857 89.2481 238.163 87.792 237.766H87.7806C87.7692 237.777 87.7692 237.777 87.7579 237.766C87.4962 237.709 87.2573 237.618 87.0298 237.471C83.4692 235.292 83.6285 233.374 84.9253 232.602C85.5169 232.261 86.8478 232.171 86.8478 231.978C86.8137 230.968 86.8137 229.663 86.2222 228.982C81.3647 223.375 79.0896 225.486 76.5301 224.022C75.8362 223.625 75.1195 222.966 74.3346 221.82C75.165 214.931 69.6364 218.518 65.2568 213.66C66.3375 209.03 68.6354 204.592 67.2817 199.61C67.0769 198.827 67.0997 198.112 67.3272 197.488C70.2052 197.045 73.0264 196.5 75.7565 195.899C75.7565 195.921 75.7565 195.899 75.7793 195.899C76.0296 195.989 76.2798 196.08 76.5301 196.182C78.828 197.102 81.433 198.691 84.2314 201.108C84.7547 201.562 84.9595 202.81 85.2893 203.9C85.733 205.409 86.4155 206.646 88.5542 205.307C89.8169 204.513 90.9203 204.229 92.0237 204.603C91.2957 204.206 90.5335 203.48 89.9761 202.651C92.1375 202.141 94.4809 201.675 96.8698 201.267C98.0756 201.051 99.2814 200.858 100.499 200.688H100.51C101.147 200.972 101.852 201.335 102.535 201.8C104.526 203.151 106.425 205.387 106.437 209.166V209.245C106.403 211.016 105.14 210.653 102.535 209.382V209.245H102.25C100.829 208.553 99.0425 207.622 96.8698 206.635C95.5502 206.045 94.0941 205.421 92.4901 204.819C93.1841 205.171 96.2214 207.214 96.7901 208.11C96.8129 208.156 96.847 208.201 96.8698 208.235V209.245H97.6206C99.1108 210.982 100.669 211.175 102.535 211.458C103.422 211.606 104.389 211.753 105.447 212.117C107.301 212.752 108.609 213.252 109.565 213.66C109.702 213.728 109.838 213.785 109.963 213.853C110.577 214.125 111.021 214.375 111.362 214.625C112.716 215.555 112.58 216.282 115.321 218.12C116.106 218.654 117.13 219.278 118.506 220.027C120.634 221.185 125.423 220.004 126.094 215.703L126.105 215.692V215.68C126.276 215.465 126.446 214.988 126.492 214.375C126.685 212.139 126.321 212.139 126.014 212.888C125.98 212.741 125.946 212.605 125.9 212.446C125.411 210.494 122.317 212.003 120.998 212.253C118.722 212.684 119.155 211.197 119.064 209.245C119.03 208.349 118.882 207.35 118.302 206.385C117.835 205.614 117.073 204.876 115.89 204.24C115.879 204.104 115.879 203.957 115.879 203.809C115.321 203.662 114.752 203.514 114.195 203.366C114.184 203.366 114.184 203.355 114.172 203.355V203.344H114.149C114.138 203.344 114.138 203.344 114.138 203.344V203.321C113.82 203.139 113.524 202.924 113.273 202.674C113.239 202.322 113.205 201.948 113.16 201.551C113.046 200.756 113.012 200.155 113 199.587C112.807 199.587 112.591 199.598 112.375 199.598C112.261 199.167 112.079 198.759 111.886 198.373C110.976 196.625 109.44 195.252 108.53 193.493C107.392 191.325 106.061 192.006 102.535 190.916C102.273 190.837 102 190.746 101.716 190.644C100.783 190.315 100.18 188.601 100.999 187.943C101.864 187.239 102.319 186.445 102.535 185.628C102.546 185.605 102.546 185.594 102.546 185.571C102.558 185.548 102.569 185.525 102.569 185.503C102.933 184.005 102.58 182.359 102.637 180.804C102.649 180.464 102.774 180.203 102.979 180.032C103.98 179.102 106.88 179.874 108.109 181.36C108.621 181.985 109.099 182.586 109.531 183.153L109.542 183.165C110.088 183.903 110.6 184.572 111.067 185.208C111.158 185.333 111.249 185.457 111.328 185.571C111.351 185.605 111.362 185.628 111.385 185.65C111.533 185.843 111.658 186.013 111.795 186.195C112.238 186.819 112.659 187.375 113.046 187.886C113.069 188.102 113.103 188.306 113.137 188.522V188.533C113.228 189.418 113.319 190.258 113.41 191.03C113.99 191.257 114.582 191.461 115.162 191.654C115.094 191.053 115.003 190.462 114.912 189.872C116.402 191.121 118.165 191.631 121.384 191.529C121.327 191.132 121.35 190.701 121.305 190.303C121.282 190.065 121.236 189.861 121.145 189.668C121.111 189.611 121.077 189.554 121.043 189.498C119.917 187.977 119.155 186.763 118.666 185.775C118.654 185.752 118.654 185.752 118.654 185.741C118.62 185.684 118.597 185.628 118.575 185.571C118.108 184.64 117.881 183.937 117.755 183.346V183.335C117.869 183.312 117.972 183.278 118.074 183.256C117.949 183.108 117.801 182.938 117.676 182.779C117.517 181.145 118.165 180.793 115.696 179.408C115.219 179.136 114.741 178.875 114.297 178.625H114.286C114.195 178.5 114.093 178.375 113.99 178.239C113.774 178.194 113.524 178.137 113.285 178.092C112.784 177.808 112.307 177.558 111.863 177.331C111.817 177.263 111.783 177.206 111.726 177.15C111.715 176.911 111.67 176.65 111.601 176.344C111.522 175.981 111.146 175.481 111.032 176.038C111.021 176.083 111.01 176.128 111.01 176.174V176.185C110.987 176.401 111.01 176.662 111.055 176.9C103.934 173.189 103.24 173.439 103.365 171.044C103.388 170.533 103.468 170.125 103.604 169.784C103.911 169.046 104.503 168.627 105.367 168.309C105.618 168.524 105.857 168.74 106.107 168.967C105.936 168.717 105.788 168.468 105.629 168.218C105.948 168.104 106.312 168.014 106.71 167.923C106.755 168.002 106.801 168.082 106.869 168.161C107.017 168.388 107.131 168.331 107.005 167.855C107.347 167.775 107.711 167.696 108.109 167.616C108.462 167.537 108.848 167.446 109.246 167.355C109.838 167.401 110.43 167.469 110.987 167.571C115.037 168.127 118.324 169.115 115.162 165.04C116.39 161.862 118.791 162.838 121.066 163.814C122.112 164.257 123.136 164.7 124.023 164.745C124.24 164.756 124.433 164.768 124.638 164.813C130.758 165.517 129.302 171.838 133.977 169.943C135.001 169.534 135.513 168.014 134.967 167.367C132.157 164.03 127.789 163.678 124.262 161.726C123.773 160.5 123.489 160.228 123.659 159.4C123.819 158.582 124.41 157.243 125.639 154.009C125.707 153.816 125.787 153.612 125.866 153.396C127.743 153.407 129.029 153.646 129.939 154.009C133.499 155.405 131.338 158.696 135.775 158.412C144.102 157.856 143.783 157.55 146.627 159.4C147.389 159.888 148.379 160.546 149.835 161.374C151.973 162.623 151.723 165.063 149.391 166.618C149.232 166.72 149.061 166.811 148.936 166.879C148.868 166.901 148.8 166.913 148.72 166.935C147.275 167.242 147.867 163.871 146.206 163.304C141.895 161.851 140.313 164.813 137.595 168.127C138.266 168.672 138.937 169.103 139.608 169.466C139.654 169.5 139.699 169.534 139.745 169.557C139.904 169.648 140.086 169.739 140.245 169.818C141.895 170.681 143.533 171.203 145.159 171.963C147.184 172.894 149.209 174.188 151.234 176.821C155.375 182.177 164.919 179.59 157.832 172.848C156.763 171.838 155.614 170.908 154.556 169.875C154.169 169.489 154.044 168.865 154.124 168.207C154.226 167.265 154.692 166.3 155.409 166.016C156.376 165.63 157.115 165.381 157.707 165.233C159.823 164.688 160.05 165.369 161.893 165.233C164.544 165.029 162.53 161.987 158.264 159.4C156.592 158.39 154.579 157.436 152.36 156.755C151.894 156.596 151.405 156.472 150.927 156.358C150.074 156.142 149.198 155.972 148.299 155.859C147.56 155.076 146.763 154.451 145.922 154.009C144.215 153.067 142.304 152.817 140.166 153.271C139.517 152.318 138.8 151.557 137.925 151.24C137.322 151.001 136.639 150.978 135.866 151.24H134.66C133.761 150.615 132.771 150.298 131.6 150.468C131.566 150.422 131.531 150.388 131.497 150.343C130.473 149.197 129.734 147.721 128.107 147.29C127.959 147.245 127.789 147.211 127.618 147.176C125.559 145.678 123.512 144.192 121.464 142.694C119.007 134.034 117.391 145.122 109.633 136.769C109.622 136.111 109.622 135.498 109.645 134.942C109.588 135.498 109.531 136.054 109.463 136.576C109.03 136.134 108.598 135.612 108.154 135.044C108.678 134.443 108.894 134.023 108.939 133.716C109.121 132.559 107.017 133.035 111.192 131.458C111.92 131.185 112.853 130.845 114.024 130.414C114.32 130.845 114.57 131.185 114.786 131.458C116.117 133.103 116.447 132.457 118.813 133.716H121.248C120.599 132.786 120.417 132.037 120.531 131.458C120.816 129.755 123.523 129.381 124.376 129.426C128.198 129.676 129.882 130.811 131.156 130.414C131.804 130.198 132.35 129.585 133.01 128.235C133.101 128.042 133.204 127.872 133.329 127.735C133.716 127.281 134.284 127.122 135.308 127.418C136.082 127.633 137.106 128.11 138.505 128.916C139.574 129.506 140.848 130.3 142.395 131.31C142.827 131.583 143.044 132.207 143.294 132.808C143.419 133.138 143.544 133.467 143.726 133.716H147.264C147.787 133.41 148.379 133.047 149.027 132.638C148.515 132.32 147.981 132.014 147.446 131.753C147.059 131.549 146.695 131.333 146.331 131.072C145.364 130.391 144.477 129.551 143.476 128.916C143.305 128.802 143.123 128.7 142.941 128.598C141.087 127.576 141.428 126.703 144.045 119.621C144.488 118.406 145 117.01 145.58 115.41C146.638 115.546 148.276 116.182 148.663 115.728C153.111 110.689 159.516 111.279 163.599 106.739C164.908 105.298 166.17 105.037 170.209 107.488C170.925 107.92 171.733 108.442 172.632 109.055C172.984 109.293 173.348 109.543 173.735 109.815C174.952 110.655 176.329 111.642 177.899 112.811C178.206 113.038 178.445 113.265 178.638 113.515C178.786 113.674 178.9 113.855 178.991 114.037C180.253 116.375 178.172 119.178 181.004 118.577C182.551 118.247 184.064 117.68 185.6 117.317C187.249 116.931 188.933 116.783 190.719 117.453C191.436 117.714 191.936 117.317 192.061 116.579V116.568C192.095 116.454 192.107 116.341 192.107 116.216C192.243 112.947 189.081 111.438 187.34 109.111C186.851 108.464 186.453 107.738 186.089 107.012L186.078 106.989C185.918 106.66 185.759 106.342 185.6 106.013C184.849 104.413 184.076 102.812 182.631 101.621C180.219 99.612 178.558 96.8882 175.942 95.0156C175.282 94.5389 174.566 94.1076 173.735 93.7785C173.678 93.7444 173.621 93.7217 173.565 93.699C173.371 93.6309 173.212 93.5515 173.053 93.4721L171.335 91.3952C171.289 91.4632 171.233 91.5313 171.187 91.5994C170.857 90.839 170.8 89.9879 170.959 89.1367C171.028 88.7735 171.13 88.4103 171.278 88.0585C171.744 86.8101 172.654 85.6525 173.735 84.9148C175.737 83.5302 178.354 83.5869 180.037 87.1392C180.185 87.457 180.344 87.7634 180.526 88.0585C180.72 88.3763 180.925 88.6827 181.141 88.9778C181.254 89.148 181.368 89.3069 181.493 89.4771C182.767 91.1682 184.315 92.6436 185.6 94.3233C186.419 95.3901 187.147 96.5477 187.625 97.8755C188.342 99.8276 191.026 98.9991 192.505 100.009C194.336 101.246 196.213 102.324 198.011 103.176C198.011 103.176 198.011 103.176 198.022 103.176C198.216 103.289 198.443 103.391 198.648 103.482C198.659 103.482 198.659 103.482 198.659 103.482C205.496 106.626 210.581 106.444 204.961 99.9865C204.87 99.873 204.779 99.7482 204.654 99.6347C204.029 98.9197 203.255 98.1252 202.368 97.274C200.65 95.6284 199.603 93.892 199.854 91.4406C199.865 91.3271 199.854 91.2136 199.808 91.0887C199.569 90.3397 198.466 89.2615 196.839 88.0585C196.452 87.7521 196.02 87.4456 195.576 87.1392C193.779 85.9248 191.595 84.6197 189.297 83.3599C189.126 83.2805 188.967 83.1783 188.797 83.0875C187.739 82.5201 186.658 81.9753 185.6 81.4646C184.644 80.9879 183.7 80.5453 182.79 80.1367C181.072 79.365 179.457 78.7181 178.081 78.2641C177.5 78.0712 176.954 77.9237 176.477 77.7988C175.339 77.5378 174.361 76.6752 173.36 75.9375C173.132 75.7673 172.916 75.6198 172.689 75.4722C171.426 74.6551 170.88 73.6336 170.937 72.4193C170.937 72.1129 170.994 71.7951 171.096 71.4433V71.4319C171.13 71.3865 171.164 71.3638 171.187 71.3298C171.164 71.3184 171.153 71.3071 171.13 71.3071C171.176 71.1368 171.244 70.9325 171.312 70.751C172.302 68.1974 170.448 66.9036 164.908 64.4294C163.998 64.0322 162.962 63.5783 161.825 63.0902C161.245 62.8292 160.687 62.6249 160.175 62.4887C155.978 61.2403 154.579 63.3967 153.009 64.0209C152.713 64.1344 152.417 64.1911 152.087 64.1684C151.609 64.1457 151.075 63.9301 150.438 63.4421C149.391 62.6249 148.606 62.3298 147.935 61.8986L147.912 61.8872C147.207 61.4673 146.616 60.9225 145.956 59.572V59.5606C145.376 58.3803 144.727 56.5758 143.908 53.6704C143.817 53.3867 143.738 53.0802 143.647 52.7625C143.51 52.2858 143.601 51.7183 143.863 51.1395C144.522 49.5733 146.377 47.9504 148.231 47.9163C149.027 47.8823 149.835 48.1547 150.54 48.8583C151.416 49.7209 152.292 50.4245 153.134 50.9693C153.225 51.026 153.316 51.0941 153.407 51.1395C155.238 52.3085 157.002 52.8306 158.708 53.2278C158.856 53.2505 159.015 53.2845 159.163 53.3186C159.766 53.4434 160.357 53.5569 160.949 53.6704C162.098 53.8974 163.224 54.1357 164.35 54.5329C165.84 55.055 167.342 55.8381 168.844 57.2567C169.492 57.8356 170.14 58.5392 170.8 59.3904C173.417 62.7498 176.522 61.6489 179.457 61.3425C179.639 61.3198 179.833 61.3084 180.015 61.2971C182.051 61.1609 183.973 61.5694 185.589 64.3046C185.589 64.316 185.6 64.316 185.6 64.3273C185.725 64.5429 185.873 64.7245 186.021 64.8721C187.09 65.9502 188.808 65.7119 190.366 64.9969C191.584 64.4635 191.652 62.2617 191.003 60.0033C190.366 57.8129 189.058 55.5544 187.443 54.5897C187.011 54.3286 186.601 54.0222 186.237 53.6704H185.6V52.9894C185.429 52.7965 185.281 52.5922 185.134 52.3879C185.054 52.2971 184.986 52.2063 184.917 52.1042C184.713 51.7978 184.531 51.4687 184.36 51.1395C182.62 47.7688 182.62 43.6263 183.586 43.3767C184.349 43.161 184.417 43.2064 185.6 45.0223C185.941 45.533 186.362 46.1799 186.92 47.0084C186.976 47.0992 187.033 47.1787 187.09 47.2694C187.602 48.0071 188.182 48.8697 188.91 49.8798C189.126 50.1748 189.343 50.4359 189.559 50.6515C191.686 52.7284 194.268 51.3892 197.067 50.8898C197.328 50.8444 197.544 50.8217 197.761 50.8217C199.33 50.8331 199.456 52.2177 199.194 53.6704C199.023 54.6464 198.682 55.6565 198.511 56.2921C198.466 56.4623 198.432 56.6212 198.409 56.7233C198.079 58.8456 199.74 60.4686 201.708 61.3084C203.448 62.0575 205.439 62.2163 206.531 61.5921C207.43 61.0814 208.272 60.7523 209.057 60.548C212.765 59.5833 215.495 61.5013 219.875 61.3765C220.091 61.3765 220.318 61.3652 220.557 61.3538C221.354 61.2971 220.58 59.1861 219.966 58.8229C218.851 58.1533 217.816 57.5291 216.872 56.9617C206.008 50.3905 206.065 49.8911 203.3 48.7902C202.868 48.6087 202.345 48.4157 201.708 48.1774C201.435 48.0752 201.139 47.9731 200.809 47.8483C200.138 47.5986 199.603 47.3148 199.183 47.0084C195.463 44.3186 200.104 39.5974 194.063 38.0085C192.3 37.5432 190.81 37.214 189.559 36.9871C182.347 35.6706 182.665 37.5886 180.128 35.1712C177.057 32.2885 175.578 31.233 174.657 30.972C173.246 30.5748 173.155 32.0502 170.698 31.6075C167.877 31.0855 165.749 30.6996 164.111 30.3137H164.1C163.907 30.2683 163.713 30.2229 163.531 30.1775C163.52 30.1775 163.52 30.1662 163.508 30.1662H163.497C162.883 30.0186 162.359 29.8598 161.893 29.7009C161.802 29.6668 161.711 29.6328 161.62 29.5987C161.586 29.5874 161.563 29.576 161.529 29.5647C161.393 29.5079 161.267 29.4625 161.142 29.4058C161.085 29.3831 161.029 29.3604 160.983 29.3263C160.915 29.3036 160.847 29.2696 160.79 29.2356H160.778C160.676 29.1788 160.596 29.1221 160.494 29.0653C160.482 29.0653 160.483 29.0653 160.471 29.054H160.46C157.968 27.5672 158.844 25.1271 157.149 18.3403C156.979 17.6026 155.477 16.5925 154.613 17.5345C150.904 21.5521 150.916 21.5521 146.934 18.9532C143.92 16.9898 142.998 15.7867 143.1 15.0377C143.26 13.6871 146.616 13.6758 147.344 13.131C147.89 12.7338 148.094 12.1323 148.038 11.3946C147.947 9.99865 146.923 8.10333 145.421 6.18532C145.364 6.11722 145.307 6.04913 145.262 5.98103C143.51 3.77929 141.155 1.55484 138.914 0H466.624C472.904 0 478 5.08444 478 11.3492Z" fill="#4C7CED"/>
<path d="M97.6207 209.245H96.8706V208.235C97.1206 208.621 97.3593 208.961 97.6207 209.245Z" fill="#4C7CED"/>
<path d="M102.548 185.571C102.548 185.594 102.548 185.605 102.536 185.628V185.571H102.548Z" fill="#4C7CED"/>
<path d="M102.536 209.245V209.382C102.445 209.336 102.343 209.291 102.252 209.245H102.536Z" fill="#4C7CED"/>
<path d="M114.173 203.344C114.161 203.356 114.161 203.344 114.161 203.344H114.173Z" fill="#4C7CED"/>
<path d="M135.867 151.239C135.617 151.33 135.378 151.432 135.105 151.569C134.957 151.455 134.82 151.353 134.673 151.239H135.867Z" fill="#4C7CED"/>
<path d="M171.188 71.33C171.166 71.3643 171.131 71.3872 171.097 71.4329C171.108 71.3872 171.108 71.3529 171.131 71.3071C171.154 71.3071 171.166 71.3186 171.188 71.33Z" fill="#4C7CED"/>
<path d="M97.6783 73.7123C97.6898 73.7009 97.6897 73.7123 97.6897 73.7238C97.6897 73.7238 97.6783 73.7466 97.6554 73.7581C97.6326 73.7695 97.5983 73.7924 97.564 73.8152C97.5754 73.7809 97.5983 73.7581 97.6097 73.7466C97.6211 73.7352 97.6211 73.7238 97.6326 73.7238C97.6326 73.7123 97.644 73.7123 97.644 73.7123C97.644 73.7009 97.644 73.7009 97.6554 73.6895C97.6669 73.6895 97.6669 73.7009 97.6669 73.7009L97.6783 73.7123Z" fill="#4C7CED"/>
<path d="M97.6897 73.724C97.6897 73.724 97.6783 73.7469 97.6554 73.7583C97.6326 73.7698 97.5983 73.7926 97.564 73.8155C97.5754 73.7812 97.5983 73.7583 97.6211 73.7469C97.6211 73.7355 97.6211 73.7355 97.6326 73.724C97.6326 73.7126 97.644 73.7126 97.644 73.7126C97.644 73.7012 97.6554 73.7012 97.6669 73.7012L97.6783 73.7126C97.6898 73.7012 97.6897 73.7126 97.6897 73.724Z" fill="#4C7CED"/>
<path d="M97.6897 73.7238C97.6897 73.7238 97.6783 73.7466 97.6554 73.7581C97.6326 73.7695 97.5983 73.7924 97.564 73.8152C97.5754 73.7809 97.5983 73.7581 97.6097 73.7466C97.6211 73.7352 97.6211 73.7238 97.6326 73.7238C97.6326 73.7123 97.644 73.7123 97.644 73.7123C97.644 73.7009 97.644 73.7009 97.6554 73.6895C97.6669 73.6895 97.6669 73.7009 97.6669 73.7009L97.6783 73.7123C97.6898 73.7009 97.6897 73.7123 97.6897 73.7238Z" fill="#4C7CED"/>
<path d="M103.945 54.1812C103.536 54.2152 103.399 54.2152 103.945 54.1812Z" fill="#4C7CED"/>
<path d="M97.6207 209.245H96.8706V208.235C97.1206 208.621 97.3593 208.961 97.6207 209.245Z" fill="#4C7CED"/>
<path d="M102.548 185.571C102.548 185.594 102.548 185.605 102.536 185.628V185.571H102.548Z" fill="#4C7CED"/>
<path d="M102.536 209.245V209.382C102.445 209.336 102.343 209.291 102.252 209.245H102.536Z" fill="#4C7CED"/>
<path d="M114.173 203.344C114.161 203.356 114.161 203.344 114.161 203.344H114.173Z" fill="#4C7CED"/>
<path d="M97.6207 209.245H96.8706V208.235C97.1206 208.621 97.3593 208.961 97.6207 209.245Z" fill="#4C7CED"/>
<path d="M140.212 168.434C140.212 168.423 140.212 168.423 140.212 168.412C140.212 168.423 140.2 168.423 140.2 168.434C140.2 168.366 140.2 168.287 140.212 168.207C140.2 168.128 140.2 168.048 140.212 167.969H140.223C140.348 167.934 140.371 167.969 140.348 168.094C140.337 168.139 140.314 168.207 140.269 168.298C140.257 168.332 140.235 168.389 140.212 168.434Z" fill="#4C7CED"/>
<path d="M102.548 185.571C102.548 185.594 102.548 185.605 102.536 185.628V185.571H102.548Z" fill="#4C7CED"/>
<path d="M114.173 203.344C114.161 203.356 114.161 203.344 114.161 203.344H114.173Z" fill="#4C7CED"/>
<path d="M135.867 151.239C135.617 151.33 135.378 151.432 135.105 151.569C134.957 151.455 134.82 151.353 134.673 151.239H135.867Z" fill="#4C7CED"/>
<path d="M135.867 151.239C135.617 151.33 135.378 151.432 135.105 151.569C134.957 151.455 134.82 151.353 134.673 151.239H135.867Z" fill="#4C7CED"/>
<path d="M140.212 168.434C140.212 168.423 140.212 168.423 140.212 168.412C140.212 168.423 140.2 168.423 140.2 168.434C140.2 168.366 140.2 168.287 140.212 168.207C140.2 168.128 140.2 168.048 140.212 167.969H140.223C140.348 167.934 140.371 167.969 140.348 168.094C140.337 168.139 140.314 168.207 140.269 168.298C140.257 168.332 140.235 168.389 140.212 168.434Z" fill="#4C7CED"/>
<path d="M102.548 185.571C102.548 185.594 102.548 185.605 102.536 185.628V185.571H102.548Z" fill="#4C7CED"/>
<path d="M114.173 203.344C114.161 203.356 114.161 203.344 114.161 203.344H114.173Z" fill="#4C7CED"/>
<path d="M135.867 151.239C135.617 151.33 135.378 151.432 135.105 151.569C134.957 151.455 134.82 151.353 134.673 151.239H135.867Z" fill="#4C7CED"/>
<path d="M140.348 168.094C140.336 168.139 140.314 168.207 140.268 168.298C140.257 168.332 140.234 168.389 140.211 168.434C140.211 168.423 140.211 168.423 140.211 168.412V168.207C140.211 168.128 140.211 168.048 140.223 167.969C140.348 167.934 140.371 167.969 140.348 168.094Z" fill="#4C7CED"/>
<path d="M135.867 151.239C135.617 151.33 135.378 151.432 135.105 151.569C134.957 151.455 134.82 151.353 134.673 151.239H135.867Z" fill="#4C7CED"/>
<path d="M135.889 96.1279C135.844 96.3779 135.605 96.4461 135.889 96.1279Z" fill="#4C7CED"/>
<path d="M171.188 71.33C171.166 71.3643 171.131 71.3872 171.097 71.4329C171.108 71.3872 171.108 71.3529 171.131 71.3071C171.154 71.3071 171.166 71.3186 171.188 71.33Z" fill="#4C7CED"/>
<path d="M171.188 71.33C171.166 71.3643 171.131 71.3872 171.097 71.4329C171.108 71.3872 171.108 71.3529 171.131 71.3071C171.154 71.3071 171.166 71.3186 171.188 71.33Z" fill="#4C7CED"/>
<path d="M171.188 71.33C171.166 71.3643 171.131 71.3872 171.097 71.4329C171.108 71.3872 171.108 71.3529 171.131 71.3071C171.154 71.3071 171.166 71.3186 171.188 71.33Z" fill="#4C7CED"/>
<path d="M171.188 71.33C171.166 71.3643 171.131 71.3872 171.097 71.4329C171.108 71.3872 171.108 71.3529 171.131 71.3071C171.154 71.3071 171.166 71.3186 171.188 71.33Z" fill="#4C7CED"/>
<path d="M97.6783 73.7123C97.6783 73.7238 97.6669 73.7352 97.6554 73.7581C97.6326 73.7695 97.5983 73.7924 97.564 73.8152C97.5754 73.7809 97.5983 73.7581 97.6097 73.7466C97.6211 73.7352 97.6211 73.7238 97.6326 73.7238C97.6326 73.7123 97.644 73.7123 97.644 73.7123C97.644 73.7009 97.644 73.7009 97.6554 73.6895C97.6669 73.6895 97.6669 73.7009 97.6669 73.7009L97.6783 73.7123Z" fill="#4C7CED"/>
<path d="M103.934 54.1919C103.536 54.2146 103.4 54.2146 103.934 54.1919Z" fill="#4C7CED"/>
<path d="M135.867 151.239C135.617 151.33 135.378 151.432 135.105 151.569C134.957 151.455 134.82 151.353 134.673 151.239H135.867Z" fill="#4C7CED"/>
<path d="M140.348 168.094C140.337 168.139 140.303 168.207 140.269 168.298C140.257 168.332 140.235 168.366 140.212 168.412C140.212 168.423 140.2 168.423 140.2 168.434C140.2 168.366 140.2 168.287 140.212 168.207C140.212 168.128 140.212 168.048 140.223 167.969C140.348 167.934 140.371 167.969 140.348 168.094Z" fill="#4C7CED"/>
<path d="M135.878 96.1279C135.833 96.3779 135.594 96.4461 135.878 96.1279Z" fill="#4C7CED"/>
<path d="M171.188 71.33C171.166 71.3643 171.131 71.3872 171.097 71.4329C171.108 71.3872 171.108 71.3529 171.131 71.3071C171.154 71.3071 171.166 71.3186 171.188 71.33Z" fill="#4C7CED"/>
<path d="M97.6557 73.6895C97.6443 73.7008 97.6443 73.7008 97.6443 73.7121C97.6443 73.7008 97.6557 73.7008 97.667 73.7008C97.667 73.7008 97.667 73.6895 97.6557 73.6895ZM114.162 203.343C114.162 203.343 114.162 203.354 114.173 203.354V203.343H114.162ZM102.536 185.57V185.627C102.547 185.604 102.547 185.593 102.547 185.57H102.536ZM140.212 168.41C140.212 168.421 140.212 168.421 140.212 168.433C140.235 168.387 140.258 168.33 140.269 168.296C140.258 168.33 140.235 168.365 140.212 168.41Z" fill="#4C7CED"/>
<rect x="458" width="20" height="12" fill="#4C7CED"/>
<rect x="458" y="274" width="20" height="12" fill="#4C7CED"/>
</svg>
