<svg width="252" height="245" viewBox="0 0 252 245" fill="none" xmlns="http://www.w3.org/2000/svg">
<g opacity="0.05">
<path d="M118.052 197.05C122.373 197.176 126.35 197.719 130.364 196.815C131.683 196.525 133.166 196.544 134.504 196.779C137.632 197.321 140.651 196.887 143.688 196.309C146.725 195.748 149.781 195.911 152.836 196.29C154.246 196.471 155.602 196.58 157.067 196.489C160.773 196.272 164.497 196.417 168.222 196.869C171.169 197.231 174.206 196.797 177.207 196.706C178.22 196.67 177.967 195.73 178.165 195.206C179.883 190.65 183.011 187.649 187.766 186.528C194.6 184.919 201.126 188.354 203.567 194.916C204.001 196.055 204.435 196.489 205.7 196.417C207.743 196.309 209.786 196.164 211.829 196.073C214.921 195.947 218.03 196.309 221.104 196.073C223.545 195.893 225.913 196.688 228.336 196.327C228.932 196.236 229.475 196.453 229.71 196.977C230.053 197.719 229.276 197.791 228.896 198.098C227.215 199.418 225.425 200.648 223.888 202.13C222.514 203.45 220.869 204.227 219.296 205.204C213.42 208.874 207.418 212.363 201.795 216.431C200.24 217.552 198.667 218.582 196.389 219.161C198.577 219.812 200.295 219.631 202.084 219.595C205.845 219.504 208.701 217.353 212.01 216.25C215.264 215.183 218.663 214.478 222.189 215.111C225.443 215.69 228.498 216.991 231.771 217.407C232.837 217.534 233.705 218.781 234.935 217.968C235.007 217.913 235.314 218.076 235.35 218.166C236.037 220.481 237.936 220.191 239.671 220.173C240.377 220.155 241.082 219.92 241.805 219.848C242.239 219.794 242.835 219.522 243.07 220.155C243.305 220.788 242.835 221.168 242.347 221.439C241.552 221.909 240.684 222.108 239.744 221.963C237.14 221.583 234.7 220.661 232.205 219.866C229.33 218.944 226.437 218.094 223.545 217.172C222.695 216.901 221.899 216.973 221.05 217.082C220.345 217.172 219.531 217.389 218.916 217.154C216.132 216.123 213.908 217.335 211.703 218.727C210.835 219.287 210.166 220.155 208.828 219.667C208.268 219.468 207.382 220.083 206.659 220.372C203.368 221.728 200.023 221.909 196.552 221.077C194.383 220.553 192.647 219.486 190.749 218.347C185.433 215.147 179.847 212.652 173.411 216.069C170.446 217.642 167.209 218.89 163.901 219.631C160.249 220.463 156.687 219.902 153.505 217.823C149.69 215.328 145.659 215.563 141.609 216.919C137.704 218.221 134.287 220.625 130.436 222.126C129.062 222.668 127.815 222.632 126.459 222.759C123.222 223.084 120.529 222.017 117.871 220.318C114.165 217.949 110.133 216.467 105.667 216.087C103.914 215.943 102.54 216.72 101.003 217.082C97.5316 217.931 94.3135 219.522 90.7519 220.264C86.449 221.168 84.7133 221.674 82.3087 220.86C79.6872 219.974 77.0115 219.179 74.7697 217.317C71.7504 214.822 67.1944 215.473 64.2475 218.076C60.4689 221.421 55.8587 222.65 50.8146 222.289C48.2654 222.108 46.1681 221.077 43.8901 219.848C39.2076 217.299 34.272 214.894 28.577 216.178C26.7329 216.594 25.1419 217.516 23.7317 218.763C20.6582 221.457 16.8254 222.469 12.9926 223.446C10.3349 224.133 7.74961 223.807 5.2185 222.885C4.67612 222.686 3.71783 222.56 4.11558 221.602C4.56756 220.499 5.14618 221.475 5.67048 221.638C7.80385 222.289 10.0818 222.397 12.0886 221.855C14.7101 221.15 17.4401 220.535 19.8265 219.088C20.2604 218.817 21.0198 218.763 20.4413 218.004C17.9282 214.659 17.3677 210.392 15.2886 206.813C13.788 204.245 13.2276 201.172 11.6005 198.623C11.0219 197.737 11.3293 197.14 11.8536 196.363C12.4321 195.531 13.0287 195.567 13.8604 195.748C17.7474 196.58 21.6526 195.857 25.5397 195.911C26.534 195.929 26.1181 195.206 26.1543 194.754C26.4978 190.378 25.5034 186.238 24.2198 182.098C23.7317 180.507 23.2436 178.717 24.2018 176.909C24.7623 175.843 23.6233 174.704 23.7498 173.42C23.8402 172.444 22.9904 171.486 21.7791 171.052C20.2424 170.491 19.917 168.954 19.6458 167.562C18.8503 163.621 19.9712 161.596 24.1475 158.993C26.8413 157.311 28.7035 157.673 30.9273 160.204C31.3612 160.692 31.9397 161.054 32.4098 161.524C32.681 161.795 33.2053 162.102 32.7895 162.554C31.5239 163.946 32.2832 165.176 33.2776 166.062C34.2177 166.893 34.3443 167.562 33.6754 168.502C33.1872 169.171 33.2415 169.822 33.5488 170.527C34.3805 172.462 34.1815 172.842 32.1567 173.366C31.8674 173.438 31.5782 173.474 31.2889 173.529C31.4697 174.035 31.777 174.469 31.7409 174.903C31.6866 175.77 32.012 175.752 32.7352 175.716C34.8324 175.608 36.9658 175.535 38.5929 177.307C38.7737 177.506 39.2799 177.379 39.6415 177.416C41.0698 177.578 42.5342 177.56 43.872 178.139C45.0653 178.663 45.662 178.247 45.9693 177.108C47.0541 173.203 48.0846 169.28 49.2236 165.393C50.7603 160.186 52.1886 154.907 54.0869 149.827C55.1898 146.88 55.6779 143.553 57.4136 141.058C60.921 136.032 61.6621 130.03 64.2294 124.714C66.7967 119.399 69.4724 114.12 72.3832 108.967C72.9979 107.864 73.6307 106.743 73.9923 105.55C74.7516 103.109 76.8488 101.464 77.7889 99.1863C80.5189 92.5331 84.858 86.7838 88.2388 80.4742C91.023 75.2673 94.9463 70.6932 97.857 65.5406C100.352 61.1293 103.498 57.2241 106.3 53.0478C107.041 51.9449 108.325 51.2037 109.374 50.2997C109.663 50.0466 109.934 49.9381 110.296 50.2455C112.465 52.0353 115.502 52.1619 117.582 54.2229C120.474 57.0976 124 59.2671 127.037 61.9247C131.774 66.0468 136.059 70.7294 140.163 75.5566C142.658 78.4854 144.773 81.6855 147.467 84.4878C149.853 86.9646 151.842 89.8935 153.722 92.8043C156.091 96.4924 158.911 99.8733 161.207 103.634C162.961 106.508 164.479 109.51 165.872 112.547C167.119 115.259 168.529 117.898 169.849 120.574C173.085 127.173 176.159 133.844 179.268 140.498C181.926 146.193 184.132 152.05 185.65 158.161C185.903 159.155 186.138 160.023 187.404 160.529C189.031 161.18 188.543 163.079 186.373 163.983C182.74 165.483 179.16 167.147 175.399 168.394C169.885 170.22 164.714 172.805 159.58 175.481C154.879 177.94 150.396 180.887 145.189 182.315C144.357 182.55 143.525 183.02 142.838 183.563C139.566 186.166 135.607 187.413 131.937 189.221C130.581 189.89 129.478 190.885 128.122 191.554C124.849 193.325 121.613 195.151 118.052 197.05ZM152.565 102.224C151.697 102.513 151.733 101.989 151.733 101.374C151.788 99.3309 151.86 97.306 151.806 95.263C151.788 94.124 151.788 92.9308 150.703 91.6653C151.354 96.6371 150.269 101.175 150.106 105.785C150.992 104.592 152.402 103.797 152.511 102.169C153.144 102.296 153.306 101.717 153.397 101.392C154.12 99.0597 154.011 96.7817 152.764 94.5941C152.963 97.1433 152.529 99.6744 152.565 102.224ZM65.3865 146.428C64.3198 146.355 64.0306 147.097 63.8498 147.91C63.5063 149.537 63.1627 151.182 62.8734 152.828C62.4215 155.431 62.0238 158.053 61.5899 160.656C62.6927 159.427 63.8859 158.161 64.1028 156.733C64.6452 153.316 65.3504 149.881 65.3323 146.391C65.3685 146.319 65.4226 146.247 65.4588 146.174C65.4045 146.174 65.3685 146.193 65.3142 146.193C65.3323 146.283 65.3503 146.355 65.3865 146.428ZM50.8868 180.851C51.4654 178.88 52.1886 176.946 52.6044 174.939C53.7253 169.388 54.9005 163.838 55.3706 158.161C55.4067 157.836 55.7321 157.438 55.2259 157.293C54.792 157.167 54.5389 157.402 54.34 157.89C53.3638 160.258 52.4237 162.591 52.2248 165.23C51.8271 170.365 51.1762 175.481 50.6338 180.598C50.453 181.013 50.254 181.429 50.6518 181.899C51.0676 181.61 50.8326 181.194 50.8868 180.851ZM23.9487 170.726C24.0391 170.979 24.2018 171.088 24.4188 170.871C24.4368 170.853 24.256 170.636 24.1656 170.527C23.8583 169.822 23.3882 169.099 24.1113 168.376C24.8526 167.635 25.6481 168.231 26.6063 168.376C25.2865 165.23 27.4379 163.422 28.9566 161.271C28.143 160.801 26.6425 159.915 26.1905 160.638C25.3588 161.976 24.2017 161.65 23.1893 162.03C22.5565 162.265 22.0864 162.645 21.7429 163.278C20.4955 165.664 21.5803 169.37 23.9487 170.726ZM29.2459 173.962C28.5227 174.487 28.2696 174.197 28.3419 173.438C28.4143 172.516 29.1735 172.263 29.8786 172.191C30.8007 172.082 31.7589 172.173 32.9703 172.173C31.9759 170.564 31.5239 169.189 32.7714 167.834C33.0788 167.49 32.7533 167.273 32.5545 167.128C31.6686 166.423 31.2708 165.429 30.9092 164.417C30.7645 164.037 30.6199 163.621 30.0233 163.784C29.2459 164.001 27.2029 166.875 27.3837 167.725C27.6549 169.009 27.1487 169.37 25.9736 169.189C25.612 169.135 25.1961 168.918 24.8345 169.443C25.2865 169.786 26.1001 170.238 26.0458 170.401C25.6119 171.739 27.9803 173.239 25.8108 174.487C25.6662 174.559 25.6662 175.463 26.2086 175.807C27.6007 176.692 29.3362 175.897 29.517 174.288C29.8063 174.143 30.0775 173.926 29.7883 173.637C29.5532 173.474 29.3544 173.764 29.2459 173.962ZM157.193 100.542C155.223 102.965 153.578 105.189 151.715 107.232C147.268 112.095 143.073 117.211 138.517 122.002C133.853 126.938 129.966 132.561 126.097 138.129C124.904 139.847 123.457 141.691 123.258 144.023C123.06 146.174 122.806 148.308 122.445 150.441C121.559 155.811 121.107 161.253 120.004 166.586C119.281 170.093 119.01 173.709 118.323 177.217C117.13 183.237 115.756 189.239 114.454 195.296C116.714 194.519 118.648 193.054 120.818 192.042C127.688 188.842 134.54 185.587 141.392 182.369C149.564 178.537 157.139 173.583 165.456 169.967C171.35 167.382 176.972 164.127 183.119 162.12C184.493 161.668 184.62 160.819 184.349 159.68C183.21 154.979 181.781 150.333 179.793 145.939C176.882 139.521 174.007 133.085 170.879 126.775C167.553 120.032 164.299 113.252 160.918 106.526C159.887 104.502 158.513 102.657 157.193 100.542ZM23.0808 217.19C25.6481 214.912 28.6493 213.755 32.1748 213.701C34.7601 213.665 37.02 214.677 39.1715 215.69C41.7387 216.919 44.8303 217.064 46.9095 219.396C47.4518 219.992 48.3919 220.137 49.2417 220.246C51.1581 220.517 53.1468 220.734 55.009 220.39C57.757 219.884 60.8485 219.685 62.7469 217.244C65.6396 213.52 72.8713 212.941 76.5414 216.431C77.355 217.208 78.4036 217.678 79.4884 218.112C85.1472 220.3 90.553 218.944 95.9225 217.082C98.7972 216.087 101.654 214.587 104.619 214.46C108.162 214.316 111.905 214.948 114.96 216.937C118.811 219.45 122.879 220.77 127.453 220.661C128.845 220.625 130.183 220.553 131.503 219.974C134.504 218.655 137.234 216.774 140.344 215.671C145.315 213.9 150.124 213.484 154.789 216.702C157.175 218.347 160.122 218.582 162.834 218.148C166.595 217.552 170.048 215.798 173.519 214.243C176.954 212.706 180.679 212.218 184.077 213.303C186.934 214.207 189.935 215.418 192.34 217.443C193.515 218.438 194.437 218.456 195.829 217.733C199.644 215.744 202.988 213.032 206.749 210.917C212.842 207.482 218.681 203.576 224.286 199.382C224.593 199.165 225.334 199.147 225.063 198.514C224.846 198.008 224.376 197.719 223.762 197.719C220.128 197.719 216.494 197.936 212.842 197.827C210.564 197.755 208.286 198.171 206.008 198.135C204.634 198.116 204.326 198.478 204.381 199.816C204.543 204.354 202.464 208.169 199.011 210.627C195.268 213.303 190.731 214.008 186.156 212.254C183.643 211.296 181.311 209.85 179.865 207.68C178.328 205.366 177.569 202.582 177.189 199.762C177.117 199.237 177.135 198.858 176.448 198.84C175.074 198.785 173.682 198.478 172.308 198.568C168.71 198.803 165.112 198.803 161.514 198.876C157.519 198.966 153.541 197.99 149.528 198.478C149.238 198.514 148.931 198.388 148.642 198.37C146.165 198.261 143.634 197.466 141.338 199.111C141.175 199.219 140.868 199.183 140.651 199.165C138.427 199.02 136.33 198.587 133.925 199.093C130.291 199.852 126.404 199.671 122.644 199.509C119.896 199.382 117.093 198.749 114.381 199.165C112.103 199.509 109.826 199.4 107.584 199.509C104.221 199.671 100.949 199.201 97.4592 199.798C94.1507 200.358 90.5349 200.828 87.0636 199.979C85.7077 199.653 84.3337 199.635 82.9597 199.581C80.2116 199.472 77.4455 199.328 74.6974 199.129C70.3764 198.822 66.0554 198.84 61.7525 198.207C61.2825 198.135 60.8847 198.171 60.9751 198.803C61.409 201.787 59.9084 204.408 59.4926 207.228C59.4565 207.445 59.4203 207.825 59.2938 207.861C57.8113 208.385 56.8711 209.669 55.6417 210.537C47.7953 216.123 37.0381 212.182 34.8686 202.781C34.3804 200.666 34.0008 198.966 31.2708 199.581C31.0719 199.635 30.8188 199.436 30.5838 199.382C27.9442 198.858 25.2866 198.116 22.6108 198.261C20.2063 198.388 17.8378 198.731 15.4514 198.243C14.9271 198.135 14.8005 198.225 14.7643 198.858C14.6739 201.1 15.9756 202.835 16.8615 204.643C18.0909 207.102 19.2481 209.543 20.134 212.146C20.7848 213.99 21.2005 216.051 23.0808 217.19ZM101.093 121.297C100.37 121.478 100.027 121.948 99.7554 122.472C99.0864 123.738 98.0378 124.678 96.8265 125.329C90.5168 128.764 86.2501 134.549 81.1156 139.304C78.6568 141.564 76.451 144.294 74.173 146.862C69.9063 151.653 66.0916 156.751 63.0181 162.41C62.3853 163.567 61.8249 164.995 60.8125 165.646C59.1853 166.695 58.2452 168.123 57.4858 169.714C56.6361 171.522 55.9491 173.384 55.4429 175.373C54.9366 177.361 53.3276 179.007 52.8756 181.194C52.6587 182.207 52.6044 182.586 53.6711 182.93C62.4758 185.786 71.66 187.323 80.3742 190.469C88.7269 193.47 97.3689 195.278 106.065 196.996C106.354 196.435 106.137 195.893 105.957 195.314C103.914 189.131 103.028 182.731 102.232 176.313C101.509 170.6 101.184 164.869 101.346 159.083C101.491 153.84 101.22 148.597 101.147 143.354C101.111 140.082 100.858 136.773 100.949 133.537C101.057 129.505 101.364 125.492 101.093 121.297ZM55.6056 154.581C56.6542 152.321 58.4621 150.821 60.3062 149.302C61.6983 148.163 63.0181 146.88 64.1028 145.451C66.1277 142.776 68.3515 140.226 70.7741 137.948C73.3956 135.472 76.0714 133.103 78.0782 130.066C80.3201 126.703 83.8817 124.678 86.5575 121.731C90.8423 117.012 95.6875 112.89 101.22 109.672C101.925 109.256 102.07 108.678 102.268 107.955C103.01 105.369 102.196 102.784 102.54 100.181C103.425 93.3105 103.986 86.3861 104.872 79.516C105.613 73.7306 106.409 67.9813 106.264 62.1236C106.246 61.1654 106.083 60.1349 106.336 59.249C106.716 57.9834 106.571 56.8987 106.011 55.6874C105.631 56.2117 105.36 56.6637 105.016 57.0795C101.871 60.9665 99.8638 65.5406 97.1338 69.6808C93.3372 75.4662 89.7032 81.3239 86.3585 87.3985C85.4726 89.0076 85.0749 90.7974 84.0263 92.298C83.0862 93.6178 82.0919 94.9376 81.3506 96.3659C78.3675 102.151 75.529 108.027 72.5279 113.812C70.8646 117.031 69.599 120.448 67.4657 123.449C65.9109 125.636 65.3503 128.33 64.591 130.897C63.6147 134.242 61.6802 137.153 60.2519 140.299C58.1728 144.891 56.9435 149.736 55.6056 154.581ZM112.031 195.622C113.911 192.729 113.966 189.475 114.599 186.455C115.032 184.412 115.683 182.442 116.045 180.381C116.895 175.409 117.491 170.401 118.413 165.447C119.371 160.313 119.932 155.142 120.691 149.989C121.631 143.643 122.499 137.298 123.457 130.97C124.199 126.106 124.09 121.225 123.801 116.362C123.512 111.318 122.806 106.31 122.517 101.283C122.192 95.697 122.174 90.0924 121.36 84.542C120.221 76.786 118.16 69.2288 115.52 61.8705C114.635 59.4298 113.405 57.0433 111.706 54.7111C111.037 70.6209 112.031 86.2415 111.76 101.862C111.489 117.501 112.049 133.121 111.796 148.76C111.561 164.308 111.959 179.892 112.031 195.622ZM149.166 89.785C148.118 87.2177 145.84 85.6629 144.267 83.5476C140.036 77.8165 135.372 72.5012 130.309 67.5113C128.465 65.7033 127.055 63.4253 124.687 62.214C121.794 60.7315 119.661 58.345 117.292 56.2297C116.045 55.1269 114.87 53.8433 112.827 53.102C113.568 54.4037 114.056 55.2896 114.562 56.1574C117.003 60.2614 118.16 64.8355 119.643 69.3011C121.812 75.882 122.752 82.6617 123.62 89.4777C124.018 92.6054 123.801 95.7331 124.036 98.8608C124.47 104.429 124.831 110.016 125.446 115.566C125.826 118.965 125.555 122.382 125.808 125.835C133.582 114.138 141.302 102.531 149.058 90.8878C148.714 90.7794 148.244 90.6347 147.575 90.4359C148.262 90.1466 148.75 89.9658 149.166 89.785ZM106.589 83.6019C106.499 83.6019 106.39 83.5838 106.3 83.5838C106.029 85.9522 105.722 88.3206 105.505 90.7071C105.179 94.5399 104.926 98.3546 104.619 102.187C104.185 107.702 103.389 113.18 103.317 118.712C103.263 123.395 103.281 128.095 103.118 132.76C102.847 141.311 103.136 149.863 103.118 158.414C103.118 160.511 103.1 162.609 103.154 164.706C103.263 169.641 104.438 174.469 104.637 179.422C104.745 182.261 105.468 185.19 106.011 188.245C106.427 187.468 106.571 186.835 106.571 186.166C106.535 182.695 106.68 179.242 106.824 175.77C107.023 171.214 107.005 166.622 107.023 162.048C107.041 146.482 106.644 130.934 106.192 115.385C106.065 110.847 106.969 106.273 105.957 101.754C107.349 98.5897 106.39 95.2811 106.535 92.0269C106.68 89.2065 106.589 86.4042 106.589 83.6019ZM98.2006 196.833C95.3802 196.616 92.831 195.929 90.2637 195.332C85.1653 194.121 80.0488 192.91 75.0951 191.12C73.938 190.704 72.8894 191.554 71.7866 190.993C66.8509 188.516 61.4633 187.667 56.1299 186.708C54.8101 186.473 53.3456 185.678 51.8993 186.745C55.6055 188.227 58.5164 190.541 59.9085 194.32C60.4509 195.802 61.1017 196.471 62.8193 196.634C69.5809 197.249 76.3607 197.267 83.1223 197.845C87.154 198.189 91.1134 197.375 95.109 197.466C96.1395 197.484 97.0796 197.285 98.2006 196.833ZM31.9578 196.905C33.4946 196.652 35.2482 196.851 35.4471 194.519C35.5014 193.795 36.0618 193.108 36.4596 192.44C36.6946 192.042 36.8935 191.626 36.5861 191.264C35.5918 190.107 35.4291 188.679 35.2664 187.251C35.2121 186.817 35.0133 186.636 34.5974 186.546C32.7533 186.184 31.1985 185.117 29.4448 184.503C29.0651 184.376 28.2516 184.376 28.4866 183.743C28.7216 183.092 29.3543 183.346 29.8786 183.599C30.2041 183.743 30.5476 183.852 30.8911 183.942C31.3069 184.051 31.777 184.177 31.6324 183.418C31.4154 182.225 31.9759 181.158 32.4098 180.146C33.0426 178.699 32.4098 178.085 31.1623 177.813C29.7883 177.524 28.3781 177.325 26.9679 177.162C26.2628 177.072 25.4673 177.289 25.5758 178.139C25.8289 180.019 25.6662 181.881 26.5521 183.816C28.0346 187.034 29.6436 190.469 27.7091 194.193C27.2933 194.989 28.0165 195.495 28.5408 196.001C29.5532 196.941 30.8369 196.652 31.9578 196.905ZM190.821 204.679C194.093 204.733 196.389 202.853 196.57 199.852C196.606 199.111 196.805 198.08 195.449 198.098C193.352 198.135 191.201 197.918 189.158 198.261C188.254 198.424 187.44 198.695 186.482 198.514C185.379 198.315 185.198 199.057 185.289 199.942C185.578 202.799 187.711 204.625 190.821 204.679ZM56.2022 191.825C53.7253 188.245 48.1569 186.871 43.5647 188.679C42.8596 188.95 41.8652 189.077 41.7206 189.8C41.6121 190.378 42.5884 190.632 43.1127 191.011C43.6913 191.427 44.1433 191.988 44.6315 192.512C45.0292 192.946 45.445 193.235 46.0416 192.855C47.3071 192.042 48.5365 192.548 49.784 192.964C51.5377 193.56 53.1468 193.325 54.7739 192.385C55.2078 192.114 55.714 191.988 56.2022 191.825ZM199.354 191.463C199.174 191.264 198.975 190.975 198.722 190.758C196.444 188.806 193.786 187.847 190.821 187.829C189.519 187.829 187.603 187.703 187.133 188.643C186.572 189.764 188.181 190.993 188.724 192.223C188.941 192.729 189.32 192.928 189.7 192.675C190.875 191.915 192.069 192.403 192.9 192.982C195.196 194.537 196.914 193.416 198.704 192.132C198.921 191.951 199.264 191.933 199.354 191.463ZM178.943 199.798C179.16 200.738 179.341 201.859 179.666 202.944C180.353 205.24 180.425 205.258 182.432 203.884C183.445 203.197 184.403 202.672 183.788 200.955C183.246 199.472 183.499 197.664 184.511 196.309C185.216 195.332 184.783 194.645 184.168 194.211C183.571 193.777 183.155 193.253 182.667 192.765C182.107 192.223 181.673 192.259 181.239 192.91C179.883 194.934 179.268 197.231 178.943 199.798ZM53.1829 199.328C52.8937 199.292 52.6044 199.237 52.3152 199.237C49.2236 199.382 46.132 200.015 43.0224 199.31C42.1726 199.111 42.2449 199.671 42.3353 200.304C42.7873 203.215 44.9749 204.824 48.4643 204.752C50.3988 204.715 53.2372 202.835 53.1829 199.328ZM185.686 210.139C188.434 211.459 191.02 211.694 193.678 211.079C196.805 210.356 196.95 209.958 195.377 207.228C195.25 207.011 195.106 206.813 195.034 206.596C194.817 205.872 194.509 205.728 193.714 206.053C192.123 206.686 190.423 206.722 188.76 206.234C188.055 206.035 187.802 206.162 187.512 206.921C187.115 208.006 186.934 209.253 185.686 210.139ZM47.8676 211.531C48.9524 211.314 50.1456 211.134 51.2846 210.808C52.4236 210.483 54.0869 210.103 54.2135 209.109C54.3581 208.042 53.183 206.903 52.3152 205.981C52.0621 205.71 51.827 205.312 51.2665 205.656C49.9467 206.505 48.4461 206.596 46.9275 206.523C46.5839 206.505 46.2224 206.433 45.9693 206.849C45.2642 208.078 43.6009 209.308 43.9986 210.501C44.4506 211.64 46.4755 211.152 47.8676 211.531ZM40.7262 199.075C41.124 197.321 39.0087 197.122 37.924 196.128C37.0381 195.314 36.6765 195.911 36.4234 196.76C35.6459 199.418 36.1522 201.949 37.1285 204.426C37.6347 205.728 38.2855 206.668 39.6053 205.041C39.9127 204.661 40.4009 204.318 40.9975 204.3C42.245 204.263 41.9557 203.775 41.4676 202.98C40.8529 201.985 40.4912 200.81 40.7262 199.075ZM57.6847 166.098C59.7096 164.362 60.8124 162.301 60.9932 159.698C61.1379 157.619 61.5898 155.558 61.8791 153.497C62.0237 152.376 62.6204 151.291 62.2769 149.628C57.8836 154.672 58.8598 160.692 57.6847 166.098ZM149.944 92.6958C149.184 94.106 147.774 94.7207 147.864 96.1309C148.19 100.904 146.454 105.478 146.653 110.323C148.479 108.985 148.895 107.177 149.094 105.062C149.455 101.067 150.269 97.1252 149.944 92.6958ZM33.3138 181.122C32.5183 183.888 32.7894 184.485 35.1759 185.407C35.9533 185.714 36.8573 185.768 37.5443 186.184C39.9488 187.594 42.3534 187.721 44.8303 186.491C46.5659 185.624 48.7897 186.943 50.3807 185.226C49.3682 185.009 48.3919 185.117 47.3975 185.316C43.637 186.094 40.0031 186.329 36.6403 183.78C35.5736 182.966 34.7059 181.881 33.3138 181.122ZM58.6971 154.22C57.1785 154.78 56.8531 155.558 56.5819 156.57C55.7141 159.897 55.8587 163.35 55.1536 166.676C54.7197 168.701 54.322 170.726 53.9062 172.751C57.8113 167.201 56.7626 160.548 58.6971 154.22ZM52.6768 197.339C51.4112 195.151 49.5309 194.121 47.3794 194.284C45.463 194.428 43.6732 195.368 42.8596 197.574C46.1681 198.044 49.3321 197.773 52.6768 197.339ZM73.233 137.876C72.0397 138.816 70.3584 139.576 70.1595 141.022C69.7617 143.878 69.0928 146.699 68.8035 149.971C72.6906 146.536 72.1663 141.944 73.233 137.876ZM202.826 199.834C202.609 199.237 203.025 198.424 202.157 198.135C201.397 197.881 198.469 198.894 198.306 199.545C198.071 200.503 197.8 201.533 197.89 202.492C197.926 202.853 198.921 203.106 199.481 203.414C199.788 203.594 200.114 203.739 200.421 203.938C201.307 204.553 201.922 204.498 202.139 203.305C202.356 202.148 202.591 200.991 202.826 199.834ZM59.0406 197.158C57.7028 197.375 56.7084 198.55 55.2801 198.189C54.9547 198.098 54.8462 198.243 54.8462 198.496C54.792 199.563 54.3039 201.063 54.8101 201.624C55.696 202.6 57.1965 203.034 58.4802 203.576C58.8418 203.721 58.7514 203.161 58.8418 202.907C59.4384 201.081 59.5288 199.201 59.0406 197.158ZM146.979 97.1433C146.382 97.993 145.369 98.5897 145.351 99.6563C145.243 103.453 144.683 107.177 144.267 110.938C144.212 111.39 143.652 112.33 144.664 112.348C145.243 112.366 145.641 111.751 145.659 110.92C145.695 109.491 145.731 108.063 145.912 106.617C146.31 103.471 147.123 100.38 146.979 97.1433ZM68.8216 142.559C65.5854 146.048 66.0735 150.568 65.4588 154.798C68.0622 151.146 68.3877 146.843 68.8216 142.559ZM50.5072 168.249C49.8564 170.744 49.1875 173.239 48.5908 175.752C48.3016 176.982 47.6507 178.085 47.8134 179.495C47.9038 180.182 47.8495 180.471 48.5365 180.417C49.0066 180.381 49.5671 180.796 49.8383 179.838C50.2361 178.482 50.0914 177.09 50.2722 175.734C50.6338 173.294 51.0496 170.817 50.5072 168.249ZM90.788 119.507C86.8828 122.581 88.0761 126.974 87.0998 130.699C90.2637 127.679 90.0648 123.593 90.788 119.507ZM141.573 105.152C140.597 106.111 140.018 107.087 140.181 108.461C140.343 109.907 139.891 111.318 139.693 112.746C139.421 114.626 138.933 116.47 139.186 118.423C140.814 117.175 142.133 109.727 141.573 105.152ZM133.853 117.012C130.255 120.158 131.087 124.172 130.942 127.951C133.726 124.877 132.967 120.863 133.853 117.012ZM72.4013 146.283C76.4149 143.553 75.5471 139.178 75.9268 135.218C72.9618 138.292 74.2273 142.776 72.4013 146.283ZM109.844 182.948C107.765 185.135 107.927 187.703 108.271 190.306C108.361 190.957 108.271 192.132 108.488 192.186C110.332 192.656 109.012 193.795 109.012 194.555C109.012 195.043 108.687 195.549 108.741 196.128C108.795 196.58 108.614 197.176 109.392 197.122C110.079 197.086 109.844 196.525 109.844 196.164C109.844 191.789 109.844 187.395 109.844 182.948ZM84.6771 126.323C82.2726 127.734 80.8443 132.597 81.4229 136.502C84.9303 133.899 83.5743 129.903 84.6771 126.323ZM139.313 109.021C136.655 113.144 137.053 117.88 135.968 122.31C137.36 121.135 138.138 119.851 138.21 117.898C138.301 114.933 138.915 111.968 139.313 109.021ZM38.1771 182.116C40.3828 186.13 43.637 184.105 46.7105 184.015C44.0348 181.935 41.3048 180.995 38.1771 182.116ZM141.699 115.566C143.146 114.301 144.683 103.797 143.851 100.958C141.898 105.948 142.911 110.938 141.699 115.566ZM90.3903 127.734C92.7948 124.696 93.0118 121.044 93.4276 117.464C90.4083 120.267 91.7643 124.425 90.3903 127.734ZM96.5372 114.843C93.4637 117.519 94.5847 121.605 93.3191 124.913C95.6694 122.002 96.0852 118.423 96.5372 114.843ZM99.1406 113.162C96.5191 116.018 97.4051 119.978 95.7237 123.123C99.448 120.683 98.0558 116.488 99.1406 113.162ZM136.203 113.903C135.155 114.97 134.269 116 134.432 117.609C134.558 118.73 134.287 119.887 134.196 121.008C134.106 122.183 133.455 123.34 134.052 124.588C135.552 121.189 135.661 117.501 136.203 113.903ZM194.6 195.893C191.888 193.38 188.218 194.139 186.663 196.544C189.393 196.815 191.942 195.513 194.6 195.893ZM130.183 122.545C127.091 125.275 128.791 128.529 128.465 131.458C130.382 128.8 129.912 125.727 130.183 122.545ZM84.659 133.555C86.6297 130.735 86.5574 127.354 86.8286 124.045C84.5325 126.812 85.3822 130.337 84.659 133.555ZM81.2963 128.764C78.8556 131.982 79.5245 135.472 78.9279 138.672C80.8443 135.761 80.8082 132.416 81.2963 128.764ZM78.5121 132.597C76.1618 135.11 77.0116 138.31 76.6319 141.239C78.1144 138.545 78.259 135.562 78.5121 132.597ZM33.2415 180.127C34.8325 179.965 35.429 181.248 36.5318 181.556C37.1827 180.29 37.0561 178.952 37.2008 177.669C36.0618 177.343 34.9408 177.416 33.4764 177.651C35.3747 178.609 33.9104 179.169 33.2415 180.127ZM44.8484 179.585C42.9139 180.073 41.3772 178.88 39.6596 178.772C39.28 178.753 38.7556 178.301 38.5567 178.826C38.3759 179.296 38.4121 179.911 38.5567 180.417C38.7556 181.158 39.2257 180.453 39.5693 180.471C40.8167 180.561 42.0822 180.561 43.3297 180.598C43.9625 180.634 44.6857 180.851 44.8484 179.585ZM109.139 100.163C108.668 102.676 107.276 105.08 108.542 107.864C110.024 105.351 109.428 102.748 109.139 100.163ZM108.253 183.02C109.464 182.261 109.627 180.869 110.024 179.856C110.494 178.627 110.133 177.072 110.133 175.246C109.482 176.602 108.813 177.542 108.596 178.591C108.307 180.001 108.361 181.465 108.253 183.02ZM98.9056 120.592C100.352 118.513 101.672 113.053 101.437 110.667C99.9904 113.74 99.5926 116.958 98.9056 120.592ZM127.308 126.848C125.862 129.415 127.055 132.29 126.314 134.947C127.688 132.398 127.272 129.596 127.308 126.848ZM108.614 121.84C109.934 120.14 110.061 118.242 109.572 116.054C107.801 117.808 108.903 119.959 108.614 121.84ZM108.813 175.156C110.476 173.257 110.006 171.034 110.024 168.918C108.578 170.762 108.65 172.914 108.813 175.156ZM109.392 79.1544C108.217 81.4324 108.054 82.7341 108.614 85.1748C109.645 83.3488 110.332 81.36 109.392 79.1544ZM109.464 92.4608C107.873 94.3229 108.759 96.4021 108.506 98.6439C110.332 96.6009 109.464 94.5218 109.464 92.4608ZM109.789 85.5544C108.488 87.7601 108.235 89.1522 108.596 91.5568C109.988 89.7127 109.464 87.5432 109.789 85.5544ZM108.759 114.789C109.735 112.836 109.446 110.739 109.5 108.334C108.054 110.576 108.668 112.71 108.759 114.789ZM108.524 72.6819C109.663 70.639 109.717 70.187 109.048 67.6197C108.054 69.4458 108.054 69.4457 108.524 72.6819ZM125.464 129.361C125.048 132 124.651 134.64 124.235 137.261C125.392 134.712 125.699 132.036 125.464 129.361ZM108.705 168.828C109.97 166.731 110.042 164.869 109.789 162.88C108.253 164.579 108.904 166.55 108.705 168.828ZM109.446 73.4594C108.289 75.7193 108.235 76.0266 108.289 78.8832C109.102 77.1656 109.844 75.5385 109.446 73.4594ZM108.397 130.192C109.988 128.059 109.319 125.673 109.337 123.358C108.036 125.51 109.337 128.005 108.397 130.192ZM109.157 61.2016C107.692 62.9914 108.018 64.7451 108.162 66.7338C109.482 64.9982 109.102 63.2445 109.157 61.2016ZM109.807 156.751C108.307 158.468 108.849 160.258 108.922 161.976C109.609 160.403 110.151 158.794 109.807 156.751ZM108.542 136.104C109.645 134.748 109.717 134.134 109.265 131.368C108.542 132.687 108.542 132.687 108.542 136.104ZM38.2133 190.071C38.8822 189.475 39.3884 189.023 39.985 188.48C38.7737 188.354 37.924 187.703 36.6765 187.251C37.2912 188.372 37.7252 189.185 38.2133 190.071ZM109.753 136.647C108.524 138.527 108.506 138.599 108.994 141.022C109.265 139.467 110.205 138.183 109.753 136.647ZM109.735 151.725C108.506 152.683 108.723 153.967 108.723 155.648C109.645 154.184 109.591 152.936 109.735 151.725ZM68.8577 150.17C68.8396 150.134 68.8035 150.098 68.7854 150.043C68.7493 150.08 68.695 150.098 68.677 150.134C68.677 150.17 68.7312 150.206 68.7492 150.26C68.7673 150.242 68.8215 150.206 68.8577 150.17Z" fill="#100C08"/>
<path d="M56.1114 232.594C51.447 232.269 47.7227 230.28 43.8537 228.291C40.1294 226.375 36.622 223.681 31.8852 224.151C28.8659 224.459 26.4975 225.796 24.3822 227.55C23.2794 228.472 22.1585 229.123 20.911 229.629C16.12 231.546 11.13 231.961 6.04973 231.437C3.98868 231.22 2.25304 230.045 0.372788 229.268C0.101598 229.159 -0.0429486 228.96 0.0112894 228.743C0.119765 228.327 0.517476 228.183 0.879063 228.273C1.85535 228.508 2.83162 228.761 3.80791 229.069C8.43622 230.533 13.0465 230.19 17.6206 228.816C19.2839 228.327 21.2364 228.183 22.4115 226.935C23.4963 225.814 24.7619 225.109 26.0094 224.35C30.9089 221.331 35.6456 222.072 40.6174 224.585C44.7757 226.682 48.6085 229.575 53.3814 230.407C59.0403 231.401 63.976 230.063 68.0439 226.049C71.9128 222.217 77.3547 222.542 81.5853 225.489C84.8215 227.731 88.1118 230.551 92.6859 229.322C94.8554 228.743 96.8623 227.966 98.5437 226.393C101.147 223.934 104.184 222.723 107.855 222.94C110.566 223.103 112.465 224.712 114.273 226.248C116.533 228.183 118.883 229.918 121.541 231.148C124.289 232.413 127.145 232.196 129.839 230.732C132.316 229.376 134.558 227.622 136.8 225.941C140.415 223.229 145.912 223.32 149.762 225.724C152.908 227.677 156 229.72 159.833 230.587C161.695 231.003 162.997 230.515 164.461 230.153C166.992 229.503 169.252 228.255 171.168 226.447C175.001 222.849 181.636 223.211 185.433 226.266C192.014 231.582 199.173 233.426 207.327 230.045C211.142 228.454 215.101 227.098 219.314 227.315C222.062 227.46 224.792 228.092 227.178 229.485C231.138 231.781 235.621 232.377 239.906 233.57C240.665 233.787 241.515 233.86 242.238 233.1C242.708 232.612 243.341 232.956 243.883 233.299C244.354 233.589 244.589 233.986 244.426 234.511C244.227 235.161 243.576 235.035 243.07 235.18C240.159 235.975 237.574 234.438 234.826 234.095C230.197 233.516 226.527 230.461 222.062 229.503C218.645 228.761 215.427 229.159 212.19 230.19C208.05 231.509 204.037 233.227 199.589 233.607C197.112 233.824 194.943 233.137 192.791 232.305C189.79 231.148 186.825 229.9 184.348 227.677C181.275 224.929 175.309 224.82 172.09 227.93C169.324 230.605 165.781 231.871 162.147 232.63C160.375 232.992 158.495 232.413 156.669 231.636C153.143 230.135 150.214 227.604 146.689 226.194C143.778 225.037 140.795 225.381 138.137 227.17C135.751 228.779 133.545 230.66 131.032 232.052C127.236 234.167 123.457 234.312 119.57 232.196C116.768 230.66 114.453 228.454 111.814 226.7C107.312 223.681 103.516 224.061 99.5562 227.785C98.2906 228.978 96.8623 229.774 95.3074 230.425C92.9029 231.437 90.3899 231.365 87.8769 231.148C87.2802 231.094 86.7921 230.678 86.2497 230.407C83.2304 228.852 80.5728 226.628 77.3728 225.381C74.4258 224.242 71.8766 225.091 69.5806 227.044C68.4777 227.966 67.3388 228.834 66.2359 229.756C63.2167 232.251 59.4923 232.178 56.1114 232.594Z" fill="#100C08"/>
<path d="M244.262 244.707C238.459 244.797 233.848 242.935 229.799 239.753C224.23 235.378 220.036 235.36 214.612 240.042C209.694 244.291 201.559 245.774 195.14 242.122C192.772 240.784 190.277 239.428 187.583 239.012C184.474 238.524 181.31 238.108 178.146 238.741C177.459 238.867 177.007 239.355 176.446 239.699C172.704 242.013 168.871 244.074 164.297 244.165C163.23 244.183 162.308 243.821 161.368 243.459C157.68 242.049 154.01 240.567 150.973 237.945C147.736 235.143 143.09 235.306 140.053 238.072C137.033 240.82 133.273 242.555 129.549 243.785C125.191 245.231 120.834 243.821 117.363 240.693C115.844 239.319 114.235 238.054 112.554 236.933C109.589 234.944 106.66 235.27 104.183 237.764C101.345 240.639 91.9617 242.519 88.1469 240.042C85.3989 238.253 82.2168 237.204 79.2518 235.83C76.2145 234.42 72.9422 235.468 70.0495 237.258C68.3681 238.307 67.1026 239.807 65.3127 240.784C62.8539 242.14 60.2685 242.212 57.7013 242.682C54.3204 243.279 51.0481 242.483 47.7576 241.85C47.0164 241.706 46.1667 241.416 45.6605 240.91C42.6051 237.837 38.5371 236.571 34.7224 235.125C31.7574 234.004 28.4309 234.763 25.7732 236.879C21.6511 240.169 17.0047 241.362 11.8159 240.422C11.2012 240.314 10.6407 239.844 10.0802 239.5C9.61017 239.211 8.65203 239.066 8.90514 238.415C9.23057 237.566 10.0622 238.108 10.6227 238.343C14.1482 239.825 17.5832 239.03 20.9459 237.819C22.4465 237.276 23.6759 236.137 25.0138 235.288C28.6658 232.992 32.5168 232.069 36.8377 234.112C39.0073 235.143 41.1587 236.39 43.5632 236.933C43.7802 236.987 44.0514 237.114 44.178 237.276C46.022 239.898 48.8967 240.404 51.7351 240.82C56.5804 241.525 61.281 241.001 65.62 238.614C66.8494 237.927 67.7896 236.752 68.9467 235.902C71.8755 233.769 75.2201 233.353 78.7095 233.66C79.2338 233.715 79.8123 233.895 80.2101 234.203C82.9943 236.282 86.3931 237.059 89.4124 238.632C92.1785 240.061 95.1436 239.645 97.9821 238.777C100.35 238.054 102.393 236.716 104.382 235.143C106.534 233.443 109.264 233.516 111.74 234.564C114.235 235.613 116.405 237.294 118.285 239.229C121.359 242.411 126.837 243.242 130.85 241.29C134.087 239.717 137.287 238.144 140.107 235.848C143 233.498 148.315 233.407 151.569 236.21C154.57 238.777 158.132 240.277 161.748 241.76C164.098 242.718 166.394 242.447 168.564 241.652C171.131 240.693 173.716 239.663 175.904 237.873C176.754 237.186 177.802 236.915 178.941 236.879C180.135 236.842 181.274 236.517 182.413 236.155C183.787 235.74 185.143 236.137 186.517 236.698C188.433 237.457 190.404 238.126 192.338 238.885C195.376 240.079 198.105 242.049 201.522 242.357C205.825 242.736 209.676 241.688 213.039 238.994C214.775 237.602 216.402 236.047 218.607 235.468C223.127 234.257 227.105 234.998 230.721 238.271C234.029 241.272 238.169 242.754 242.653 243.044C243.466 243.098 244.262 243.134 245.076 242.682C245.799 242.284 246.865 242.049 247.137 243.224C247.39 244.291 246.468 244.472 245.654 244.562C245.039 244.635 244.389 244.689 244.262 244.707Z" fill="#100C08"/>
<path d="M131.54 25.1864C130.184 22.8722 129.858 20.5942 129.334 18.2077C129.135 17.3218 128.918 16.454 128.665 15.5862C128.014 13.3806 126.713 11.4461 124.832 10.3251C119.915 7.3782 114.636 6.27537 109.049 8.48105C106.663 9.42118 103.824 9.71044 102.757 12.7297C102.034 12.115 101.347 11.5184 100.66 10.9579C97.8579 8.75223 94.8929 8.19178 91.2409 8.80648C85.4735 9.76468 81.1526 13.1094 76.7774 16.4179C74.4451 18.1716 72.8361 20.7027 72.6373 23.74C72.5469 25.0236 72.149 25.331 70.992 25.4214C67.3038 25.7468 64.1761 27.157 62.0066 30.3209C60.6687 32.2735 59.7286 34.2984 60.2168 36.6306C60.7049 36.6487 61.1749 36.721 61.6631 36.7933C61.7535 36.3052 62.1512 36.1786 62.8744 36.1967C65.9479 36.269 69.0033 36.3052 72.0587 36.5764C77.3921 37.0645 82.7616 37.0464 88.077 37.4803C94.9652 38.0408 101.835 38.6193 108.742 38.7278C110.532 38.7639 112.358 38.3481 114.129 38.4747C116.154 38.6193 118.161 38.9267 120.186 38.4566C120.457 38.4024 121.036 38.2216 121.054 38.7097C121.09 40.1018 122.175 39.7583 122.88 39.8125C124.887 39.9391 126.785 39.469 128.701 38.8724C130.582 38.2939 131.63 36.8656 132.173 35.2566C133.366 31.8938 133.275 28.1333 131.54 25.1864ZM130.889 33.5209C130.726 34.7865 130.166 35.7809 129.28 36.6667C128.737 37.191 128.267 37.7334 127.526 36.8475C127.146 36.3955 126.496 36.7029 125.971 36.6667C118.758 36.2328 111.58 37.2453 104.366 37.0103C99.2139 36.8295 94.0613 36.3775 88.9268 35.9255C84.6781 35.5458 80.4114 35.3289 76.1446 35.2566C73.9751 35.2204 71.8056 35.0396 69.6722 34.7503C67.4123 34.4611 65.2428 35.0938 63.019 34.913C62.5128 34.8769 62.1873 35.2385 61.6269 35.6724C62.2235 31.3514 65.5682 28.0971 69.9976 27.2836C70.6485 27.157 71.3175 26.9039 71.9502 26.9762C74.2644 27.3016 74.4994 25.9999 74.3909 24.1739C74.2463 21.8959 75.4938 20.0157 77.0305 18.6778C80.3029 15.8213 83.6295 12.9105 87.8781 11.5545C89.6318 10.9941 91.4578 10.5602 93.2838 10.2709C96.6285 9.72852 98.9969 11.6268 101.221 13.724C103.101 15.5139 103.354 15.4958 104.439 13.1998C104.728 12.6031 104.981 11.9704 105.632 11.6992C110.658 9.58389 115.666 7.70363 121.126 10.4517C126.586 13.1998 128.575 16.4179 128.105 22.5829C128.032 23.5592 128.068 24.2282 129.099 24.5355C129.822 24.7525 130.057 25.3672 130.238 26.0361C130.943 28.4949 131.214 30.9718 130.889 33.5209Z" fill="#100C08"/>
<path d="M209.404 64.2382C217.486 64.5637 223.181 68.5954 225.133 75.1401C225.567 76.6045 226.29 75.4836 226.688 75.2666C230.286 73.4045 233.703 73.6395 237.066 75.8633C239.452 77.4362 240.139 79.7503 240.121 82.408C240.103 83.547 240.302 83.8001 241.622 83.6374C244.569 83.2396 248.51 84.7764 249.739 88.2657C250.39 90.1279 250.914 92.0262 251.746 93.8161C252.343 95.1178 251.873 96.0398 250.444 96.3471C247.244 97.0342 244.044 97.3234 240.826 96.5822C239.452 96.2748 238.078 96.6003 236.704 96.546C231.913 96.3291 227.104 96.6545 222.295 96.1844C219.854 95.9494 217.377 96.4195 214.9 96.4195C208.03 96.4375 201.16 96.6907 194.308 96.0398C191.307 95.7505 188.288 96.1121 185.323 95.4974C184.889 95.407 184.545 95.4974 184.202 95.859C183.515 96.6003 182.556 96.5098 181.652 96.4737C180.875 96.4375 180.694 95.5697 181.056 95.3528C182.99 94.1776 182.448 92.1347 182.647 90.5437C183.026 87.3979 185.033 86.1323 187.564 85.2826C188.396 84.9933 188.74 84.7583 188.595 83.8362C187.637 78.087 190.891 74.0192 194.579 70.4937C197.291 67.8903 200.328 65.3411 204.396 64.7987C206.277 64.5637 208.157 64.1478 209.404 64.2382ZM210.579 65.9015C209.621 65.9558 208.536 65.9738 207.47 66.1004C205.101 66.3716 202.679 66.6247 200.618 67.9626C196.875 70.4033 193.531 73.2237 191.343 77.2915C190.168 79.4791 189.842 81.6667 190.258 83.999C190.656 86.2589 190.584 86.4939 188.36 86.747C187.962 86.8013 187.546 86.9097 187.167 87.0905C184.925 88.1211 183.37 91.0318 183.695 93.4544C183.786 94.1415 184.202 93.9607 184.599 93.9788C190.24 94.4669 195.881 94.6477 201.522 94.6658C208.319 94.6658 215.135 94.5935 221.933 94.5392C227.194 94.485 232.492 94.6115 237.753 94.9189C239.47 95.0093 241.188 94.7742 242.923 94.8646C244.822 94.955 246.702 95.5697 248.636 95.0635C249.703 94.7742 250.444 94.5211 249.649 93.2737C248.908 92.1527 248.727 90.8329 248.329 89.5855C247.299 86.3131 244.098 84.6317 240.826 85.6623C238.494 86.4035 238.168 86.1504 238.367 83.7639C238.711 79.678 237.102 76.9842 233.522 76.0802C231.172 75.4836 228.948 75.8994 226.815 77.2192C224.193 78.8463 224.139 78.7379 223.542 75.9356C223.524 75.8813 223.47 75.8271 223.47 75.7728C222.277 70.6022 216.094 65.8292 210.579 65.9015Z" fill="#100C08"/>
<path d="M177.526 12.6581C182.607 12.5677 186.747 13.9236 190.561 16.4547C194.991 19.3836 198.101 23.2526 199.565 28.4413C201.373 34.8234 200.379 40.8618 197.16 46.4664C193.906 52.1253 188.88 55.488 182.48 56.9344C175.989 58.3988 169.969 57.2237 164.437 53.7163C161.598 51.9264 159.537 49.1422 158.037 46.2676C155.054 40.5545 154.565 34.3352 156.066 28.0798C157.657 21.4627 161.363 16.7259 168.252 14.7553C171.47 13.8332 174.561 12.4592 177.526 12.6581ZM198.082 34.2629C198.281 31.099 197.667 28.2063 196.166 25.5486C195.226 23.8673 194.268 21.9509 192.351 21.4266C190.236 20.8299 190.073 18.5158 188.356 17.7384C188.302 17.7203 188.265 17.6661 188.211 17.6299C182.625 14.4841 176.93 13.6344 170.656 15.84C161.291 19.1124 155.614 30.7193 158.471 40.7715C161.219 50.4258 172.681 59.4836 185.662 53.7343C189.061 52.2338 192.225 50.2812 194.213 47.3343C196.799 43.4834 198.426 39.0178 198.082 34.2629Z" fill="#100C08"/>
<path d="M215.458 30.9724C215.458 31.6413 214.861 31.7317 214.265 31.9125C212.077 32.5815 209.781 32.4187 207.575 32.925C207.178 33.0154 206.852 32.6176 206.906 32.5453C207.467 31.8221 207.846 31.0447 208.063 30.1227C208.19 29.6345 208.877 29.7069 209.347 29.7249C210.486 29.7611 211.571 29.6164 212.674 29.1645C213.957 28.6402 215.367 29.5622 215.458 30.9724Z" fill="#100C08"/>
<path d="M182.391 60.9111C182.987 60.9835 183.168 61.4174 183.313 61.8874C184.163 64.4547 185.356 66.8954 185.681 69.6254C185.754 70.2762 185.537 70.7463 184.976 70.8909C184.416 71.0356 184.144 70.5655 183.982 70.0774C183.24 67.8174 182.445 65.5756 181.541 63.3518C181.179 62.5202 181.27 61.4354 182.391 60.9111Z" fill="#100C08"/>
<path d="M159.014 69.6259C159.014 69.6259 158.634 69.5174 158.363 69.1197C158.074 68.6858 158.327 68.3603 158.58 67.9987C159.81 66.227 161.021 64.4371 162.214 62.6473C162.63 62.0326 162.937 61.4902 163.914 61.9241C164.998 62.3941 164.528 63.1896 164.329 63.7139C163.48 65.9196 161.401 67.3298 160.316 69.4089C160.244 69.5536 159.773 69.4993 159.014 69.6259Z" fill="#100C08"/>
<path d="M162.431 1.52144C162.323 1.14178 162.449 0.780192 162.721 0.56324C163.1 0.255891 163.462 0.490922 163.86 0.689795C164.818 1.15986 165.125 2.09999 165.613 2.89548C166.499 4.37798 167.114 6.00513 167.674 7.63227C167.855 8.19273 167.873 8.77127 167.24 9.0063C166.698 9.20518 166.499 8.69895 166.156 8.35545C164.529 6.76446 164.004 4.52262 162.739 2.73277C162.522 2.40734 162.54 1.93727 162.431 1.52144Z" fill="#100C08"/>
<path d="M198.573 51.8545C198.717 51.9087 198.97 51.963 199.151 52.0895C201.013 53.4093 203.382 53.9879 204.846 55.9404C205.208 56.4286 205.533 56.7721 205.099 57.3325C204.665 57.893 204.123 57.7845 203.671 57.4591C201.809 56.1755 199.965 54.8557 198.103 53.554C197.705 53.2828 197.524 52.9392 197.669 52.4692C197.777 52.1076 198.103 51.9268 198.573 51.8545Z" fill="#100C08"/>
<path d="M193.346 8.62679C193.49 8.30136 193.617 7.90362 193.834 7.56011C194.702 6.13185 195.533 4.6855 195.967 3.04028C196.202 2.17247 196.763 1.48545 197.829 1.99167C198.86 2.49789 198.426 3.18491 198.01 3.92616C196.98 5.7341 196.365 7.77707 194.901 9.31381C194.575 9.65732 194.195 10.0551 193.653 9.82003C193.147 9.62116 193.472 9.07877 193.346 8.62679Z" fill="#100C08"/>
<path d="M143.268 21.4805C145.094 22.4748 147.661 22.1675 148.8 24.4997C148.963 24.8432 149.107 25.1144 148.854 25.476C148.583 25.8376 148.185 25.8195 147.896 25.711C146.377 25.1867 144.877 24.6263 143.394 24.0116C142.563 23.6681 142.472 22.8003 142.436 22.0409C142.418 21.7517 142.816 21.4805 143.268 21.4805Z" fill="#100C08"/>
<path d="M149.905 44.4595C149.977 45.3634 149.38 45.49 148.874 45.6346C147.5 46.0143 146.09 46.3036 144.716 46.7013C143.776 46.9725 143.342 46.4301 143.053 45.7793C142.655 44.8934 143.36 44.586 144.047 44.4595C145.656 44.1521 147.193 43.4651 148.91 43.8629C149.399 43.9533 149.851 44.0075 149.905 44.4595Z" fill="#100C08"/>
</g>
</svg>
