<svg width="198" height="56" viewBox="0 0 198 56" fill="none" xmlns="http://www.w3.org/2000/svg">
<path d="M98.0695 0.489122C98.652 0.182903 99.348 0.182903 99.9305 0.489122L109.954 5.75771C110.405 5.99494 110.93 6.05084 111.421 5.91398L126.814 1.62492C127.632 1.39676 128.506 1.7111 128.992 2.40869L132.227 7.05485C132.66 7.67723 133.408 8.00096 134.159 7.89081L151.426 5.35594C152.931 5.13515 154.121 6.60674 153.592 8.03164L153.256 8.93472C152.755 10.2824 153.797 11.7027 155.233 11.629L170.159 10.8628C171.894 10.7737 172.638 13.0325 171.188 13.9915V13.9915C169.802 14.9088 170.411 17.0651 172.072 17.1216L181.799 17.4523C183.676 17.5161 184.056 20.1394 182.275 20.7338V20.7338C180.574 21.3011 180.819 23.7791 182.597 24.0031L185.549 24.3747C187.684 24.6435 187.765 27.7065 185.648 28.089L185.074 28.1928C183.212 28.5292 183.128 31.1692 184.965 31.6232V31.6232C186.899 32.1011 186.667 34.9213 184.681 35.0764L178.21 35.5814C176.497 35.7151 176.084 38.0403 177.646 38.7552V38.7552C179.279 39.5025 178.735 41.9491 176.939 41.9339L164.433 41.8279C162.806 41.8141 161.946 43.7491 163.048 44.9473V44.9473C164.203 46.2037 163.198 48.2222 161.499 48.0581L144.93 46.4573C143.878 46.3557 142.928 47.0905 142.762 48.1347L142.282 51.1602C142.104 52.2862 141.021 53.0354 139.905 52.8059L122.964 49.3246C122.386 49.2058 121.786 49.3483 121.322 49.7138L114.643 54.9867C114.092 55.4214 113.354 55.5358 112.697 55.2881L99.706 50.3864C99.251 50.2147 98.749 50.2147 98.294 50.3864L85.3026 55.2881C84.6462 55.5358 83.9081 55.4214 83.3574 54.9867L76.6776 49.7138C76.2145 49.3483 75.6136 49.2058 75.0358 49.3246L58.0955 52.8059C56.9787 53.0354 55.8962 52.2862 55.7176 51.1602L55.2376 48.1347C55.0719 47.0905 54.1222 46.3557 53.0699 46.4573L36.5006 48.0581C34.802 48.2222 33.7972 46.2037 34.9521 44.9473V44.9473C36.0535 43.7491 35.1941 41.8141 33.5667 41.8279L21.0607 41.9339C19.2649 41.9491 18.7207 39.5025 20.3538 38.7552V38.7552C21.916 38.0403 21.5033 35.7151 19.7905 35.5814L13.3191 35.0764C11.3328 34.9213 11.1006 32.1011 13.0348 31.6232V31.6232C14.8722 31.1692 14.7884 28.5292 12.9258 28.1928L12.3516 28.089C10.2345 27.7065 10.3165 24.6435 12.451 24.3747L15.4026 24.0031C17.1811 23.7791 17.4257 21.3011 15.7253 20.7338V20.7338C13.9438 20.1394 14.3242 17.5161 16.2012 17.4523L25.9279 17.1216C27.5893 17.0651 28.1983 14.9088 26.8119 13.9915V13.9915C25.3624 13.0325 26.1057 10.7737 27.8414 10.8628L42.7669 11.629C44.2029 11.7027 45.2451 10.2824 44.7441 8.93472L44.4084 8.03165C43.8787 6.60675 45.0695 5.13515 46.5735 5.35594L63.8414 7.89081C64.5917 8.00096 65.3398 7.67723 65.7732 7.05485L69.0082 2.4087C69.494 1.7111 70.3676 1.39676 71.1864 1.62493L86.5787 5.91398C87.0699 6.05084 87.5948 5.99494 88.0461 5.75771L98.0695 0.489122Z" fill="#63AB45"/>
</svg>
