<svg width="130" height="34" viewBox="0 0 130 34" fill="none" xmlns="http://www.w3.org/2000/svg">
<mask id="mask0_2269_61" style="mask-type:alpha" maskUnits="userSpaceOnUse" x="0" y="0" width="130" height="34">
<rect width="130" height="34" fill="white"/>
<rect x="0.5" y="0.5" width="129" height="33" stroke="#100C08" stroke-opacity="0.08"/>
</mask>
<g mask="url(#mask0_2269_61)">
<path d="M126.76 16.2367C127.532 16.2367 128.208 16.2367 129.172 16.2367C127.532 15.6645 125.988 16.1414 124.541 16.046C123.769 15.7599 123.094 15.3784 121.936 15.5691C121.261 15.4737 120.585 15.4737 119.91 15.5691C119.717 15.3784 119.524 15.283 119.331 15.0923C119.235 14.9969 118.945 14.9015 118.849 14.8061C118.366 14.6154 117.884 14.52 117.401 14.3293C117.691 14.2339 117.884 14.1385 118.173 14.0432C118.752 14.0432 119.331 13.9478 119.814 13.6617C120.296 13.4709 120.875 13.2802 120.778 12.9941V12.8987V12.8033C121.55 12.8033 122.419 12.8033 122.612 12.3265C122.515 12.1357 122.419 12.0403 122.322 11.8496C122.901 11.8496 123.48 12.0403 123.866 11.6589C124.252 11.2774 124.734 10.9912 125.217 10.7051C125.699 10.5144 126.181 10.419 126.76 10.2283C126.76 9.75141 127.146 9.36992 127.918 9.0838C128.304 9.0838 128.883 9.17918 129.172 8.98843C129.365 8.60694 128.883 8.60694 128.69 8.60694C128.111 8.51157 127.436 8.51157 126.857 8.4162C126.857 8.22545 126.857 8.03471 126.857 7.93934C126.953 7.84396 127.146 7.74859 127.243 7.55785C127.243 7.46248 127.243 7.46247 127.243 7.3671C127.629 7.27173 128.015 7.55785 128.497 7.46247C128.304 7.27173 128.015 7.17636 127.629 7.08099C127.436 6.89024 127.05 6.6995 126.567 6.60412C126.76 6.22264 125.506 6.12726 125.796 5.74577C126.374 5.84115 126.471 6.12726 127.243 6.12726C127.05 5.84115 126.664 5.74577 126.181 5.55503C125.892 5.36428 125.796 5.17354 125.217 5.17354C125.313 5.26891 125.41 5.45966 125.41 5.55503C124.927 5.55503 124.445 5.55503 123.962 5.55503C123.576 5.45966 123.19 5.36429 122.805 5.17354C122.805 5.07817 122.708 5.07817 122.612 4.9828C122.901 4.88742 123.287 4.88742 123.576 4.79205C124.445 4.69668 123.576 4.41056 123.866 4.31519C124.541 4.31519 124.927 4.02907 125.41 3.83833C126.085 3.74296 126.953 3.9337 127.725 3.55221C126.76 3.55221 125.988 3.64758 125.313 3.64758C125.217 3.55221 125.217 3.45684 125.12 3.36147C125.506 3.17072 126.278 3.17072 126.374 2.88461C126.278 2.88461 126.181 2.88461 126.085 2.88461C125.12 2.59849 124.059 2.78923 122.997 2.78923C121.84 2.78923 120.778 2.78923 119.621 2.78923C118.849 2.69386 118.077 2.69386 117.401 2.59849C117.305 2.59849 117.208 2.59849 117.112 2.59849C116.726 2.40774 115.279 2.59849 115.954 1.93088C114.314 1.26328 112.288 1.1679 110.262 1.07253C109.779 1.07253 109.297 1.07253 108.911 1.07253C107.078 0.97716 105.437 0.500299 103.604 0.786416C102.736 0.786416 101.964 0.404927 100.999 0.595671C100.42 0.595671 99.8414 0.500299 99.4554 0.691043C99.359 0.691043 99.2625 0.691043 99.0695 0.691043C98.3941 0.404927 97.6222 0.500299 96.8504 0.500299C96.6574 0.500299 96.368 0.500299 96.175 0.500299C94.6313 0.214182 92.8945 0.404927 91.2543 0.214182C90.4824 0.11881 89.8071 0.11881 89.0352 0.214182C88.1668 0.214182 87.2985 0.214182 86.4301 0.214182C86.3336 0.214182 86.2371 0.214182 86.0442 0.214182C85.1758 0.214182 84.404 0.309554 83.5356 0.309554C81.027 0.309554 78.5184 0.214182 76.0099 0.214182C75.9134 0.214182 75.7204 0.214182 75.6239 0.214182C74.8521 0.214182 74.0802 0.214182 73.3083 0.214182C73.2118 0.309554 73.3083 0.309554 73.4048 0.404927H73.3083C73.3083 0.309554 73.3083 0.309554 73.3083 0.214182C73.1154 0.214182 73.0189 0.214182 72.8259 0.214182C72.247 0.0234375 71.6681 0.0234375 71.0892 0.0234375C68.0017 0.0234375 64.8177 0.0234375 61.7303 0.0234375C61.5373 0.11881 61.5373 0.11881 61.7303 0.214182C64.8177 0.214182 68.0017 0.214182 71.0892 0.214182C66.7474 0.11881 62.3092 0.11881 57.9674 0.214182C57.8709 0.309554 57.9674 0.309554 58.0639 0.309554H57.9674C57.9674 0.404927 57.9674 0.404927 57.9674 0.500299C58.0639 0.404927 58.0639 0.404927 57.9674 0.309554V0.214182C57.5815 0.214182 57.1955 0.214182 56.8096 0.214182C55.1694 0.214182 53.4326 0.11881 51.7924 0.309554C51.6959 0.309554 51.6959 0.309554 51.6959 0.309554C51.5995 0.309554 51.503 0.309554 51.4065 0.309554C50.6346 0.214182 49.9592 0.214182 49.1874 0.309554C45.2315 0.309554 41.2757 0.214182 37.3199 0.500299C36.162 0.500299 34.9078 0.500299 33.75 0.500299C33.4605 0.500299 33.2675 0.500299 32.9781 0.500299C33.364 0.404927 33.75 0.309554 34.1359 0.309554C33.557 0.214182 32.9781 0.11881 32.5921 0.404927C31.8203 0.404927 31.1449 0.404927 30.373 0.404927C29.8906 0.404927 29.5047 0.404927 29.2152 0.595671C27.4785 0.595671 25.7418 0.404927 24.1016 0.691043C24.0051 0.691043 24.0051 0.691043 23.9086 0.691043C20.2422 0.691043 16.4793 0.691043 12.813 0.786416C12.5235 0.786416 12.3305 0.786416 12.0411 0.786416C8.66416 0.786416 5.28723 0.786416 1.91029 0.786416C-0.308835 0.786416 -2.43148 0.881788 -4.45764 0.881788C-4.74709 0.881788 -4.94006 0.881788 -5.22951 0.881788C-6.38731 0.881788 -7.44863 0.881788 -8.60644 0.881788C-9.95721 0.881788 -11.4045 0.881788 -12.7552 0.881788C-13.3341 0.881788 -14.0095 0.881788 -14.5884 0.881788C-15.3603 0.881788 -16.1322 0.881788 -16.8076 0.881788C-17.097 0.881788 -17.29 0.881788 -17.5794 0.881788C-18.6408 0.881788 -19.7021 0.881788 -20.8599 0.881788C-22.1142 0.691043 -23.3685 0.691043 -24.7192 0.691043C-25.6841 0.691043 -26.6489 0.691043 -27.6138 0.595671C-28.4821 0.500299 -29.4469 0.500299 -30.3153 0.595671C-30.7012 0.595671 -30.9907 0.595671 -31.3766 0.595671C-33.1133 0.309554 -34.85 0.404927 -36.6832 0.309554C-37.6481 0.0234375 -38.8059 0.214182 -39.9637 0.11881C-40.5426 0.0234375 -41.025 -0.0719348 -41.1215 0.309554C-41.7969 0.691043 -41.7004 1.26328 -42.4723 1.64477C-43.3406 2.02626 -43.3406 2.50312 -42.7617 2.88461C-42.7617 2.97998 -42.6652 2.97998 -42.5687 2.97998C-42.2793 3.36147 -41.8934 3.55221 -41.5074 3.83833C-42.7617 3.83833 -43.5336 4.21982 -44.3055 4.50593C-44.5949 4.60131 -44.8844 4.69668 -44.9808 4.88742C-45.2703 4.88742 -45.5597 4.9828 -45.6562 5.07817C-46.2351 5.17354 -47.2 4.88742 -47.4894 5.36428H-47.5859C-48.1648 5.36428 -48.7437 5.36428 -49.3226 5.36428C-49.9015 5.17354 -50.3839 5.17354 -51.2523 5.17354C-50.5769 5.45966 -49.998 5.55503 -49.3226 5.55503C-49.1296 5.6504 -48.9367 5.6504 -48.7437 5.74577C-48.8402 6.22264 -48.9367 6.60412 -49.0332 7.08099C-48.9367 7.08099 -48.8402 7.17636 -48.7437 7.17636H-48.8402C-49.0332 7.17636 -49.1296 7.17636 -49.3226 7.17636C-49.7085 7.17636 -50.0945 7.17636 -50.3839 7.17636C-50.8664 7.27173 -51.3488 7.27173 -51.9277 7.3671C-53.4714 7.55785 -55.2081 7.65322 -56.4624 8.22545C-57.5237 8.32083 -58.1991 8.79769 -59.2604 8.98843C-58.4886 9.17918 -58.1026 8.89306 -57.5237 8.89306C-57.4273 8.98843 -57.2343 8.98843 -57.1378 9.0838C-57.4273 9.27455 -57.7167 9.36992 -57.9097 9.56067C-59.0675 9.65604 -59.5499 10.0375 -60.2253 10.419C-60.6112 10.5144 -60.9972 10.7051 -60.9007 10.8959C-60.6112 11.5635 -62.4444 11.7542 -62.5409 12.4218C-62.0585 12.2311 -61.6725 12.1357 -61.2866 12.0403C-61.2866 12.1357 -61.2866 12.1357 -61.2866 12.2311C-61.5761 12.4218 -61.769 12.6126 -62.0585 12.708C-61.6725 12.9941 -61.8655 13.2802 -62.4444 13.5663C-62.8303 13.6617 -63.2163 13.8524 -63.5057 13.9478C-63.7952 13.9478 -64.0846 13.9478 -64.2776 14.1385C-65.9178 14.52 -65.9178 14.6154 -64.0846 15.0923C-64.0846 15.1876 -63.9881 15.283 -63.9881 15.3784C-65.4354 15.3784 -66.6897 15.6645 -67.944 15.9506C-68.6194 16.1414 -68.3299 16.2367 -67.751 16.2367C-68.0405 16.7136 -69.0053 16.7136 -69.6807 16.9043C-70.0666 17.0951 -70.4526 17.1904 -70.935 17.3812C-70.2596 17.3812 -69.6807 17.3812 -69.1018 17.4766C-68.8123 17.6673 -68.9088 17.7627 -69.4877 17.7627C-70.2596 17.7627 -70.935 17.7627 -71.8998 17.7627C-70.2596 18.3349 -68.7159 17.8581 -67.2686 17.9534C-66.4967 18.2395 -65.8213 18.621 -64.6635 18.4303C-63.9881 18.5257 -63.3128 18.5257 -62.6374 18.4303C-62.6374 18.621 -62.3479 18.8118 -62.2514 19.0025C-62.155 19.0979 -61.8655 19.1933 -61.6725 19.2886C-61.1901 19.4794 -60.7077 19.5748 -60.2253 19.7655C-60.5147 19.8609 -60.7077 19.9562 -60.9972 20.147C-61.5761 20.147 -62.155 20.2424 -62.6374 20.5285C-63.1198 20.7192 -63.6987 20.91 -63.6022 21.1961V21.2915V21.3868C-64.3741 21.3868 -65.2424 21.3868 -65.4354 21.8637C-65.3389 21.9591 -65.2424 22.1498 -65.146 22.2452C-65.7249 22.2452 -66.3038 22.0544 -66.6897 22.4359C-67.0756 22.8174 -67.5581 23.1035 -68.0405 23.3896C-68.5229 23.6758 -69.1018 23.7711 -69.5842 23.9619C-69.5842 24.4387 -69.9701 24.8202 -70.742 25.1063C-71.128 25.1063 -71.7069 25.011 -71.9963 25.2017C-72.1893 25.3925 -71.7069 25.3925 -71.5139 25.3925C-70.935 25.4878 -70.2596 25.4878 -69.6807 25.5832C-69.6807 25.774 -69.6807 25.9647 -69.6807 26.0601C-69.6807 26.2508 -69.7772 26.3462 -69.9701 26.4416C-69.9701 26.5369 -69.9701 26.5369 -69.9701 26.6323C-70.3561 26.7277 -70.742 26.4416 -71.2244 26.6323C-71.0315 26.823 -70.6455 26.9184 -70.3561 27.0138C-70.0666 27.2045 -69.6807 27.3953 -69.1983 27.4907C-69.3912 27.8721 -68.137 27.9675 -68.4264 28.349C-69.0053 28.2536 -69.1018 27.9675 -69.8737 27.9675C-69.6807 28.2536 -69.2948 28.349 -68.8123 28.5397C-68.5229 28.6351 -68.4264 28.8259 -67.8475 28.8259C-67.944 28.7305 -67.944 28.6351 -68.0405 28.4444C-67.5581 28.4444 -67.0756 28.4444 -66.5932 28.4444C-66.2073 28.6351 -65.8213 28.7305 -65.4354 28.8259C-65.4354 28.9212 -65.3389 28.9212 -65.2424 29.0166C-65.5319 29.112 -65.9178 29.112 -66.2073 29.2074C-67.0756 29.3027 -66.2073 29.5888 -66.4967 29.6842C-67.1721 29.6842 -67.5581 29.9703 -68.0405 30.1611C-68.8123 30.2564 -69.5842 30.0657 -70.4526 30.3518C-69.4877 30.3518 -68.7159 30.2564 -68.0405 30.2564C-67.944 30.4472 -67.944 30.5426 -67.8475 30.6379C-67.6545 30.7333 -67.5581 30.7333 -67.3651 30.8287C-67.3651 30.6379 -67.4616 30.5426 -67.8475 30.6379C-68.137 30.8287 -69.0053 30.8287 -69.1018 31.1148C-69.0053 31.1148 -68.9088 31.1148 -68.8123 31.1148C-67.8475 31.4009 -66.7862 31.2102 -65.7249 31.2102C-64.5671 31.2102 -63.5057 31.2102 -62.3479 31.2102C-61.6725 31.4009 -60.9007 31.4009 -60.1288 31.4963C-60.0323 31.4963 -59.9358 31.4963 -59.8393 31.4963C-59.4534 31.7824 -58.0062 31.5917 -58.6815 32.1639C-57.0413 32.8315 -55.0152 32.9269 -52.989 33.0222C-52.5066 33.0222 -52.0242 33.0222 -51.6382 33.0222C-49.805 33.1176 -48.1648 33.5945 -46.3316 33.3084C-45.4633 33.3084 -44.6914 33.6899 -43.7265 33.4991C-43.1476 33.4991 -42.5687 33.5945 -42.1828 33.4037C-42.0863 33.4037 -41.9898 33.4037 -41.7969 33.4037C-41.1215 33.6899 -40.3496 33.6899 -39.5777 33.5945C-39.3848 33.5945 -39.0953 33.5945 -38.9024 33.5945C-37.3586 33.8806 -35.6219 33.6899 -33.9817 33.8806C-33.2098 33.976 -32.5344 33.976 -31.7626 33.8806C-30.8942 33.8806 -30.0258 33.8806 -29.1575 33.8806C-29.061 33.8806 -28.868 33.8806 -28.7716 33.8806C-27.9032 33.8806 -27.1313 33.7852 -26.263 33.7852C-23.7544 33.7852 -21.2458 33.8806 -18.7372 33.8806C-18.6408 33.8806 -18.4478 33.8806 -18.3513 33.8806C-17.5794 33.8806 -16.8076 33.8806 -16.0357 33.8806C-15.9392 33.7852 -16.0357 33.7852 -16.1322 33.6899H-16.0357C-16.0357 33.7852 -16.0357 33.7852 -16.0357 33.8806C-15.8427 33.8806 -15.7462 33.8806 -15.5533 33.8806C-15.0709 33.976 -14.492 33.976 -13.8166 33.976C-10.7291 33.976 -7.54512 33.976 -4.45764 33.976C-4.26467 33.8806 -4.26467 33.8806 -4.45764 33.7852C-7.54512 33.7852 -10.7291 33.7852 -13.8166 33.7852C-9.47479 33.8806 -5.03654 33.8806 -0.69477 33.7852C-0.598286 33.6899 -0.694768 33.6899 -0.791251 33.6899H-0.69477C-0.69477 33.5945 -0.69477 33.5945 -0.69477 33.4991C-0.791254 33.5945 -0.791254 33.5945 -0.69477 33.6899V33.7852C-0.308835 33.7852 0.0771041 33.7852 0.463039 33.7852C2.10326 33.7852 3.83997 33.8806 5.48019 33.6899H5.57668C5.67316 33.6899 5.76964 33.6899 5.86613 33.6899C6.638 33.7852 7.31339 33.7852 8.08526 33.6899C12.0411 33.6899 15.9969 33.7852 19.9528 33.4991C21.1106 33.4991 22.3649 33.4991 23.5227 33.4991C23.8121 33.4991 24.0051 33.4991 24.2945 33.4991C23.9086 33.5945 23.5227 33.6899 23.1367 33.7852C23.7156 33.8806 24.2945 33.976 24.6805 33.6899C25.4523 33.6899 26.1277 33.6899 26.8996 33.6899C26.9961 33.5945 26.9961 33.5945 26.8996 33.4991C26.8996 33.5945 26.8996 33.5945 26.8996 33.6899C27.382 33.6899 27.768 33.6899 28.0574 33.4991C29.7941 33.4037 31.6273 33.6899 33.364 33.4037C37.0304 33.4037 40.7933 33.4037 44.4597 33.3084C44.7491 33.3084 44.9421 33.3084 45.2315 33.3084C48.6085 33.3084 51.9854 33.3084 55.3623 33.3084C57.485 33.213 59.5111 33.213 61.6338 33.1176C61.9232 33.1176 62.1162 33.1176 62.4056 33.1176C63.5635 33.1176 64.6248 33.1176 65.7826 33.1176C67.1333 33.1176 68.5806 33.1176 69.9314 33.1176C70.5103 33.1176 71.1857 33.1176 71.7646 33.1176C72.5364 33.1176 73.2118 33.1176 73.9837 33.1176C74.2732 33.1176 74.4661 33.1176 74.7556 33.1176C75.8169 33.1176 76.8782 33.1176 78.036 33.1176C78.036 33.1176 78.036 33.1176 78.1325 33.1176C79.3868 33.3084 80.6411 33.3084 81.8954 33.213C82.8602 33.213 83.8251 33.213 84.7899 33.3084C85.6583 33.4991 86.6231 33.4037 87.4915 33.4037C87.8774 33.4037 88.1668 33.4037 88.5528 33.4037C90.2895 33.6899 92.0262 33.4991 93.7629 33.5945C94.8242 33.8806 95.982 33.6899 97.0433 33.7852C97.6222 33.976 98.1047 34.0713 98.2976 33.5945C98.973 33.213 98.8765 32.6408 99.6484 32.2593C100.42 31.8778 100.42 31.4963 99.9379 31.0194C99.9379 30.9241 99.8414 30.9241 99.7449 30.9241C99.3589 30.6379 98.973 30.3518 98.6836 30.0657C99.9379 30.1611 100.613 29.7796 101.385 29.3981C101.771 29.3027 101.964 29.2074 102.061 29.0166C102.35 29.0166 102.639 28.9212 102.736 28.8259C103.315 28.7305 104.28 29.0166 104.569 28.5397H104.666C105.244 28.5397 105.823 28.5397 106.402 28.5397C106.981 28.7305 107.464 28.7305 108.332 28.7305C107.657 28.4444 107.078 28.349 106.402 28.349C106.209 28.2536 105.92 28.2536 105.727 28.1583C105.823 27.6814 105.92 27.2999 106.016 26.823C105.92 26.7277 105.823 26.7277 105.727 26.7277H105.823C106.016 26.7277 106.113 26.7277 106.306 26.7277C106.692 26.7277 107.078 26.7277 107.367 26.7277C107.85 26.6323 108.332 26.6323 108.911 26.5369C110.455 26.3462 112.191 26.2508 113.446 25.6786C114.507 25.5832 115.182 25.1063 116.244 24.9156C115.472 24.7249 115.086 25.011 114.507 25.011C114.41 24.9156 114.217 24.9156 114.121 24.8202C114.41 24.6295 114.7 24.5341 114.893 24.3434C115.954 24.248 116.533 23.8665 117.208 23.485C117.594 23.3896 117.884 23.1989 117.884 23.0082C117.691 22.3406 119.428 22.1498 119.524 21.4822C119.042 21.6729 118.656 21.7683 118.27 21.8637C118.27 21.7683 118.27 21.7683 118.27 21.6729C118.559 21.4822 118.752 21.3868 119.042 21.1961C118.656 20.91 118.849 20.6239 119.428 20.3377C119.814 20.2424 120.199 20.0516 120.489 19.9562C120.778 19.9562 121.068 19.9562 121.261 19.7655C122.901 19.2886 122.901 19.2886 120.971 18.7164C120.971 18.621 120.875 18.5257 120.875 18.4303C122.322 18.4303 123.576 18.1442 124.831 17.8581C125.506 17.6673 125.217 17.5719 124.638 17.5719C124.927 17.0951 125.892 17.0951 126.567 16.9043C126.953 16.7136 127.436 16.6182 127.918 16.4275C127.243 16.4275 126.664 16.4275 126.085 16.3321C126.085 16.3321 126.181 16.2367 126.76 16.2367ZM-67.2686 31.0194C-67.3651 31.0194 -67.3651 31.0194 -67.4616 31.0194C-67.4616 31.0194 -67.3651 31.0194 -67.2686 31.0194ZM2.29623 1.1679H2.19975C2.29623 1.1679 2.29623 1.1679 2.29623 1.1679ZM-40.6391 5.45966C-40.5426 5.55503 -40.6391 5.55503 -40.6391 5.45966ZM2.87513 18.8118C2.77865 18.8118 2.77865 18.8118 2.87513 18.8118ZM87.395 29.5888C87.4914 29.5888 87.5879 29.5888 87.6844 29.6842C87.5879 29.6842 87.4914 29.6842 87.395 29.5888ZM-14.9744 3.07535C-14.8779 3.07535 -14.7814 3.07535 -14.6849 3.07535H-14.7814C-14.8779 3.07535 -14.9744 3.07535 -14.9744 3.07535ZM-12.9482 2.88461C-12.7552 2.88461 -13.0447 2.78923 -12.9482 2.88461ZM-28.2891 2.97998C-28.3856 2.97998 -28.4821 2.97998 -28.4821 2.97998C-28.3856 2.97998 -28.2891 2.97998 -28.2891 2.97998ZM-58.2956 15.7599C-58.3921 15.7599 -58.3921 15.7599 -58.4886 15.7599C-58.4886 15.7599 -58.4886 15.7599 -58.3921 15.7599C-58.3921 15.7599 -58.3921 15.7599 -58.2956 15.7599ZM72.1505 31.0194C72.054 31.0194 71.9575 31.0194 71.8611 31.0194H71.9575C72.054 31.0194 72.1505 30.9241 72.1505 31.0194ZM70.1243 31.1148C70.2208 31.3055 69.9314 31.1148 70.1243 31.1148ZM85.4653 31.0194C85.5618 31.0194 85.5618 31.0194 85.6583 31.0194C85.5618 31.0194 85.5618 31.1148 85.4653 31.0194ZM115.568 18.2395C115.665 18.2395 115.665 18.2395 115.761 18.2395C115.761 18.2395 115.761 18.2395 115.665 18.2395C115.568 18.2395 115.568 18.2395 115.568 18.2395ZM117.884 8.4162C117.787 8.4162 117.787 8.4162 117.884 8.4162ZM-60.5147 15.4737C-60.5147 15.3784 -60.5147 15.3784 -60.5147 15.4737ZM-60.7077 25.5832C-60.6112 25.6786 -60.6112 25.5832 -60.7077 25.5832C-60.6112 25.6786 -60.6112 25.6786 -60.7077 25.5832C-60.6112 25.6786 -60.7077 25.6786 -60.7077 25.5832ZM113.253 20.2424C113.349 20.2424 113.349 20.2424 113.253 20.2424C113.349 20.3377 113.349 20.3377 113.253 20.2424C113.349 20.3377 113.253 20.3377 113.253 20.2424ZM-23.1755 2.217C-23.079 2.12163 -23.079 2.12163 -22.9825 2.12163C-23.079 2.217 -23.1755 2.217 -23.1755 2.217ZM80.4481 31.7824C80.3516 31.8778 80.3516 31.8778 80.2551 31.8778C80.2551 31.7824 80.3516 31.7824 80.4481 31.7824ZM113.446 13.2802H113.349C113.349 13.1848 113.349 13.1848 113.446 13.2802ZM95.6926 1.64477C95.4996 1.54939 95.3066 1.64477 95.2101 1.64477C95.3066 1.64477 95.4996 1.64477 95.6926 1.64477ZM-32.1485 2.12163C-32.1485 2.217 -32.245 2.217 -32.1485 2.12163C-32.245 2.217 -32.245 2.12163 -32.1485 2.12163ZM-56.2694 20.8146H-56.173C-56.0765 20.8146 -56.173 20.8146 -56.2694 20.8146C-56.173 20.8146 -56.173 20.8146 -56.2694 20.8146ZM-38.5164 32.3546C-38.3235 32.45 -38.1305 32.3546 -38.034 32.3546C-38.1305 32.3546 -38.227 32.3546 -38.5164 32.3546ZM-30.5083 32.9269C-30.6047 32.8315 -30.7012 32.8315 -30.8942 32.8315C-30.7012 32.8315 -30.6047 32.9269 -30.5083 32.9269ZM113.928 14.8061H114.025C114.025 14.8061 114.024 14.8061 113.928 14.8061ZM69.9314 1.07253C69.9314 0.97716 69.9314 0.97716 69.9314 1.07253C70.0279 1.07253 70.1243 1.07253 70.1243 1.07253C70.0279 1.07253 69.9314 1.07253 69.9314 1.07253ZM-41.9898 6.6995C-42.0863 6.6995 -42.2793 6.6995 -42.3758 6.6995C-42.1828 6.6995 -42.0863 6.6995 -41.9898 6.6995ZM-12.6588 33.0222C-12.7552 33.0222 -12.7552 33.0222 -12.6588 33.0222ZM39.4425 0.881788C39.539 0.881788 39.539 0.881788 39.4425 0.881788ZM-59.4534 14.0432C-59.4534 14.1385 -59.4534 14.1385 -59.4534 14.0432ZM56.7131 32.5454C56.7131 32.45 56.7131 32.45 56.7131 32.5454H56.8096C56.8096 32.5454 56.8096 32.45 56.7131 32.5454ZM81.7989 33.1176C81.8954 33.1176 81.8954 33.1176 81.7989 33.1176C81.8954 33.213 81.7989 33.213 81.7989 33.1176ZM124.445 16.1414V16.2367C124.445 16.2367 124.445 16.2367 124.445 16.1414V16.2367C124.348 16.1414 124.348 16.1414 124.445 16.1414C124.348 16.1414 124.348 16.1414 124.445 16.1414ZM122.226 3.07535C122.129 2.97998 122.129 2.97998 122.226 3.07535ZM24.6805 1.07253C24.6805 0.97716 24.6805 0.97716 24.6805 0.881788C24.584 0.881788 24.584 0.97716 24.6805 1.07253ZM18.2161 0.881788C18.3125 0.881788 18.3125 0.881788 18.2161 0.881788ZM-0.115868 1.07253H-0.212349H-0.308835C-0.308835 1.07253 -0.212351 1.07253 -0.115868 1.07253ZM-1.27367 1.07253C-1.17719 0.97716 -1.17719 0.97716 -1.0807 0.97716C-1.17719 1.07253 -1.27367 1.07253 -1.27367 1.07253ZM-32.5344 0.595671C-32.6309 0.595671 -32.6309 0.595671 -32.6309 0.595671C-32.5344 0.595671 -32.5344 0.595671 -32.5344 0.595671ZM-67.1721 17.9534V17.8581C-67.1721 17.8581 -67.1721 17.8581 -67.1721 17.9534V17.8581C-67.1721 17.8581 -67.0756 17.8581 -67.1721 17.9534ZM-65.0495 31.0194C-64.953 31.0194 -64.953 31.0194 -65.0495 31.0194ZM32.5921 33.213C32.6886 33.1176 32.5921 33.1176 32.5921 33.0222C32.5921 33.0222 32.5921 33.1176 32.5921 33.213ZM38.9601 33.1176C38.9601 33.213 38.9601 33.213 38.9601 33.1176ZM57.5815 33.0222C57.485 33.0222 57.485 33.0222 57.3885 33.0222H57.485H57.5815C57.8709 33.0222 58.0639 33.0222 58.3533 33.0222C58.3533 33.0222 58.4498 33.0222 58.5463 32.9269C58.5463 32.9269 58.4498 32.9269 58.4498 33.0222H58.3533C58.0639 32.9269 57.8709 32.9269 57.5815 33.0222ZM89.7106 33.4037C89.8071 33.4037 89.8071 33.4037 89.8071 33.4037C89.8071 33.4037 89.7106 33.4037 89.7106 33.4037Z" fill="#FBB03B"/>
<path d="M121.649 21.6729C120.684 21.8636 119.815 22.1497 119.429 22.5312C120.105 22.3405 120.877 22.0543 121.649 21.6729Z" fill="#FBB03B"/>
<path d="M124.83 14.0436C124.83 14.0436 125.023 13.9482 125.023 13.8529C125.119 13.7575 124.926 13.6621 124.637 13.6621C124.444 13.6621 124.251 13.7575 124.155 13.8529C124.155 13.9482 124.348 14.0436 124.83 14.0436Z" fill="#FBB03B"/>
<path d="M5.28906 33.9766C6.06093 33.9766 6.54335 34.072 7.31522 33.8813C6.63984 33.8813 6.06093 33.7859 5.28906 33.9766Z" fill="#FBB03B"/>
<path d="M127.052 2.59863C126.57 2.59863 126.473 2.69401 126.377 2.88475C126.666 2.88475 127.149 2.98012 127.342 2.78938C127.342 2.694 127.149 2.59863 127.052 2.59863Z" fill="#FBB03B"/>
<path d="M59.4164 0.214182C60.1883 0.214182 60.9601 0.214182 61.6355 0.214182V0.11881V0.0234375C60.8637 0.0234375 60.0918 0.0234375 59.4164 0.0234375C58.6445 0.0234375 57.9691 0.0234375 57.1973 0.0234375C57.1973 0.11881 57.1973 0.11881 57.1973 0.214182C57.9691 0.214182 58.741 0.214182 59.4164 0.214182Z" fill="#FBB03B"/>
<path d="M51.8897 0.0238431C51.1178 0.0238431 50.6354 -0.0715292 49.8635 0.119215C50.6354 0.119215 51.1178 0.214588 51.8897 0.0238431Z" fill="#FBB03B"/>
</g>
</svg>
