<svg width="285" height="240" viewBox="0 0 285 240" fill="none" xmlns="http://www.w3.org/2000/svg">
<g opacity="0.05">
<path d="M280.659 171.114C279.482 171.58 279.066 171.04 279.041 169.913C279.016 169.153 279.409 168.369 278.943 167.511C278.085 167.707 278.208 168.442 278.085 168.981C277.889 169.717 277.644 170.428 276.737 170.379C275.756 170.305 275.707 169.496 275.732 168.761C275.781 166.996 275.413 165.329 274.678 163.761C274.482 163.761 274.286 163.761 274.065 163.761C274.065 164.766 274.09 165.77 274.065 166.775C274.041 167.584 274.065 168.516 273.06 168.663C272.104 168.81 272.08 167.854 271.761 167.241C270.658 165.133 270.83 162.657 269.751 159.937C269.751 162.927 269.751 165.354 269.751 167.756C269.727 171.433 269.334 171.702 265.976 170.256C265.731 170.158 265.437 170.109 264.702 169.913C265.535 172.511 266.614 174.742 268.526 176.139C271.761 178.516 272.325 182.046 273.256 185.453C274.482 189.988 274.212 194.719 274.997 199.302C275.756 203.665 276.026 208.151 278.477 212.073C279.213 213.225 279.507 214.597 279.727 215.97C279.85 216.754 280.07 217.661 278.967 217.882C277.987 218.078 277.595 217.343 277.301 216.558C276.688 214.941 276.026 213.347 275.462 211.73C274.629 209.376 273.06 207.685 270.903 206.509C268.942 205.43 266.908 204.548 264.8 203.837C264.334 203.69 263.746 203.469 263.354 203.616C262.153 204.082 261.368 204.106 260.045 203.322C258.598 202.464 256.343 203.003 254.628 203.812C250.51 205.7 246.588 207.955 243.573 211.435C242.837 212.293 242.666 211.877 242.249 211.19C240.779 208.739 240.46 206.018 240.484 203.273C240.533 194.498 239.406 185.821 238.867 177.095C238.769 175.649 238.327 175.134 236.906 175.624C235.165 176.212 233.376 176.163 231.587 175.918C230.459 175.771 229.895 176.065 229.528 177.364C228.498 180.87 228.866 184.375 229.307 187.831C229.699 190.821 229.822 193.812 229.895 196.802C229.92 198.126 230.214 199.033 231.66 199.572C233.989 200.43 235.656 202.342 237.617 203.812C238.082 204.156 238.573 204.597 238.156 205.259C237.715 205.945 237.004 205.847 236.416 205.553C235.729 205.185 235.043 204.744 234.479 204.205C231.587 201.361 227.935 200.822 224.16 200.748C221.807 200.699 219.429 200.871 217.076 200.993C213.669 201.165 211.291 202.954 209.747 205.92C207.516 210.21 205.482 214.548 206.07 219.598C206.168 220.48 206.095 221.559 204.918 221.51C203.864 221.485 203.987 220.48 204.036 219.671C204.403 212.71 204.722 205.749 208.987 199.768C210.041 198.273 211.046 196.729 209.551 194.915C209.232 194.522 209.551 194.081 209.747 193.714C210.458 192.292 210.286 190.797 210.237 189.032C209.085 189.89 209.085 191.017 208.693 191.924C208.325 192.782 207.982 193.64 207.639 194.522C207.296 195.429 206.609 195.748 205.752 195.454C204.747 195.111 205.408 194.351 205.506 193.812C205.899 191.924 206.438 190.037 206.781 188.149C206.928 187.365 207.026 186.483 206.487 185.429C205.335 187.145 205.188 188.958 204.869 190.723C204.673 191.802 204.477 192.856 203.987 193.812C203.84 194.081 203.423 194.424 203.178 194.4C202.614 194.326 202.712 193.836 202.786 193.395C203.276 190.478 203.619 187.561 203.031 184.62C202.933 184.154 202.982 183.639 202.295 183.051C202.173 184.914 202.222 186.581 201.928 188.174C201.413 190.968 200.653 193.714 200.065 196.508C199.869 197.439 199.795 198.444 198.668 198.714C197.467 198.984 196.584 198.346 195.849 197.513C195.555 197.194 195.359 196.802 195.04 196.508C194.844 196.336 194.501 196.238 194.256 196.287C193.79 196.41 193.814 196.925 193.962 197.17C194.942 198.787 194.452 201.141 196.78 202.195C197.589 202.562 198.398 203.959 198.129 205.332C198.006 205.969 198.006 206.631 197.859 207.244C197.124 210.259 197.491 212.759 200.506 214.499C201.585 215.112 202.148 216.485 202.59 217.71C202.835 218.397 203.104 219.157 202.295 219.622C201.511 220.063 200.947 219.524 200.506 218.911C198.962 216.73 197.246 214.695 194.942 213.274C191.755 211.337 188.397 210.038 184.598 211.386C183.299 211.852 182.024 212.318 180.627 212.342C179.549 212.342 178.642 212.71 177.808 213.298C176.509 214.205 175.161 214.941 173.641 215.455C171.877 216.044 170.872 217.416 170.651 219.328C170.578 219.965 170.455 220.627 170.161 221.166C169.72 221.975 168.862 222.098 168.102 221.73C167.367 221.363 167.563 220.676 167.906 220.039C168.837 218.25 169.671 216.411 171.019 214.892C171.509 214.352 171.852 213.838 171.95 213.053C172.342 209.744 172.22 209.597 169.009 210.063C167.636 210.259 166.288 209.989 164.94 209.793C163.91 209.622 163.714 210.014 163.886 210.994C164.768 216.191 165.112 221.412 164.033 226.633C163.788 227.883 164.058 228.103 165.332 227.785C168.372 227 171.484 227.147 174.573 226.951C178.887 226.682 182.196 228.495 185.481 230.751C187.883 232.417 190.653 233.618 192.393 236.143C192.785 236.731 193.447 237.32 192.761 238.03C192.025 238.79 191.339 238.325 190.726 237.712C189.476 236.437 188.103 235.285 186.731 234.109C180.995 229.206 174.254 228.275 167.269 229.697C161.753 230.824 157.464 234.329 154.057 238.815C153.763 239.182 153.714 239.967 153.101 239.746C152.39 239.477 152.733 238.717 152.831 238.226C153.395 235.751 155.429 234.354 157.072 232.687C158.003 231.731 159.94 231.363 159.94 230.064C159.94 229.059 158.567 227.981 157.734 227.025C155.601 224.623 153.91 221.853 151.312 219.794C147.488 216.779 143.566 215.627 138.566 216.509C133.761 217.343 130.33 219.965 126.923 222.931C125.329 224.328 125.55 225.064 127.56 225.701C133.148 227.49 137.512 230.751 140.134 236.119C140.526 236.903 141.041 237.785 140.061 238.398C139.129 238.986 138.541 238.079 138.198 237.442C136.703 234.599 134.717 232.295 131.874 230.603C126.089 227.147 119.937 226.706 113.539 227.883C112.167 228.128 110.5 228.177 109.764 230.04C109.617 230.407 108.024 231.167 107.191 231.069C104.813 230.8 104.127 232.319 103.293 233.986C103.024 234.501 103.048 235.726 102.068 235.383C101.161 235.065 101.774 234.158 101.823 233.471C101.97 231.486 102.999 230.015 104.715 229.206C108.735 227.319 112.608 225.015 117.069 224.206C118.147 224.279 119.226 224.451 120.28 224.402C121.481 224.353 123.001 225.554 123.761 223.544C124.226 222.294 125.452 221.632 125.771 220.113C127.021 214.009 127.364 207.783 128.491 201.655C128.614 200.92 129.227 199.964 128.099 199.67C126.8 199.327 125.427 198.003 124.128 199.033C122.854 200.038 121.849 201.533 121.628 203.2C121.04 207.612 120.501 212.024 120.182 216.46C120.059 218.25 119.863 220.014 119.643 221.804C119.496 222.907 119.005 223.74 117.657 223.422C117.167 222.466 117.118 221.681 117.559 220.48C118.196 218.74 118.123 216.681 118.196 214.769C118.319 210.798 119.079 206.925 119.545 203.003C119.765 201.165 120.697 199.572 122.118 198.395C124.422 196.459 125.722 193.934 126.653 191.164C126.702 191.042 126.628 190.895 126.604 190.65C125.354 191.14 124.864 192.243 124.226 193.199C123.785 193.861 123.442 194.596 122.633 194.89C121.996 195.135 121.383 195.111 120.844 194.596C120.182 193.983 120.525 193.468 120.893 192.905C122.118 191.042 123.466 189.253 123.687 186.948C123.736 186.434 123.859 185.943 123.54 185.453C122.829 185.257 122.78 185.919 122.584 186.311C121.457 188.64 120.354 190.968 119.226 193.297C119.103 193.567 119.52 194.057 118.932 194.13C118.417 194.204 118.147 193.836 117.976 193.419C117.633 192.611 117.927 191.875 118.196 191.115C118.981 188.958 119.716 186.801 120.55 184.644C121.089 183.272 121.187 181.899 120.746 180.33C119.692 180.722 119.692 181.678 119.447 182.389C118.76 184.497 118.221 186.679 117.51 188.787C117.241 189.596 117.142 190.993 116.015 190.797C115.133 190.65 115.329 189.375 115.353 188.517C115.451 185.87 115.574 183.223 115.525 180.551C114.495 182.561 114.275 184.84 114.201 186.973C114.152 188.86 112.877 190.233 112.853 192.071C112.828 192.929 111.799 192.218 111.26 192.292C110.377 190.405 109.495 188.517 108.588 186.654C108.367 186.213 108.539 185.282 107.681 185.502C106.799 185.747 106.75 186.532 107.068 187.267C107.73 188.86 108.441 190.405 109.152 191.973C109.25 192.169 109.323 192.365 109.421 192.562H109.397C112.069 196.9 111.431 201.631 110.941 206.337C110.745 208.322 110.451 210.332 110.23 212.318C110.132 213.347 110.353 214.254 110.892 215.186C111.701 216.607 112.216 218.176 112.926 219.671C113.27 220.382 113.221 220.97 112.485 221.265C111.823 221.51 111.48 221.117 111.26 220.456C110.083 217.171 107.509 214.916 105.254 212.44C104.372 211.46 102.975 211.313 101.7 211.043C101.161 210.921 100.45 211.141 100.082 210.651C99.5432 209.916 98.6853 209.842 98.195 210.185C97.5087 210.676 98.8324 211.166 98.5382 211.828C98.5137 211.828 98.4892 211.803 98.4892 211.779C98.5137 211.73 98.5872 211.632 98.5872 211.607C97.7048 210.21 96.9695 209.695 95.1066 210.7C93.3663 211.656 91.0377 211.73 89.4935 213.176C87.2875 215.21 84.8608 217.171 84.3951 220.456C84.2725 221.314 83.9294 222.073 82.8509 221.73C81.944 221.436 82.0665 220.676 82.2626 219.941C82.9489 217.588 83.8068 215.284 85.302 213.347C86.5276 211.754 87.6061 210.381 87.8757 208.126C88.2924 204.401 89.2728 200.699 90.4494 197.096C90.5229 196.851 90.474 196.532 90.4985 196.263C90.6701 194.89 90.8661 193.542 91.0377 192.169C90.8907 192.145 90.7191 192.145 90.572 192.12C90.3759 193.493 90.1798 194.866 89.9837 196.238C89.1013 196.974 88.513 197.268 88.562 195.65C88.6846 190.257 89.0278 184.889 88.8317 179.497C88.8072 178.737 88.7336 177.977 89.7631 177.56C90.8416 177.119 90.2288 176.114 89.9101 175.526C89.518 174.815 89.0523 175.551 88.562 175.722C87.0913 176.212 85.5472 176.678 84.0029 176.801C82.5077 176.923 82.2871 177.56 82.2871 178.86C82.2626 184.693 81.7968 190.478 80.5713 196.214C80.2771 197.635 79.7379 198.959 79.0761 200.234C78.88 200.626 78.6103 201.067 78.1201 200.969C77.4338 200.846 77.5318 200.185 77.6054 199.743C77.924 197.979 78.2917 196.214 78.7084 194.473C79.8115 189.743 79.9095 184.914 80.2527 180.134C80.3017 179.301 80.5713 178.026 79.5173 177.732C78.3162 177.389 77.6544 178.296 77.1151 179.399C76.3798 180.943 75.4974 182.438 74.5169 183.86C71.0853 188.836 70.6932 194.375 71.355 200.136C71.6736 202.905 72.0903 205.7 72.2128 208.47C72.3354 211.166 73.757 213.543 73.9041 216.215C73.9041 216.362 73.9532 216.485 74.0022 216.632C74.3944 218.152 74.664 220.284 73.561 220.897C72.7031 221.387 71.6001 219.279 70.8647 218.103C68.5116 214.45 64.9084 213.004 60.864 212.636C56.5255 212.244 52.2114 212.636 48.2406 214.671C45.7649 215.946 44.0736 218.323 41.549 219.524C41.3284 219.622 41.1077 219.769 40.3724 220.211C41.7695 217.049 43.5343 214.842 45.8629 213.176C46.9905 212.367 47.4072 211.509 47.4072 210.136C47.4072 204.964 47.8729 199.817 49.0249 194.792C49.3926 193.199 51.1329 192.12 51.182 190.233C51.2065 189.277 52.187 188.149 50.2015 188.027C49.6132 188.002 49.9564 187.145 49.7603 186.703C50.0055 186.458 50.0299 186.164 49.8583 185.87C50.1034 185.012 50.2751 184.179 49.9809 183.296C50.03 182.242 50.0789 181.188 50.177 179.521C49.1965 181.066 49.2455 182.193 49.0985 183.272C48.8534 184.644 48.6327 186.042 48.3141 187.414C48.1915 187.953 48.5592 188.836 47.5542 188.909C46.6473 188.958 46.6964 188.1 46.4267 187.586C46.6473 187.292 46.5983 187.022 46.3777 186.728C46.5738 185.576 46.3777 184.424 46.2307 183.272C46.2307 182.291 46.2307 181.311 46.2307 179.767C45.4953 181.237 45.5933 182.267 45.5688 183.272C45.005 184.424 45.1766 185.649 45.1276 186.875C45.1031 187.831 45.1276 188.934 43.902 189.032C42.7255 189.13 42.701 188.051 42.5294 187.218C42.0882 184.767 41.6715 182.316 41.2303 179.865C41.1568 179.448 41.2058 178.982 40.544 178.713C40.1518 181.997 40.446 185.208 40.495 188.419C40.5195 189.4 41.1077 190.797 40.2253 191.238C39.441 191.63 38.3379 190.723 37.529 190.012C37.382 189.865 37.1614 189.816 36.9653 189.718C36.5241 188.983 36.0584 188.248 35.6171 187.537C35.5436 187.586 35.4455 187.635 35.372 187.684C35.6662 188.37 35.9358 189.056 36.2299 189.718C36.426 191.679 37.3085 193.493 38.387 194.988C39.8331 196.949 39.686 199.057 39.7351 201.141C39.7841 203.935 39.5635 206.729 39.3674 209.524C39.3184 210.332 39.49 210.872 40.1273 211.386C40.6175 211.779 41.0587 212.293 41.4509 212.784C41.8921 213.372 42.2843 214.034 41.647 214.72C41.0588 215.333 40.4459 214.941 39.9067 214.597C39.1958 214.132 38.4114 213.691 37.8232 213.078C34.3425 209.376 30.004 207.955 25.0282 208.151C23.7045 208.2 22.4545 208.47 21.327 209.18C20.6652 209.597 19.9788 210.014 19.317 210.455C15.7138 212.735 12.993 211.484 12.2822 207.195C11.2527 200.92 9.46337 194.817 6.44846 189.277C4.38949 185.502 1.86481 181.997 0.712769 177.83C0.124493 175.649 -0.831435 173.344 1.42362 171.286C2.18348 170.599 1.35009 169.251 1.49716 168.197C1.64423 167.241 1.3501 166.04 2.42861 165.525C3.55614 164.986 4.21791 166.065 5.14935 166.702C5.61507 165.648 5.49252 164.594 5.61507 163.589C5.71312 162.682 5.63961 161.53 6.86518 161.407C7.94369 161.309 8.43392 162.241 8.85061 163.123C9.14475 163.761 9.24277 164.52 9.97812 164.937C10.836 164.52 10.3213 163.663 10.5419 163.074C10.9096 162.118 11.2037 161.04 12.4047 160.966C13.5078 160.917 13.998 161.898 14.2676 162.78C15.0765 165.452 15.8364 168.124 16.5963 170.82C16.7924 171.555 19.5621 172.854 20.1014 172.389C20.6897 171.874 20.1749 171.286 19.9788 170.82C19.1944 168.981 18.4101 167.168 18.165 165.109C17.8218 162.339 17.9198 159.692 18.6797 156.995C18.9738 155.917 18.9738 154.716 18.9248 153.564C18.8268 149.813 18.7778 146.088 19.3415 142.362C19.6847 140.082 21.8662 138.22 24.1703 138.293C25.9596 138.342 29.1952 135.793 29.5138 134.004C29.6854 133.048 29.9795 132.165 30.6168 131.479C31.2541 130.793 32.1365 130.18 33.117 130.67C34.0484 131.136 33.5337 132.067 33.4111 132.802C33.1415 134.224 32.8718 135.646 32.9944 137.092C33.0924 138.318 32.6513 139.984 34.9554 139.641C35.5191 139.543 35.8868 140.254 36.0829 140.818C36.9653 143.465 37.1614 145.745 35.372 148.49C32.9699 152.167 31.5973 156.505 31.7934 161.089C31.8424 162.265 36.2055 167.143 37.0389 166.726C39.6861 165.354 43.0932 167.094 45.3728 164.52C45.7404 164.104 46.3042 163.81 46.917 163.834C49.2701 163.908 50.3976 162.854 50.3731 160.402C50.3486 158.564 51.1084 156.995 52.4075 155.574C53.9518 153.858 55.6676 152.24 54.9568 149.299C54.6871 148.171 56.2804 146.701 55.8147 145.107C55.2999 144.96 55.1773 145.352 55.0058 145.646C54.7116 146.112 54.295 146.382 53.7312 146.186C53.0204 145.941 53.0939 145.352 53.1184 144.764C53.1184 143.882 54.1969 142.068 51.7458 143.244C50.9614 143.612 50.6918 142.779 50.7408 142.068C50.7653 141.431 50.9859 140.524 50.177 140.45C49.4416 140.377 49.4907 141.382 49.1965 141.921C49.0985 142.117 49.0494 142.337 48.9269 142.509C48.5837 143.097 48.4122 144.029 47.4317 143.661C46.5738 143.342 46.9905 142.607 47.0395 141.97C47.2356 139.764 48.02 137.607 47.6523 135.352C47.8974 134.298 47.7994 133.268 47.6033 131.871C47.2111 133.244 46.8924 134.298 46.5738 135.352C46.3042 139.298 45.0786 143.097 44.4168 146.97C43.6814 151.211 43.2893 155.5 42.75 159.765C42.6765 160.402 42.6765 161.089 42.4313 161.677C42.2107 162.192 42.4804 163.295 41.598 163.148C40.691 162.976 41.3284 162.045 41.3284 161.505C41.647 151.578 43.853 141.921 45.5688 132.19C45.5933 132.116 45.5688 132.043 45.5933 131.969C46.0836 130.695 45.7894 128.537 47.6278 128.66C49.6622 128.783 49.3926 130.94 49.5642 132.459C49.6868 133.464 49.6132 134.469 49.5887 135.474C49.5152 138.121 50.3241 139.102 53.0939 139.715C53.2409 139.739 53.4371 139.715 53.5106 139.813C54.8342 141.676 57.2363 142.779 57.7756 145.156C58.756 149.519 57.1382 153.27 54.3684 156.554C53.2654 157.878 52.6281 159.226 52.383 160.966C52.1624 162.486 52.8733 162.339 53.7802 162.094C57.8491 160.991 61.918 159.79 66.0114 158.76C67.0899 158.491 67.1144 157.633 67.3105 157.02C68.2665 153.907 68.0459 151.529 65.3496 150.451C63.3887 149.666 62.6044 147.485 63.4623 146.039C64.4182 144.445 65.8399 144.396 67.3841 145.279C68.5852 145.965 68.4871 145.058 68.5116 144.323C68.6097 141.234 68.0459 138.171 68.4136 135.082C68.4626 134.665 68.4626 134.2 68.5852 133.807C68.8303 133.048 69.1979 132.312 70.1049 132.165C71.1098 131.994 71.4775 132.802 71.8452 133.464C72.1638 134.028 72.3354 134.641 72.5806 135.229C73.4385 134.91 73.5365 134.151 73.6591 133.366C73.8552 132.116 74.2473 130.817 75.8405 130.94C77.4093 131.062 77.2622 132.533 77.4338 133.611C77.5563 134.298 77.4583 135.033 77.4583 135.866C78.4878 135.744 78.4388 134.837 78.8555 134.347C79.5663 133.538 80.2036 132.484 81.5027 132.999C82.7528 133.489 82.7528 134.69 82.6548 135.768C82.5077 137.582 81.9684 139.298 81.2821 140.965C81.0125 141.602 80.5958 142.239 80.9145 142.999C81.5763 143.171 81.993 142.705 82.5077 142.509C83.4882 142.141 84.4441 141.896 85.204 142.95C86.0374 144.078 85.8413 145.156 84.8853 146.039C83.4391 147.362 82.042 148.686 81.4537 150.647C81.2821 151.186 81.1596 151.75 80.988 152.289C80.6203 153.515 80.8409 154.005 82.2871 153.588C84.2235 153.024 86.1844 152.485 88.1698 152.265C89.8366 152.093 90.0327 151.554 89.4689 150.132C88.1453 146.725 87.8267 143.171 88.2434 139.543C88.3414 138.587 88.4395 137.754 89.6895 137.509C90.7926 137.288 90.1798 136.21 90.3759 135.523C90.5965 134.739 90.3023 133.709 91.3073 133.293C92.2388 132.9 92.7045 133.807 93.4398 134.2C93.7094 133.146 93.9055 132.116 94.2242 131.111C94.4448 130.376 95.0085 129.837 95.8174 129.91C96.5773 129.984 96.7979 130.645 96.9695 131.307C97.1656 132.067 97.3617 132.827 97.5578 133.489C98.097 133.807 98.2931 133.415 98.5137 133.17C99.0285 132.582 99.5922 132.116 100.377 132.508C101.063 132.852 101.357 133.489 101.357 134.273C101.333 136.332 101.602 138.391 100.646 140.72C102.019 140.205 102.975 139.077 104.053 140.156C105.156 141.259 105.034 142.681 104.74 144.004C104.519 144.985 104.078 145.892 104.666 147.166C107.73 144.494 110.671 146.014 113.49 147.46C115.206 141.872 116.579 136.283 117.388 130.572C117.437 130.229 117.461 129.812 117.682 129.542C119.496 127.14 118.245 125.939 115.966 125.155C114.226 124.542 112.681 123.316 110.72 123.415C110.132 123.439 109.863 123.071 109.446 122.802C108.588 122.189 107.681 121.527 106.504 121.968C104.96 122.532 103.539 122.336 101.97 121.65C98.6118 120.179 95.0576 119.37 91.4054 118.953C88.3414 118.61 85.7678 116.649 82.7038 116.208C81.3802 116.012 80.2036 115.546 79.8359 117.532C79.4928 119.444 77.7524 117.777 77.1397 118.316C76.4288 118.953 76.6985 120.718 75.0072 120.326C74.1247 120.106 72.8012 119.909 73.7326 118.414C74.0512 117.899 74.1983 117.507 73.6591 117.14C73.1198 116.796 72.6541 116.919 72.1884 117.458C71.6736 118.047 71.4775 119.272 70.3255 118.88C69.443 118.586 69.4186 117.679 69.3695 116.87C69.345 116.502 69.3205 116.086 68.8548 116.135C68.4626 116.159 68.291 116.551 68.2175 116.919C68.0459 117.728 67.8253 118.61 66.7713 118.365C65.6928 118.12 65.6438 117.213 65.8153 116.282C65.8644 116.012 66.0114 115.595 65.8889 115.448C63.3152 112.482 65.6928 110.007 66.6242 107.384C67.1144 105.962 68.144 104.663 66.7713 103.07C66.2321 102.457 66.0359 101.134 67.237 100.717C68.1194 100.398 68.4381 99.859 68.7077 99.0992C68.9528 98.4619 69.345 97.8736 70.1294 98.1187C70.8402 98.3393 70.6441 99.0256 70.7177 99.5893C70.7912 100.153 70.1049 101.011 71.0118 101.281C71.7961 101.501 71.453 100.374 71.9432 100.104C72.3109 99.908 72.6295 99.5894 72.9972 99.3933C73.4629 99.1236 73.8551 98.5108 74.5169 98.8295C75.2523 99.1972 75.1297 99.908 75.0562 100.545C74.9581 101.403 74.615 102.359 75.9386 102.506C77.5074 102.678 76.9681 101.452 76.9926 100.741C77.0661 99.1236 78.3897 99.2462 79.3457 99.1236C80.2526 99.0011 80.6938 100.006 80.4242 100.619C78.8555 103.952 82.189 104.516 83.4881 106.158C85.4245 108.634 88.5375 108.634 91.2338 109.1C95.5968 109.86 99.5922 111.772 103.833 112.777C108.858 113.978 109.005 114.076 110.573 109.222C111.505 106.355 113.343 103.952 114.152 100.987C115.084 97.5794 115.574 94.1233 115.843 90.6916C116.138 86.8433 117.657 83.6079 119.52 80.4949C120.672 78.583 123.123 77.7741 125.28 77.8231C126.677 77.8476 127.119 76.9162 127.879 76.426C128.222 76.2054 127.045 75.2495 126.457 74.8328C124.716 73.6317 123.001 72.4796 122.461 70.2491C122.192 69.1951 121.8 68.1901 122.314 67.1116C122.388 66.989 122.535 66.7684 122.51 66.7439C120.746 65.1752 121.53 63.1408 121.407 61.2534C121.358 60.5425 120.623 60.9347 120.157 60.9592C119.005 61.0328 118.196 60.6406 118.54 59.3905C119.447 56.0569 119.52 52.5517 120.672 49.2672C122.045 45.3944 124.324 43.5561 129.055 45.7131C130.256 46.2768 130.55 45.9582 131.188 45.3209C133.149 43.3109 135.011 41.2274 137.095 39.3401C140.428 36.3006 144.669 35.3446 148.983 34.8544C150.968 34.6338 152.954 34.2416 154.988 34.4132C155.577 34.4622 156.189 34.4868 156.41 35.1486C156.63 35.8349 156.091 36.2271 155.626 36.5457C154.351 37.4036 153.027 38.188 151.753 39.2665C155.454 38.5802 158.665 40.2225 162.023 41.0068C162.758 41.1784 163.494 41.2029 163.641 42.1099C163.788 43.0413 163.249 43.6295 162.538 44.0462C161.312 44.7816 159.964 45.2719 158.763 46.1053C157.66 46.8651 157.954 47.4288 158.616 48.1152C159.572 49.1446 160.92 49.5369 162.048 50.2967C163.053 50.9585 164.254 51.6203 164.057 53.091C163.886 54.3901 162.685 54.5862 161.655 54.9539C160.748 55.2725 159.572 55.5176 161.141 56.6207C161.533 56.8903 161.655 57.3561 161.312 57.7482C160.945 58.1649 160.405 58.2875 159.915 58.0914C159.106 57.7727 158.346 57.3805 158.101 56.4001C157.807 55.248 158.322 54.4146 159.155 53.7773C159.743 53.3116 160.503 53.0175 161.361 52.5517C159.523 50.934 156.802 50.3212 156.214 47.7965C155.503 44.708 158.542 44.2914 160.283 42.7471C157.66 41.6931 155.111 41.0804 152.341 41.5461C150.723 41.8157 148.566 42.8207 147.635 40.9333C146.703 39.0459 149.179 38.4086 150.135 37.183C147.61 36.5948 142.022 38.0655 139.448 40.2715C137.046 42.306 134.815 44.561 132.536 46.7671C131.31 47.9436 129.692 48.1397 128.271 48.9976C127.977 47.6985 129.202 47.5759 129.349 46.816C124.692 45.9827 123.712 46.3749 122.314 51.3752C121.751 53.3852 121.579 55.4686 121.138 57.5276C120.942 58.4835 121.113 58.8267 122.143 58.7531C123.001 58.6796 123.638 59.0473 123.908 59.9787C124.3 61.3023 125.574 61.6455 126.457 60.5425C127.658 59.0228 129.987 58.6552 130.403 56.204C130.55 55.2971 129.129 53.9489 130.771 53.5323C131.653 53.3116 132.781 53.6548 133.712 53.9734C136.752 54.9784 139.301 53.3851 141.997 52.4782C142.904 52.1841 144.032 50.9095 144.816 52.2576C145.527 53.5077 143.737 53.6548 143.125 54.6108C144.963 54.8559 146.63 54.8804 148.297 54.1205C149.449 53.5813 150.625 52.9685 151.998 53.0665C152.586 53.1156 153.223 53.189 153.272 53.9244C153.321 54.6352 152.929 55.2725 152.169 55.2725C149.988 55.2725 148.297 56.7433 146.091 57.0619C147.071 58.6061 148.444 58.4345 149.743 58.2139C150.944 58.0178 152.096 57.5766 153.297 57.356C153.983 57.2335 154.792 57.1354 154.915 58.2139C155.013 59.1453 154.375 59.2189 153.714 59.3415C152.954 59.4885 152.145 59.513 151.459 60.2239C152.12 60.7876 152.709 61.67 153.444 61.8171C155.086 62.1357 155.282 63.2143 155.209 64.4644C155.135 65.7635 155.92 65.3468 156.581 65.3223C157.292 65.3223 158.028 65.6164 157.881 64.3908C157.709 62.9447 158.003 61.523 158.714 60.2484C158.984 59.7827 159.229 59.0473 159.94 59.2924C160.675 59.5375 160.356 60.1993 160.258 60.7631C160.013 62.0132 159.449 63.2143 159.817 64.5624C160.185 65.8615 160.503 66.4498 161.827 65.1997C166.68 60.6651 170.651 55.5421 173.568 49.4878C176.583 43.2374 179.965 37.134 183.471 31.1287C185.848 27.0598 188.054 23.0154 188.299 18.1866C188.446 15.2942 189.917 13.0146 191.805 10.9557C194.329 8.18588 196.486 5.14652 198.521 1.98453C199.084 1.10212 199.624 -0.0989544 200.972 0.29323C202.296 0.685414 202.467 1.93549 202.516 3.11204C202.614 4.9504 202.099 6.71522 201.119 8.23494C200.089 9.87721 200.187 11.4704 200.947 13.0392C203.129 17.5493 202.565 21.3486 198.374 24.388C197.932 24.7067 197.467 25.2704 197.418 25.7607C196.854 30.3688 193.913 34.0211 192.27 38.188C190.481 42.6981 188.667 47.2573 187.123 51.841C185.628 56.2775 183.078 60.0033 180.872 63.9986C178.372 68.5088 175.774 72.9699 173.078 77.3575C171.534 79.8576 170.43 82.6029 169.524 85.3972C167.391 92.1134 164.817 98.6579 163.077 105.497C162.66 107.09 161.876 108.561 161.606 110.227C161.435 111.306 161.606 111.821 162.734 111.404C167.195 109.737 171.828 110.791 176.387 110.546C177.661 110.472 178.789 110.987 179.843 111.6C180.946 112.262 181.485 113.267 181.044 114.517C179.745 118.488 178.348 122.312 174.941 125.204C171.681 127.949 171.607 129.935 174.009 133.513C174.965 134.935 176.044 136.283 177 137.729C177.588 138.612 178.005 138.685 178.397 137.656C181.142 130.376 185.137 123.684 188.643 116.796C190.309 113.536 190.358 110.448 189.378 107.311C188.25 103.707 189.549 100.668 190.824 97.5795C191.363 96.2803 192.393 95.4959 194.084 95.6185C195.53 95.7165 197.001 95.3734 198.496 95.4714C199.452 95.5204 200.604 95.4959 200.8 93.7556C201.07 91.6231 203.325 90.6182 204.477 88.9269C204.894 88.3386 205.776 88.3386 206.438 88.8288C207.467 89.6132 207.737 90.7162 207.443 91.9172C207.002 93.584 206.413 95.2018 205.948 96.8686C205.531 98.3638 205.114 99.7364 206.266 101.281C207.492 102.947 206.119 104.908 205.899 106.673C205.433 110.522 203.374 113.61 199.991 115.669C199.452 115.988 199.207 116.355 199.084 116.993C198.104 121.405 196.633 125.67 194.991 129.886C194.378 131.43 193.839 133.17 194.501 134.91C194.893 135.94 193.986 136.479 193.667 137.215C192.466 139.96 191.756 142.926 193.692 145.377C196.021 148.343 198.202 151.431 200.874 154.593C201.34 152.019 200.482 149.961 199.942 147.877C199.697 146.97 199.428 146.088 199.134 145.205C198.717 143.955 198.962 142.901 200.016 142.141C201.045 141.406 201.879 142.043 202.639 142.999C203.276 140.45 203.766 138.146 204.477 135.915C205.31 133.244 205.703 133.146 208.129 134.371C208.448 134.518 208.619 134.494 208.865 134.249C210.188 132.974 210.997 133.709 211.659 135.107C211.855 134.861 212.027 134.665 212.174 134.469C212.835 133.513 213.326 131.969 214.87 132.606C216.316 133.195 215.826 134.763 215.679 135.891C215.409 137.876 214.845 139.788 214.453 141.749C214.38 142.166 214.453 142.607 214.453 143.195C215.826 142.534 217.664 142.926 218.105 140.793C218.203 140.376 219.135 140.082 219.723 139.837C223.424 138.244 227.371 137.999 231.317 137.778C232.396 137.729 232.959 137.337 233.597 136.381C235.582 133.464 237.886 130.793 241.269 129.346C241.71 129.175 242.2 128.758 242.666 129.199C243.205 129.714 242.936 130.278 242.592 130.744C241.367 132.386 242.543 133.121 243.818 133.538C245.681 134.151 247.176 135.499 248.916 136.21C252.201 137.533 251.613 140.793 252.936 143.048C253.475 143.955 253.451 145.132 254.162 146.014C254.431 146.357 254.677 146.75 255.191 146.651C255.78 146.529 255.657 145.965 255.682 145.598C255.829 143.269 256.221 141.038 257.299 138.955C257.961 137.68 258.672 136.553 260.143 138.072C260.682 138.612 260.976 138.416 261.319 137.974C261.809 137.337 262.324 136.675 263.28 137.018C264.236 137.386 264.359 138.293 264.506 139.151C264.555 139.494 264.555 139.837 264.579 140.229C265.535 140.156 265.829 138.881 266.859 139.176C267.937 139.47 267.962 140.352 268.035 141.234C268.06 141.431 268.158 141.725 268.305 141.798C271.418 143.171 270.021 145.524 269.383 147.485C268.207 151.088 266.663 154.569 265.486 158.172C264.604 160.917 264.8 163.883 264.604 166.726C264.457 168.663 266.369 168.001 267.3 168.344C268.379 168.736 267.962 167.511 267.962 167.021C268.035 164.643 267.913 162.265 268.084 159.912C268.158 158.76 268.378 157.289 269.996 157.191C271.737 157.093 271.982 158.54 272.325 159.79C272.545 160.672 272.717 161.579 272.962 162.682C273.477 160.844 273.452 159.079 274.286 157.535C274.653 156.824 275.021 156.015 275.953 156.113C277.007 156.235 277.252 157.142 277.35 158.025C277.497 159.348 277.546 160.697 277.668 162.216C278.845 161.824 278.747 160.77 279.188 160.157C279.752 159.397 280.291 158.491 281.394 158.76C282.595 159.054 282.375 160.157 282.399 161.089C282.424 161.8 282.007 162.486 282.35 163.197C284.948 162.143 285.169 162.363 284.924 165.231C284.728 167.609 284.237 169.937 283.355 172.143C282.129 175.183 281.884 178.271 282.399 181.458C282.938 184.767 282.399 188.051 282.375 191.36C282.326 198.91 283.036 206.435 283.453 213.96C283.502 214.695 283.943 215.798 282.816 215.897C281.737 215.97 281.884 214.794 281.835 214.058C281.541 209.818 281.664 205.528 280.953 201.386C280.12 196.508 280.169 191.679 280.463 186.801C280.61 184.497 280.512 182.193 280.046 179.914C279.433 176.85 280.928 174.178 281.639 171.335C282.252 170.134 282.669 168.859 282.497 167.413C281.639 168.565 281.149 169.839 280.659 171.114ZM114.985 149.446C115.133 149.593 115.353 149.74 115.476 149.495C115.549 149.348 115.427 149.103 115.378 148.906C115.549 147.362 114.593 147.191 113.343 147.191C113.49 148.343 114.324 148.808 114.985 149.446ZM227.738 177.021C225.63 178.443 225.434 178.32 224.037 176.212C222.836 174.399 221.66 172.536 219.944 170.893C219.306 172.119 220.066 172.83 220.41 173.712C220.949 175.06 221.807 176.899 220.311 177.83C218.645 178.835 217.86 176.85 217.076 175.796C215.728 173.982 214.821 171.849 213.277 170.158C213.203 170.011 213.13 169.741 212.909 169.913C212.811 169.986 212.909 170.281 212.909 170.452C213.816 173.246 215.017 175.918 216.635 178.369C217.125 179.129 217.493 179.865 216.757 180.428C215.875 181.09 215.385 180.183 214.894 179.57C213.938 178.32 212.983 177.07 212.002 175.82C211.708 175.452 211.291 175.207 210.874 175.453C210.36 175.771 210.727 176.139 210.924 176.531C211.316 177.364 211.904 178.271 211.904 179.129C211.879 181.262 216.071 182.144 213.595 184.938C213.546 184.987 213.889 185.404 214.036 185.625C214.502 186.262 214.992 186.875 215.409 187.561C217.027 190.11 220.115 191.875 220.532 194.915C220.998 198.15 222.714 198.469 225.214 198.322C225.777 198.297 226.366 198.42 226.93 198.42C227.346 198.42 227.738 198.469 227.591 197.733C226.979 194.4 227.714 191.017 227.052 187.659C226.807 186.385 226.194 184.987 226.758 183.639C227.591 181.629 227.886 179.521 228.082 177.389C228.106 177.217 228.106 177.021 228.131 176.85C228.033 176.874 227.885 176.948 227.738 177.021ZM265.78 148.539C264.849 148.956 263.991 147.926 262.912 148.563C261.76 149.225 261.221 148.539 261.417 147.24C261.638 145.622 261.907 143.98 261.589 142.337C261.589 142.288 261.638 142.239 261.662 142.19C261.613 142.19 261.54 142.19 261.442 142.166C260.412 144.078 260.78 146.235 260.388 148.245C260.241 149.054 260.118 149.961 259.089 149.862C258.182 149.789 258.182 148.907 258.182 148.171C258.182 146.088 258.182 144.029 258.182 141.945C257.128 144.225 257.373 146.701 256.883 149.054C256.711 149.838 256.687 150.916 255.878 151.015C253.427 151.284 254.211 152.902 254.799 153.882C256.515 156.848 255.731 159.863 255.216 162.805C254.677 165.721 252.495 168.442 254.554 171.555C254.652 171.702 254.579 171.972 254.579 172.192C254.603 174.913 254.652 177.634 254.628 180.355C254.628 181.237 254.775 181.752 255.804 181.629C257.373 181.458 258.942 181.286 260.51 181.164C261.736 181.066 262.104 180.404 261.907 179.301C260.755 172.658 262.324 166.138 262.667 159.545C262.79 157.093 263.574 154.765 264.824 152.608C265.511 151.431 265.903 150.132 266.05 148.759C266.271 148.637 266.32 148.465 266.099 148.318C266.025 148.343 265.878 148.49 265.78 148.539ZM19.8317 172.83C19.9788 173.688 20.2239 174.521 20.2485 175.379C20.4936 184.228 21.9643 192.954 22.7241 201.753C23.0183 204.989 22.9937 204.989 26.1557 205.209C26.646 205.234 27.1362 205.357 27.6264 205.528C30.8375 206.607 34.073 207.685 37.431 208.813C37.1614 206.582 37.1124 204.499 37.431 202.44C38.1419 197.783 35.2005 194.302 33.5582 190.405C33.4356 190.11 33.0925 189.89 32.7983 189.718C30.8619 188.566 29.2932 187.046 28.1902 185.086C27.0871 183.149 25.8861 181.286 24.3664 179.644C22.6751 177.83 20.6406 176.237 20.9348 173.32C20.9593 173.001 20.5181 172.609 20.273 172.266C19.6847 172.143 19.4886 172.291 19.8317 172.83ZM154.89 147.779C157.023 147.46 157.488 148.637 157.268 150.451C157.121 151.725 156.851 153 156.581 154.25C155.993 156.971 154.351 159.201 153.493 161.775C153.223 162.584 152.807 163.368 153.591 164.153C155.405 166.016 156.189 168.344 156.557 170.844C156.729 172.045 156.974 173.271 158.346 173.761C160.822 174.668 163.028 172.634 165.504 173.099C165.945 173.173 165.945 172.291 165.945 171.8C165.994 170.281 165.871 168.761 166.067 167.266C166.362 165.035 165.651 163.368 163.861 162.02C162.709 161.138 162.268 159.839 162.121 158.442C162.048 157.657 162.244 156.824 163.126 156.824C164.572 156.799 164.229 156.113 164.057 155.182C163.249 150.843 160.724 147.142 159.621 142.926C159.425 142.215 158.861 141.921 158.273 141.651C155.527 140.401 152.782 139.126 149.865 138.416C145.11 137.239 140.453 135.842 136.261 133.219C133.663 131.626 130.55 131.356 127.903 129.665C126.089 128.488 123.491 128.685 121.555 127.238C120.746 126.626 120.182 127.018 119.888 128.072C119.348 130.008 118.613 131.871 118.393 133.905C117.976 137.607 117.584 141.308 115.794 144.691C115.623 145.009 115.353 145.892 116.113 145.72C117.167 145.475 117.706 146.529 118.662 146.504C118.834 144.96 118.956 143.538 119.177 142.117C119.397 140.646 119.912 139.298 121.285 138.514C122.461 137.852 123.319 138.146 123.81 139.47C124.03 140.082 123.393 141.21 124.398 141.259C125.329 141.283 125.109 140.033 125.501 139.396C125.648 139.151 125.697 138.857 125.82 138.587C126.138 137.876 126.702 137.362 127.486 137.509C128.271 137.656 128.638 138.293 128.638 139.102C128.638 139.984 128.638 140.891 128.638 142.141C129.668 140.793 129.864 138.955 131.653 139.372C133.075 139.69 132.952 141.087 133.026 142.215C133.1 143.293 131.874 144.887 134.325 145.034C134.766 145.058 135.232 146.406 135.011 147.313C134.766 148.367 134.521 149.397 134.252 150.451C133.418 153.907 131.31 156.848 130.085 160.133C129.276 162.265 129.986 163.393 132.045 164.226C132.487 162.706 133.001 161.211 133.345 159.692C134.399 154.838 135.305 149.985 136.433 145.156C136.825 143.538 137.217 142.239 135.183 141.578C134.766 141.455 134.399 141.112 134.668 140.597C134.913 140.156 135.404 140.156 135.82 140.278C136.58 140.499 137.242 140.842 138.1 140.818C140.085 140.769 141.703 141.602 142.732 143.318C143.419 144.421 143.909 145.647 144.473 146.823C145.037 146.48 145.012 145.965 145.135 145.475C145.478 143.931 145.331 142.288 146.042 140.842C146.458 140.009 146.899 139.028 148.051 139.2C149.253 139.372 149.302 140.426 149.4 141.357C149.547 142.999 149.645 144.642 149.816 146.602C150.748 145.254 151.483 144.151 152.292 143.073C152.758 142.46 153.248 141.725 154.228 142.068C155.16 142.411 155.184 143.269 155.233 144.053C155.356 145.328 154.694 146.578 155.037 147.853C154.915 147.705 154.817 147.73 154.792 147.926C154.792 147.975 154.866 148.024 154.915 148.073C154.817 147.951 154.866 147.853 154.89 147.779ZM252.618 155.182C253.23 154.029 252.495 152.926 251.98 152.216C250.755 150.524 251.269 148.759 251.073 146.995C250.632 142.926 250.117 138.734 245.191 137.313C244.627 137.141 244.088 136.773 243.941 136.21C243.573 134.959 243.23 134.322 241.833 135.327C241.22 135.768 240.607 135.008 240.141 134.371C239.725 133.783 240.239 132.925 239.43 132.386C238.646 133.146 237.886 133.93 237.077 134.616C234.896 136.455 233.817 138.514 234.479 141.578C235.116 144.519 233.94 147.068 231.244 148.686C230.606 149.054 230.263 149.544 230.018 150.304C229.283 152.657 227.787 154.569 225.778 156.015C225.287 156.088 224.65 155.917 224.576 156.726C223.228 157.265 222.689 158.613 221.782 159.594C220.998 160.206 220.679 161.089 220.434 162.02C219.895 162.756 219.38 163.491 218.841 164.251C217.885 164.594 216.953 164.765 217.542 163.27C218.154 161.751 218.694 160.133 219.87 158.932C221.194 157.584 221.954 156.285 222.419 154.25C223.179 150.966 225.704 148.318 229.332 147.362C230.263 147.117 230.949 146.578 231.268 145.843C232.077 143.931 232.69 141.921 232.567 139.788C232.518 138.955 232.494 138.465 231.342 138.783C228.645 139.494 225.9 140.131 223.155 140.597C220.385 141.063 218.816 143.661 216.169 144.274C213.767 144.813 212.247 146.578 210.899 148.416C210.262 149.299 209.698 150.255 208.816 150.867C207.884 151.529 207.909 152.216 207.982 153.27C208.203 156.26 210.654 157.927 211.928 160.255C213.424 163.001 215.85 164.692 218.841 165.525C219.552 166.163 220.63 166.261 220.998 167.437C222.346 171.702 226.415 174.006 230.729 173.173C232.739 172.781 234.798 171.8 236.832 173.467C237.42 173.957 238.425 173.516 238.523 172.487C238.597 171.776 238.475 171.065 238.425 170.354C238.278 167.707 238.401 165.06 238.916 162.437C239.161 161.211 239.725 160.133 241.073 160.157C242.323 160.182 242.838 161.211 243.009 162.363C243.181 163.417 243.352 164.471 243.499 165.525C243.548 165.77 243.597 166.016 243.646 166.261C243.891 166.04 244.161 165.819 244.406 165.574C245.607 165.378 246.71 165.525 247.446 166.604C247.862 167.217 248.304 167.339 249.063 167.143C251.196 166.604 253.108 164.349 253.23 162.02C253.255 161.751 253.23 161.334 253.108 161.26C251.735 160.574 252.274 159.373 252.471 158.466C252.691 157.535 252.52 156.799 252.103 156.064C252.274 155.721 252.446 155.451 252.618 155.182ZM143.517 190.478C144.179 190.135 144.718 189.326 145.625 189.865C146.605 190.454 146.581 191.458 146.458 192.341C146.287 193.444 145.919 194.522 145.6 195.724C147.929 195.552 148.174 197.047 148.076 198.787C148.002 199.964 147.439 200.994 146.973 202.048C146.801 202.464 146.336 203.126 147.022 203.298C149.253 203.861 151.483 204.425 153.738 204.695C155.16 204.866 155.503 203.175 156.459 202.513C157.881 201.533 159.155 199.155 160.92 200.234C162.783 201.386 161.925 203.812 161.214 205.577C160.675 206.925 161.361 206.999 162.219 207.146C166.362 207.808 170.553 207.881 174.916 207.612C173.151 204.989 171.386 202.513 168.96 200.895C165.283 198.395 165.528 194.866 165.724 191.262C165.798 189.816 166.95 189.301 168.2 190.061C169.278 190.723 169.965 191.704 170.014 193.052C170.038 193.517 169.646 194.253 170.749 194.424C170.798 193.787 171.068 193.101 170.872 192.586C169.744 189.718 171.19 187.144 171.607 184.448C171.705 183.811 171.803 183.076 172.686 183.076C173.494 183.051 173.691 183.713 173.96 184.326C174.597 185.796 174.965 187.316 174.892 188.934C174.843 190.282 175.112 191.557 176.093 192.978C176.975 189.841 176.754 186.948 177.171 184.154C177.294 183.272 177.416 182.316 178.544 182.267C179.622 182.218 179.916 183.198 180.162 184.007C180.48 185.036 180.603 186.14 180.97 187.12C181.191 187.708 181.142 188.738 182.098 188.738C182.956 188.738 182.76 187.782 183.029 187.243C183.348 186.581 183.618 185.821 184.5 185.87C185.26 185.919 185.407 186.679 185.652 187.267C186.118 188.37 186.142 189.449 186.069 190.625C185.946 192.856 185.113 195.062 185.677 197.611C186.436 196.606 187.074 195.773 187.711 194.939C188.373 194.057 189.133 193.052 190.358 193.738C191.584 194.4 191.412 195.699 191.094 196.827C190.922 197.439 190.53 197.979 190.236 198.567C189.182 200.773 188.103 202.954 187.074 205.16C186.902 205.553 186.706 206.018 187.098 206.337C187.417 206.607 187.76 206.264 188.079 206.19C190.211 205.773 191.363 203.714 193.398 203.077C194.011 202.881 193.569 202.415 193.349 202.048C192.246 200.209 191.952 198.101 191.78 196.042C191.682 194.743 191.878 193.076 193.177 192.488C194.623 191.826 195.163 193.444 195.898 194.351C196.462 195.037 196.903 195.871 197.859 196.361C198.374 194.424 198.496 192.414 199.428 190.919C200.898 188.591 200.58 186.14 200.751 183.713C200.825 182.634 199.991 181.164 201.217 180.624C202.467 180.085 203.031 181.703 203.864 182.389C203.962 182.463 204.134 182.438 204.281 182.487C204.649 181.507 204.82 180.208 206.193 180.281C207.516 180.355 207.86 181.507 208.056 182.61C208.35 184.326 208.546 186.09 211.071 185.086C211.193 185.036 211.267 184.963 211.071 185.086C211.218 181.188 209.355 177.904 208.767 174.3C208.717 173.957 208.742 173.59 208.767 173.222C208.816 172.756 209.061 172.217 209.453 172.217C211.732 172.217 210.776 170.795 210.629 169.692C210.458 168.54 210.629 167.462 211.708 166.849C212.909 166.163 213.473 167.364 214.233 167.952C215.581 169.006 215.826 170.942 217.37 171.972C217.247 168.638 217.198 168.712 216.022 167.462C213.179 164.422 210.213 161.26 205.923 160.697C202.394 160.231 200.751 157.902 198.888 155.549C198.79 155.427 198.741 155.304 198.643 155.206C198.251 154.789 197.834 154.593 197.393 155.157C195.432 157.584 192.27 158.589 190.358 161.138C189.746 161.971 188.716 162.559 187.785 163.074C185.824 164.177 185.407 163.981 184.819 161.971C184.77 161.849 184.647 161.751 184.549 161.628C182.931 159.201 181.314 156.75 179.696 154.299C180.014 155.427 177.098 157.387 180.603 157.731C181.485 157.804 181.412 158.981 181.216 159.765C180.946 160.893 180.407 161.996 179.622 162.805C177.98 164.471 177.392 166.383 177.171 168.712C176.803 172.805 176.607 172.781 180.652 172.217C186.093 171.457 186.412 170.746 183.593 166.016C183.324 165.55 182.711 165.011 183.103 164.496C183.716 163.687 184.353 164.839 185.064 164.716C185.26 164.692 185.652 165.427 185.848 165.868C187.074 168.54 188.201 171.237 188.961 174.08C189.255 175.183 190.358 176.703 188.765 177.242C187.27 177.732 187.638 175.869 187.196 175.011C186.608 173.835 186.167 172.438 184.378 173.712C181.706 175.6 178.372 175.379 175.357 176.065C173.838 176.408 171.901 175.796 170.112 176.016C167.318 176.335 164.499 176.482 161.704 176.139C155.65 175.379 149.547 175.673 143.468 175.281C142.831 175.232 142.022 175.134 141.875 176.212C141.531 179.154 141.948 182.291 139.718 184.816C142.831 183.615 143.223 183.86 143.198 187.095C143.198 188.027 143.051 188.958 142.978 189.89C142.757 190.184 142.585 190.552 142.88 190.797C143.174 191.042 143.419 190.748 143.517 190.478ZM70.0313 172.781C70.497 171.555 70.8402 170.624 71.1834 169.741C71.502 168.957 72.1148 168.124 72.8992 168.442C74.4679 169.079 75.5219 170.673 77.5564 170.648C78.1447 170.648 78.1201 172.291 78.0466 173.222C77.924 174.644 78.3653 174.864 79.7624 174.57C82.7773 173.957 85.8413 173.59 88.9052 173.197C89.7386 173.099 90.1307 172.805 89.9837 171.996C89.567 169.692 90.6455 167.535 90.5965 165.231C90.5719 164.006 90.9152 162.535 92.582 162.314C94.2978 162.094 94.3713 163.638 94.8615 164.667C94.9105 164.766 95.0576 164.79 95.1311 164.839C95.6949 164.496 95.7194 163.859 96.0136 163.368C96.5283 162.51 96.945 161.432 98.1706 161.579C99.4207 161.751 99.4451 162.878 99.7147 163.859C100.18 165.501 99.4206 167.094 99.7883 169.178C100.328 167.977 100.622 167.119 101.087 166.359C101.627 165.403 102.068 164.03 103.588 164.545C104.887 164.986 104.691 166.236 104.666 167.315C104.666 167.805 104.544 168.32 104.47 168.81C104.421 169.276 104.47 169.668 105.083 169.668C107.166 169.668 107.019 171.139 106.97 172.56C106.921 173.859 106.553 175.109 106.088 176.335C105.426 178.149 104.715 179.963 104.029 181.776C103.71 182.634 104.004 183.296 104.617 183.909C105.279 184.571 105.647 183.86 106.063 183.566C108.122 182.144 108.833 182.34 109.814 184.742C110.5 186.434 111.113 188.174 111.799 190.012C112.363 189.326 112.24 188.762 112.289 188.223C112.706 184.963 112.755 181.629 113.833 178.492C114.054 177.83 114.25 177.095 115.206 177.119C116.088 177.144 116.505 177.732 116.75 178.418C117.069 179.301 117.216 180.208 117.412 181.017C118.27 180.477 118.393 179.497 118.834 178.688C119.226 177.953 119.348 176.948 120.55 177.095C121.775 177.242 121.873 178.247 122.094 179.154C122.437 180.624 121.775 182.659 124.3 182.855C124.52 182.879 124.766 183.566 124.839 183.958C125.06 185.159 125.256 186.36 124.79 187.561C124.373 188.64 124.667 189.105 125.844 188.542C127.633 187.684 128.05 188.713 128.026 190.184C128.001 191.924 127.462 193.542 126.506 195.037C126.187 195.527 125.207 195.993 125.918 196.606C126.702 197.292 127.682 197.954 128.785 197.93C129.594 197.93 129.521 197.023 129.717 196.434C130.722 193.616 131.335 190.65 132.805 187.978C134.153 185.527 134.864 185.208 137.585 186.85C137.438 183.811 139.595 181.507 139.276 178.516C139.056 176.531 140.379 173.516 136.286 174.325C134.031 172.585 131.212 172.021 128.761 170.648C122.927 167.413 117.486 163.491 111.48 160.549C108.907 159.275 106.235 158.172 103.735 156.775C101.7 155.647 99.4697 155.132 97.3127 154.52C95.3517 153.956 93.0966 153.27 90.9887 154.299C89.3219 155.108 87.5816 155.451 85.7922 155.574C82.7528 155.794 79.9095 156.75 77.0907 157.78C73.6345 159.03 70.0559 159.937 66.5262 160.648C58.4864 162.314 50.6918 164.447 43.3138 168.148C41.4509 169.079 40.7646 169.717 41.1322 171.972C41.5244 174.398 42.2108 176.629 43.2157 179.252C43.9756 177.413 43.6815 175.33 45.6914 175.036C47.3827 174.791 47.1376 176.776 48.0445 177.806C48.4367 177.021 48.7063 176.359 49.0985 175.771C49.5642 175.06 50.7163 174.448 51.0349 175.134C51.8438 176.874 53.0939 178.026 54.5646 179.056C54.6136 179.08 54.6136 179.178 54.6136 179.252C54.9567 181.776 56.7706 180.502 57.9472 180.428C59.0992 180.355 60.3738 180.159 60.1777 178.271C59.9081 175.771 59.8836 173.246 59.7855 170.746C59.7365 169.619 59.9081 168.516 61.2807 168.246C62.6779 168.001 63.3642 168.785 63.8054 170.035C64.0995 170.918 64.075 171.923 64.8104 172.805C65.3741 171.114 65.8643 169.619 66.4036 168.124C66.6977 167.339 67.237 166.726 68.1684 166.8C69.0263 166.873 69.4186 167.584 69.5166 168.295C69.8598 169.692 69.9088 171.04 70.0313 172.781ZM153.959 120.155C155.135 120.743 156.876 119.591 157.734 121.16C158.248 122.091 158.886 122.753 159.694 123.341C160.969 124.297 161.165 125.547 160.601 126.993C158.64 132.018 152.12 133.366 148.346 129.493C147.831 128.954 147.365 128.587 146.556 128.439C143.223 127.851 139.914 127.189 136.605 126.552C132.242 125.719 127.854 124.861 123.491 124.052C123.001 123.954 122.241 123.562 122.045 124.321C121.873 124.959 122.608 125.057 123.074 125.155C125.991 125.817 128.761 126.797 131.506 128.145C135.796 130.253 140.404 131.748 144.718 133.856C146.336 134.641 147.978 135.499 149.694 135.891C157.39 137.656 164.842 140.328 172.636 141.7C173.617 141.872 174.843 142.411 175.48 141.553C176.191 140.573 175.308 139.494 174.745 138.612C173.421 136.553 172.171 134.469 170.823 132.459C168.641 129.199 170.014 126.822 172.122 124.395C172.367 124.125 172.588 123.831 172.857 123.611C175.602 121.405 177.073 118.414 178.054 115.105C178.617 113.193 177.956 112.335 175.897 112.556C174.916 112.679 173.862 113.12 172.931 112.924C168.764 112.115 164.793 113.365 160.822 114.027C153.199 115.301 145.649 116.895 137.855 116.478C135.918 116.38 133.957 117.066 132.021 115.939C131.237 115.473 129.839 116.061 129.668 117.238C129.496 118.414 130.82 118.071 131.408 118.194C135.6 119.076 139.84 119.762 144.056 120.571C146.949 121.135 149.792 122.042 152.635 120.351C152.954 120.204 153.444 120.253 153.959 120.155ZM202.271 97.5549C201.094 98.5354 200.335 97.751 199.403 97.5795C197.418 97.2118 195.285 98.1187 193.153 97.7265C192.761 97.653 192.368 98.1922 192.319 98.6089C192.074 100.153 191.486 101.624 191.731 103.266C192.442 108.021 192.172 112.58 190.162 117.14C188.814 120.204 187 122.924 185.505 125.89C184.451 127.998 183.495 130.18 182.441 132.312C180.505 136.259 178.568 140.18 178.103 144.666C177.98 145.745 178.103 146.651 178.593 147.558C180.921 151.799 183.74 155.794 185.456 160.378C186.044 161.947 186.902 161.873 187.956 160.77C190.089 158.54 192.393 156.53 194.967 154.765C195.849 154.152 198.349 152.902 195.065 151.823C194.893 151.774 194.844 151.48 194.697 151.309C192.344 148.612 191.78 144.838 189.255 142.215C189.084 142.043 189.206 141.529 189.28 141.21C190.015 138.734 190.775 136.259 191.535 133.783C193.128 128.562 194.795 123.366 196.315 118.12C197.099 115.473 197.54 112.728 200.702 111.698C201.34 111.477 202.222 110.546 202.173 109.982C202.026 107.629 204.256 105.301 202.271 102.923C201.756 102.286 201.903 101.428 202.124 100.643C202.467 99.7365 202.516 98.805 202.271 97.5549ZM200.04 2.81791C197.491 6.88683 194.525 10.5635 191.388 14.0932C190.922 14.6079 190.53 15.3188 190.407 15.9806C189.304 21.3241 187.858 26.5205 184.721 31.1287C182.76 33.9965 182.294 37.5262 180.529 40.4921C178.593 43.7521 176.951 47.2327 174.818 50.3457C173.029 52.9684 172.367 56.1794 170.283 58.5325C168.813 60.1993 167.587 62.0377 166.165 63.729C165.553 64.4643 165.553 64.9301 166.165 65.5183C167.661 66.9645 168.396 68.8274 169.18 70.6903C169.793 72.1365 170.406 73.5826 171.583 74.9553C174.303 69.2931 177.514 64.0722 180.75 58.8757C182.98 55.2971 183.765 51.1546 185.53 47.4288C187.074 44.1933 188.912 41.0068 189.672 37.5507C190.432 34.1191 193.275 31.6435 193.251 27.7952C193.251 26.2754 194.721 24.3145 195.677 22.6477C196.045 22.0104 196.731 21.1525 197.369 21.0789C199.673 20.8338 199.795 19.1671 199.844 17.5248C199.918 15.711 199.06 14.1422 198.545 12.4019C197.663 12.9167 197.344 13.554 196.976 14.1668C196.609 14.8041 196.07 15.1962 195.408 14.804C194.648 14.3873 194.917 13.652 195.236 13.1127C195.898 12.0097 196.584 10.9067 197.344 9.85271C198.815 7.74472 200.212 5.58772 200.04 2.81791ZM71.0608 215.97C71.2814 214.744 71.1589 213.764 70.9628 212.71C70.3745 209.842 69.6882 206.999 69.5166 204.106C69.3941 202.415 69.3695 200.724 69.1489 199.008C68.8302 196.532 68.7568 194.008 69.2225 191.508C69.9333 187.659 71.6736 184.252 73.561 180.87C74.6395 178.982 76.1347 177.07 75.7915 174.423C74.2473 175.256 74.7375 177.021 73.5365 177.781C71.8942 175.967 73.7326 173.688 72.507 171.286C72.1148 174.129 70.497 175.992 70.3009 178.369C70.2274 179.325 70.1539 180.502 68.9774 180.453C68.193 180.404 68.1929 179.203 68.1684 178.516C68.0459 176.237 68.1194 173.933 68.1194 171.629C67.8743 171.604 67.6047 171.58 67.3596 171.531C67.6782 174.693 65.2026 177.193 65.6683 180.404C65.7418 180.87 65.7663 181.531 65.1536 181.678C64.1976 181.924 64.5898 180.968 64.2711 180.6C63.3887 179.546 63.4378 178.247 63.1681 177.021C62.874 175.722 63.0946 174.3 62.1632 173.099C62.1632 175.085 62.1141 176.997 62.1876 178.933C62.2612 181.09 61.4523 182.316 59.4914 182.463C57.9962 182.585 58.1923 183.321 58.756 184.13C59.7365 185.551 59.9816 187.145 60.1777 188.811C60.4228 190.797 60.5699 192.807 61.1582 194.743C62.4083 198.861 62.1386 203.151 62.3838 207.366C62.4328 208.077 62.4082 209.009 61.4278 208.984C60.5699 208.984 60.6925 208.077 60.6435 207.465C60.2513 201.386 59.2708 195.356 58.1923 189.375C58.0207 188.444 58.2168 187.439 57.555 186.483C56.7216 187.88 55.5695 188.762 54.54 189.743C53.437 190.821 52.138 191.63 51.5252 193.272C49.6868 198.42 49.4416 203.763 49.172 209.107C49.0985 210.725 49.4416 211.435 51.1574 210.823C54.589 209.646 58.1432 208.984 61.7219 209.842C65.129 210.651 69.0999 210.749 70.399 215.112C70.5461 215.406 70.7912 215.578 71.0608 215.97ZM145.282 82.4803C149.081 79.5635 151.312 75.6171 152.096 71.1805C153.199 65.0526 151.262 62.0623 145.527 59.5131C145.061 59.317 144.963 58.9002 144.62 58.6796C143.223 57.7237 142.022 56.155 140.208 56.1795C137.806 56.2285 135.404 56.2285 133.026 55.8118C132.462 55.7138 131.457 55.2235 131.482 56.2285C131.506 58.7286 129.594 60.3464 129.006 62.5279C127.143 69.3176 129.668 75.1514 133.148 80.7155C133.516 81.3038 133.884 82.1372 134.815 82.1862C135.502 79.5145 136.923 78.0682 139.007 77.8476C141.948 77.5535 143.541 78.7056 145.282 82.4803ZM158.346 108.879C159.645 107.041 160.454 105.35 160.65 103.364C160.822 101.501 161.557 99.7855 162.195 98.0206C163.028 95.6675 164.18 93.486 165.161 91.2064C166.558 87.8974 166.043 84.0245 168.053 80.8135C168.69 79.784 169.107 78.632 169.597 77.5045C169.769 77.0878 170.381 76.6711 169.965 76.1563C167.783 73.5091 167.048 70.102 165.21 67.2832C164.646 66.4253 163.984 65.9351 163.2 66.9155C160.822 69.8079 157.856 72.0139 155.135 74.5386C154.424 75.2004 154.106 76.7937 153.469 76.8672C150.601 77.2349 151.679 79.4899 151.949 80.5194C153.248 85.6668 153.861 90.9613 155.037 96.1087C155.944 100.3 156.067 104.712 158.346 108.879ZM1.52162 174.227C1.71771 177.683 3.11486 180.722 4.80615 183.615C5.86015 185.404 7.11025 187.071 8.04169 188.909C10.0516 192.978 11.2282 197.317 12.5028 201.655C13.2627 204.229 12.993 207.097 14.7824 209.573C16.155 207.71 17.7482 206.312 19.9788 205.92C21.2534 205.675 21.425 204.989 21.2534 203.788C20.0524 194.89 18.312 186.066 18.3366 177.046C18.3366 176.114 18.0914 175.183 17.9444 174.227C17.111 175.232 17.16 176.286 17.16 177.315C17.16 178.149 17.0374 179.08 16.0815 179.154C15.003 179.227 15.0275 178.247 14.9294 177.438C14.4637 173.394 14.3657 169.276 12.8215 165.427C12.6254 164.913 12.6254 164.079 11.89 164.275C11.2772 164.447 11.4733 165.256 11.6694 165.746C12.6009 168.344 12.3557 171.114 12.8215 173.786C12.9195 174.35 13.1156 175.207 12.2332 175.404C11.3263 175.6 10.9586 174.84 10.738 174.153C10.1742 172.389 9.68401 170.575 9.16927 168.785C8.75258 167.388 8.45844 165.942 6.79165 164.52C7.47797 167.878 7.55144 170.795 8.48288 173.565C8.67897 174.178 9.14474 174.84 8.38489 175.281C7.55149 175.771 7.06123 175.085 6.66905 174.472C6.3504 173.982 6.12981 173.467 5.83567 172.977C4.85521 171.359 4.48755 169.423 2.94333 167.437C2.96784 171.065 4.04636 173.859 4.95329 176.678C5.17389 177.364 6.0318 178.247 4.87976 178.664C3.85027 179.056 3.67868 177.879 3.33552 177.242C2.77175 176.286 2.57561 175.06 1.52162 174.227ZM150.307 82.0391C149.522 82.7254 149.081 83.0686 148.689 83.4608C146.899 85.2256 145.919 87.7503 143.443 88.8778C142.733 89.1965 142.708 90.1279 142.88 90.8142C143.296 92.5791 142.683 94.0743 141.801 95.496C141.017 96.7215 140.036 97.751 139.448 99.2217C138.615 101.354 138.149 103.585 137.413 105.742C137.07 106.698 136.556 107.654 135.477 107.311C133.761 106.796 133.394 107.801 132.928 109.002C132.462 110.203 131.898 111.379 131.384 112.556C131.237 112.924 130.771 113.291 131.163 113.683C131.531 114.051 132.07 113.855 132.315 113.561C132.928 112.875 133.565 113.022 134.276 113.242C135.551 113.634 136.776 113.487 138.1 113.291C140.992 112.875 143.958 112.36 146.85 112.531C149.669 112.703 152.317 112.654 155.013 111.796C156.14 111.428 156.091 111.134 155.846 110.227C155.013 106.918 154.302 103.56 153.518 100.227C152.12 94.3929 150.895 88.5101 150.307 82.0391ZM115.549 115.448C115.745 117.311 115.917 118.733 116.015 120.179C116.064 120.718 116.186 121.11 116.726 121.38C120.476 123.415 126.187 121.307 127.584 117.311C127.805 116.723 127.707 115.988 128.026 115.448C131.286 109.639 132.389 102.972 135.256 97.0157C135.992 95.4959 136.703 94.54 138.492 95.3489C138.982 95.5695 139.301 95.4469 139.619 95.1038C141.237 93.437 141.09 91.2799 140.968 89.2455C140.894 87.7993 139.178 88.4857 138.345 87.9219C137.634 87.4317 136.85 87.064 136.114 86.6473C134.374 85.6423 132.34 86.2551 131.923 88.167C131.09 91.9908 129.496 95.5204 128.124 99.1481C127.045 101.967 125.991 104.786 124.937 107.605C124.667 108.291 124.373 109.124 123.466 108.806C122.388 108.438 122.78 107.531 123.074 106.796C123.712 105.104 124.349 103.438 125.06 101.771C125.427 100.938 125.378 100.496 124.398 100.227C121.996 99.5403 119.545 100.472 117.142 99.8835C116.726 99.7854 116.628 100.496 116.628 100.913C116.53 105.889 116.701 110.914 115.549 115.448ZM271.933 188.272C271.737 189.571 270.854 189.816 269.678 189.694C268.403 189.547 268.428 188.934 268.869 187.929C269.089 187.439 268.624 186.973 268.011 186.973C266.859 186.973 266.172 186.189 265.511 185.453C263.819 183.566 261.834 183.125 259.456 183.958C258.525 184.301 257.446 184.277 256.539 184.669C254.505 185.527 251.49 185.772 251.245 188.395C250.828 192.807 251.171 197.292 251.196 201.753C251.196 202.44 251.392 202.93 252.201 202.513C256.074 200.528 260.167 201.263 264.261 201.263C267.937 201.263 271.222 201.9 274.139 205.038C273.354 199.106 272.643 193.689 271.933 188.272ZM92.9006 168.124C91.4299 170.673 91.5279 171.31 92.0917 176.605C92.9006 183.958 93.6604 191.385 91.9446 198.689C91.2583 201.582 90.572 204.523 89.7141 207.366C89.1503 209.229 89.7141 209.474 91.3073 209.058C92.4103 208.764 93.5869 208.126 94.6164 208.298C97.2881 208.715 97.5332 207.097 97.9499 205.185C99.1755 199.572 100.499 193.934 104.887 189.718C105.034 189.571 105.058 189.154 104.96 188.934C104.495 187.757 104.666 186.09 102.632 186.139C101.749 186.164 101.798 185.355 101.725 184.693C101.406 182.365 103.048 180.428 103.024 177.953C100.254 178.688 100.842 177.144 101.259 175.477C101.725 173.565 102.558 171.702 102.092 169.276C100.965 171.678 100.009 173.786 98.9794 175.845C98.8324 176.139 98.8569 176.801 98.195 176.605C97.7293 176.457 97.5333 176.065 97.5333 175.6C97.5333 173.737 97.3127 171.874 97.6068 170.011C97.8519 168.393 97.8519 166.751 97.9744 165.109C95.94 167.927 96.0871 171.335 94.6409 174.202C94.4448 174.595 94.8125 175.379 94.0281 175.33C93.2928 175.305 93.2438 174.57 93.1947 174.031C93.0722 172.07 92.9986 170.085 92.9006 168.124ZM241.293 163.368C240.166 166.212 240.411 169.08 240.582 171.947C240.901 177.315 241.587 182.659 241.661 188.027C241.71 192.684 242.2 197.317 242.274 201.974C242.323 204.254 242.494 206.607 242.715 208.592C248.304 206.582 249.431 202.513 249.137 196.851C248.745 189.204 247.764 181.262 252.054 174.129C252.127 174.006 252.176 173.859 252.201 173.712C252.446 172.217 251.882 170.771 251.122 169.668C250.485 168.736 249.284 169.643 248.377 170.035C247.299 170.501 246.563 170.33 246.343 169.055C246.245 168.467 246.073 167.805 245.436 167.731C244.872 167.658 244.651 168.32 244.455 168.761C244.112 169.521 243.793 170.305 242.789 170.011C241.906 169.741 241.759 168.908 241.685 168.099C241.538 166.53 241.416 164.962 241.293 163.368ZM39.8822 175.379C39.8577 175.305 39.8332 175.207 39.7841 175.207C39.588 175.158 39.3674 175.085 39.1468 175.085C36.426 174.938 33.5092 175.477 31.5728 172.707C31.3276 172.34 30.7149 172.045 30.2982 172.045C29.0971 172.021 28.8029 171.359 28.8765 170.379C28.9255 169.668 28.6069 169.129 28.2882 168.565C26.7685 165.918 25.6165 163.05 26.4009 160.059C27.0137 157.731 25.8371 157.608 24.3174 157.486C23.3859 157.412 22.4545 157.559 21.523 157.608C20.6161 157.657 20.0769 158.147 19.9543 159.079C19.5131 162.314 19.6601 165.501 20.7386 168.638C22.3809 173.443 25.2733 177.511 28.3128 181.507C29.6609 183.296 30.3717 185.625 32.7248 186.801C32.6758 186.311 32.6268 185.968 32.6023 185.649C32.5533 184.718 32.3571 183.664 33.5336 183.272C34.8083 182.855 35.2495 183.884 35.7887 184.767C36.2545 185.527 36.6221 186.409 37.6026 186.997C38.7056 183.1 36.6957 178.713 39.8822 175.379ZM134.031 200.773C133.614 198.738 133.59 197.366 134.325 195.797C135.281 193.763 135.649 191.459 135.06 188.86C134.57 189.571 134.129 189.988 133.957 190.503C132.143 195.699 130.183 200.871 129.545 206.386C129.129 209.891 128.687 213.347 127.805 216.754C127.707 217.147 126.996 217.759 127.731 218.152C128.271 218.446 128.614 217.882 128.982 217.563C131.531 215.333 134.08 213.053 137.757 212.98C138.124 212.98 138.639 212.882 138.664 212.538C138.884 210.136 141.066 209.082 142.193 207.317C143.566 205.16 144.179 202.685 145.527 200.552C145.772 200.185 146.189 199.743 145.6 199.18C144.84 199.915 144.056 200.626 143.321 201.361C142.929 201.753 142.536 202.415 141.924 202.072C141.213 201.704 141.458 200.92 141.679 200.356C142.071 199.351 142.561 198.395 143.027 197.415C143.786 195.846 144.35 194.204 144.669 191.9C142.978 193.738 142.438 195.601 141.556 197.268C140.624 199.033 140.061 201.043 138.149 202.121C137.83 202.293 137.536 202.562 137.168 202.293C136.678 201.949 136.923 201.508 137.119 201.141C139.129 197.635 140.208 193.763 141.409 189.939C141.728 188.934 142.316 187.88 141.629 186.458C138.909 191.14 137.953 196.508 134.031 200.773ZM184.059 190.159C183.029 191.704 183.103 193.174 182.613 194.449C182.368 195.111 182.221 195.944 181.289 195.92C180.333 195.895 180.309 195.037 180.137 194.351C179.867 193.272 180.014 192.194 180.088 191.14C180.211 189.547 179.941 188.076 178.789 186.679C178.348 189.718 177.955 192.562 177.539 195.405C177.441 196.042 177.367 196.802 176.509 196.802C175.774 196.802 175.774 196.067 175.529 195.576C174.352 192.954 173.274 190.306 173.445 187.316C173.47 186.924 173.494 186.434 172.857 186.238C172.244 188.149 171.877 190.012 172.391 192.047C172.808 193.64 172.686 195.331 173.274 196.9C173.47 197.439 173.396 197.93 172.882 198.224C172.416 198.493 172.073 198.199 171.754 197.881C170.308 196.459 168.249 195.478 168.396 192.954C168.421 192.488 168.298 191.9 167.489 192.071C167.269 195.135 167.318 198.028 170.381 200.013C171.681 200.846 172.759 202.097 173.813 203.273C175.357 205.013 177.343 206.46 177.539 209.107C177.588 209.891 178.25 210.063 179.01 209.94C180.358 209.72 181.706 209.499 183.054 209.401C184.525 209.303 185.235 208.666 185.186 207.146C185.088 204.915 185.848 202.93 186.902 201.018C187.809 199.376 188.692 197.733 189.574 196.116C188.152 196.704 187.687 197.979 186.853 198.959C186.289 199.621 185.652 200.307 184.672 199.989C183.544 199.621 183.863 198.665 183.912 197.807C183.985 195.356 184.623 192.978 184.059 190.159ZM124.717 97.9961C125.476 97.4323 126.775 98.0697 127.241 96.5745C128.197 93.5841 129.398 90.6917 130.452 87.7258C130.869 86.5492 131.212 85.4217 132.634 85.1521C133.32 85.0295 133.516 84.6864 133.001 84.1471C131.923 83.0196 131.335 81.2793 129.79 80.7645C128.393 80.2988 126.923 78.7791 125.55 79.6125C124.471 80.2743 123.442 80.642 122.265 80.8626C121.285 81.0342 120.746 81.7204 120.28 82.6519C118.025 87.1865 117.142 91.9663 117.437 96.9911C117.461 97.3098 117.559 97.6284 117.878 97.5304C120.231 96.795 122.437 97.4568 124.717 97.9961ZM99.9599 152.436C101.994 153.564 103.686 154.495 105.352 155.427C105.745 155.647 106.161 155.892 106.504 155.451C107.509 154.152 108.294 155.108 109.005 155.721C112.02 158.294 115.353 160.402 118.711 162.461C119.128 162.731 119.863 163.221 120.01 163.099C121.677 161.603 122.339 163.491 123.27 164.079C125.942 165.77 128.467 167.682 131.163 169.3C132.021 169.815 132.805 170.942 134.423 170.55C131.555 166.751 128.271 163.589 124.766 160.77C120.329 157.24 116.579 153.024 112.265 149.397C110.157 147.607 107.73 147.117 105.5 148.735C103.808 149.936 102.166 151.211 99.9599 152.436ZM29.5138 158.491C29.5873 156.162 30.0775 153.931 31.0825 151.995C32.0875 150.059 32.4306 147.828 34.0729 146.112C34.9798 145.156 34.7348 143.367 33.8279 141.798C33.3866 142.288 33.1415 142.632 32.8473 142.926C32.3571 143.391 32.063 144.396 31.2541 144.078C30.4207 143.759 31.1316 142.95 31.1316 142.362C31.0825 139.372 31.107 136.381 31.107 132.925C30.5678 135.376 29.9059 137.313 29.7834 139.372C29.7344 140.229 30.2001 141.627 28.9745 141.749C27.6019 141.896 28.1656 140.401 27.8715 139.617C27.7735 139.372 27.6755 139.126 27.5529 138.881C26.4009 139.102 26.4989 140.229 25.9106 140.818C25.0527 141.651 24.3173 140.72 23.5084 140.744C23.4594 140.744 23.3859 140.818 23.3369 140.867C22.5035 142.19 20.5916 142.656 20.7632 144.813C20.9593 147.583 20.8367 150.402 20.6651 153.196C20.5671 155.059 21.0818 155.745 23.0427 155.5C25.69 155.181 28.0186 155.819 29.5138 158.491ZM142.683 148.147C142.34 150.132 142.561 151.921 143.051 153.686C143.345 154.74 143.566 156.039 142.512 156.652C141.262 157.387 140.919 155.917 140.281 155.231C139.791 154.716 139.154 153.833 138.541 154.348C137.683 155.083 138.713 155.721 139.178 156.211C140.992 158.098 142.242 160.378 143.541 162.584C145.257 165.476 144.546 168.712 144.424 171.825C144.424 172.119 143.885 172.56 144.326 172.732C145.894 173.394 147.586 173.099 149.204 173.001C150.282 172.928 149.914 171.629 150.037 170.844C150.601 166.604 150.552 162.241 152.66 158.294C153.346 156.995 154.498 155.843 154.326 154.054C153.37 154.961 153.493 156.946 151.777 156.726C150.429 156.554 151.336 155.01 150.797 154.25C149.596 155.525 149.105 155.868 148.615 155.598C147.586 155.034 147.88 153.98 147.831 153.098C147.684 150.451 147.537 147.803 147.414 145.156C146.875 147.803 146.703 150.426 146.777 153.098C146.801 153.98 147.096 155.206 145.87 155.427C144.62 155.647 144.473 154.348 144.203 153.539C143.615 151.75 143.174 149.936 142.683 148.147ZM178.617 161.162C178.421 161.064 178.225 160.966 178.029 160.893C177.784 161.015 177.563 161.138 177.294 161.236C176.632 161.505 176.142 162.559 175.259 161.873C174.426 161.211 175.088 160.427 175.284 159.716C175.406 159.324 175.725 158.883 175.063 158.711C173.617 158.343 174.009 157.265 174.083 156.284C174.303 153.662 174.499 151.039 174.696 148.416C173.691 151.015 173.176 153.686 172.587 156.334C172.391 157.191 172.342 158.466 171.019 158.123C169.891 157.829 170.406 156.652 170.529 155.941C170.994 153.392 170.847 150.843 170.7 148.269C170.014 151.186 169.744 154.152 169.524 157.142C169.45 158.196 169.254 159.275 169.009 160.304C168.641 161.898 167.072 160.844 166.19 161.383C167.93 164.104 167.955 164.104 167.71 167.266C167.587 168.834 167.489 170.428 167.219 171.972C167.023 173.075 167.195 173.614 168.445 173.541C170.014 173.443 171.607 173.394 173.176 173.369C174.303 173.345 174.72 172.879 174.843 171.678C175.308 167.927 174.744 163.834 178.617 161.162ZM74.9336 136.357C73.9532 138.391 73.7326 140.597 73.3159 142.754C73.1688 143.612 73.2914 144.911 71.9432 144.764C70.8157 144.642 70.7912 143.489 70.6931 142.558C70.497 140.156 70.2764 137.754 70.0803 135.352C69.8842 135.793 69.8598 136.21 69.8843 136.651C69.9823 138.881 70.1048 141.087 70.2274 143.318C70.4725 148 69.8843 148.441 65.6193 146.774C65.5212 146.725 65.3741 146.774 65.2026 146.799C64.7368 148 65.4967 148.49 66.4036 148.906C68.242 149.764 68.9773 151.284 69.0264 153.245C69.0509 154.25 69.1979 155.255 69.2715 156.235C69.345 157.191 69.7127 157.388 70.6687 157.02C72.409 156.334 74.1738 155.721 75.9876 155.255C77.3603 154.887 78.1446 153.931 78.3407 152.779C78.88 149.544 80.3017 146.872 82.7038 144.593C81.7969 145.034 81.0125 145.597 80.3262 146.235C79.6399 146.848 78.929 147.387 78.0221 146.897C77.1397 146.406 77.5073 145.499 77.6054 144.764C77.6789 144.2 77.924 143.661 78.0466 143.097C78.5123 140.793 79.836 138.734 80.0075 136.308C78.8555 138.906 77.8505 141.553 76.7965 144.2C76.4779 144.985 76.1837 145.965 75.0317 145.671C73.9777 145.401 74.1738 144.421 74.2473 143.686C74.4189 141.21 74.6885 138.783 74.9336 136.357ZM99.4941 208.249C102.411 208.224 105.156 208.935 107.583 210.651C108.686 211.411 108.735 210.651 108.784 209.867C109.029 206.362 109.446 202.856 109.47 199.351C109.495 197.758 109.299 195.429 108.294 194.743C106.676 193.64 106.21 192.071 105.23 190.405C102.975 196.385 99.7883 201.729 99.4941 208.249ZM130.648 142.95C129.717 143.489 129.741 144.274 129.447 144.911C128.712 146.529 128.026 148.196 127.315 149.838C127.119 150.328 126.874 150.818 126.261 150.72C125.55 150.598 125.427 149.985 125.476 149.397C125.55 148.686 125.697 147.975 125.795 147.264C126.089 145.156 127.266 143.195 126.972 140.965C126.972 140.916 127.045 140.867 127.094 140.818C127.045 140.818 126.996 140.818 126.677 140.867C125.942 143.269 125.158 145.769 124.422 148.294C124.177 149.127 124.202 150.181 122.976 150.01C121.775 149.838 122.045 148.735 121.996 147.926C121.849 145.794 121.775 143.686 121.628 141.112C120.819 143.538 120.868 145.622 120.574 147.656C120.206 150.059 119.765 150.328 117.265 149.715C119.863 154.201 123.785 157.461 127.977 160.697C128.687 156.383 131.923 153.098 132.413 148.637C131.408 149.078 131.261 150.01 130.746 150.671C130.403 151.113 130.183 151.848 129.496 151.627C128.638 151.382 128.957 150.549 129.031 149.961C129.08 149.421 129.447 148.907 129.57 148.343C130.036 146.651 130.967 145.034 130.648 142.95ZM159.989 201.998C157.93 203.003 156.557 204.425 155.528 206.165C154.719 207.489 153.714 208.053 152.12 207.538C150.135 206.925 148.101 206.509 146.115 205.92C145.551 205.749 145.11 205.43 144.669 206.141C143.517 208.028 141.826 209.548 143.149 212.293C143.885 213.789 144.939 214.009 146.042 214.401C147.463 214.916 148.958 215.235 150.258 216.019C150.919 216.411 151.434 216.583 151.777 215.725C152.905 212.784 155.528 211.068 157.366 208.69C158.788 206.827 160.577 204.989 159.989 201.998ZM162.268 228.692C162.317 228.422 162.391 228.152 162.415 227.858C162.685 224.574 162.317 221.289 162.513 218.029C162.685 215.455 162.366 213.053 161.68 210.627C161.41 209.695 160.945 209.842 160.234 210.087C157.317 211.043 155.601 213.347 154.326 215.848C153.787 216.926 153.567 218.421 154.939 220.014C157.341 222.858 160.479 225.137 162.268 228.692ZM135.943 155.574C135.207 159.03 134.399 161.996 133.394 164.913C133.222 165.427 133.198 165.918 133.614 166.31C135.624 168.295 137.413 170.55 139.791 172.119C140.6 172.658 142.831 171.457 142.806 170.526C142.806 169.104 142.855 167.658 142.634 166.236C141.924 161.947 138.762 159.201 135.943 155.574ZM209.159 138.906C209.085 138.881 208.987 138.857 208.914 138.832C208.497 140.107 208.129 141.431 207.614 142.656C207.394 143.171 207.075 143.882 206.193 143.661C205.457 143.465 205.408 142.901 205.433 142.313C205.482 141.333 205.555 140.327 205.605 139.347C204.82 141.283 204.452 143.244 204.134 145.23C204.036 145.818 204.109 146.406 203.374 146.602C202.761 146.75 202.271 146.578 201.805 146.186C201.389 145.843 201.389 145.132 200.629 144.96C200.702 145.646 200.702 146.308 200.825 146.921C201.413 149.544 202.492 152.142 201.143 154.863C200.923 155.329 201.413 155.623 201.707 155.917C202.418 156.628 203.129 157.338 203.84 158.049C204.428 158.638 205.212 158.736 205.825 158.393C206.34 158.098 206.56 157.412 206.217 156.677C205.997 156.235 205.874 155.721 205.85 155.231C205.703 152.828 205.041 150.353 207.492 148.514C209.33 147.166 211.022 145.622 213.326 143.71C211.095 144.053 211.561 142.607 211.169 141.627C210.874 141.872 210.654 141.97 210.58 142.141C210.262 142.803 209.919 143.588 209.036 143.244C208.105 142.877 208.252 142.019 208.497 141.21C208.766 140.401 208.963 139.641 209.159 138.906ZM98.7588 139.004C98.6853 139.004 98.6118 138.979 98.5382 138.979C98.2931 140.524 98.048 142.043 97.8028 143.588C97.6558 144.543 97.0185 145.034 96.1606 144.887C95.3272 144.74 95.6459 143.882 95.6459 143.342C95.6214 140.278 95.891 137.215 95.5724 133.856C94.9841 135.768 94.935 137.484 94.9105 139.176C94.886 140.891 95.0086 142.632 94.9105 144.347C94.8615 145.475 94.1997 146.651 93.0967 145.426C91.9937 144.2 90.8171 144.887 89.9347 145.009C89.1993 145.107 90.2043 146.308 90.3269 147.044C90.4494 147.877 90.9151 148.661 91.1357 149.495C91.5524 151.015 92.1162 151.774 93.4398 150.206C93.9545 149.593 94.7389 149.348 95.3517 149.911C97.8028 152.118 99.6412 150.23 101.627 149.103C102.485 148.612 102.877 147.926 102.754 146.995C102.558 145.646 102.705 144.298 102.828 142.46C102.313 143.244 102.092 143.661 101.798 144.004C101.259 144.641 100.818 145.671 99.8373 145.401C98.7588 145.107 98.7343 144.029 98.7588 143.073C98.7833 141.7 98.7588 140.352 98.7588 139.004ZM166.729 158.221C167.171 157.437 167.514 156.946 167.636 156.211C168.077 153.098 167.955 149.912 169.009 146.897C169.18 146.382 169.009 146.112 168.568 145.867C166.607 144.887 164.695 143.833 162.195 143.269C163.935 148.318 165.406 153.123 166.729 158.221ZM271.467 187.88C271.393 182.561 268.55 177.634 263.721 173.982C263.403 176.065 263.893 178.124 263.893 180.183C263.893 181.017 264.31 181.36 264.971 181.556C268.011 182.487 269.727 184.791 271.467 187.88ZM211.267 199.891C213.473 199.327 215.532 198.714 217.64 198.297C219.257 197.979 219.086 196.925 218.841 195.871C218.522 194.449 218.498 192.807 216.757 192.218C216.586 192.169 216.243 192.464 216.046 192.635C213.914 194.694 211.659 196.606 211.267 199.891ZM67.8743 110.816C67.0164 110.62 67.0655 111.355 66.9184 111.87C66.6733 112.654 67.0164 113.046 67.8008 113.242C70.7667 114.002 73.7571 114.786 76.723 115.595C77.875 115.914 77.9731 115.081 78.2917 114.345C78.6839 113.463 78.2182 113.193 77.5319 112.973C74.3944 111.894 71.1343 111.379 67.8743 110.816ZM195.726 204.327C192.981 205.626 190.211 206.95 187.074 208.445C188.643 208.69 189.77 208.788 190.873 209.033C196.045 210.21 196.143 210.161 195.947 204.67C195.947 204.621 195.873 204.572 195.726 204.327ZM146.997 125.841C140.428 124.101 133.786 122.753 127.045 122.042C133.345 125.204 140.404 124.371 146.997 125.841ZM140.6 152.485C140.379 149.863 140.134 147.387 139.987 144.936C139.938 144.249 140.012 143.588 139.08 143.588C138.271 143.588 138.271 144.249 138.222 144.813C138.002 147.289 137.585 149.74 136.899 152.338C138.149 152.02 139.301 152.069 140.6 152.485ZM113.98 115.13C113.588 112.164 114.054 109.247 114.152 106.33C113.221 107.899 112.167 109.32 111.627 111.036C110.647 114.149 110.573 114.125 113.98 115.13ZM211.389 184.84C212.051 187.292 212.247 189.228 212.198 191.189C212.174 191.851 211.855 192.856 212.811 193.003C214.061 193.199 214.404 191.802 215.238 191.213C215.679 190.895 216.12 190.429 215.556 189.792C214.282 188.272 213.032 186.777 211.389 184.84ZM152.929 166.972C152.758 167.143 152.611 167.241 152.586 167.364C152.439 168.418 152.341 169.496 152.194 170.575C151.826 173.516 151.949 173.614 155.086 173.271C154.621 171.089 153.885 169.031 152.929 166.972ZM152.954 73.7543C154.473 72.21 155.626 70.6167 156.312 68.7293C156.483 68.2636 156.655 67.6509 156.091 67.3812C155.527 67.0871 155.111 67.6018 154.915 68.0185C154.13 69.8078 152.807 71.4012 152.954 73.7543ZM33.6808 168.001C32.7739 168.32 31.8669 168.736 31.8669 169.815C31.8669 170.697 32.7493 171.237 33.4601 171.31C34.5631 171.433 34.9799 170.207 35.2005 169.472C35.4701 168.589 34.3916 168.344 33.6808 168.001ZM54.0743 187.316C55.1283 187.022 55.7166 186.213 56.4029 185.527C56.9912 184.938 56.6726 184.35 56.4275 183.762C56.2069 183.223 55.6921 183.1 55.2019 183.125C54.393 183.174 54.4665 183.909 54.4175 184.424C54.3195 185.38 53.6331 186.262 54.0743 187.316ZM69.8107 105.08C71.9432 107.556 74.3944 106.453 76.4043 107.188C74.5905 105.815 72.5805 105.104 69.8107 105.08ZM176.46 148.49C176.387 150.157 176.019 151.578 176.289 153.27C177.588 151.652 178.862 150.255 176.46 148.49ZM152.807 145.941C151.875 148 151.41 149.838 151.581 152.044C152.611 150.132 152.488 148.147 152.807 145.941ZM174.156 212.171C175.088 211.656 176.558 211.754 176.117 210.112C175.897 209.303 175.382 208.984 174.696 209.229C173.078 209.842 174.23 211.141 174.156 212.171ZM142.389 122.459C139.767 121.576 137.046 121.209 134.276 121.209C136.997 121.625 139.693 122.042 142.389 122.459ZM106.872 116.159C106.455 116.012 105.99 115.89 105.892 116.502C105.818 116.944 106.21 117.066 106.578 117.14C107.583 117.336 108.612 117.532 109.617 117.703C109.642 117.703 109.838 117.262 109.764 117.189C109.029 116.208 107.853 116.478 106.872 116.159ZM38.1909 170.599C37.4065 171.212 36.2789 171.727 36.5241 172.487C36.8427 173.418 38.0438 173.222 38.9752 173.026C38.9997 172.193 38.6076 171.531 38.1909 170.599ZM103.244 116.086C102.117 114.468 100.45 114.517 98.7588 114.688C100.254 115.154 101.749 115.62 103.244 116.086ZM30.1756 167.143C30.7884 166.775 31.2786 166.31 31.156 165.623C31.058 165.06 30.8619 164.202 30.0531 164.349C29.4648 164.447 28.803 164.962 29.1461 165.721C29.3667 166.236 29.4157 166.996 30.1756 167.143ZM113.858 117.556C113.76 117.311 114.275 116.527 113.147 116.723C112.289 116.87 111.652 116.968 111.652 118.047C111.627 118.904 112.24 118.929 112.779 119.002C113.686 119.101 114.079 118.635 113.858 117.556ZM28.1902 162.805C28.5333 162.51 28.8275 162.314 29.0481 162.045C29.7099 161.162 29.0726 160.451 28.6804 159.741C28.5088 159.422 27.9941 159.177 27.798 159.447C27.3568 160.035 27.5529 160.795 27.6264 161.481C27.6755 161.922 27.9696 162.314 28.1902 162.805ZM131.457 120.62C131.482 120.473 131.531 120.302 131.555 120.155C130.893 119.762 130.232 119.395 129.57 119.027C128.908 118.659 128.687 119.199 128.467 119.64C128.001 120.571 128.81 120.351 129.202 120.4C129.937 120.522 130.697 120.571 131.457 120.62ZM252.52 178.664C251.809 179.816 251.318 180.649 251.392 181.703C251.417 182.095 251.245 182.683 251.858 182.659C252.323 182.659 252.52 182.193 252.52 181.727C252.52 180.821 252.52 179.938 252.52 178.664ZM172.465 147.117C172.612 146.161 173.789 145.524 173.274 144.764C172.906 144.2 172.122 144.691 171.558 145.034C171.852 145.72 172.146 146.431 172.465 147.117ZM91.0622 115.203C92.5819 116.061 94.0771 115.914 95.4498 116.184C94.0526 116.012 92.8515 114.983 91.0622 115.203ZM126.04 71.7933C125.501 70.5677 125.133 69.6853 124.006 68.7293C124.422 70.151 124.643 71.107 126.04 71.7933ZM114.03 121.895C114.103 121.699 114.177 121.503 114.226 121.331C113.441 120.596 112.461 120.596 111.358 121.135C112.265 121.405 113.147 121.65 114.03 121.895ZM224.65 153.515C226.488 153.073 226.684 151.897 227.469 151.211C227.322 151.088 227.199 150.965 227.052 150.843C226.341 151.627 225.655 152.412 224.65 153.515Z" fill="#100C08"/>
<path d="M215.951 220.209C223.451 220.577 229.506 223.788 234.359 229.474C234.678 229.842 234.923 230.308 235.143 230.749C235.389 231.264 235.291 231.705 234.8 232.073C234.31 232.44 233.869 232.391 233.428 232.023C232.913 231.533 232.374 231.043 231.908 230.504C228.795 226.803 224.824 224.572 220.216 223.175C216.711 222.096 213.328 222.072 209.897 223.248C206.22 224.523 202.739 226.239 199.21 227.832C197.469 228.616 196.342 230.185 194.945 231.435C194.454 231.852 193.964 232.881 193.229 232.22C192.592 231.656 193.376 230.92 193.695 230.332C194.7 228.543 196.023 226.974 197.861 226.092C202.249 223.984 206.588 221.753 211.392 220.601C212.936 220.233 214.431 220.43 215.951 220.209Z" fill="#100C08"/>
<path d="M57.5085 236.314C57.0918 235.26 57.6556 234.672 58.1458 234.231C66.0385 227.024 75.2058 225.382 85.2801 228.176C87.9518 228.912 89.9373 230.701 91.0403 233.299C91.408 234.133 92.0452 234.672 92.609 235.334C92.9767 235.75 93.1728 236.216 92.6825 236.657C92.3149 236.976 91.8247 236.951 91.506 236.608C90.7462 235.848 89.5696 235.481 89.1529 234.427C87.8783 231.142 85.0594 230.064 82.02 229.623C75.2303 228.618 68.7348 229.402 62.7785 233.201C61.1117 234.231 59.2733 235.113 57.5085 236.314Z" fill="#100C08"/>
<path d="M227.736 177.019C227.883 176.946 228.03 176.897 228.153 176.823C228.129 176.995 228.128 177.191 228.104 177.362C227.981 177.24 227.859 177.117 227.736 177.019Z" fill="#100C08"/>
<path d="M265.781 148.539C265.879 148.465 266.026 148.318 266.051 148.343C266.272 148.49 266.223 148.637 266.002 148.784C265.928 148.71 265.855 148.637 265.781 148.539Z" fill="#100C08"/>
<path d="M154.891 147.778C154.866 147.876 154.817 147.95 154.792 148.048C154.743 147.999 154.67 147.95 154.67 147.9C154.694 147.704 154.792 147.68 154.915 147.827L154.891 147.778Z" fill="#100C08"/>
<path d="M108.934 191.876C109.228 191.974 109.424 192.121 109.203 192.464C109.105 192.268 109.032 192.072 108.934 191.876Z" fill="#100C08"/>
<path d="M20.2205 172.265C20.0735 172.437 19.9509 172.633 19.8039 172.804C19.4852 172.29 19.6813 172.143 20.2205 172.265Z" fill="#100C08"/>
<path d="M212.936 170.452C212.936 170.256 212.838 169.986 212.936 169.913C213.157 169.741 213.23 169.986 213.304 170.158C213.181 170.256 213.059 170.354 212.936 170.452Z" fill="#100C08"/>
</g>
</svg>
