<svg width="40" height="40" viewBox="0 0 40 40" fill="none" xmlns="http://www.w3.org/2000/svg">
<path d="M31.875 5C33.2563 5 34.375 6.11875 34.375 7.5V32.2762C34.375 33.6575 33.2563 34.7762 31.875 34.7762H4.375C2.99375 34.7762 1.875 33.6575 1.875 32.2762V7.5C1.875 6.11875 2.99375 5 4.375 5H31.875Z" fill="white"/>
<path d="M4.375 34.7762H31.875C33.2563 34.7762 34.375 33.6575 34.375 32.2762V18.75C28.46 25.2213 18.4537 29.9813 1.875 30.8706V32.2762C1.875 33.6575 2.99375 34.7762 4.375 34.7762Z" fill="#63AB45" fill-opacity="0.3"/>
<path opacity="0.2" d="M31.875 38.75C35.672 38.75 38.75 35.672 38.75 31.875C38.75 28.078 35.672 25 31.875 25C28.078 25 25 28.078 25 31.875C25 35.672 28.078 38.75 31.875 38.75Z" fill="#63AB45"/>
<path d="M35.9933 26.3809C36.889 27.5674 37.3735 29.0136 37.3733 30.5002C37.3733 34.2971 34.2952 37.3752 30.4983 37.3752C28.9508 37.3752 27.5277 36.8577 26.3789 35.9946C27.6327 37.6652 29.6233 38.7502 31.8733 38.7502C35.6702 38.7502 38.7483 35.6721 38.7483 31.8752C38.7483 29.6252 37.6633 27.6346 35.9933 26.3809Z" fill="#63AB45" fill-opacity="0.3"/>
<path d="M34.375 11.25H1.875V7.5C1.875 6.83696 2.13839 6.20107 2.60723 5.73223C3.07607 5.26339 3.71196 5 4.375 5H31.875C32.538 5 33.1739 5.26339 33.6428 5.73223C34.1116 6.20107 34.375 6.83696 34.375 7.5V11.25Z" fill="#63AB45"/>
<path d="M7.5 8.125C7.16848 8.125 6.85054 7.9933 6.61612 7.75888C6.3817 7.52446 6.25 7.20652 6.25 6.875V3.125C6.25 2.79348 6.3817 2.47554 6.61612 2.24112C6.85054 2.0067 7.16848 1.875 7.5 1.875C7.83152 1.875 8.14946 2.0067 8.38388 2.24112C8.6183 2.47554 8.75 2.79348 8.75 3.125V6.875C8.75 7.20652 8.6183 7.52446 8.38388 7.75888C8.14946 7.9933 7.83152 8.125 7.5 8.125ZM14.375 8.125C14.0435 8.125 13.7255 7.9933 13.4911 7.75888C13.2567 7.52446 13.125 7.20652 13.125 6.875V3.125C13.125 2.79348 13.2567 2.47554 13.4911 2.24112C13.7255 2.0067 14.0435 1.875 14.375 1.875C14.7065 1.875 15.0245 2.0067 15.2589 2.24112C15.4933 2.47554 15.625 2.79348 15.625 3.125V6.875C15.625 7.20652 15.4933 7.52446 15.2589 7.75888C15.0245 7.9933 14.7065 8.125 14.375 8.125ZM21.875 8.125C21.5435 8.125 21.2255 7.9933 20.9911 7.75888C20.7567 7.52446 20.625 7.20652 20.625 6.875V3.125C20.625 2.79348 20.7567 2.47554 20.9911 2.24112C21.2255 2.0067 21.5435 1.875 21.875 1.875C22.2065 1.875 22.5245 2.0067 22.7589 2.24112C22.9933 2.47554 23.125 2.79348 23.125 3.125V6.875C23.125 7.20652 22.9933 7.52446 22.7589 7.75888C22.5245 7.9933 22.2065 8.125 21.875 8.125ZM28.75 8.125C28.4185 8.125 28.1005 7.9933 27.8661 7.75888C27.6317 7.52446 27.5 7.20652 27.5 6.875V3.125C27.5 2.79348 27.6317 2.47554 27.8661 2.24112C28.1005 2.0067 28.4185 1.875 28.75 1.875C29.0815 1.875 29.3995 2.0067 29.6339 2.24112C29.8683 2.47554 30 2.79348 30 3.125V6.875C30 7.20652 29.8683 7.52446 29.6339 7.75888C29.3995 7.9933 29.0815 8.125 28.75 8.125Z" fill="#63AB45"/>
<path d="M5.625 14.375H9.375V18.125H5.625V14.375ZM12.5 14.375H16.25V18.125H12.5V14.375ZM19.375 14.375H23.125V18.125H19.375V14.375ZM26.25 14.375H30V18.125H26.25V14.375ZM5.625 21.25H9.375V25H5.625V21.25ZM12.5 21.25H16.25V25H12.5V21.25ZM19.375 21.25H23.125V25H19.375V21.25ZM26.25 21.25H30V25H26.25V21.25ZM5.625 28.125H9.375V31.875H5.625V28.125ZM12.5 28.125H16.25V31.875H12.5V28.125ZM19.375 28.125H23.125V31.875H19.375V28.125Z" fill="#63AB45" fill-opacity="0.3"/>
<path d="M35 25.0656V7.5C35 5.77688 33.5981 4.375 31.875 4.375H30.625V3.125C30.625 2.09125 29.7838 1.25 28.75 1.25C27.7162 1.25 26.875 2.09125 26.875 3.125V4.375H23.75V3.125C23.75 2.09125 22.9088 1.25 21.875 1.25C20.8412 1.25 20 2.09125 20 3.125V4.375H16.25V3.125C16.25 2.09125 15.4087 1.25 14.375 1.25C13.3413 1.25 12.5 2.09125 12.5 3.125V4.375H9.375V3.125C9.375 2.09125 8.53375 1.25 7.5 1.25C6.46625 1.25 5.625 2.09125 5.625 3.125V4.375H4.375C2.65188 4.375 1.25 5.77688 1.25 7.5V32.5C1.25 34.2231 2.65188 35.625 4.375 35.625H25.3894C26.6894 37.8625 29.1063 39.375 31.875 39.375C36.0106 39.375 39.375 36.0106 39.375 31.875C39.375 28.8556 37.5775 26.2537 35 25.0656ZM28.125 3.125C28.125 2.95924 28.1908 2.80027 28.3081 2.68306C28.4253 2.56585 28.5842 2.5 28.75 2.5C28.9158 2.5 29.0747 2.56585 29.1919 2.68306C29.3092 2.80027 29.375 2.95924 29.375 3.125V6.875C29.375 7.04076 29.3092 7.19973 29.1919 7.31694C29.0747 7.43415 28.9158 7.5 28.75 7.5C28.5842 7.5 28.4253 7.43415 28.3081 7.31694C28.1908 7.19973 28.125 7.04076 28.125 6.875V3.125ZM21.25 3.125C21.25 2.95924 21.3158 2.80027 21.4331 2.68306C21.5503 2.56585 21.7092 2.5 21.875 2.5C22.0408 2.5 22.1997 2.56585 22.3169 2.68306C22.4342 2.80027 22.5 2.95924 22.5 3.125V6.875C22.5 7.04076 22.4342 7.19973 22.3169 7.31694C22.1997 7.43415 22.0408 7.5 21.875 7.5C21.7092 7.5 21.5503 7.43415 21.4331 7.31694C21.3158 7.19973 21.25 7.04076 21.25 6.875V3.125ZM13.75 3.125C13.75 2.95924 13.8158 2.80027 13.9331 2.68306C14.0503 2.56585 14.2092 2.5 14.375 2.5C14.5408 2.5 14.6997 2.56585 14.8169 2.68306C14.9342 2.80027 15 2.95924 15 3.125V6.875C15 7.04076 14.9342 7.19973 14.8169 7.31694C14.6997 7.43415 14.5408 7.5 14.375 7.5C14.2092 7.5 14.0503 7.43415 13.9331 7.31694C13.8158 7.19973 13.75 7.04076 13.75 6.875V3.125ZM6.875 3.125C6.875 2.95924 6.94085 2.80027 7.05806 2.68306C7.17527 2.56585 7.33424 2.5 7.5 2.5C7.66576 2.5 7.82473 2.56585 7.94194 2.68306C8.05915 2.80027 8.125 2.95924 8.125 3.125V6.875C8.125 7.04076 8.05915 7.19973 7.94194 7.31694C7.82473 7.43415 7.66576 7.5 7.5 7.5C7.33424 7.5 7.17527 7.43415 7.05806 7.31694C6.94085 7.19973 6.875 7.04076 6.875 6.875V3.125ZM4.375 5.625H5.625V6.875C5.625 7.90875 6.46625 8.75 7.5 8.75C8.53375 8.75 9.375 7.90875 9.375 6.875V5.625H12.5V6.875C12.5 7.90875 13.3413 8.75 14.375 8.75C15.4087 8.75 16.25 7.90875 16.25 6.875V5.625H20V6.875C20 7.90875 20.8412 8.75 21.875 8.75C22.9088 8.75 23.75 7.90875 23.75 6.875V5.625H26.875V6.875C26.875 7.90875 27.7162 8.75 28.75 8.75C29.7838 8.75 30.625 7.90875 30.625 6.875V5.625H31.875C32.9088 5.625 33.75 6.46625 33.75 7.5V10.625H2.5V7.5C2.5 6.46625 3.34125 5.625 4.375 5.625ZM4.375 34.375C3.34125 34.375 2.5 33.5337 2.5 32.5V11.875H33.75V24.6219C33.138 24.4604 32.5079 24.3775 31.875 24.375C31.4481 24.375 31.0325 24.4188 30.625 24.4875V21.25C30.625 21.0842 30.5592 20.9253 30.4419 20.8081C30.3247 20.6908 30.1658 20.625 30 20.625H26.25C26.0842 20.625 25.9253 20.6908 25.8081 20.8081C25.6908 20.9253 25.625 21.0842 25.625 21.25V25C25.625 25.1658 25.6908 25.3247 25.8081 25.4419C25.9253 25.5592 26.0842 25.625 26.25 25.625H27.7375C25.7144 26.9694 24.375 29.2675 24.375 31.875C24.375 32.7525 24.5344 33.5919 24.8125 34.375H4.375ZM29.375 24.375H26.875V21.875H29.375V24.375ZM31.875 38.125C28.4287 38.125 25.625 35.3213 25.625 31.875C25.625 28.4287 28.4287 25.625 31.875 25.625C35.3213 25.625 38.125 28.4287 38.125 31.875C38.125 35.3213 35.3213 38.125 31.875 38.125Z" fill="#100C08"/>
<path d="M32.5 30.7981V26.875H31.25V30.7981C30.8781 31.015 30.625 31.4137 30.625 31.875C30.625 31.9381 30.6344 31.9988 30.6437 32.06L28.3594 33.8869L29.1406 34.8631L31.4231 33.0375C31.5637 33.0925 31.715 33.125 31.875 33.125C32.2065 33.125 32.5245 32.9933 32.7589 32.7589C32.9933 32.5245 33.125 32.2065 33.125 31.875C33.125 31.4137 32.8719 31.015 32.5 30.7981ZM9.375 13.75H5.625C5.45924 13.75 5.30027 13.8158 5.18306 13.9331C5.06585 14.0503 5 14.2092 5 14.375V18.125C5 18.2908 5.06585 18.4497 5.18306 18.5669C5.30027 18.6842 5.45924 18.75 5.625 18.75H9.375C9.54076 18.75 9.69973 18.6842 9.81694 18.5669C9.93415 18.4497 10 18.2908 10 18.125V14.375C10 14.2092 9.93415 14.0503 9.81694 13.9331C9.69973 13.8158 9.54076 13.75 9.375 13.75ZM8.75 17.5H6.25V15H8.75V17.5ZM16.25 13.75H12.5C12.3342 13.75 12.1753 13.8158 12.0581 13.9331C11.9408 14.0503 11.875 14.2092 11.875 14.375V18.125C11.875 18.2908 11.9408 18.4497 12.0581 18.5669C12.1753 18.6842 12.3342 18.75 12.5 18.75H16.25C16.4158 18.75 16.5747 18.6842 16.6919 18.5669C16.8092 18.4497 16.875 18.2908 16.875 18.125V14.375C16.875 14.2092 16.8092 14.0503 16.6919 13.9331C16.5747 13.8158 16.4158 13.75 16.25 13.75ZM15.625 17.5H13.125V15H15.625V17.5ZM23.125 13.75H19.375C19.2092 13.75 19.0503 13.8158 18.9331 13.9331C18.8158 14.0503 18.75 14.2092 18.75 14.375V18.125C18.75 18.2908 18.8158 18.4497 18.9331 18.5669C19.0503 18.6842 19.2092 18.75 19.375 18.75H23.125C23.2908 18.75 23.4497 18.6842 23.5669 18.5669C23.6842 18.4497 23.75 18.2908 23.75 18.125V14.375C23.75 14.2092 23.6842 14.0503 23.5669 13.9331C23.4497 13.8158 23.2908 13.75 23.125 13.75ZM22.5 17.5H20V15H22.5V17.5ZM26.25 18.75H30C30.1658 18.75 30.3247 18.6842 30.4419 18.5669C30.5592 18.4497 30.625 18.2908 30.625 18.125V14.375C30.625 14.2092 30.5592 14.0503 30.4419 13.9331C30.3247 13.8158 30.1658 13.75 30 13.75H26.25C26.0842 13.75 25.9253 13.8158 25.8081 13.9331C25.6908 14.0503 25.625 14.2092 25.625 14.375V18.125C25.625 18.2908 25.6908 18.4497 25.8081 18.5669C25.9253 18.6842 26.0842 18.75 26.25 18.75ZM26.875 15H29.375V17.5H26.875V15ZM9.375 20.625H5.625C5.45924 20.625 5.30027 20.6908 5.18306 20.8081C5.06585 20.9253 5 21.0842 5 21.25V25C5 25.1658 5.06585 25.3247 5.18306 25.4419C5.30027 25.5592 5.45924 25.625 5.625 25.625H9.375C9.54076 25.625 9.69973 25.5592 9.81694 25.4419C9.93415 25.3247 10 25.1658 10 25V21.25C10 21.0842 9.93415 20.9253 9.81694 20.8081C9.69973 20.6908 9.54076 20.625 9.375 20.625ZM8.75 24.375H6.25V21.875H8.75V24.375ZM16.25 20.625H12.5C12.3342 20.625 12.1753 20.6908 12.0581 20.8081C11.9408 20.9253 11.875 21.0842 11.875 21.25V25C11.875 25.1658 11.9408 25.3247 12.0581 25.4419C12.1753 25.5592 12.3342 25.625 12.5 25.625H16.25C16.4158 25.625 16.5747 25.5592 16.6919 25.4419C16.8092 25.3247 16.875 25.1658 16.875 25V21.25C16.875 21.0842 16.8092 20.9253 16.6919 20.8081C16.5747 20.6908 16.4158 20.625 16.25 20.625ZM15.625 24.375H13.125V21.875H15.625V24.375ZM23.125 20.625H19.375C19.2092 20.625 19.0503 20.6908 18.9331 20.8081C18.8158 20.9253 18.75 21.0842 18.75 21.25V25C18.75 25.1658 18.8158 25.3247 18.9331 25.4419C19.0503 25.5592 19.2092 25.625 19.375 25.625H23.125C23.2908 25.625 23.4497 25.5592 23.5669 25.4419C23.6842 25.3247 23.75 25.1658 23.75 25V21.25C23.75 21.0842 23.6842 20.9253 23.5669 20.8081C23.4497 20.6908 23.2908 20.625 23.125 20.625ZM22.5 24.375H20V21.875H22.5V24.375ZM9.375 27.5H5.625C5.45924 27.5 5.30027 27.5658 5.18306 27.6831C5.06585 27.8003 5 27.9592 5 28.125V31.875C5 32.0408 5.06585 32.1997 5.18306 32.3169C5.30027 32.4342 5.45924 32.5 5.625 32.5H9.375C9.54076 32.5 9.69973 32.4342 9.81694 32.3169C9.93415 32.1997 10 32.0408 10 31.875V28.125C10 27.9592 9.93415 27.8003 9.81694 27.6831C9.69973 27.5658 9.54076 27.5 9.375 27.5ZM8.75 31.25H6.25V28.75H8.75V31.25ZM16.25 27.5H12.5C12.3342 27.5 12.1753 27.5658 12.0581 27.6831C11.9408 27.8003 11.875 27.9592 11.875 28.125V31.875C11.875 32.0408 11.9408 32.1997 12.0581 32.3169C12.1753 32.4342 12.3342 32.5 12.5 32.5H16.25C16.4158 32.5 16.5747 32.4342 16.6919 32.3169C16.8092 32.1997 16.875 32.0408 16.875 31.875V28.125C16.875 27.9592 16.8092 27.8003 16.6919 27.6831C16.5747 27.5658 16.4158 27.5 16.25 27.5ZM15.625 31.25H13.125V28.75H15.625V31.25ZM23.125 27.5H19.375C19.2092 27.5 19.0503 27.5658 18.9331 27.6831C18.8158 27.8003 18.75 27.9592 18.75 28.125V31.875C18.75 32.0408 18.8158 32.1997 18.9331 32.3169C19.0503 32.4342 19.2092 32.5 19.375 32.5H23.125C23.2908 32.5 23.4497 32.4342 23.5669 32.3169C23.6842 32.1997 23.75 32.0408 23.75 31.875V28.125C23.75 27.9592 23.6842 27.8003 23.5669 27.6831C23.4497 27.5658 23.2908 27.5 23.125 27.5ZM22.5 31.25H20V28.75H22.5V31.25Z" fill="#100C08"/>
</svg>
