<svg width="40" height="40" viewBox="0 0 40 40" fill="none" xmlns="http://www.w3.org/2000/svg">
<g clip-path="url(#clip0_2024_249)">
<path fill-rule="evenodd" clip-rule="evenodd" d="M20 17.8878C19.4258 17.8879 18.8645 17.7176 18.387 17.3986C17.9096 17.0796 17.5374 16.6262 17.3177 16.0957C17.0979 15.5652 17.0404 14.9814 17.1524 14.4182C17.2645 13.8551 17.541 13.3377 17.947 12.9317C18.353 12.5257 18.8703 12.2492 19.4335 12.1371C19.9967 12.0251 20.5804 12.0826 21.1109 12.3023C21.6414 12.5221 22.0949 12.8942 22.4139 13.3716C22.7329 13.8491 22.9032 14.4104 22.9032 14.9846C22.9023 15.7543 22.5962 16.4923 22.0519 17.0365C21.5077 17.5808 20.7697 17.887 20 17.8878ZM20 11.1058C19.2328 11.1057 18.4829 11.3332 17.8449 11.7594C17.207 12.1856 16.7098 12.7914 16.4162 13.5002C16.1226 14.209 16.0458 14.9889 16.1954 15.7413C16.3451 16.4938 16.7145 17.185 17.257 17.7275C17.7995 18.2699 18.4906 18.6394 19.2431 18.7891C19.9955 18.9387 20.7755 18.8619 21.4843 18.5683C22.193 18.2747 22.7989 17.7775 23.2251 17.1396C23.6513 16.5017 23.8788 15.7518 23.8788 14.9846C23.8777 13.9562 23.4687 12.9703 22.7415 12.2431C22.0143 11.5159 21.0284 11.1069 20 11.1058ZM27.4788 26.8675C28.814 25.4152 29.6973 23.6055 30.0211 21.6594C30.3448 19.7134 30.0948 17.7152 29.3018 15.9088C28.5087 14.1025 27.2068 12.5661 25.5551 11.4874C23.9033 10.4087 21.9732 9.83422 20.0004 9.83422C18.0276 9.83422 16.0975 10.4087 14.4458 11.4874C12.7941 12.5661 11.4922 14.1025 10.6991 15.9088C9.90601 17.7152 9.65607 19.7134 9.97978 21.6594C10.3035 23.6055 11.1869 25.4152 12.522 26.8675V23.6651C12.5233 22.5676 12.9599 21.5155 13.736 20.7395C14.5121 19.9636 15.5644 19.5271 16.6618 19.526H23.339C24.4365 19.5271 25.4887 19.9635 26.2648 20.7394C27.0409 21.5154 27.4775 22.5675 27.4788 23.6649V26.8674V26.8675ZM22.0667 20.5016C22.1574 20.5461 22.2323 20.6173 22.2813 20.7058C22.3287 20.7826 22.3538 20.8711 22.3538 20.9614C22.3538 21.0517 22.3287 21.1403 22.2813 21.2171L20.444 24.4C20.3989 24.4777 20.3342 24.5421 20.2564 24.5869C20.1785 24.6317 20.0903 24.6553 20.0005 24.6553C19.9107 24.6553 19.8224 24.6317 19.7446 24.5869C19.6667 24.5421 19.602 24.4777 19.5569 24.4L17.7195 21.2167C17.6721 21.1398 17.6469 21.0513 17.6469 20.961C17.6469 20.8707 17.6721 20.7822 17.7195 20.7053C17.7684 20.6169 17.8434 20.5457 17.9342 20.5013L22.0667 20.5016ZM16.7057 29.6099V25.8833C16.7057 25.754 16.6543 25.6299 16.5628 25.5384C16.4713 25.4469 16.3472 25.3955 16.2178 25.3955C16.0885 25.3955 15.9644 25.4469 15.8729 25.5384C15.7814 25.6299 15.73 25.754 15.73 25.8833V29.2158C14.9273 28.8424 14.1768 28.3657 13.4974 27.798V23.665C13.4986 22.8262 13.8323 22.0222 14.4255 21.4291C15.0187 20.8361 15.8229 20.5026 16.6617 20.5017H16.7478C16.6821 20.6997 16.6595 20.9095 16.6813 21.117C16.7032 21.3246 16.7691 21.525 16.8747 21.705L18.7121 24.8879C18.8428 25.1139 19.0306 25.3015 19.2567 25.4319C19.4828 25.5624 19.7392 25.631 20.0003 25.631C20.2613 25.631 20.5177 25.5624 20.7438 25.4319C20.9699 25.3015 21.1577 25.1139 21.2884 24.8879L23.1259 21.7046C23.2313 21.5246 23.2971 21.3241 23.319 21.1167C23.3408 20.9092 23.3182 20.6995 23.2527 20.5014H23.3388C24.1776 20.5023 24.9818 20.8359 25.575 21.429C26.1682 22.022 26.502 22.8261 26.5031 23.6649V27.7975C25.8896 28.3099 25.2181 28.7484 24.5023 29.1041V25.8833C24.5006 25.7551 24.4485 25.6326 24.3572 25.5425C24.2659 25.4524 24.1427 25.4019 24.0145 25.4019C23.8862 25.4019 23.7631 25.4524 23.6718 25.5425C23.5805 25.6326 23.5284 25.7551 23.5267 25.8833V29.5272C21.3303 30.3391 18.9211 30.3686 16.7055 29.6105L16.7057 29.6099ZM20 8.86667C13.861 8.86667 8.86668 13.8609 8.86668 20C8.86668 26.1391 13.861 31.1333 20 31.1333C26.139 31.1333 31.1342 26.139 31.1342 20C31.1342 13.861 26.1398 8.86667 20 8.86667ZM39.0244 21.5008V18.5025C39.0273 18.3695 38.9862 18.2393 38.9076 18.132C38.829 18.0247 38.7172 17.9463 38.5895 17.9089L36.1935 17.1545C36.1103 17.1283 36.0356 17.0802 35.9773 17.0153C35.9189 16.9503 35.8791 16.871 35.8618 16.7854C35.4515 14.7443 34.6476 12.8026 33.4952 11.0688C33.447 10.9964 33.4191 10.9124 33.4144 10.8256C33.4097 10.7388 33.4284 10.6523 33.4685 10.5752L34.6261 8.33459C34.6896 8.21821 34.7131 8.08413 34.6928 7.95309C34.6725 7.82205 34.6097 7.70133 34.5139 7.60959L32.3934 5.48867C32.3015 5.39261 32.1804 5.32961 32.049 5.30948C31.9175 5.28934 31.7831 5.3132 31.6667 5.37734L29.4366 6.53826C29.3593 6.57862 29.2726 6.5975 29.1855 6.59293C29.0984 6.58835 29.0141 6.5605 28.9414 6.51226C27.2085 5.35801 25.2671 4.55278 23.226 4.14167C23.1409 4.12436 23.062 4.08464 22.9975 4.02662C22.9329 3.96861 22.885 3.8944 22.8587 3.81167L22.0935 1.40917C22.0559 1.28196 21.9776 1.17063 21.8705 1.09233C21.7635 1.01403 21.6336 0.973096 21.501 0.975841H18.5024C18.3695 0.973048 18.2394 1.01416 18.1323 1.0928C18.0252 1.17145 17.9469 1.28323 17.9098 1.41084L17.1545 3.80759C17.1286 3.89087 17.0807 3.96562 17.0159 4.02398C16.951 4.08234 16.8717 4.12216 16.7862 4.13926C14.745 4.54935 12.8033 5.35322 11.0695 6.50592C10.9972 6.55411 10.9132 6.58202 10.8264 6.58674C10.7396 6.59146 10.6532 6.57282 10.576 6.53276L8.33434 5.37442C8.21781 5.3112 8.08374 5.28801 7.95275 5.30843C7.82176 5.32885 7.7011 5.39174 7.60934 5.48742L5.48868 7.60659C5.3928 7.69881 5.32994 7.82002 5.3098 7.95152C5.28967 8.08302 5.31337 8.21749 5.37726 8.33417L6.53909 10.5635C6.57932 10.6409 6.59805 10.7276 6.59333 10.8147C6.58861 10.9018 6.56061 10.986 6.51226 11.0586C5.35818 12.7916 4.55298 14.733 4.14167 16.7741C4.12435 16.8593 4.08463 16.9383 4.02662 17.003C3.9686 17.0677 3.89438 17.1158 3.81159 17.1423L1.40918 17.9073C1.2821 17.9449 1.17086 18.0231 1.09257 18.13C1.01428 18.2369 0.973268 18.3665 0.975842 18.499V21.4974C0.972987 21.6304 1.01407 21.7607 1.09273 21.8679C1.17139 21.9752 1.28323 22.0536 1.41093 22.0908L3.80751 22.8454C3.89069 22.8718 3.96531 22.9199 4.02364 22.9848C4.08197 23.0497 4.12189 23.129 4.13926 23.2145C4.54931 25.2557 5.35318 27.1974 6.50593 28.9312C6.5541 29.0035 6.582 29.0874 6.58673 29.1742C6.59147 29.261 6.57286 29.3474 6.53284 29.4246L5.37451 31.6653C5.31132 31.7818 5.28816 31.9159 5.30859 32.0469C5.32902 32.1778 5.39191 32.2985 5.48759 32.3903L7.60784 34.5105C7.69971 34.6067 7.82086 34.6699 7.95237 34.69C8.08388 34.7102 8.21837 34.6862 8.33484 34.6219L10.5639 33.4609C10.6414 33.4206 10.7282 33.4018 10.8154 33.4064C10.9026 33.4109 10.987 33.4388 11.0598 33.487C12.7923 34.6414 14.7332 35.4469 16.774 35.8583C16.8592 35.8757 16.9382 35.9154 17.003 35.9734C17.0677 36.0314 17.1159 36.1056 17.1424 36.1884L17.9073 38.5908C17.9449 38.7181 18.0233 38.8294 18.1304 38.9077C18.2376 38.986 18.3674 39.0269 18.5001 39.0242H21.4983C21.6312 39.027 21.7614 38.9859 21.8685 38.9073C21.9757 38.8286 22.0539 38.7168 22.0911 38.5892L22.8455 36.1933C22.8718 36.11 22.9198 36.0353 22.9848 35.977C23.0497 35.9186 23.129 35.8788 23.2146 35.8615C25.2561 35.4516 27.198 34.6474 28.9317 33.4941C29.0041 33.4461 29.0881 33.4183 29.1749 33.4136C29.2616 33.4089 29.3481 33.4274 29.4253 33.4673L31.667 34.6256C31.7835 34.689 31.9176 34.7123 32.0486 34.6918C32.1797 34.6714 32.3003 34.6084 32.392 34.5126L34.5115 32.3931C34.6077 32.301 34.6708 32.1798 34.691 32.0483C34.7113 31.9167 34.6877 31.7822 34.6238 31.6654L33.4619 29.4362C33.4216 29.3589 33.4027 29.2722 33.4073 29.1851C33.4119 29.098 33.4397 29.0138 33.4879 28.9411C34.6424 27.2082 35.4479 25.2668 35.8595 23.2256C35.8767 23.1404 35.9164 23.0613 35.9744 22.9965C36.0324 22.9318 36.1067 22.8837 36.1896 22.8573L38.592 22.0931C38.7191 22.0553 38.8302 21.9769 38.9084 21.8698C38.9866 21.7627 39.0274 21.633 39.0246 21.5004L39.0244 21.5008ZM38.8828 16.9788L36.7583 16.3098C36.3287 14.342 35.5521 12.4664 34.465 10.7708L35.4927 8.78217C35.6493 8.48126 35.7057 8.13818 35.6536 7.80298C35.6015 7.46777 35.4437 7.15797 35.2032 6.91876L33.0838 4.79926C32.8441 4.5579 32.5332 4.39973 32.197 4.34795C31.8607 4.29616 31.5167 4.35348 31.2154 4.51151L29.2392 5.54167C27.5441 4.45386 25.669 3.67619 23.7016 3.24501L23.0229 1.11317C22.9209 0.789651 22.7183 0.507168 22.4445 0.306923C22.1707 0.106678 21.8401 -0.000854455 21.5008 7.25624e-06H18.5024C18.1623 -0.00101979 17.8308 0.107003 17.5566 0.308221C17.2824 0.509438 17.08 0.793253 16.9789 1.11801L16.3099 3.24226C14.3423 3.67218 12.467 4.44881 10.7715 5.53584L8.78226 4.50734C8.48138 4.35104 8.13848 4.29483 7.80345 4.3469C7.46842 4.39897 7.15875 4.5566 6.91951 4.79684L4.79926 6.91709C4.55809 7.15681 4.40009 7.46751 4.34844 7.80361C4.29679 8.13971 4.3542 8.48351 4.51226 8.78459L5.54168 10.761C4.45413 12.4562 3.67643 14.3311 3.24484 16.2984L1.11318 16.9773C0.789666 17.0792 0.507193 17.2819 0.30695 17.5557C0.106706 17.8295 -0.000834912 18.1601 9.01776e-06 18.4993V21.4975C-0.00113611 21.8376 0.106809 22.1692 0.30799 22.4434C0.509172 22.7176 0.792989 22.9201 1.11776 23.0212L3.24218 23.6903C3.67198 25.6581 4.44865 27.5337 5.53584 29.2293L4.50751 31.2178C4.35112 31.5189 4.29492 31.8619 4.3471 32.1971C4.39928 32.5323 4.5571 32.842 4.79759 33.0813L6.91717 35.2017C7.15716 35.4427 7.46798 35.6005 7.80415 35.6522C8.14032 35.7038 8.48418 35.6465 8.78543 35.4886L10.7619 34.4583C12.4569 35.5461 14.3319 36.3238 16.2992 36.7551L16.9782 38.8868C17.0801 39.2103 17.2827 39.4927 17.5565 39.693C17.8303 39.8932 18.1608 40.0008 18.5 40H21.4984C21.8385 40.001 22.17 39.893 22.4442 39.6918C22.7184 39.4906 22.9209 39.2068 23.0219 38.8821L23.6912 36.7585C25.6588 36.3283 27.5343 35.5517 29.2301 34.465L31.2188 35.4927C31.5196 35.649 31.8624 35.7052 32.1974 35.6532C32.5324 35.6011 32.8421 35.4435 33.0813 35.2033L35.2016 33.0828C35.4426 32.843 35.6005 32.5323 35.6521 32.1963C35.7037 31.8603 35.6464 31.5165 35.4885 31.2154L34.4583 29.2389C35.5467 27.5441 36.3246 25.6691 36.7558 23.7017L38.8875 23.0228C39.2109 22.9207 39.4932 22.718 39.6933 22.4442C39.8934 22.1705 40.0009 21.8399 40 21.5008V18.5025C40.0011 18.1626 39.8932 17.8312 39.6923 17.557C39.4913 17.2828 39.2078 17.0802 38.8833 16.9788H38.8828Z" fill="#100C08"/>
<path fill-rule="evenodd" clip-rule="evenodd" d="M16.708 25.8832V29.61C18.9236 30.3681 21.3328 30.3387 23.5292 29.5267V25.8832C23.5308 25.7549 23.583 25.6325 23.6743 25.5424C23.7656 25.4523 23.8887 25.4018 24.017 25.4018C24.1452 25.4018 24.2683 25.4523 24.3596 25.5424C24.4509 25.6325 24.5031 25.7549 24.5047 25.8832V29.1044C25.2206 28.7487 25.8921 28.3102 26.5056 27.7978V23.665C26.5045 22.8262 26.1707 22.0221 25.5775 21.429C24.9843 20.836 24.1801 20.5024 23.3413 20.5015H23.2552C23.3207 20.6995 23.3433 20.9092 23.3215 21.1167C23.2996 21.3242 23.2338 21.5246 23.1284 21.7046L21.2909 24.888C21.1602 25.1139 20.9724 25.3015 20.7463 25.432C20.5202 25.5624 20.2638 25.6311 20.0027 25.6311C19.7417 25.6311 19.4853 25.5624 19.2592 25.432C19.0331 25.3015 18.8453 25.1139 18.7146 24.888L16.8772 21.7048C16.7717 21.5248 16.7058 21.3243 16.6839 21.1168C16.662 20.9093 16.6847 20.6995 16.7504 20.5015H16.6642C15.8255 20.5024 15.0213 20.8359 14.4281 21.4289C13.8349 22.0219 13.5011 22.826 13.5 23.6648V27.7974C14.1793 28.3651 14.9299 28.8418 15.7326 29.2152V25.8832C15.7326 25.7538 15.784 25.6298 15.8755 25.5383C15.967 25.4468 16.091 25.3954 16.2204 25.3954C16.3498 25.3954 16.4739 25.4468 16.5654 25.5383C16.6569 25.6298 16.7082 25.7538 16.7082 25.8832H16.708Z" fill="#63AB45"/>
<path fill-rule="evenodd" clip-rule="evenodd" d="M17.717 21.217L19.5544 24.4004C19.5995 24.478 19.6642 24.5425 19.7421 24.5873C19.8199 24.6321 19.9081 24.6557 19.998 24.6557C20.0878 24.6557 20.176 24.6321 20.2538 24.5873C20.3317 24.5425 20.3964 24.478 20.4415 24.4004L22.2788 21.2175C22.3263 21.1406 22.3514 21.0521 22.3514 20.9618C22.3514 20.8715 22.3263 20.783 22.2788 20.7061C22.2299 20.6177 22.155 20.5464 22.0642 20.502H17.9317C17.8409 20.5464 17.7659 20.6176 17.717 20.706C17.6696 20.7828 17.6445 20.8713 17.6445 20.9615C17.6445 21.0518 17.6696 21.1402 17.717 21.217Z" fill="#ECEFF1"/>
<path fill-rule="evenodd" clip-rule="evenodd" d="M17.0977 14.9843C17.0977 15.5584 17.2681 16.1196 17.5871 16.597C17.9061 17.0743 18.3596 17.4463 18.89 17.6659C19.4205 17.8855 20.0041 17.9429 20.5672 17.8309C21.1303 17.7188 21.6475 17.4422 22.0534 17.0362C22.4593 16.6302 22.7357 16.1129 22.8476 15.5498C22.9596 14.9867 22.902 14.403 22.6822 13.8726C22.4624 13.3422 22.0903 12.8889 21.6129 12.57C21.1355 12.2511 20.5742 12.081 20.0001 12.0811C19.2305 12.0821 18.4927 12.3884 17.9486 12.9326C17.4045 13.4769 17.0985 14.2147 17.0977 14.9843Z" fill="#F6DCCD"/>
<path fill-rule="evenodd" clip-rule="evenodd" d="M20.0009 8.86655C26.1406 8.86655 31.135 13.8608 31.1349 19.9999C31.1349 26.139 26.1407 31.1332 20.0009 31.1332C13.861 31.1332 8.86753 26.1389 8.86753 19.9999C8.86753 13.8609 13.8619 8.86655 20.0009 8.86655ZM38.5925 22.0934C38.7196 22.0556 38.8308 21.9772 38.9089 21.8701C38.9871 21.763 39.0279 21.6333 39.0251 21.5007V18.5024C39.028 18.3694 38.9869 18.2392 38.9083 18.1318C38.8297 18.0245 38.7179 17.9461 38.5902 17.9088L36.1942 17.1544C36.111 17.1281 36.0363 17.08 35.978 17.0151C35.9196 16.9502 35.8798 16.8709 35.8625 16.7853C35.4521 14.7442 34.6483 12.8025 33.4959 11.0686C33.4477 10.9963 33.4198 10.9123 33.4151 10.8255C33.4104 10.7387 33.4291 10.6522 33.4692 10.5751L34.6268 8.33447C34.6903 8.21809 34.7138 8.08401 34.6935 7.95297C34.6732 7.82192 34.6104 7.70121 34.5146 7.60947L32.3943 5.48855C32.3024 5.39249 32.1813 5.32949 32.0498 5.30935C31.9184 5.28922 31.784 5.31308 31.6675 5.37722L29.4375 6.53814C29.3601 6.5785 29.2734 6.59738 29.1863 6.59281C29.0992 6.58823 29.0149 6.56037 28.9423 6.51214C27.2094 5.35789 25.268 4.55266 23.2269 4.14155C23.1418 4.12423 23.0629 4.08452 22.9983 4.0265C22.9337 3.96849 22.8858 3.89428 22.8595 3.81155L22.0944 1.40905C22.0568 1.28184 21.9784 1.17051 21.8714 1.09221C21.7643 1.01391 21.6345 0.972974 21.5019 0.975719H18.5033C18.3704 0.972927 18.2403 1.01404 18.1332 1.09268C18.026 1.17133 17.9478 1.28311 17.9106 1.41072L17.1554 3.80747C17.1294 3.89074 17.0815 3.96549 17.0167 4.02386C16.9519 4.08222 16.8726 4.12204 16.787 4.13914C14.7458 4.54923 12.8041 5.3531 11.0704 6.5058C10.998 6.55399 10.9141 6.5819 10.8273 6.58662C10.7405 6.59134 10.654 6.5727 10.5769 6.53264L8.3352 5.3743C8.21867 5.31108 8.0846 5.28789 7.95361 5.30831C7.82262 5.32872 7.70196 5.39161 7.6102 5.4873L5.48953 7.60647C5.39366 7.69869 5.3308 7.8199 5.31066 7.9514C5.29053 8.0829 5.31423 8.21737 5.37812 8.33405L6.53995 10.5634C6.58018 10.6408 6.59891 10.7275 6.59419 10.8146C6.58947 10.9017 6.56147 10.9859 6.51312 11.0585C5.35904 12.7915 4.55383 14.7329 4.14253 16.774C4.12521 16.8591 4.08549 16.9382 4.02748 17.0029C3.96946 17.0676 3.89523 17.1157 3.81245 17.1422L1.41004 17.9072C1.28296 17.9447 1.17172 18.023 1.09343 18.1299C1.01514 18.2368 0.974128 18.3664 0.976702 18.4989V21.4973C0.973847 21.6303 1.01493 21.7605 1.09359 21.8678C1.17225 21.9751 1.28409 22.0534 1.41179 22.0907L3.80837 22.8453C3.89155 22.8717 3.96617 22.9198 4.0245 22.9847C4.08283 23.0496 4.12275 23.1289 4.14012 23.2144C4.55017 25.2556 5.35404 27.1973 6.50678 28.9311C6.55496 29.0034 6.58286 29.0873 6.58759 29.1741C6.59233 29.2609 6.57372 29.3473 6.5337 29.4245L5.37537 31.6651C5.31218 31.7817 5.28902 31.9157 5.30945 32.0467C5.32988 32.1777 5.39277 32.2984 5.48845 32.3901L7.6087 34.5104C7.70057 34.6066 7.82172 34.6697 7.95323 34.6899C8.08474 34.71 8.21922 34.6861 8.3357 34.6218L10.5648 33.4608C10.6422 33.4205 10.7291 33.4016 10.8163 33.4062C10.9035 33.4108 10.9879 33.4387 11.0607 33.4869C12.7931 34.6413 14.7341 35.4468 16.7749 35.8582C16.8601 35.8756 16.9391 35.9153 17.0038 35.9733C17.0686 36.0313 17.1167 36.1055 17.1433 36.1883L17.9082 38.5907C17.9458 38.718 18.0242 38.8293 18.1313 38.9076C18.2384 38.9859 18.3683 39.0268 18.5009 39.0241H21.4992C21.6321 39.0269 21.7622 38.9858 21.8694 38.9071C21.9766 38.8285 22.0548 38.7167 22.0919 38.5891L22.8464 36.1931C22.8726 36.1099 22.9207 36.0352 22.9856 35.9769C23.0505 35.9185 23.1299 35.8786 23.2155 35.8614C25.2569 35.4514 27.1989 34.6473 28.9325 33.494C29.005 33.446 29.0889 33.4182 29.1757 33.4135C29.2625 33.4088 29.349 33.4273 29.4262 33.4671L31.6679 34.6255C31.7843 34.6889 31.9185 34.7121 32.0495 34.6917C32.1805 34.6713 32.3012 34.6083 32.3929 34.5125L34.5124 32.393C34.6085 32.3009 34.6716 32.1797 34.6919 32.0482C34.7122 31.9166 34.6885 31.782 34.6246 31.6653L33.4628 29.4361C33.4225 29.3587 33.4036 29.272 33.4082 29.185C33.4127 29.0979 33.4406 29.0136 33.4888 28.941C34.6432 27.208 35.4488 25.2667 35.8604 23.2255C35.8775 23.1402 35.9172 23.0611 35.9753 22.9964C36.0333 22.9316 36.1076 22.8836 36.1904 22.8572L38.5925 22.0934Z" fill="#63AB45" fill-opacity="0.3"/>
</g>
<defs>
<clipPath id="clip0_2024_249">
<rect width="40" height="40" fill="white"/>
</clipPath>
</defs>
</svg>
