<svg width="40" height="40" viewBox="0 0 40 40" fill="none" xmlns="http://www.w3.org/2000/svg">
<g clip-path="url(#clip0_2024_235)">
<path d="M19.9992 39.4135C30.7209 39.4135 39.4125 30.7219 39.4125 20.0002C39.4125 9.27854 30.7209 0.586914 19.9992 0.586914C9.27756 0.586914 0.585938 9.27854 0.585938 20.0002C0.585938 30.7219 9.27756 39.4135 19.9992 39.4135Z" fill="#63AB45" fill-opacity="0.3"/>
<path d="M19.9988 0.586914C19.392 0.586914 18.792 0.616211 18.1992 0.670664C28.077 1.57887 35.8128 9.88543 35.8128 20.0001C35.8128 30.1148 28.077 38.4214 18.1992 39.3295C18.7975 39.3849 19.398 39.4129 19.9988 39.4132C30.7204 39.4132 39.412 30.7217 39.412 20C39.412 9.2784 30.7204 0.586914 19.9988 0.586914Z" fill="#63AB45"/>
<path d="M20.5852 39.4037C20.6884 39.4007 20.7913 39.3967 20.8941 39.392C20.9459 39.3896 20.9979 39.3875 21.0497 39.3847C21.1834 39.3776 21.3168 39.3692 21.4498 39.3594C21.5173 39.3544 21.5845 39.3482 21.6519 39.3425C21.7236 39.3365 21.7952 39.3303 21.8666 39.3235C21.947 39.3157 22.0271 39.3076 22.107 39.2989C22.1609 39.2932 22.2145 39.2868 22.2681 39.2806C22.4672 39.2573 22.6656 39.2318 22.8628 39.2025L22.8654 39.2021C23.621 38.7689 24.3445 38.1629 25.0241 37.3946C22.8883 38.4559 20.5742 39.112 18.1992 39.3295C18.4867 39.3559 18.7759 39.3761 19.0668 39.3903L19.1233 39.3929C19.2433 39.3984 19.3638 39.4025 19.4843 39.4057C19.5141 39.4065 19.5439 39.4076 19.5738 39.4082C19.7151 39.4114 19.8566 39.4133 19.9987 39.4133C20.1474 39.4133 20.2955 39.4111 20.4434 39.4077C20.4908 39.4066 20.538 39.4051 20.5852 39.4037ZM19.4847 0.594492C19.3638 0.597773 19.2432 0.601836 19.123 0.607305L19.0673 0.609883C18.7763 0.624023 18.4869 0.64418 18.1993 0.670664C20.5743 0.888152 22.8884 1.54419 25.0242 2.60551C24.3445 1.8373 23.6211 1.23121 22.8655 0.798008L22.864 0.797773C22.6658 0.768694 22.4672 0.742649 22.2682 0.719648C22.2145 0.713398 22.1609 0.70707 22.1071 0.701211C21.9553 0.684814 21.8033 0.670281 21.6511 0.657617C21.5841 0.651914 21.5173 0.64582 21.4501 0.64082C21.3166 0.630973 21.1831 0.622509 21.0495 0.61543C20.998 0.612695 20.9463 0.610586 20.8947 0.608242C20.7916 0.603555 20.6884 0.59957 20.585 0.596445C20.5379 0.595039 20.4908 0.593555 20.4436 0.592539C20.2954 0.58898 20.1472 0.587105 19.9989 0.586914C19.8568 0.586914 19.7152 0.588867 19.5739 0.591992C19.5441 0.592695 19.5144 0.593711 19.4847 0.594492Z" fill="#1491AF"/>
<path d="M34.1422 5.85781C30.3646 2.08031 25.3422 0 20 0C14.6578 0 9.63539 2.08031 5.85781 5.85781C2.08023 9.63531 0 14.6578 0 20C0 25.3422 2.08031 30.3646 5.85781 34.1422C9.63531 37.9198 14.6578 40 20 40C25.3422 40 30.3646 37.9197 34.1422 34.1422C37.9198 30.3647 40 25.3422 40 20C40 14.6578 37.9197 9.63539 34.1422 5.85781ZM3.87937 10.2632C6.0732 10.784 8.41906 11.193 10.864 11.4842C10.2868 13.9491 9.96305 16.6453 9.92289 19.4131H1.18359C1.28328 16.1383 2.21539 13.007 3.87937 10.2632ZM1.18359 20.5868H9.92273C9.96937 23.8577 10.4048 26.9963 11.1846 29.7815C8.89781 30.0433 6.69492 30.4073 4.62258 30.8684C2.4932 27.8691 1.29719 24.3213 1.18359 20.5868ZM6.68773 33.3123C6.23766 32.8621 5.81028 32.3899 5.40719 31.8973C7.34875 31.4855 9.40367 31.1605 11.5301 30.9235C11.8851 32.0122 12.2955 33.0378 12.7588 33.9851C13.6937 35.8963 14.7925 37.3834 15.9981 38.4014C12.4968 37.6473 9.28055 35.9051 6.68773 33.3123ZM19.4132 38.7838C17.3284 38.4889 15.3584 36.6287 13.8131 33.4694C13.4075 32.64 13.0445 31.7461 12.7254 30.7999C14.9019 30.5941 17.1447 30.4813 19.4132 30.4646V38.7838ZM19.4132 29.2909C17.0225 29.3083 14.6591 29.4316 12.3684 29.6559C11.5834 26.9284 11.144 23.829 11.0966 20.5868H19.4131L19.4132 29.2909ZM19.4132 19.4132H11.0967C11.1374 16.6816 11.461 14.0269 12.0379 11.614C14.4281 11.8589 16.9024 11.9934 19.4131 12.0115L19.4132 19.4132ZM19.4132 10.8377C17.0047 10.8201 14.6316 10.6939 12.337 10.4646C12.6548 9.33875 13.0302 8.27555 13.4602 7.29336C13.4911 7.22277 13.5078 7.14678 13.5093 7.06973C13.5109 6.99269 13.4972 6.91609 13.4692 6.84432C13.4411 6.77254 13.3992 6.707 13.3458 6.65144C13.2924 6.59587 13.2286 6.55137 13.158 6.52047C13.0874 6.48954 13.0114 6.47282 12.9343 6.47127C12.8573 6.46972 12.7807 6.48337 12.7089 6.51143C12.6371 6.53949 12.5716 6.58142 12.516 6.63482C12.4605 6.68822 12.416 6.75205 12.3851 6.82266C11.9099 7.90812 11.4991 9.0875 11.1557 10.3366C8.85336 10.0676 6.64023 9.69273 4.56211 9.21703C5.19605 8.31393 5.90727 7.46762 6.68773 6.68766C9.27977 4.0957 12.4948 2.35375 15.9948 1.59922C15.1791 2.29016 14.4098 3.19914 13.702 4.31789C13.6191 4.44941 13.5918 4.60846 13.626 4.76012C13.6603 4.91178 13.7533 5.04364 13.8847 5.12676C14.0161 5.20988 14.1751 5.23746 14.3268 5.20344C14.4785 5.16942 14.6105 5.07658 14.6938 4.94531C16.3947 2.25711 18.117 1.40102 19.4132 1.21609V10.8377ZM38.8164 19.4132H30.0772C30.0375 16.6287 29.7159 13.9402 29.1402 11.4838C31.5836 11.1927 33.928 10.7837 36.1205 10.2632C37.7846 13.007 38.7167 16.1382 38.8164 19.4132ZM33.3123 6.68773C34.0927 7.46769 34.8039 8.31397 35.4378 9.21703C33.3609 9.69242 31.1491 10.0672 28.848 10.3363C28.4174 8.77344 27.8794 7.31984 27.2411 6.01492C26.3062 4.10367 25.2074 2.61656 24.0018 1.59859C27.5032 2.35273 30.7195 4.09492 33.3123 6.68773ZM20.5868 1.21617C22.6716 1.51109 24.6416 3.37125 26.1869 6.53063C26.769 7.72078 27.2638 9.0432 27.6659 10.4643C25.3704 10.6937 22.9963 10.82 20.5869 10.8377V1.21617H20.5868ZM20.5868 12.0114C23.0986 11.9933 25.5741 11.8588 27.9655 11.6136C28.5411 14.0178 28.8632 16.6641 28.9034 19.4132H20.5868V12.0114ZM20.5868 38.7843V30.4646C22.8534 30.4813 25.0942 30.5939 27.269 30.7993C26.675 32.5632 25.9379 34.1244 25.0937 35.3802C24.1291 36.8154 22.5935 38.5014 20.5868 38.7843ZM33.3123 33.3123C30.7192 35.9052 27.5027 37.6475 24.0011 38.4016C24.7308 37.7845 25.4236 36.9934 26.0679 36.0349C27.0239 34.6127 27.8331 32.8848 28.4706 30.9235C30.5968 31.1605 32.6516 31.4855 34.5929 31.8973C34.1897 32.3899 33.7623 32.8621 33.3123 33.3123ZM35.3773 30.8684C33.305 30.4073 31.102 30.0433 28.8151 29.7815C29.1167 28.7002 29.3691 27.5577 29.5681 26.364C29.5808 26.288 29.5784 26.2102 29.561 26.1351C29.5437 26.0601 29.5117 25.9891 29.4669 25.9264C29.4221 25.8637 29.3654 25.8104 29.3 25.7697C29.2346 25.7289 29.1619 25.7013 29.0859 25.6887C28.7655 25.6348 28.4638 25.8513 28.4105 26.1709C28.2084 27.383 27.944 28.5515 27.6259 29.6553C25.337 29.4313 22.9755 29.3083 20.5868 29.2909V20.5868H28.9033C28.8893 21.5614 28.8387 22.5351 28.7514 23.5059C28.7441 23.5872 28.7537 23.6691 28.7798 23.7464C28.8059 23.8237 28.8478 23.8947 28.9029 23.9549C28.9579 24.0151 29.0249 24.0632 29.0996 24.096C29.1743 24.1289 29.255 24.1458 29.3366 24.1457C29.4829 24.1455 29.6239 24.0907 29.7319 23.9919C29.8399 23.8931 29.9071 23.7576 29.9203 23.6118C30.0107 22.6058 30.063 21.5967 30.0771 20.5867H38.8164C38.7028 24.3213 37.5068 27.8691 35.3773 30.8684Z" fill="#100C08"/>
</g>
<defs>
<clipPath id="clip0_2024_235">
<rect width="40" height="40" fill="white"/>
</clipPath>
</defs>
</svg>
