<svg width="40" height="40" viewBox="0 0 40 40" fill="none" xmlns="http://www.w3.org/2000/svg">
<path d="M34.3998 3.63871C28.398 3.02582 24.726 1.96301 22.5936 1.09324C20.9352 0.416836 19.0666 0.416836 17.4084 1.09324C15.2759 1.96301 11.604 3.02582 5.60211 3.63871C3.88672 3.81387 2.57422 5.24426 2.57422 6.96855V15.454C2.57422 24.9217 7.63914 33.7958 16.0172 38.2053C16.4142 38.4143 16.8164 38.6133 17.2233 38.8024C18.9788 39.618 21.0231 39.618 22.7786 38.8024C23.1855 38.6134 23.5877 38.4143 23.9847 38.2053C32.3627 33.7958 37.4277 24.9217 37.4277 15.454V6.96855C37.4277 5.24426 36.1151 3.81387 34.3998 3.63871Z" fill="white"/>
<path d="M12.4962 13.8967V4.85963C12.4962 3.86424 12.9074 2.96143 13.5745 2.31299C11.544 2.82018 8.93227 3.29877 5.60219 3.63885C3.8868 3.814 2.5743 5.24439 2.57422 6.96869V15.4542C2.57422 24.9218 7.63914 33.796 16.0172 38.2055C16.4142 38.4144 16.8164 38.6135 17.2233 38.8025C18.9788 39.6181 21.0231 39.6181 22.7786 38.8025C23.1855 38.6135 23.5877 38.4144 23.9847 38.2055C24.4862 37.9414 24.9783 37.6599 25.4602 37.3615C17.3484 32.4526 12.4961 23.4592 12.4962 13.8967Z" fill="#63AB45" fill-opacity="0.3"/>
<path d="M21.928 7.85552C23.566 6.04114 26.5751 7.28755 26.4504 9.7288C26.3719 11.2661 27.6399 12.5341 29.1772 12.4556C31.6184 12.3309 32.8648 15.3401 31.0505 16.978C29.9079 18.0096 29.9079 19.8028 31.0505 20.8343C32.8649 22.4723 31.6184 25.4814 29.1772 25.3567C27.6399 25.2782 26.3719 26.5461 26.4504 28.0835C26.5751 30.5247 23.566 31.7711 21.928 29.9568C20.8964 28.8142 19.1032 28.8142 18.0718 29.9568C16.4337 31.7711 13.4246 30.5247 13.5493 28.0835C13.6278 26.5461 12.3599 25.2782 10.8225 25.3567C8.38136 25.4814 7.13496 22.4722 8.94925 20.8343C10.0918 19.8027 10.0918 18.0095 8.94925 16.978C7.13488 15.34 8.38136 12.3309 10.8225 12.4556C12.3599 12.5341 13.6278 11.2661 13.5493 9.7288C13.4246 7.28763 16.4338 6.04122 18.0718 7.85552C19.1032 8.9981 20.8965 8.9981 21.928 7.85552Z" fill="#63AB45" fill-opacity="0.2"/>
<path d="M19.9998 18.9061C19.9998 14.3973 22.5047 10.4738 26.1985 8.45035C25.4526 6.91792 23.2464 6.39511 21.928 7.8555C20.8964 8.99808 19.1032 8.99808 18.0718 7.8555C16.4337 6.04113 13.4246 7.28761 13.5493 9.72878C13.6278 11.2661 12.3599 12.5341 10.8225 12.4556C8.38136 12.3309 7.13496 15.34 8.94925 16.978C10.0918 18.0096 10.0918 19.8028 8.94925 20.8343C7.13488 22.4723 8.38136 25.4814 10.8225 25.3567C12.3599 25.2782 13.6278 26.5461 13.5493 28.0835C13.4246 30.5246 16.4338 31.771 18.0718 29.9568C19.1033 28.8142 20.8965 28.8142 21.928 29.9568C23.2464 31.4171 25.4526 30.8943 26.1985 29.3619C22.5047 27.3385 19.9998 23.415 19.9998 18.9061Z" fill="#63AB45"/>
<path d="M18.3099 24.2578C18.0438 24.2578 17.7805 24.2034 17.5361 24.098C17.2918 23.9925 17.0716 23.8383 16.889 23.6447L14.6728 21.2945C13.9327 20.5097 13.969 19.2736 14.7538 18.5336C15.5385 17.7935 16.7748 17.8298 17.5148 18.6146L18.2727 19.4184L22.4512 14.7518C23.1707 13.9483 24.4054 13.88 25.2091 14.5997C26.0127 15.3192 26.0809 16.554 25.3613 17.3576L19.765 23.6076C19.5846 23.8091 19.3644 23.9708 19.1183 24.0828C18.8721 24.1947 18.6054 24.2542 18.3351 24.2577L18.3099 24.2578Z" fill="white"/>
<path d="M20.1562 22.7865C18.8906 22.7865 17.8646 21.7605 17.8646 20.4949C17.8641 20.0834 17.9749 19.6794 18.1854 19.3257L17.5148 18.6146C16.7748 17.8299 15.5385 17.7936 14.7538 18.5336C13.969 19.2736 13.9327 20.5097 14.6728 21.2945L16.889 23.6447C17.0716 23.8383 17.2918 23.9925 17.5361 24.098C17.7805 24.2034 18.0438 24.2578 18.3099 24.2578C18.3183 24.2578 18.3267 24.2578 18.3351 24.2576C18.6054 24.2541 18.8721 24.1946 19.1183 24.0827C19.3644 23.9708 19.5846 23.809 19.765 23.6075L20.5273 22.7561C20.4047 22.7763 20.2806 22.7864 20.1562 22.7865Z" fill="#63AB45" fill-opacity="0.3"/>
<path d="M9.9443 33.687C11.6992 35.4721 13.7353 37.0043 16.0172 38.2053C16.4142 38.4143 16.8164 38.6133 17.2233 38.8024C18.9787 39.618 21.0231 39.618 22.7786 38.8024C23.1855 38.6134 23.5877 38.4143 23.9847 38.2053C32.3627 33.7958 37.4277 24.9217 37.4277 15.454V6.96855C37.4277 5.24426 36.1151 3.81387 34.3997 3.63871C28.3979 3.02582 24.7259 1.96301 22.5935 1.09324C20.9352 0.416836 19.0666 0.416836 17.4083 1.09324C15.2759 1.96301 11.604 3.02582 5.60211 3.63871C3.88672 3.81387 2.57422 5.24426 2.57422 6.96855V15.454C2.57422 21.5389 4.66633 27.3786 8.38555 31.9454" stroke="black" stroke-miterlimit="10" stroke-linecap="round" stroke-linejoin="round"/>
<path d="M21.928 7.85552C23.566 6.04114 26.5751 7.28755 26.4504 9.7288C26.3719 11.2661 27.6399 12.5341 29.1772 12.4556C31.6184 12.3309 32.8648 15.3401 31.0505 16.978C29.9079 18.0096 29.9079 19.8028 31.0505 20.8343C32.8649 22.4723 31.6184 25.4814 29.1772 25.3567C27.6399 25.2782 26.3719 26.5461 26.4504 28.0835C26.5751 30.5247 23.566 31.7711 21.928 29.9568C20.8964 28.8142 19.1032 28.8142 18.0718 29.9568C16.4337 31.7711 13.4246 30.5247 13.5493 28.0835C13.6278 26.5461 12.3599 25.2782 10.8225 25.3567C8.38136 25.4814 7.13496 22.4722 8.94925 20.8343C10.0918 19.8027 10.0918 18.0095 8.94925 16.978C7.13488 15.34 8.38136 12.3309 10.8225 12.4556C12.3599 12.5341 13.6278 11.2661 13.5493 9.7288C13.4246 7.28763 16.4338 6.04122 18.0718 7.85552C19.1032 8.9981 20.8965 8.9981 21.928 7.85552Z" stroke="black" stroke-miterlimit="10" stroke-linecap="round" stroke-linejoin="round"/>
<path d="M21.6571 15.6387L22.4512 14.7518C23.1707 13.9483 24.4054 13.88 25.2091 14.5997C26.0127 15.3192 26.0809 16.554 25.3613 17.3576L19.765 23.6076C19.5846 23.8091 19.3644 23.9708 19.1183 24.0827C18.8722 24.1946 18.6055 24.2542 18.3351 24.2577C18.0648 24.2612 17.7967 24.2085 17.5477 24.103C17.2988 23.9975 17.0745 23.8414 16.889 23.6447L14.6728 21.2946C13.9327 20.5098 13.969 19.2736 14.7538 18.5336C15.5385 17.7936 16.7748 17.8299 17.5148 18.6147L18.2727 19.4185L20.0867 17.3926" stroke="black" stroke-miterlimit="10" stroke-linecap="round" stroke-linejoin="round"/>
</svg>
