<svg width="154" height="40" viewBox="0 0 154 40" fill="none" xmlns="http://www.w3.org/2000/svg">
<g clip-path="url(#clip0_2907_2)">
<path d="M30.5464 16.3168L31.0481 16.1052L31.2081 15.4279L31.3751 14.7535L32.7734 14.158C33.7216 13.7579 34.1852 13.5798 34.1998 13.614C34.2191 13.6581 34.6891 18.0587 34.6962 18.2651C34.6974 18.3225 34.8228 18.2872 35.2945 18.0883L35.8905 17.8366L36.3248 15.1681L36.7614 12.5042L38.3549 11.8031C40.0772 11.0476 40.1048 11.0296 40.2349 10.6498C40.3251 10.397 40.3193 10.2196 40.2114 9.96847C40.0778 9.65883 39.7801 9.43035 39.4461 9.3915C39.1917 9.35961 39.1917 9.35962 37.6024 10.0299L36.0183 10.6985L33.7316 9.13753L31.4501 7.57422L30.864 7.82123C30.3278 8.04738 30.2821 8.07811 30.3389 8.14132C30.3753 8.18423 31.0703 8.99428 31.8849 9.94526C32.6995 10.8962 33.3758 11.7028 33.3887 11.7324C33.4098 11.7817 33.1033 11.9284 32.0309 12.3807L30.6454 12.9652L29.9955 12.6004L29.3503 12.234L28.8639 12.4393C28.422 12.626 28.3816 12.6544 28.4378 12.7176C28.4742 12.7605 28.7906 13.1554 29.1487 13.5909L29.7939 14.3928L29.917 15.3861C29.9826 15.9335 30.0377 16.4154 30.0424 16.4536C30.0436 16.5116 30.159 16.4803 30.5464 16.3168Z" fill="#63AB45"/>
<path d="M29.0293 15.3026L27.9803 15.8651C24.13 17.9642 21.2818 19.9415 20.0101 21.4259C19.8695 21.5941 19.7464 21.7507 19.6409 21.9014C19.4358 21.6173 19.1721 21.4027 18.8029 21.4897C18.5216 21.5535 18.3223 21.7274 18.1582 21.9478C19.1838 20.359 21.8737 18.2367 25.853 15.894C26.5914 15.4591 28.4433 14.4154 28.5956 14.3516C28.6308 14.3516 28.7304 14.5314 28.8359 14.8155L29.0293 15.3026Z" fill="#63AB45"/>
<path d="M18.8026 0.0116242C17.8357 0.139194 16.9507 0.301555 16.0658 0.730652C15.3977 1.05537 14.7414 1.49607 14.2374 2.04694C13.8271 2.49343 13.4462 2.96892 13.1708 3.51399C12.7312 4.38378 12.5613 5.28836 12.5613 6.25093C12.5613 6.55826 12.5378 6.86558 12.5964 7.16711C12.7547 8.03111 13.1122 8.85451 13.4638 9.64892C13.9854 10.8319 14.6007 11.9684 15.2219 13.0991C16.0072 14.5256 16.857 15.9173 17.7067 17.3089C17.9763 17.7496 18.2928 18.5904 18.9433 18.5266C19.5528 18.4629 19.7403 17.912 20.045 17.4713C20.7835 16.3985 21.4691 15.2678 22.1431 14.1487C22.9577 12.7918 23.7664 11.4291 24.4462 10.0027C24.8447 9.16763 25.2726 8.28045 25.4249 7.35847C25.466 7.10333 25.4484 6.84239 25.4601 6.58145C25.507 5.5377 25.2784 4.48815 24.7803 3.56037C24.4814 3.00951 24.1063 2.51662 23.6668 2.06433C23.1276 1.51346 22.4771 1.06117 21.7797 0.724854C21.0882 0.394333 20.3674 0.162388 19.6055 0.0522144C19.3418 0.02902 19.0664 -0.0231675 18.8026 0.0116242Z" fill="#63AB45"/>
<path d="M6.32706 6.4714C5.82307 6.53518 5.33079 6.54098 4.83851 6.68015C3.36754 7.09185 2.08411 7.95584 1.14644 9.15036C0.595555 9.85779 0.284952 10.7334 0.13258 11.6032C-0.26593 13.8531 0.361137 16.2711 2.17201 17.7903C2.71703 18.2484 3.39684 18.6891 4.07665 18.9211C5.18428 19.298 6.39153 19.3618 7.54603 19.4429C9.28658 19.5589 11.0447 19.5705 12.7911 19.5125C13.6819 19.4835 14.5727 19.4951 15.4635 19.4429C15.7624 19.4255 16.0788 19.4777 16.3777 19.4197C16.8876 19.3154 17.1982 18.8109 17.0224 18.318C16.9052 17.9875 16.6707 17.6744 16.5066 17.3612C16.1023 16.6074 15.692 15.8536 15.276 15.1056C14.2914 13.337 13.2717 11.5452 12.0644 9.91577C11.3963 9.01699 10.7341 8.04862 9.7437 7.46876C8.89394 6.97008 8.03245 6.60477 7.04204 6.51199C6.80176 6.48299 6.55562 6.43661 6.32706 6.4714Z" fill="#63AB45"/>
<path d="M10.13 20.4744C9.84866 20.5092 9.54978 20.4802 9.26848 20.486C8.85239 20.4918 8.4363 20.515 8.02021 20.5324C7.28179 20.5672 6.54338 20.631 5.81082 20.7354C5.21892 20.8165 4.61529 20.8919 4.05269 21.1007C3.40218 21.3384 2.78684 21.7385 2.24768 22.1618C1.83745 22.4808 1.47996 22.8751 1.17522 23.2984C0.132058 24.7654 -0.213708 26.65 0.126197 28.4011C0.255127 29.068 0.448521 29.7638 0.788427 30.3611C1.04043 30.796 1.40377 31.1903 1.76126 31.544C3.15018 32.9299 5.16031 33.7417 7.14114 33.5039C8.2136 33.3763 9.33294 32.9241 10.1768 32.2572C11.1204 31.515 11.8295 30.4422 12.4917 29.4565C13.5232 27.9199 14.4784 26.331 15.3692 24.7132C15.8204 23.8898 16.2658 23.0606 16.723 22.2372C16.9515 21.8197 17.2211 21.4138 16.9222 20.9557C16.5823 20.428 15.715 20.5614 15.1641 20.5614C14.4022 20.5614 13.6404 20.4918 12.8785 20.486C12.5445 20.4802 12.2046 20.4976 11.8705 20.4802C11.4837 20.4628 11.0911 20.4628 10.7043 20.4686C10.5168 20.4744 10.3234 20.4512 10.13 20.4744Z" fill="#63AB45"/>
<path d="M37.515 29.5038C36.3136 32.78 32.0062 34.5486 28.8592 32.9134C28.0797 32.5075 27.4175 32.0436 26.8549 31.3594C26.7201 31.197 26.4095 30.9361 26.3802 30.7215C26.2571 30.6635 26.1809 30.5128 26.1048 30.4084C25.9114 30.1475 25.718 29.8865 25.5421 29.614C24.9151 28.663 24.3115 27.7062 23.7254 26.7379C23.4793 26.332 23.239 25.9203 23.0046 25.5144C22.8522 25.2592 22.7057 25.0041 22.565 24.7548C22.1783 24.0705 21.8032 23.3805 21.4516 22.6846C21.2113 22.2092 20.7014 21.6409 20.9417 21.0842C21.2171 20.4348 21.9204 20.6261 22.4771 20.574C23.2156 20.5044 23.9657 20.5334 24.7041 20.516C25.5421 20.4928 26.3861 20.458 27.23 20.4754C28.7302 20.5102 30.2305 20.5102 31.7249 20.6841C32.4516 20.7711 33.19 20.8581 33.8816 21.0958C34.2742 21.235 34.6375 21.4495 34.9892 21.6699C35.5635 22.0236 36.0851 22.4469 36.5129 22.9746C36.9641 23.5196 37.304 24.1401 37.5385 24.8011L37.6967 25.3114L37.7143 25.3636L37.7201 25.3868C38.0659 26.7379 37.9956 28.1991 37.515 29.5038Z" fill="#63AB45"/>
<path d="M25.4547 33.4113C25.4782 34.339 25.3258 35.2088 24.9625 36.0728C24.7456 36.5831 24.4233 37.047 24.0775 37.4819C23.638 38.027 23.093 38.4966 22.4952 38.8736C21.7509 39.3432 20.9422 39.6738 20.0807 39.8709C17.5431 40.4508 14.6598 39.0069 13.3588 36.8324C12.6907 35.7133 12.4446 34.368 12.5676 33.0807C12.6555 32.1414 13.0892 31.2136 13.4643 30.3612C14.1617 28.7956 14.9763 27.2763 15.8495 25.8093C16.4765 24.7539 17.0978 23.6986 17.7307 22.649C17.8596 22.4345 17.9768 22.2025 18.1292 21.9938C18.1351 21.9764 18.1468 21.9648 18.1585 21.9474C18.3226 21.7271 18.5218 21.5531 18.8031 21.4893C19.1724 21.4023 19.4361 21.6169 19.6412 21.901C19.8053 22.1156 19.9342 22.3707 20.0573 22.5563C20.5085 23.2231 20.9363 23.9073 21.3583 24.5974C21.5341 24.8757 21.7041 25.154 21.874 25.4382C22.1026 25.8093 22.3253 26.1804 22.5538 26.5457C23.2864 27.7344 23.9662 28.9811 24.5581 30.2452C24.9156 31.0106 25.2848 31.8166 25.4196 32.6516C25.4606 32.9068 25.4489 33.1561 25.4547 33.4113Z" fill="#63AB45"/>
<path d="M138.092 28.2836L144.196 20.9769L144.173 22.3838L138.455 15.3721H142.698L146.737 20.2281H145.421L149.483 15.3721H153.658L147.758 22.4519L147.577 20.6819L153.999 28.2836H149.687L145.285 23.0645H146.669L142.312 28.2836H138.092Z" fill="white"/>
<path d="M130.463 28.6244C128.935 28.6244 127.566 28.3445 126.356 27.7848C125.161 27.21 124.215 26.4082 123.519 25.3795C122.838 24.3508 122.498 23.1557 122.498 21.7942C122.498 20.4479 122.823 19.2679 123.474 18.2544C124.139 17.2408 125.047 16.4542 126.197 15.8944C127.346 15.3196 128.655 15.0322 130.122 15.0322C131.62 15.0322 132.906 15.365 133.98 16.0306C135.054 16.6811 135.878 17.6039 136.453 18.799C137.043 19.994 137.338 21.4009 137.338 23.0196H125.539V20.5008H135.296L133.821 21.4085C133.761 20.6521 133.572 20.0092 133.254 19.4797C132.951 18.9502 132.535 18.5418 132.006 18.2544C131.476 17.9669 130.856 17.8232 130.145 17.8232C129.374 17.8232 128.7 17.9821 128.126 18.2997C127.566 18.6023 127.127 19.0334 126.809 19.5932C126.507 20.1378 126.356 20.7807 126.356 21.5219C126.356 22.4145 126.552 23.1784 126.946 23.8138C127.339 24.4492 127.914 24.9332 128.67 25.266C129.427 25.5989 130.342 25.7653 131.416 25.7653C132.384 25.7653 133.36 25.6291 134.343 25.3568C135.326 25.0694 136.211 24.6685 136.998 24.1542V26.6956C136.151 27.3007 135.16 27.7772 134.025 28.1252C132.906 28.458 131.718 28.6244 130.463 28.6244Z" fill="white"/>
<path d="M107.256 18.8219H113.814C114.676 18.8219 115.357 18.6252 115.856 18.2319C116.37 17.8234 116.627 17.2637 116.627 16.5527C116.627 15.8417 116.37 15.2895 115.856 14.8962C115.357 14.5029 114.676 14.3062 113.814 14.3062H106.688L108.436 12.3321V28.2842H104.578V11.2656H114.267C115.508 11.2656 116.597 11.4925 117.535 11.9463C118.473 12.385 119.207 12.9977 119.736 13.7843C120.266 14.571 120.53 15.4938 120.53 16.5527C120.53 17.5965 120.266 18.5117 119.736 19.2984C119.207 20.085 118.473 20.7053 117.535 21.1591C116.597 21.5978 115.508 21.8171 114.267 21.8171H107.256V18.8219ZM110.206 20.3195H114.608L121.029 28.2842H116.514L110.206 20.3195Z" fill="white"/>
<path d="M85.6074 15.3725H89.3969V19.4797L89.2381 19.9789V23.0877L89.3969 24.018V32.0281H85.6074V15.3725ZM88.0808 21.8396C88.338 20.463 88.7842 19.2679 89.4196 18.2544C90.0701 17.2257 90.8794 16.4315 91.8476 15.8718C92.8309 15.312 93.9201 15.0322 95.1152 15.0322C96.3859 15.0322 97.4978 15.3196 98.4508 15.8944C99.419 16.4542 100.175 17.2484 100.72 18.2771C101.265 19.2906 101.537 20.4781 101.537 21.8396C101.537 23.186 101.265 24.3735 100.72 25.4022C100.175 26.4158 99.419 27.21 98.4508 27.7848C97.4978 28.3445 96.3859 28.6244 95.1152 28.6244C93.905 28.6244 92.8158 28.3445 91.8476 27.7848C90.8945 27.2251 90.0928 26.4384 89.4423 25.4249C88.7918 24.3962 88.338 23.2011 88.0808 21.8396ZM97.702 21.8396C97.702 21.0832 97.5432 20.4176 97.2255 19.8428C96.9229 19.2528 96.4994 18.799 95.9548 18.4813C95.4102 18.1485 94.7824 17.9821 94.0714 17.9821C93.3604 17.9821 92.6872 18.1485 92.0518 18.4813C91.4165 18.799 90.8567 19.2528 90.3726 19.8428C89.9037 20.4176 89.5331 21.0832 89.2608 21.8396C89.5331 22.596 89.9037 23.2616 90.3726 23.8365C90.8567 24.4113 91.4165 24.8652 92.0518 25.198C92.6872 25.5157 93.3604 25.6745 94.0714 25.6745C94.7824 25.6745 95.4102 25.5157 95.9548 25.198C96.4994 24.8652 96.9229 24.4113 97.2255 23.8365C97.5432 23.2616 97.702 22.596 97.702 21.8396Z" fill="white"/>
<path d="M78.2807 15.2362L80.1641 15.5992L82.0702 15.2362V28.2838H78.2807V15.2362ZM80.1641 13.8974C79.4834 13.8974 78.9237 13.7234 78.485 13.3755C78.0614 13.0124 77.8496 12.5359 77.8496 11.9459C77.8496 11.3408 78.0614 10.8643 78.485 10.5163C78.9237 10.1533 79.4834 9.97168 80.1641 9.97168C80.86 9.97168 81.4197 10.1533 81.8433 10.5163C82.2669 10.8643 82.4787 11.3408 82.4787 11.9459C82.4787 12.5359 82.2669 13.0124 81.8433 13.3755C81.4197 13.7234 80.86 13.8974 80.1641 13.8974Z" fill="white"/>
<path d="M64.9551 15.3725H68.7899L69.5615 20.0243V28.284H65.772V19.6159L64.9551 15.3725ZM75.847 15.2364V18.504C75.4537 18.4132 75.0604 18.3451 74.6671 18.2997C74.2737 18.2544 73.9031 18.2317 73.5552 18.2317C72.7988 18.2317 72.118 18.3905 71.5129 18.7082C70.9078 19.0259 70.4313 19.5175 70.0834 20.1831C69.7354 20.8488 69.5615 21.6883 69.5615 22.7019L68.7673 21.7489C68.858 20.8261 69.0244 19.9638 69.2665 19.162C69.5085 18.3451 69.8413 17.6341 70.2649 17.029C70.7036 16.4088 71.2406 15.9247 71.876 15.5768C72.5114 15.2137 73.2677 15.0322 74.1451 15.0322C74.4326 15.0322 74.72 15.0549 75.0074 15.1002C75.31 15.1305 75.5898 15.1759 75.847 15.2364Z" fill="white"/>
<path d="M54.4059 12.9901H58.2407V28.2842H54.4059V12.9901ZM47.6211 11.2656H65.0028V14.6693H47.6211V11.2656Z" fill="white"/>
</g>
<defs>
<clipPath id="clip0_2907_2">
<rect width="154" height="40" fill="white"/>
</clipPath>
</defs>
</svg>
