<?xml version="1.0" encoding="utf-8"?>
<!-- Generator: Adobe Illustrator 28.3.0, SVG Export Plug-In . SVG Version: 6.00 Build 0)  -->
<svg version="1.1" id="Layer_1" xmlns="http://www.w3.org/2000/svg" xmlns:xlink="http://www.w3.org/1999/xlink" x="0px" y="0px"
	 viewBox="0 0 479.93 226.04" style="enable-background:new 0 0 479.93 226.04;" xml:space="preserve">
<style type="text/css">
	.st0{fill:#FFFFFF;}
</style>
<g>
	<path class="st0" d="M182.95,4.08c0.89-0.57,1.66-0.83,2.31-0.79c0.65,0.04,1.09,0.26,1.34,0.67c0.24,0.41,0.23,0.9-0.03,1.49
		c-0.26,0.59-0.84,1.15-1.73,1.67c-1.95,1.14-3.85,2.93-5.72,5.38c-1.87,2.45-3.66,5.28-5.38,8.48c-1.72,3.2-3.35,6.62-4.87,10.25
		c-1.52,3.63-2.89,7.17-4.11,10.61c-1.22,3.45-2.27,6.65-3.16,9.61c-0.89,2.96-1.54,5.35-1.95,7.18c-0.24,0.97-0.68,1.67-1.31,2.1
		c-0.63,0.43-1.31,0.58-2.04,0.46c-0.73-0.12-1.4-0.5-2.01-1.12c-0.61-0.63-0.99-1.47-1.16-2.52c-0.24-1.46-0.52-3.2-0.82-5.23
		c-0.3-2.03-0.58-4.23-0.82-6.6c-0.24-2.37-0.43-4.87-0.55-7.48c-0.12-2.62-0.12-5.24,0-7.88c-0.97,2.31-1.95,4.58-2.92,6.81
		c-0.97,2.23-1.87,4.3-2.68,6.2c-0.81,1.91-1.52,3.61-2.13,5.11c-0.61,1.5-0.99,2.7-1.16,3.59c-0.24,1.22-0.61,2.15-1.09,2.8
		c-0.49,0.65-0.99,1.01-1.52,1.09c-0.53,0.08-1.02-0.12-1.49-0.61c-0.47-0.49-0.78-1.26-0.94-2.31c-0.2-1.3-0.44-3-0.7-5.11
		c-0.26-2.11-0.56-4.44-0.88-6.99c-0.33-2.55-0.67-5.24-1.03-8.06c-0.36-2.82-0.75-5.61-1.16-8.36c-0.41-2.76-0.83-5.36-1.28-7.82
		c-0.45-2.45-0.89-4.61-1.34-6.48c-0.32-1.3-0.27-2.4,0.15-3.32c0.43-0.91,0.98-1.51,1.67-1.79c0.69-0.28,1.4-0.17,2.13,0.33
		c0.73,0.51,1.26,1.51,1.58,3.01c0.32,1.62,0.64,3.5,0.94,5.63c0.3,2.13,0.59,4.39,0.85,6.78c0.26,2.39,0.53,4.86,0.79,7.39
		c0.26,2.53,0.51,5.02,0.73,7.45c0.22,2.43,0.43,4.75,0.61,6.96c0.18,2.21,0.35,4.19,0.52,5.93c0.69-2.23,1.57-4.63,2.65-7.21
		c1.07-2.57,2.18-5.13,3.31-7.66c1.13-2.53,2.22-4.98,3.25-7.33c1.03-2.35,1.88-4.44,2.52-6.27c0.69-1.99,1.49-3.48,2.4-4.47
		c0.91-0.99,1.74-1.58,2.49-1.76c0.75-0.18,1.34,0.01,1.76,0.58c0.43,0.57,0.52,1.44,0.27,2.62c-0.57,2.64-0.99,5.55-1.28,8.73
		c-0.28,3.18-0.47,6.43-0.55,9.73c-0.08,3.31-0.07,6.56,0.03,9.76c0.1,3.2,0.27,6.1,0.52,8.7c0.53-1.78,1.26-4.08,2.19-6.9
		c0.93-2.82,2.01-5.87,3.22-9.15c1.22-3.28,2.56-6.68,4.04-10.19c1.48-3.51,3.06-6.81,4.74-9.91c1.68-3.1,3.43-5.87,5.23-8.3
		C179.25,7.12,181.09,5.3,182.95,4.08z"/>
	<path class="st0" d="M193.48,41.37c0.45-0.65,0.88-1.07,1.31-1.28c0.43-0.2,0.76-0.23,1-0.09c0.24,0.14,0.35,0.45,0.33,0.91
		c-0.02,0.47-0.27,1.04-0.76,1.73c-0.57,0.81-1.28,1.84-2.13,3.07c-0.85,1.24-1.79,2.52-2.83,3.86c-1.03,1.34-2.13,2.69-3.28,4.04
		c-1.16,1.36-2.33,2.59-3.53,3.68c-1.2,1.09-2.37,1.98-3.53,2.65c-1.16,0.67-2.26,1-3.31,1c-1.58,0-2.83-0.42-3.74-1.25
		c-0.91-0.83-1.58-1.86-2.01-3.1c-0.43-1.24-0.67-2.56-0.73-3.98c-0.06-1.42-0.03-2.7,0.09-3.83c0.24-2.11,0.73-4.31,1.46-6.6
		c0.73-2.29,1.7-4.37,2.92-6.23c1.22-1.86,2.66-3.39,4.32-4.56c1.66-1.18,3.55-1.7,5.66-1.58c1.46,0.08,2.66,0.62,3.59,1.61
		c0.93,0.99,1.38,2.22,1.34,3.68c-0.08,1.5-0.52,2.85-1.31,4.04c-0.79,1.2-1.79,2.21-3.01,3.04c-1.22,0.83-2.54,1.49-3.98,1.98
		c-1.44,0.49-2.83,0.79-4.17,0.91c-0.45,1.7-0.8,3.36-1.06,4.96c-0.26,1.6-0.42,3.03-0.46,4.29c0,0.33,0,0.72,0,1.19
		c0,0.47,0.05,0.92,0.15,1.37c0.1,0.45,0.27,0.82,0.52,1.12c0.24,0.3,0.59,0.46,1.03,0.46c0.73,0,1.58-0.34,2.55-1.03
		c0.97-0.69,2-1.56,3.07-2.62c1.07-1.05,2.14-2.24,3.19-3.56c1.05-1.32,2.06-2.6,3.01-3.86c0.95-1.26,1.8-2.42,2.55-3.5
		C192.49,42.82,193.07,41.98,193.48,41.37z M184.84,32.73c-0.85,0.08-1.65,0.53-2.4,1.34c-0.75,0.81-1.42,1.74-2.01,2.8
		c-0.59,1.06-1.09,2.13-1.52,3.22c-0.43,1.09-0.74,1.97-0.94,2.62c0.97-0.12,2.01-0.37,3.1-0.76c1.09-0.38,2.11-0.89,3.04-1.52
		c0.93-0.63,1.7-1.38,2.31-2.25c0.61-0.87,0.93-1.86,0.97-2.95c0.04-0.77-0.17-1.4-0.64-1.89
		C186.29,32.85,185.65,32.65,184.84,32.73z"/>
	<path class="st0" d="M214.77,40.58c0.24-0.4,0.54-0.67,0.88-0.79c0.34-0.12,0.65-0.12,0.91,0c0.26,0.12,0.44,0.34,0.52,0.67
		c0.08,0.33-0.02,0.73-0.3,1.22c-0.53,0.93-1.21,2.21-2.04,3.83c-0.83,1.62-1.77,3.39-2.83,5.29c-1.06,1.91-2.2,3.83-3.44,5.78
		c-1.24,1.95-2.52,3.71-3.83,5.29c-1.32,1.58-2.67,2.88-4.04,3.89c-1.38,1.01-2.74,1.52-4.08,1.52c-1.62,0-2.88-0.49-3.77-1.46
		s-1.51-2.22-1.85-3.74c-0.34-1.52-0.49-3.23-0.43-5.14c0.06-1.91,0.22-3.8,0.49-5.69c0.26-1.89,0.57-3.66,0.91-5.32
		c0.34-1.66,0.62-3.02,0.82-4.08c0.61-2.84,1.33-5.85,2.16-9.03c0.83-3.18,1.79-6.32,2.89-9.4c1.09-3.08,2.31-6.02,3.65-8.82
		c1.34-2.8,2.79-5.25,4.35-7.36c1.56-2.11,3.23-3.75,5.02-4.93c1.78-1.18,3.67-1.7,5.66-1.58c0.89,0.08,1.63,0.3,2.22,0.67
		c0.59,0.36,1.06,0.83,1.43,1.4c0.37,0.57,0.63,1.21,0.79,1.92c0.16,0.71,0.24,1.45,0.24,2.22c0,1.7-0.31,3.58-0.94,5.63
		c-0.63,2.05-1.49,4.15-2.58,6.3c-1.09,2.15-2.37,4.28-3.83,6.39c-1.46,2.11-2.98,4.08-4.56,5.9c-1.58,1.82-3.18,3.44-4.81,4.84
		c-1.62,1.4-3.16,2.46-4.62,3.19l-0.85,3.47c-0.12,0.61-0.33,1.56-0.61,2.86c-0.28,1.3-0.57,2.75-0.85,4.35
		c-0.28,1.6-0.55,3.24-0.79,4.93c-0.24,1.68-0.4,3.21-0.46,4.59c-0.06,1.38,0.01,2.51,0.21,3.41c0.2,0.89,0.59,1.34,1.16,1.34
		c0.97,0,2.02-0.5,3.13-1.49c1.11-0.99,2.26-2.27,3.44-3.83c1.18-1.56,2.32-3.27,3.44-5.14c1.11-1.86,2.15-3.67,3.1-5.41
		c0.95-1.74,1.78-3.3,2.49-4.68C213.86,42.18,214.4,41.19,214.77,40.58z M216.47,2.99c-1.18-0.04-2.35,0.62-3.53,1.98
		c-1.18,1.36-2.31,3.12-3.41,5.29c-1.1,2.17-2.13,4.57-3.1,7.21c-0.97,2.64-1.85,5.18-2.65,7.63c-0.79,2.45-1.46,4.68-2.01,6.69
		s-0.94,3.46-1.19,4.35c1.22-0.77,2.5-1.81,3.86-3.13c1.36-1.32,2.72-2.81,4.08-4.47c1.36-1.66,2.67-3.45,3.92-5.35
		c1.26-1.91,2.36-3.81,3.31-5.72c0.95-1.91,1.7-3.76,2.25-5.57c0.55-1.8,0.82-3.46,0.82-4.96c-0.04-0.93-0.21-1.8-0.52-2.62
		C218.02,3.51,217.4,3.07,216.47,2.99z"/>
	<path class="st0" d="M236.42,41.06c0.4-0.53,0.8-0.87,1.19-1.03c0.38-0.16,0.7-0.16,0.94,0c0.24,0.16,0.35,0.45,0.33,0.85
		c-0.02,0.41-0.23,0.91-0.64,1.52c-0.61,0.81-1.34,1.84-2.19,3.07c-0.85,1.24-1.81,2.54-2.86,3.92c-1.06,1.38-2.18,2.75-3.38,4.11
		c-1.2,1.36-2.4,2.59-3.62,3.68c-1.22,1.09-2.43,1.99-3.65,2.68c-1.22,0.69-2.37,1.03-3.47,1.03c-1.74,0-3.14-0.49-4.2-1.46
		c-1.05-0.97-1.81-2.25-2.28-3.83c-0.47-1.58-0.66-3.39-0.58-5.41c0.08-2.03,0.39-4.1,0.91-6.2c0.53-2.11,1.25-4.18,2.16-6.2
		c0.91-2.03,1.98-3.83,3.19-5.41c1.22-1.58,2.53-2.85,3.95-3.8c1.42-0.95,2.92-1.41,4.5-1.37c1.34,0,2.33,0.33,2.98,1
		c0.65,0.67,1.06,1.49,1.25,2.46s0.18,2.03,0,3.16c-0.18,1.14-0.44,2.19-0.76,3.16c-0.2,0.57-0.49,1-0.85,1.31
		c-0.37,0.3-0.71,0.45-1.03,0.43c-0.33-0.02-0.58-0.22-0.76-0.61c-0.18-0.38-0.17-1,0.03-1.85c0.12-0.61,0.24-1.27,0.37-1.98
		c0.12-0.71,0.18-1.37,0.18-1.98c0-0.61-0.06-1.13-0.18-1.55s-0.35-0.66-0.67-0.7c-0.61-0.08-1.28,0.25-2.01,1
		c-0.73,0.75-1.46,1.78-2.19,3.1c-0.73,1.32-1.43,2.82-2.1,4.5c-0.67,1.68-1.27,3.43-1.79,5.23c-0.53,1.8-0.95,3.57-1.28,5.29
		c-0.33,1.72-0.49,3.26-0.49,4.62c0,1.36,0.17,2.46,0.52,3.31c0.34,0.85,0.94,1.3,1.79,1.34c0.77,0.04,1.65-0.28,2.65-0.97
		c0.99-0.69,2.04-1.57,3.13-2.65c1.09-1.07,2.19-2.28,3.28-3.62c1.09-1.34,2.13-2.66,3.1-3.95c0.97-1.3,1.85-2.5,2.65-3.62
		C235.35,42.53,235.97,41.67,236.42,41.06z"/>
	<path class="st0" d="M259.65,41c0.57-0.2,1.05-0.24,1.46-0.12c0.4,0.12,0.65,0.33,0.73,0.61c0.08,0.28-0.03,0.6-0.33,0.94
		c-0.3,0.35-0.84,0.64-1.61,0.88c-1.5,0.49-2.89,0.84-4.17,1.06c-1.28,0.22-2.48,0.33-3.62,0.33c-0.53,1.34-1.18,2.65-1.95,3.92
		s-1.64,2.42-2.61,3.44c-0.97,1.01-2.03,1.82-3.16,2.43c-1.14,0.61-2.35,0.93-3.65,0.97c-1.62,0-3.02-0.57-4.2-1.7
		c-1.18-1.13-1.8-2.88-1.89-5.23c-0.04-1.18,0.09-2.39,0.4-3.65c0.3-1.26,0.75-2.45,1.34-3.59c0.59-1.13,1.28-2.15,2.07-3.04
		c0.79-0.89,1.65-1.56,2.58-2.01c-0.08-0.97,0.01-1.93,0.27-2.86c0.26-0.93,0.68-1.76,1.25-2.49c0.57-0.73,1.26-1.32,2.07-1.76
		c0.81-0.45,1.72-0.67,2.74-0.67c1.34,0,2.44,0.3,3.31,0.91c0.87,0.61,1.56,1.39,2.07,2.34c0.51,0.95,0.84,2.02,1,3.19
		c0.16,1.18,0.18,2.33,0.06,3.47c-0.12,1.22-0.41,2.55-0.85,4.01c0.97-0.04,2.01-0.17,3.1-0.4C257.16,41.78,258.36,41.45,259.65,41z
		 M241.41,52.74c0.77,0,1.51-0.23,2.22-0.7c0.71-0.47,1.37-1.1,1.98-1.89c0.61-0.79,1.17-1.69,1.67-2.71
		c0.51-1.01,0.96-2.05,1.37-3.1c-1.14-0.28-2.2-0.71-3.19-1.28c-0.99-0.57-1.85-1.32-2.58-2.25c-0.85,0.93-1.58,2.14-2.19,3.62
		c-0.61,1.48-0.99,2.89-1.16,4.23c-0.16,1.42-0.06,2.45,0.3,3.1C240.19,52.42,240.72,52.74,241.41,52.74z M250.41,36.26
		c0.04-1.26-0.16-2.39-0.61-3.41c-0.45-1.01-1.3-1.56-2.55-1.64c-0.93-0.04-1.65,0.33-2.16,1.1c-0.51,0.77-0.78,1.7-0.82,2.8
		c-0.04,0.69,0.03,1.41,0.21,2.16c0.18,0.75,0.49,1.46,0.91,2.13s0.96,1.25,1.61,1.73c0.65,0.49,1.44,0.83,2.37,1.03
		c0.2-0.65,0.42-1.51,0.64-2.58C250.23,38.5,250.37,37.39,250.41,36.26z"/>
	<path class="st0" d="M299.43,41.55c0.24-0.4,0.53-0.66,0.85-0.76c0.32-0.1,0.62-0.09,0.88,0.03c0.26,0.12,0.44,0.36,0.52,0.7
		c0.08,0.34,0,0.74-0.24,1.19c-0.49,0.89-1.05,1.98-1.7,3.25s-1.35,2.62-2.1,4.01c-0.75,1.4-1.56,2.78-2.43,4.14
		c-0.87,1.36-1.76,2.58-2.68,3.68c-0.91,1.1-1.87,1.99-2.86,2.68c-0.99,0.69-1.98,1.03-2.95,1.03c-1.95-0.04-3.21-0.68-3.77-1.92
		c-0.57-1.24-0.69-2.83-0.37-4.77c0.24-1.58,0.59-3.21,1.03-4.9c0.45-1.68,0.91-3.3,1.4-4.87c0.49-1.56,0.95-3.02,1.4-4.38
		c0.45-1.36,0.79-2.52,1.03-3.5c0.32-1.22,0.2-1.82-0.37-1.82c-0.49,0.04-1.03,0.36-1.64,0.94c-0.61,0.59-1.25,1.33-1.92,2.22
		c-0.67,0.89-1.34,1.9-2.01,3.01c-0.67,1.12-1.3,2.2-1.88,3.25c-0.59,1.06-1.12,2.01-1.58,2.86c-0.47,0.85-0.82,1.5-1.06,1.95
		c-0.37,0.65-0.83,1.1-1.4,1.37c-0.57,0.26-1.09,0.33-1.55,0.18c-0.47-0.14-0.81-0.5-1.03-1.06c-0.22-0.57-0.19-1.34,0.09-2.31
		c0.24-0.85,0.54-1.84,0.88-2.98c0.34-1.13,0.69-2.3,1.04-3.5c0.34-1.2,0.66-2.36,0.94-3.5c0.28-1.13,0.51-2.16,0.67-3.07
		c0.16-0.91,0.22-1.65,0.18-2.22c-0.04-0.57-0.22-0.85-0.55-0.85c-0.65,0-1.38,0.5-2.19,1.49c-0.81,0.99-1.64,2.29-2.49,3.89
		c-0.85,1.6-1.71,3.4-2.58,5.38c-0.87,1.99-1.7,3.97-2.49,5.96c-0.79,1.99-1.52,3.88-2.19,5.69c-0.67,1.81-1.23,3.32-1.67,4.53
		c-0.12,0.73-0.44,1.33-0.94,1.79c-0.51,0.47-1.03,0.71-1.58,0.73c-0.55,0.02-1.06-0.2-1.55-0.67c-0.49-0.47-0.75-1.29-0.79-2.46
		c-0.08-1.99-0.07-3.98,0.03-5.99c0.1-2.01,0.28-3.97,0.55-5.9c0.26-1.93,0.6-3.79,1-5.6c0.4-1.8,0.87-3.5,1.4-5.08
		c0.37-1.1,0.96-1.93,1.79-2.49c0.83-0.57,1.61-0.81,2.34-0.73c0.73,0.08,1.29,0.53,1.67,1.34c0.38,0.81,0.31,2.05-0.21,3.71
		c-0.69,2.07-1.31,4.29-1.86,6.66c-0.55,2.37-1.02,4.73-1.43,7.09c0.28-0.77,0.69-1.86,1.22-3.25c0.53-1.4,1.12-2.92,1.79-4.56
		c0.67-1.64,1.42-3.32,2.25-5.05c0.83-1.72,1.71-3.28,2.65-4.68c0.93-1.4,1.89-2.54,2.89-3.44c0.99-0.89,2-1.34,3.01-1.34
		c0.89,0,1.6,0.2,2.13,0.61c0.53,0.41,0.92,0.93,1.19,1.58c0.26,0.65,0.41,1.38,0.46,2.19c0.04,0.81,0.02,1.62-0.06,2.43
		c-0.08,0.81-0.19,1.59-0.33,2.34c-0.14,0.75-0.27,1.39-0.39,1.92c0.4-0.69,0.86-1.42,1.37-2.19c0.51-0.77,1.07-1.49,1.7-2.16
		c0.63-0.67,1.33-1.22,2.1-1.64c0.77-0.43,1.62-0.64,2.55-0.64c1.95,0.04,3.28,0.62,4.01,1.73c0.73,1.12,0.87,2.65,0.43,4.59
		c-0.32,1.46-0.72,2.98-1.19,4.56c-0.47,1.58-0.94,3.11-1.43,4.59c-0.49,1.48-0.93,2.87-1.34,4.17c-0.41,1.3-0.71,2.41-0.91,3.35
		c-0.33,1.26-0.14,1.89,0.55,1.89c0.57,0,1.2-0.29,1.88-0.88c0.69-0.59,1.39-1.37,2.1-2.34c0.71-0.97,1.44-2.06,2.19-3.25
		c0.75-1.2,1.46-2.4,2.13-3.62c0.67-1.22,1.3-2.38,1.88-3.5C298.47,43.26,298.99,42.32,299.43,41.55z"/>
	<path class="st0" d="M320.17,41.37c0.45-0.65,0.88-1.07,1.31-1.28c0.43-0.2,0.76-0.23,1-0.09c0.24,0.14,0.35,0.45,0.33,0.91
		c-0.02,0.47-0.27,1.04-0.76,1.73c-0.57,0.81-1.28,1.84-2.13,3.07c-0.85,1.24-1.79,2.52-2.83,3.86c-1.03,1.34-2.13,2.69-3.29,4.04
		c-1.16,1.36-2.33,2.59-3.53,3.68c-1.2,1.09-2.37,1.98-3.53,2.65c-1.16,0.67-2.26,1-3.31,1c-1.58,0-2.83-0.42-3.74-1.25
		c-0.91-0.83-1.58-1.86-2.01-3.1c-0.43-1.24-0.67-2.56-0.73-3.98c-0.06-1.42-0.03-2.7,0.09-3.83c0.24-2.11,0.73-4.31,1.46-6.6
		c0.73-2.29,1.7-4.37,2.92-6.23c1.22-1.86,2.66-3.39,4.32-4.56c1.66-1.18,3.55-1.7,5.66-1.58c1.46,0.08,2.66,0.62,3.59,1.61
		c0.93,0.99,1.38,2.22,1.34,3.68c-0.08,1.5-0.52,2.85-1.31,4.04c-0.79,1.2-1.79,2.21-3.01,3.04c-1.22,0.83-2.54,1.49-3.98,1.98
		c-1.44,0.49-2.83,0.79-4.17,0.91c-0.45,1.7-0.8,3.36-1.06,4.96c-0.26,1.6-0.42,3.03-0.46,4.29c0,0.33,0,0.72,0,1.19
		c0,0.47,0.05,0.92,0.15,1.37c0.1,0.45,0.27,0.82,0.52,1.12c0.24,0.3,0.59,0.46,1.03,0.46c0.73,0,1.58-0.34,2.55-1.03
		c0.97-0.69,2-1.56,3.07-2.62c1.07-1.05,2.14-2.24,3.19-3.56c1.05-1.32,2.06-2.6,3.01-3.86c0.95-1.26,1.8-2.42,2.55-3.5
		C319.19,42.82,319.77,41.98,320.17,41.37z M311.54,32.73c-0.85,0.08-1.65,0.53-2.4,1.34c-0.75,0.81-1.42,1.74-2.01,2.8
		c-0.59,1.06-1.09,2.13-1.52,3.22c-0.43,1.09-0.74,1.97-0.94,2.62c0.97-0.12,2.01-0.37,3.1-0.76c1.09-0.38,2.11-0.89,3.04-1.52
		c0.93-0.63,1.7-1.38,2.31-2.25c0.61-0.87,0.93-1.86,0.97-2.95c0.04-0.77-0.17-1.4-0.64-1.89
		C312.99,32.85,312.35,32.65,311.54,32.73z"/>
	<path class="st0" d="M354.24,40.88c0.32-0.65,0.66-1.05,1-1.22c0.34-0.16,0.63-0.16,0.85,0c0.22,0.16,0.37,0.46,0.43,0.88
		c0.06,0.43-0.05,0.9-0.33,1.43c-0.49,0.93-1.08,2.21-1.76,3.83c-0.69,1.62-1.48,3.38-2.37,5.26c-0.89,1.89-1.85,3.8-2.89,5.75
		c-1.03,1.95-2.12,3.71-3.25,5.29c-1.14,1.58-2.29,2.88-3.47,3.89c-1.18,1.01-2.35,1.52-3.53,1.52c-1.26,0-2.27-0.3-3.04-0.91
		c-0.77-0.61-1.37-1.46-1.79-2.55c-0.43-1.09-0.7-2.39-0.82-3.89c-0.12-1.5-0.14-3.14-0.06-4.93c0.08-2.39,0.31-4.95,0.7-7.66
		c0.39-2.72,0.86-5.41,1.43-8.09s1.17-5.25,1.79-7.73c0.63-2.47,1.23-4.68,1.79-6.63h-6.45c-0.65,0-1.13-0.11-1.46-0.33
		c-0.32-0.22-0.51-0.48-0.55-0.76c-0.04-0.28,0.09-0.55,0.4-0.79c0.3-0.24,0.78-0.37,1.43-0.37h7.24c0.24-0.81,0.47-1.52,0.67-2.13
		c0.2-0.61,0.37-1.11,0.49-1.52c0.53-1.58,1.23-2.7,2.1-3.35c0.87-0.65,1.67-0.91,2.4-0.79c0.73,0.12,1.29,0.59,1.67,1.4
		c0.38,0.81,0.33,1.91-0.15,3.28l-0.91,3.1c0.93-0.04,1.78-0.06,2.55-0.06c0.77,0,1.44,0,2.01,0c0.57,0,0.97,0.12,1.22,0.36
		s0.35,0.51,0.33,0.79c-0.02,0.28-0.17,0.55-0.46,0.79c-0.28,0.24-0.67,0.36-1.16,0.36h-5.17c-0.61,2.15-1.29,4.69-2.04,7.63
		c-0.75,2.94-1.47,5.95-2.16,9.03c-0.69,3.08-1.28,6.08-1.76,9s-0.77,5.43-0.85,7.54c-0.08,1.7,0.01,3.05,0.27,4.04
		s0.74,1.49,1.43,1.49c0.77,0,1.6-0.48,2.49-1.43c0.89-0.95,1.81-2.17,2.77-3.65c0.95-1.48,1.88-3.12,2.8-4.93
		c0.91-1.8,1.77-3.56,2.58-5.26c0.81-1.7,1.52-3.25,2.13-4.65S353.87,41.53,354.24,40.88z"/>
	<path class="st0" d="M377.41,41c0.57-0.2,1.05-0.24,1.46-0.12c0.41,0.12,0.65,0.33,0.73,0.61c0.08,0.28-0.03,0.6-0.33,0.94
		c-0.3,0.35-0.84,0.64-1.61,0.88c-1.5,0.49-2.89,0.84-4.17,1.06c-1.28,0.22-2.48,0.33-3.62,0.33c-0.53,1.34-1.18,2.65-1.95,3.92
		c-0.77,1.28-1.64,2.42-2.62,3.44c-0.97,1.01-2.03,1.82-3.16,2.43c-1.14,0.61-2.35,0.93-3.65,0.97c-1.62,0-3.02-0.57-4.2-1.7
		c-1.18-1.13-1.8-2.88-1.89-5.23c-0.04-1.18,0.09-2.39,0.4-3.65c0.3-1.26,0.75-2.45,1.34-3.59c0.59-1.13,1.28-2.15,2.07-3.04
		c0.79-0.89,1.65-1.56,2.58-2.01c-0.08-0.97,0.01-1.93,0.27-2.86c0.26-0.93,0.68-1.76,1.25-2.49c0.57-0.73,1.26-1.32,2.07-1.76
		c0.81-0.45,1.72-0.67,2.74-0.67c1.34,0,2.44,0.3,3.31,0.91s1.56,1.39,2.07,2.34c0.51,0.95,0.84,2.02,1,3.19
		c0.16,1.18,0.18,2.33,0.06,3.47c-0.12,1.22-0.41,2.55-0.85,4.01c0.97-0.04,2.01-0.17,3.1-0.4C374.92,41.78,376.11,41.45,377.41,41z
		 M359.16,52.74c0.77,0,1.51-0.23,2.22-0.7c0.71-0.47,1.37-1.1,1.98-1.89s1.17-1.69,1.67-2.71c0.51-1.01,0.96-2.05,1.37-3.1
		c-1.14-0.28-2.2-0.71-3.19-1.28c-0.99-0.57-1.86-1.32-2.58-2.25c-0.85,0.93-1.58,2.14-2.19,3.62c-0.61,1.48-0.99,2.89-1.16,4.23
		c-0.16,1.42-0.06,2.45,0.3,3.1C357.94,52.42,358.47,52.74,359.16,52.74z M368.16,36.26c0.04-1.26-0.16-2.39-0.61-3.41
		c-0.45-1.01-1.3-1.56-2.55-1.64c-0.93-0.04-1.65,0.33-2.16,1.1c-0.51,0.77-0.78,1.7-0.82,2.8c-0.04,0.69,0.03,1.41,0.21,2.16
		c0.18,0.75,0.49,1.46,0.91,2.13s0.96,1.25,1.61,1.73c0.65,0.49,1.44,0.83,2.37,1.03c0.2-0.65,0.42-1.51,0.64-2.58
		C367.99,38.5,368.12,37.39,368.16,36.26z"/>
	<path class="st0" d="M51.18,84.43c3.08,0,5.74,0.45,7.97,1.34c2.23,0.89,4.05,2.03,5.47,3.41c1.42,1.38,2.45,2.98,3.1,4.81
		c0.65,1.82,0.97,3.63,0.97,5.41c-0.08,3.33-0.79,7.12-2.13,11.37c-1.34,4.26-3.06,8.17-5.17,11.74c-1.14,1.87-2.33,2.96-3.59,3.28
		c-1.26,0.33-2.31,0.16-3.16-0.49c-0.85-0.65-1.36-1.66-1.52-3.04c-0.16-1.38,0.32-2.88,1.46-4.5c1.05-1.46,2.09-3,3.1-4.62
		c1.01-1.62,1.9-3.28,2.68-4.99c0.77-1.7,1.4-3.36,1.89-4.99c0.49-1.62,0.73-3.12,0.73-4.5c-0.08-2.27-0.93-4.14-2.55-5.6
		c-1.62-1.46-4.5-2.15-8.64-2.07c-3,0-5.82,0.53-8.45,1.58c-2.64,1.05-4.93,2.51-6.87,4.38c-1.95,1.87-3.51,4.08-4.68,6.63
		c-1.18,2.55-1.81,5.33-1.89,8.33c-0.08,3.73,0.49,7.28,1.7,10.64c1.22,3.37,2.76,6.71,4.62,10.04c1.86,3.33,3.89,6.65,6.08,9.98
		c2.19,3.33,4.2,6.77,6.02,10.34c1.82,3.57,3.3,7.32,4.44,11.25c1.13,3.93,1.58,8.13,1.34,12.59c-0.24,4.62-1.38,8.84-3.41,12.65
		c-2.03,3.81-4.56,7.1-7.6,9.85c-3.04,2.76-6.41,4.91-10.1,6.45c-3.69,1.54-7.32,2.35-10.89,2.43c-3.57,0-6.65-0.53-9.25-1.58
		c-2.6-1.05-4.7-2.53-6.33-4.44c-1.62-1.9-2.78-4.12-3.47-6.63c-0.69-2.51-0.95-5.19-0.79-8.03c0.25-4.38,1.47-8.92,3.65-13.62
		c2.19-4.7,5.23-9,9.12-12.9c1.3-1.3,2.53-1.99,3.71-2.07c1.17-0.08,2.11,0.16,2.8,0.73c0.69,0.57,1.01,1.3,0.97,2.19
		c-0.04,0.89-0.63,1.7-1.76,2.43c-2.19,1.38-4.14,2.94-5.84,4.68c-1.7,1.74-3.14,3.63-4.32,5.66c-1.18,2.03-2.09,4.1-2.74,6.2
		c-0.65,2.11-1.01,4.14-1.09,6.08c-0.08,2.03,0.16,3.93,0.73,5.72c0.57,1.78,1.5,3.33,2.79,4.62c1.29,1.3,2.91,2.29,4.85,2.98
		c1.94,0.69,4.28,0.91,7.03,0.67c2.34-0.16,4.67-0.77,6.97-1.82c2.3-1.05,4.36-2.49,6.18-4.32c1.82-1.83,3.33-4.05,4.54-6.69
		c1.21-2.63,1.9-5.66,2.06-9.06c0.16-4.3-0.33-8.35-1.46-12.17c-1.14-3.81-2.62-7.48-4.44-11.01c-1.82-3.53-3.83-6.95-6.02-10.28
		c-2.19-3.32-4.24-6.63-6.14-9.91c-1.91-3.28-3.53-6.63-4.87-10.04c-1.34-3.41-2.01-6.97-2.01-10.71
		c-0.08-4.38,0.89-8.43,2.92-12.17c2.03-3.73,4.66-6.95,7.91-9.67c3.24-2.72,6.91-4.82,11.01-6.33
		C42.93,85.18,47.04,84.43,51.18,84.43z"/>
	<path class="st0" d="M110.06,166.42c0.49-0.81,1.05-1.34,1.7-1.58c0.65-0.24,1.24-0.22,1.76,0.06c0.53,0.29,0.87,0.75,1.03,1.4
		c0.16,0.65,0,1.42-0.49,2.31c-0.97,1.78-2.27,4.1-3.89,6.93c-1.62,2.84-3.43,5.86-5.41,9.06c-1.99,3.2-4.1,6.45-6.33,9.73
		c-2.23,3.28-4.5,6.23-6.81,8.82c-2.31,2.6-4.6,4.72-6.87,6.39c-2.27,1.66-4.38,2.49-6.33,2.49c-2.35,0-4.26-0.35-5.72-1.03
		c-1.46-0.69-2.58-1.58-3.35-2.68c-0.77-1.09-1.24-2.41-1.4-3.95c-0.16-1.54-0.12-3.16,0.12-4.87c0.32-2.19,0.93-4.5,1.82-6.93
		c0.89-2.43,1.84-4.76,2.86-7c1.01-2.23,2.01-4.3,2.98-6.2c0.97-1.9,1.74-3.47,2.31-4.68c0.49-1.05,0.63-1.78,0.43-2.19
		c-0.2-0.4-0.63-0.65-1.28-0.73c-0.65-0.08-1.48-0.06-2.49,0.06c-1.02,0.12-2.05,0.18-3.1,0.18c-2.68-0.16-4.85-1.05-6.51-2.68
		c-1.66-1.62-2.45-3.81-2.37-6.57c0.08-1.7,0.57-3.35,1.46-4.93c0.89-1.58,1.7-2.9,2.43-3.95c0.97-1.22,2.37-2.09,4.2-2.62
		c1.83-0.53,3.45-0.67,4.87-0.43c1.42,0.24,2.33,0.87,2.74,1.89c0.4,1.02-0.33,2.45-2.19,4.32c-1.95,2.6-2.74,4.52-2.37,5.78
		c0.36,1.26,1.3,2.09,2.8,2.49c1.5,0.41,3.26,0.59,5.29,0.55c2.03-0.04,3.73-0.06,5.11-0.06c1.95,0.08,3.49,0.47,4.62,1.16
		c1.13,0.69,1.3,2.17,0.49,4.44c-0.24,0.57-0.95,2.03-2.13,4.38c-1.18,2.35-2.48,5.05-3.89,8.09c-1.42,3.04-2.82,6.14-4.2,9.31
		c-1.38,3.16-2.35,5.88-2.92,8.15c-0.41,1.46-0.55,2.64-0.43,3.53c0.12,0.89,0.55,1.34,1.28,1.34c1.13,0,2.55-0.77,4.26-2.31
		c1.7-1.54,3.51-3.53,5.41-5.96c1.9-2.43,3.89-5.17,5.96-8.21c2.07-3.04,4.01-6.02,5.84-8.94s3.51-5.66,5.05-8.21
		C107.95,170.01,109.16,167.97,110.06,166.42z"/>
	<path class="st0" d="M136.7,165.21c0.49-0.81,1.05-1.34,1.7-1.58c0.65-0.24,1.24-0.22,1.76,0.06c0.53,0.29,0.87,0.75,1.03,1.4
		c0.16,0.65,0,1.42-0.49,2.31c-1.46,2.68-3.06,5.66-4.81,8.94c-1.75,3.28-3.61,6.37-5.6,9.25c-1.99,2.88-4.14,5.27-6.45,7.18
		c-2.31,1.91-4.77,2.86-7.36,2.86c-3.08,0-5.41-0.69-7-2.07c-1.58-1.38-2.63-3.16-3.16-5.35c-0.53-2.19-0.65-4.62-0.37-7.3
		c0.29-2.68,0.79-5.37,1.52-8.09c0.73-2.72,1.54-5.27,2.43-7.66c0.89-2.39,1.7-4.36,2.43-5.9c1.13-2.68,2.62-4.5,4.44-5.47
		s3.47-1.26,4.93-0.85c1.46,0.41,2.49,1.48,3.1,3.22c0.61,1.75,0.3,4.08-0.91,7c-0.16,0.41-0.55,1.3-1.16,2.68
		c-0.61,1.38-1.28,3.02-2.01,4.93c-0.73,1.91-1.46,3.89-2.19,5.96c-0.73,2.07-1.28,4-1.64,5.78c-0.36,1.78-0.47,3.24-0.3,4.38
		c0.16,1.14,0.77,1.7,1.82,1.7c1.46,0,2.98-0.79,4.56-2.37s3.16-3.53,4.74-5.84c1.58-2.31,3.14-4.82,4.68-7.54
		C133.98,170.1,135.4,167.56,136.7,165.21z M124.65,146.11c-0.65,1.14-1.36,1.74-2.13,1.82c-0.77,0.08-1.42-0.14-1.95-0.67
		c-0.53-0.53-0.87-1.3-1.03-2.31c-0.16-1.01,0.04-2.05,0.61-3.1c0.73-1.3,1.3-2.47,1.7-3.53c0.4-1.05,0.69-2.43,0.85-4.14
		c0.16-2.03,0.87-3.36,2.13-4.01c1.26-0.65,2.51-0.79,3.77-0.43c1.26,0.37,2.19,1.16,2.8,2.37c0.61,1.22,0.34,2.72-0.79,4.5
		c-1.05,1.62-2.09,3.2-3.1,4.74C126.5,142.91,125.55,144.49,124.65,146.11z"/>
	<path class="st0" d="M244.36,92.46c0.08,2.68-0.33,5.64-1.22,8.88c-0.89,3.24-1.97,6.41-3.22,9.49c-1.26,3.08-2.58,5.92-3.95,8.52
		c-1.38,2.6-2.47,4.62-3.28,6.08c-0.81,1.3-1.91,2.19-3.28,2.68c-1.38,0.49-2.55,0.55-3.53,0.18c-0.97-0.37-1.54-1.17-1.7-2.43
		c-0.16-1.26,0.61-3.06,2.31-5.41c0.49-0.73,1.34-2.13,2.55-4.2c1.22-2.07,2.45-4.44,3.71-7.12c1.26-2.68,2.43-5.45,3.53-8.33
		c1.09-2.88,1.76-5.45,2.01-7.72c0.32-2.51,0.02-4.26-0.91-5.23c-0.93-0.97-2.09-1.38-3.47-1.22c-1.87,0.24-3.87,1.78-6.02,4.62
		c-2.15,2.84-4.36,6.57-6.63,11.19c-2.27,4.62-4.54,9.96-6.81,16c-2.27,6.04-4.5,12.39-6.69,19.04c-2.19,6.65-4.3,13.4-6.33,20.25
		c-2.03,6.85-3.91,13.38-5.66,19.59c-1.74,6.2-3.28,11.9-4.62,17.09c-1.34,5.19-2.45,9.49-3.35,12.9c2.76-0.97,5.61-1.83,8.58-2.55
		c2.96-0.73,5.9-1.4,8.82-2.01c2.92-0.61,5.72-1.16,8.39-1.64c2.68-0.49,5.19-0.93,7.54-1.34c1.86-0.32,3.3-0.22,4.32,0.3
		c1.01,0.53,1.58,1.22,1.7,2.07s-0.22,1.7-1.03,2.55c-0.81,0.85-2.07,1.4-3.77,1.64c-3.41,0.49-7.28,1.2-11.62,2.13
		c-4.34,0.93-8.68,2.09-13.02,3.47c-4.34,1.38-8.48,3.02-12.41,4.93c-3.93,1.9-7.2,4.03-9.79,6.39c-1.95,1.78-3.65,2.72-5.11,2.8
		c-1.46,0.08-2.54-0.32-3.22-1.22c-0.69-0.89-0.91-2.07-0.67-3.53c0.24-1.46,1.13-2.88,2.68-4.26c2.92-2.68,6.61-4.95,11.07-6.81
		c0-3.49,0.36-8.01,1.09-13.56c0.73-5.55,1.78-11.68,3.16-18.37c1.38-6.69,3.04-13.73,4.99-21.11c1.95-7.38,4.14-14.64,6.57-21.78
		c2.43-7.14,5.09-13.95,7.97-20.44c2.88-6.49,5.92-12.17,9.12-17.03c3.2-4.87,6.55-8.74,10.04-11.62c3.49-2.88,7.1-4.28,10.83-4.2
		c2.76,0,5.13,0.81,7.12,2.43C243.12,86.18,244.19,88.81,244.36,92.46z"/>
	<path class="st0" d="M295.94,167.4c0.49-0.81,1.07-1.32,1.76-1.52c0.69-0.2,1.28-0.18,1.76,0.06c0.49,0.24,0.81,0.71,0.97,1.4
		c0.16,0.69,0,1.48-0.49,2.37c-0.97,1.78-2.17,3.95-3.59,6.51c-1.42,2.55-3,5.25-4.74,8.09c-1.75,2.84-3.57,5.64-5.47,8.39
		c-1.91,2.76-3.89,5.25-5.96,7.48c-2.07,2.23-4.14,4.04-6.2,5.41c-2.07,1.38-4.08,2.07-6.02,2.07c-2.22,0-4.04-0.4-5.48-1.22
		c-1.44-0.81-2.54-1.95-3.32-3.41c-0.78-1.46-1.27-3.18-1.48-5.17c-0.21-1.99-0.23-4.12-0.06-6.39c0.41-3.16,1.02-6.37,1.85-9.61
		c-1.54,2.35-3.11,4.6-4.69,6.75c-1.58,2.15-3.17,4.04-4.75,5.66c-1.58,1.62-3.13,2.9-4.63,3.83c-1.5,0.93-2.94,1.36-4.32,1.28
		c-3.97,0-6.85-1.36-8.64-4.08c-1.78-2.72-2.63-6.06-2.55-10.04c0.08-3.65,0.69-7.52,1.82-11.62c1.14-4.09,2.8-7.85,4.99-11.25
		c2.19-3.41,4.87-6.2,8.03-8.39s6.77-3.16,10.83-2.92c2.43,0.08,4.28,0.63,5.53,1.64c1.26,1.02,2.11,2.29,2.55,3.83
		c0.45,1.54,0.49,3.22,0.12,5.05s-0.95,3.59-1.76,5.29c-0.65,1.14-1.32,1.87-2.01,2.19c-0.69,0.33-1.3,0.35-1.82,0.06
		c-0.53-0.28-0.85-0.81-0.97-1.58c-0.12-0.77,0.1-1.72,0.67-2.86c0.32-0.57,0.65-1.34,0.97-2.31c0.32-0.97,0.51-1.95,0.55-2.92
		c0.04-0.97-0.1-1.8-0.43-2.49c-0.33-0.69-1.02-1.07-2.07-1.16c-1.38-0.08-2.74,0.51-4.08,1.76c-1.34,1.26-2.62,2.92-3.83,4.99
		c-1.22,2.07-2.33,4.4-3.35,7c-1.02,2.6-1.89,5.15-2.62,7.66c-0.73,2.51-1.32,4.83-1.76,6.93c-0.45,2.11-0.67,3.73-0.67,4.87
		c0,1.87,0.45,2.8,1.34,2.8c1.38,0,3.22-1.26,5.5-3.77c2.28-2.51,4.66-5.54,7.15-9.06c2.48-3.53,4.91-7.14,7.27-10.83
		c2.36-3.69,4.32-6.75,5.87-9.18c1.22-2.59,2.72-4.38,4.5-5.35c1.78-0.97,3.38-1.24,4.8-0.79c1.42,0.45,2.43,1.54,3.04,3.28
		c0.61,1.75,0.3,4.08-0.91,7c-1.05,2.43-2.19,5.21-3.41,8.33c-1.22,3.12-2.35,6.26-3.41,9.43c-1.05,3.16-1.97,6.16-2.74,9
		c-0.77,2.84-1.2,5.19-1.28,7.06c-0.16,2.43,0.36,3.65,1.58,3.65c1.13,0,2.43-0.61,3.89-1.82c1.46-1.22,3.02-2.8,4.68-4.74
		c1.66-1.95,3.33-4.14,4.99-6.57c1.66-2.43,3.28-4.89,4.87-7.36c1.58-2.47,3.02-4.82,4.32-7.06
		C293.95,170.83,295.04,168.94,295.94,167.4z"/>
	<path class="st0" d="M354.21,168.74c0.73-1.46,1.5-2.45,2.31-2.98c0.81-0.53,1.48-0.65,2.01-0.36c0.53,0.29,0.83,0.91,0.91,1.89
		c0.08,0.97-0.29,2.27-1.09,3.89c-0.73,1.46-1.56,3.24-2.49,5.35c-0.93,2.11-1.95,4.32-3.04,6.63s-2.33,4.62-3.71,6.93
		c-1.38,2.31-2.82,4.4-4.32,6.27c-1.5,1.87-3.12,3.37-4.87,4.5c-1.75,1.14-3.59,1.7-5.54,1.7c-2.27,0-4.1-0.47-5.47-1.4
		c-1.38-0.93-2.39-2.19-3.04-3.77c-0.65-1.58-0.99-3.45-1.03-5.6c-0.04-2.15,0.14-4.44,0.55-6.87c0.49-2.84,1.13-5.8,1.95-8.88
		c0.81-3.08,1.68-6.1,2.62-9.06c0.93-2.96,1.82-5.8,2.68-8.52c0.85-2.72,1.5-5.11,1.95-7.18c0.45-2.07,0.63-3.71,0.55-4.93
		c-0.08-1.22-0.61-1.86-1.58-1.95c-2.03-0.08-4.12,1.03-6.26,3.35c-2.15,2.31-4.28,5.31-6.39,9c-2.11,3.69-4.18,7.79-6.2,12.29
		c-2.03,4.5-3.87,8.88-5.54,13.14c-1.66,4.26-3.12,8.13-4.38,11.62c-1.26,3.49-2.21,6.04-2.86,7.66c-0.24,1.46-0.87,2.66-1.89,3.59
		c-1.01,0.93-2.07,1.42-3.16,1.46c-1.09,0.04-2.13-0.4-3.1-1.34c-0.97-0.93-1.5-2.57-1.58-4.93c-0.16-3.97-0.14-7.97,0.06-11.98
		c0.2-4.01,0.57-7.95,1.09-11.8c0.53-3.85,1.2-7.58,2.01-11.19c0.81-3.61,1.74-6.99,2.8-10.16c0.73-2.19,1.93-3.85,3.59-4.99
		c1.66-1.13,3.22-1.62,4.68-1.46c1.46,0.16,2.57,1.05,3.35,2.68c0.77,1.62,0.63,4.1-0.43,7.42c-1.38,4.14-2.62,8.58-3.71,13.32
		c-1.09,4.74-2.05,9.47-2.86,14.17c0.81-2.11,1.78-4.72,2.92-7.85c1.13-3.12,2.43-6.39,3.89-9.79s3.06-6.81,4.81-10.22
		c1.74-3.41,3.67-6.49,5.78-9.25c2.11-2.76,4.38-4.99,6.81-6.69c2.43-1.7,5.03-2.55,7.79-2.55c3.24,0,5.64,0.83,7.18,2.49
		c1.54,1.66,2.47,3.85,2.8,6.57c0.32,2.72,0.18,5.8-0.43,9.25c-0.61,3.45-1.42,6.96-2.43,10.52c-1.01,3.57-2.09,7.04-3.22,10.4
		c-1.14,3.37-2.03,6.31-2.68,8.82c-0.65,2.27-0.99,4.1-1.03,5.47c-0.04,1.38,0.38,2.07,1.28,2.07c1.3,0,2.57-0.53,3.83-1.58
		c1.26-1.05,2.47-2.41,3.65-4.08c1.17-1.66,2.29-3.53,3.35-5.6c1.05-2.07,2.05-4.09,2.98-6.08c0.93-1.99,1.74-3.81,2.43-5.47
		C353.13,171.03,353.72,169.71,354.21,168.74z"/>
	<path class="st0" d="M413.94,169.83c0.73-1.05,1.48-1.72,2.25-2.01c0.77-0.28,1.4-0.28,1.89,0c0.49,0.29,0.75,0.81,0.79,1.58
		c0.04,0.77-0.26,1.64-0.91,2.62c-1.62,2.43-3.51,5.13-5.67,8.09c-2.16,2.96-4.53,5.72-7.12,8.27c-2.58,2.55-5.3,4.7-8.13,6.45
		c-2.84,1.74-5.72,2.66-8.64,2.74c-4.14,0.16-8.01-1.09-11.62-3.77c-3.61-2.67-6.35-6.6-8.21-11.79c-1.7,2.84-3.21,5.51-4.5,8.02
		c-1.3,2.51-2.35,4.78-3.16,6.8c-0.65,2.52-1.62,4.32-2.92,5.41c-1.3,1.1-2.6,1.46-3.89,1.1c-1.3-0.37-2.41-1.44-3.35-3.22
		c-0.93-1.78-1.36-4.34-1.28-7.66c0.08-2.83,0.45-6.5,1.09-11c0.65-4.5,1.54-9.44,2.68-14.82s2.55-11.04,4.26-16.95
		c1.7-5.91,3.65-11.73,5.84-17.44c2.19-5.71,4.62-11.12,7.3-16.22c2.68-5.1,5.55-9.58,8.64-13.43c3.08-3.85,6.41-6.83,9.98-8.93
		c3.57-2.11,7.34-3.04,11.31-2.79c1.78,0.16,3.29,0.61,4.52,1.34c1.23,0.73,2.21,1.66,2.96,2.79c0.75,1.13,1.31,2.43,1.69,3.89
		c0.38,1.46,0.56,2.91,0.56,4.37c0.08,3.4-0.54,6.98-1.88,10.74c-1.33,3.76-3.14,7.57-5.41,11.41c-2.28,3.84-4.92,7.61-7.92,11.29
		c-3,3.68-6.12,7.12-9.37,10.32c-3.24,3.2-6.53,6.06-9.85,8.57c-3.33,2.51-6.41,4.5-9.25,5.96c-0.89,3.89-1.68,7.68-2.37,11.37
		c-0.69,3.69-1.28,7.16-1.76,10.4c1.54-2.76,3.59-6.04,6.14-9.85c2.55-3.81,5.39-7.46,8.52-10.95c3.12-3.49,6.41-6.47,9.85-8.94
		c3.45-2.47,6.87-3.75,10.28-3.83c2.51-0.08,4.54,0.51,6.08,1.76c1.54,1.26,2.35,2.9,2.43,4.93c0.08,2.68-0.89,5.11-2.92,7.3
		c-2.03,2.19-4.54,4.16-7.54,5.9c-3,1.74-6.22,3.22-9.67,4.44c-3.45,1.22-6.55,2.19-9.31,2.92c1.38,4.62,3.29,8.15,5.72,10.58
		c2.43,2.43,5.07,3.65,7.91,3.65c2.19,0,4.42-0.73,6.69-2.19c2.27-1.46,4.46-3.28,6.58-5.47c2.11-2.19,4.1-4.54,5.96-7.06
		C411.06,174.01,412.64,171.78,413.94,169.83z M400.68,95.38c-2.35-0.08-4.72,1.08-7.12,3.47c-2.39,2.39-4.73,5.52-7,9.37
		c-2.27,3.85-4.42,8.15-6.45,12.89c-2.03,4.74-3.85,9.37-5.47,13.87c-1.62,4.5-3.02,8.6-4.2,12.29c-1.18,3.69-1.97,6.43-2.37,8.21
		c2.35-1.54,4.95-3.49,7.79-5.84c2.84-2.35,5.66-4.97,8.46-7.85c2.8-2.88,5.51-5.94,8.15-9.18c2.63-3.24,4.95-6.55,6.93-9.91
		c1.99-3.36,3.55-6.71,4.68-10.04c1.13-3.32,1.66-6.49,1.58-9.49c-0.08-1.86-0.47-3.61-1.16-5.23
		C403.82,96.31,402.54,95.46,400.68,95.38z M394.59,155.23c-1.62,0-3.39,0.65-5.29,1.95c-1.91,1.3-3.75,2.86-5.54,4.68
		c-1.79,1.82-3.47,3.73-5.05,5.72c-1.58,1.99-2.86,3.67-3.83,5.05c1.54-0.4,3.57-1.11,6.08-2.13c2.51-1.01,4.97-2.19,7.36-3.53
		c2.39-1.34,4.46-2.8,6.2-4.38c1.74-1.58,2.62-3.18,2.62-4.81C397.31,156.08,396.46,155.23,394.59,155.23z"/>
	<path class="st0" d="M475.37,167.4c0.49-0.81,1.07-1.32,1.76-1.52c0.69-0.2,1.28-0.18,1.76,0.06c0.49,0.24,0.81,0.71,0.97,1.4
		c0.16,0.69,0,1.48-0.49,2.37c-0.97,1.78-2.17,3.95-3.59,6.51c-1.42,2.55-3,5.25-4.74,8.09c-1.75,2.84-3.57,5.64-5.47,8.39
		c-1.91,2.76-3.89,5.25-5.96,7.48c-2.07,2.23-4.14,4.04-6.2,5.41c-2.07,1.38-4.08,2.07-6.02,2.07c-2.22,0-4.04-0.4-5.48-1.22
		c-1.44-0.81-2.54-1.95-3.32-3.41c-0.78-1.46-1.27-3.18-1.47-5.17c-0.21-1.99-0.23-4.12-0.06-6.39c0.41-3.16,1.03-6.37,1.85-9.61
		c-1.54,2.35-3.11,4.6-4.69,6.75c-1.58,2.15-3.17,4.04-4.75,5.66c-1.58,1.62-3.13,2.9-4.63,3.83c-1.5,0.93-2.94,1.36-4.32,1.28
		c-3.97,0-6.85-1.36-8.64-4.08c-1.78-2.72-2.63-6.06-2.55-10.04c0.08-3.65,0.69-7.52,1.83-11.62c1.14-4.09,2.8-7.85,4.99-11.25
		c2.19-3.41,4.87-6.2,8.03-8.39s6.77-3.16,10.83-2.92c2.43,0.08,4.28,0.63,5.54,1.64c1.26,1.02,2.11,2.29,2.55,3.83
		c0.44,1.54,0.49,3.22,0.12,5.05c-0.36,1.82-0.95,3.59-1.76,5.29c-0.65,1.14-1.32,1.87-2.01,2.19c-0.69,0.33-1.3,0.35-1.83,0.06
		c-0.53-0.28-0.85-0.81-0.97-1.58c-0.12-0.77,0.1-1.72,0.67-2.86c0.32-0.57,0.65-1.34,0.97-2.31c0.32-0.97,0.51-1.95,0.55-2.92
		c0.04-0.97-0.1-1.8-0.43-2.49c-0.33-0.69-1.02-1.07-2.07-1.16c-1.38-0.08-2.74,0.51-4.08,1.76c-1.34,1.26-2.62,2.92-3.83,4.99
		c-1.22,2.07-2.33,4.4-3.35,7c-1.01,2.6-1.89,5.15-2.62,7.66c-0.73,2.51-1.32,4.83-1.76,6.93c-0.45,2.11-0.67,3.73-0.67,4.87
		c0,1.87,0.45,2.8,1.34,2.8c1.38,0,3.22-1.26,5.5-3.77c2.28-2.51,4.66-5.54,7.15-9.06c2.48-3.53,4.91-7.14,7.27-10.83
		c2.36-3.69,4.32-6.75,5.87-9.18c1.22-2.59,2.72-4.38,4.5-5.35c1.78-0.97,3.38-1.24,4.8-0.79c1.42,0.45,2.43,1.54,3.04,3.28
		c0.61,1.75,0.3,4.08-0.91,7c-1.05,2.43-2.19,5.21-3.41,8.33c-1.22,3.12-2.35,6.26-3.41,9.43c-1.05,3.16-1.97,6.16-2.74,9
		c-0.77,2.84-1.2,5.19-1.28,7.06c-0.16,2.43,0.36,3.65,1.58,3.65c1.13,0,2.43-0.61,3.89-1.82c1.46-1.22,3.02-2.8,4.68-4.74
		c1.66-1.95,3.33-4.14,4.99-6.57c1.66-2.43,3.28-4.89,4.87-7.36c1.58-2.47,3.02-4.82,4.32-7.06
		C473.38,170.83,474.47,168.94,475.37,167.4z"/>
</g>
</svg>
