<svg width="1920" height="772" viewBox="0 0 1920 772" fill="none" xmlns="http://www.w3.org/2000/svg">
<mask id="mask0_2881_3" style="mask-type:alpha" maskUnits="userSpaceOnUse" x="0" y="0" width="1920" height="772">
<rect width="1920" height="772" fill="#D9D9D9"/>
</mask>
<g mask="url(#mask0_2881_3)">
<g opacity="0.05">
<path d="M1578.68 428.614L1588.37 432.948L1599.51 428.975L1601.65 424.337L1600.21 421.087L1591.26 426.476L1570.79 423.948L1564.35 475.64L1570.79 473.835L1571.51 453.391L1577.26 457.696L1583.74 472.751L1587.93 470.446L1588.01 470.613L1587.96 470.446L1579.76 447.28L1588.01 440.475L1574.04 442.614L1570.07 436.892L1571.18 429.698L1578.68 428.614Z" fill="url(#paint0_linear_2881_3)"/>
<path d="M1607.73 384.116L1596.98 345.757L1572.23 326.369L1574.73 310.592L1568.62 298.398L1563.96 300.176L1562.18 315.981L1559.32 318.48L1561.46 328.174L1566.12 331.396L1565.07 336.757L1569.73 343.257L1572.23 343.951L1573.32 336.035L1591.62 350.757L1586.57 352.923L1579.04 348.979L1579.4 360.09L1582.98 361.145L1584.07 366.201L1589.09 367.256L1593.76 364.756L1589.45 355.784L1593.76 352.923L1598.76 368.367L1593.87 372.284L1591.23 371.95L1581.93 376.589L1580.82 385.95L1588.01 379.811L1590.9 379.478L1592.68 381.255L1593.37 387.394L1601.65 395.255L1603.79 385.2L1607.73 384.116Z" fill="url(#paint1_linear_2881_3)"/>
<path d="M1543.93 461.058L1544.6 460.53L1543.93 461.058Z" fill="url(#paint2_linear_2881_3)"/>
<path d="M1413.63 316.675L1419.19 312.342L1431.22 357.034L1428.69 357.923L1429.77 379.089L1434.27 377.645L1445.91 398.449L1444.69 401.838L1470.69 429.142L1435.55 356.451L1439.33 339.257L1442.19 337.257L1444.52 340.48L1444.19 345.702L1450.63 344.424L1464.1 361.09L1467.33 360.007L1471.46 362.895L1470.74 373.117L1497.13 350.507L1494.8 328.98L1472.19 302.787L1469.99 290.787L1484.55 279.288L1491.19 280.371L1492.44 288.26L1494.8 289.51L1504.49 278.205L1509.49 280.01L1532.27 268.705L1554.68 215.068L1546.43 217.763L1545.35 208.624L1547.13 204.874L1524.38 183.153L1536.04 168.07L1539.99 168.432L1526.02 163.432L1516.88 167.376L1516.32 163.237L1505.91 158.932L1506.1 155.154L1522.04 141.877L1525.66 144.933L1523.49 149.932L1524.77 157.321L1540.54 149.766L1546.65 151.738L1547.74 162.515L1560.46 169.154L1566.21 181.014L1564.6 185.847L1568.54 189.625L1578.76 185.681L1578.4 165.932L1558.82 151.793L1567.07 143.738L1566.35 136.738L1573.88 126.322L1579.6 130.294L1588.21 124.906L1593.24 84.9074L1575.65 54.5754L1558.4 49.0201L1555.18 54.381L1547.13 42.0204L1544.6 46.4924L1535.27 43.7981L1547.65 15.9937L1591.07 14.0494L1592.35 17.4659L1611.15 15.466L1604.87 1.82769L1616.9 -2.28325L1627.12 7.383L1633.71 -0.0333557L1630.04 -4.44983L1634.68 -6.08865L1639.87 3.41095L1632.51 31.2153L1671.65 70.8802L1673.79 70.3525L1674.87 61.9084L1671.65 58.7141L1677.2 56.5197L1671.82 49.7145L1673.59 45.9646L1677.73 47.2146L1669.29 35.5484L1672.54 36.7984L1657.46 22.9934L1653.84 23.5212L1651.87 19.6047L1652.96 16.5493L1649.21 11.355L1657.57 8.46629L1661.37 9.52179L1663.34 12.4106L1667.12 8.82737L1682.32 11.5217L1682.54 6.46637L1691.37 -3.58875L1708.95 -5.17201L1687.98 -16.3104L1688.15 -19.3658L1691.76 -23.1157L1689.79 -26.1711L1729.95 -17.227L1729.42 -26.3655L1601.68 -54.0032L1611.57 -45.7536L1555.04 -50.42L1550.04 -55.8365L1442.05 -67.1138L1450.08 -61.0029L1418.52 -64.0583L1418.72 -56.6975L1367.94 -74.8079L1362.58 -69.6136L1347.33 -70.1414L1344.61 -73.0024L1324.53 -72.8357L1316.8 -78.4188L1311.08 -77.1411L1306.78 -72.4746L1294.58 -71.5858L1312.36 -82.002L1308.42 -87.5851L1197.5 -79.3077L1202.92 -74.8356L1179.2 -73.0579L1195.2 -63.1973L1170.25 -66.7804L1167.92 -63.725L1171 -60.3085L1171.17 -57.6142L1154.67 -70.7247L1170.25 -44.7258L1174.2 -47.4202L1173.7 -45.2814L1172.78 -44.9203L1171.89 -31.4486L1166.87 -30.3654L1162.2 -31.9764L1167.59 -36.0873L1168.31 -41.6704L1151.98 -60.3085L1151.09 -68.7526L1139.4 -73.0579L1135.48 -71.2802L1132.98 -64.6416L1133.7 -61.9473L1128.67 -58.5308L1144.62 -40.4205L1097.42 -55.3087L1093.65 -53.3366L1102.62 -42.9204L1044.95 -32.8375L1041.01 -35.6707L1045.48 -39.2539L1040.45 -44.087L1028.48 -44.0592L1033.65 -34.0319L1037.04 -32.4486L1036.48 -29.3932L1017.48 -24.3656L1019.98 -20.9769L1016.93 -19.1714L1006.9 -22.5879L1002.04 -21.1435L1003.82 -18.0881L1009.93 -16.6437L995.068 -19.3381L987.179 -30.6431L1021.09 -32.2542L1022.71 -35.8651L1021.62 -38.9205L966.903 -50.7534L970.514 -55.2532L891.211 -42.1426L898.739 -41.4204L875.962 -11.2829L859.268 -10.394L852.102 -3.56097L852.435 19.4102L857.463 22.799L880.24 15.8271L886.323 28.1876L885.601 36.7984L877.351 38.9649L879.684 35.3818L876.99 29.7987L877.545 25.8544L869.129 28.1876L867.879 46.6868L869.323 49.0201L866.629 52.4366L845.991 57.2697L844.38 65.7138L818.02 82.9075L809.048 78.6021L810.826 88.2961L796.466 85.9629L792.882 90.4627L807.243 98.7123L812.27 109.823L805.993 124.545L776.578 122.739L775.3 121.322H772.078L769.383 124.35L765.439 124.545L764.384 165.071L777.133 169.404L779.827 175.126L781.438 176.209L781.966 177.653L760.606 199.347L756.106 219.624L742.662 232.373L735.496 233.984L722.747 251.039V257.122L708.747 278.093L712.33 291.926L709.83 294.426L708.219 324.23L703.914 327.619L704.081 329.786L707.858 332.813L710.025 350.062L764.189 402.977L795.049 397.616L800.049 399.949L836.131 388.283L842.964 390.95L850.491 403.866L867.018 402.616L874.351 409.449L868.074 440.503L896.072 493.584L893.211 497.528L924.599 660.799L921.932 667.799L926.932 679.298L932.654 682.52L977.347 674.271L1011.26 638.189L1014.48 619.551L1030.46 607.162L1030.09 574.497L1065.81 545.832L1060.95 464.169L1133.45 348.618L1091.12 359.007L1083.95 351.479L1085.04 346.09L1019.01 234.484L1026.37 233.762L1078.76 317.203L1072.45 311.453L1071.2 315.258L1087.01 343.063L1097.06 341.091L1098.84 337.119L1156.98 311.453L1158.59 305.37L1164.31 305.009L1165.92 300.898L1171.48 297.481L1172.17 288.51L1176.31 289.76L1177.59 286.704L1176.14 284.76L1182.42 275.621L1182.59 272.371L1159.45 252.622L1159.09 245.456L1134.7 261.955L1131.28 260.539L1130.76 251.733L1126.45 246.178L1123.2 252.456L1107.06 223.374L1120.15 219.624L1144.7 244.206L1153.84 243.65L1158.87 239.873L1163.87 242.373L1164.59 248.317L1222 254.039L1243.53 270.76L1245.86 270.566L1240.14 273.094L1252.14 285.843L1259.5 281.343L1259.86 276.149L1262.22 276.316L1294.17 373.923L1300.08 376.422L1305.8 368.367L1309.94 367.645L1313.89 370.145L1319.8 390.783L1325.19 385.95L1327.53 377.672L1313.53 363.534L1314.28 366.034L1313.53 366.951L1309.42 365.34L1313.75 321.564L1358.77 277.788L1359.14 280.482L1376.19 274.232L1376.52 272.066L1390 293.259L1393.94 292.704L1392.69 298.648L1400.58 306.703L1400.02 319.619L1407.38 322.147L1413.63 316.675ZM887.628 45.048L888.906 40.1871L900.905 43.6037L902.516 42.1593L900.017 40.7149L908.266 35.8817L911.322 28.8821L909.683 26.7155L912.21 20.2713L919.738 15.9382L921.349 -12.2273L948.237 -25.6711L948.959 -23.1712L930.849 -9.53294L933.71 9.13292L936.737 11.2717L968.68 7.68855L970.847 9.29957L964.764 14.6882L943.237 16.2993L942.515 18.8825L947.376 22.1046L947.737 28.7432L940.57 26.4099L931.932 36.4373L933.737 42.187L898.044 50.7978L895.517 49.7145L893.545 45.9646L881.712 50.4367V50.0756H881.684L887.628 45.048ZM1030.34 182.931L1023.07 202.041L991.04 211.18L949.598 198.541L949.042 196.93L939.098 200.402L929.96 217.624L910.599 210.902L905.489 204.985L885.545 198.264L878.018 169.459L871.046 166.515L790.549 183.209L784.911 178.626L786.244 175.431L811.798 164.932L813.937 159.293L817.715 157.654L816.381 153.071L824.159 140.96L835.186 135.572L836.797 126.156L844.88 123.739L854.046 126.711L867.768 117.295L873.962 118.628L910.016 153.877L902.489 162.765L888.767 162.237L902.239 170.598L906.266 167.904L907.6 163.071L915.683 157.432L915.405 155.543L917.849 153.627L914.044 147.182L918.932 145.044L924.016 148.016L924.849 144.766L908.961 136.433L908.433 133.739L888.517 112.74L893.628 106.018L931.015 143.405L929.96 147.432L947.181 170.848L953.264 171.487L955.014 165.459L960.375 161.432L952.292 150.96L953.375 145.821L959.042 148.516L964.653 143.405L979.485 170.32L991.874 175.153L998.596 171.654L1015.82 175.709L1023.07 172.209L1030.34 182.931ZM1057.23 135.572L1051.32 141.488L1017.43 133.128L995.374 140.655L976.263 131.766H979.235L978.708 124.517L981.374 122.878L983.263 115.073L986.513 113.739L987.318 109.712L994.318 101.879L1006.43 105.656L1002.12 109.684L1012.62 116.934L1014.23 114.239L1024.46 110.99L1016.93 107.49L1020.96 101.296L1036.84 97.5457L1026.87 109.684L1027.4 112.906L1057.23 135.572ZM1118.84 171.876L1102.7 157.626L1106.2 153.849L1107.01 147.682L1108.62 147.405L1088.7 125.35L1090.31 120.239L1085.48 119.156L1084.4 114.851L1107.26 98.7123L1115.04 102.212L1114.76 111.906L1109.4 110.823L1122.03 138.794L1130.15 139.072L1122.59 142.822L1121.78 146.321L1129.06 153.349L1133.37 169.737L1118.84 171.876Z" fill="url(#paint3_linear_2881_3)"/>
<path d="M731.324 -52.5586L738.352 -71.9467L750.712 -78.9186L747.49 -80.0297L748.546 -88.0849L756.101 -90.7792L750.712 -100.473L788.405 -116.611L758.795 -113.389L757.712 -117.139L578.498 -108.001L577.942 -104.223L542.943 -99.9177L540.805 -96.1401L577.414 -85.9183L584.942 -64.3915L596.802 -59.0306L583.858 -56.864L583.331 -50.9198L594.108 -53.0864L592.997 -49.3088L585.469 -47.6977L577.942 -38.5592L583.331 5.02219L609.191 10.4108L634.467 -20.81L731.324 -52.5586Z" fill="url(#paint4_linear_2881_3)"/>
<path d="M1728.64 470.614L1726.89 464.142L1681.67 443.337L1662.62 455.17L1649 437.587L1633.92 439.782L1647.56 451.587L1650.45 462.364L1677.36 469.53L1686.34 491.085L1709.64 498.585L1715 492.502L1731.17 494.668L1738.72 503.64L1754.86 508.307L1736.2 482.474L1742.64 480.669L1728.64 470.614Z" fill="url(#paint5_linear_2881_3)"/>
<path d="M1562.54 396.339L1546.41 385.923L1510.88 423.227L1500.82 421.088L1501.52 424.338L1499.05 430.421L1507.99 458.059L1543.93 461.058L1560.38 428.254L1553.93 417.144L1562.54 396.339Z" fill="url(#paint6_linear_2881_3)"/>
<path d="M1740.87 591.885L1716.84 535.193L1710.37 535.915L1705.34 510.805L1703.56 510.083L1687.04 559.248L1673.4 553.859L1662.62 531.971L1664.06 527.694L1669.81 522.999V520.138L1657.59 520.499L1640.01 510.805L1642.01 519.25L1632.12 521.194L1622.43 535.554L1623.51 538.054L1613.09 540.582L1609.51 534.138L1598.76 534.499L1597.32 541.999L1591.93 540.582L1587.26 548.47L1582.65 550.276L1580.1 555.637L1578.68 549.915L1573.29 554.942L1571.49 563.164L1518.77 592.246L1517.68 589.385L1513.71 593.691V602.663L1509.77 608.023L1511.93 616.273L1505.82 619.523L1503.68 674.771L1500.46 675.132L1509.41 684.492L1607.37 660.771L1621.73 673.354L1621.01 680.159L1625.32 682.326L1640.73 668.687L1632.84 679.437L1633.18 682.687L1637.54 679.076L1639.32 680.52L1627.82 692.381L1640.73 691.659L1638.59 696.658L1656.18 710.325L1667.68 705.63L1671.95 713.908L1685.23 703.492L1695.65 702.408L1751.98 613.801L1740.87 591.885Z" fill="url(#paint7_linear_2881_3)"/>
<path d="M1661.2 725.741L1655.45 721.436V720.353L1648.65 743.324L1655.81 744.407L1675.2 723.575L1661.2 725.741Z" fill="url(#paint8_linear_2881_3)"/>
<path d="M1855.7 704.935L1848.5 696.658L1850.31 684.075L1843.84 680.159L1837.75 710.324L1828.42 713.907L1832.72 722.157L1826.61 727.546L1814.78 723.935L1754.87 761.988L1764.2 767.016L1821.98 728.99L1826.98 730.379L1846.36 719.99L1848.5 713.518L1852.47 713.907L1865 699.908L1855.7 704.935Z" fill="url(#paint9_linear_2881_3)"/>
<path d="M1558.6 277.205L1560.74 252.095L1557.16 253.511L1553.21 269.288L1558.6 277.205Z" fill="url(#paint10_linear_2881_3)"/>
<path d="M1512.29 492.835L1600.2 493.918L1587.29 503.973L1586.93 508.612L1610.98 491.751L1524.12 487.474L1528.09 482.113L1507.29 477.78L1505.12 482.446L1478.93 476.363L1474.62 481.363L1512.29 492.835Z" fill="url(#paint11_linear_2881_3)"/>
<path d="M1500.49 291.566H1500.46L1496.52 290.844L1492.94 292.26L1491.13 291.566L1487.19 296.955L1489.33 303.038H1494.35L1498.33 300.177L1500.49 291.566Z" fill="url(#paint12_linear_2881_3)"/>
<path d="M1479.29 469.891L1481.43 451.947L1477.13 452.669L1464.24 438.309L1467.43 434.003L1412.91 394.172L1473.88 476.362L1479.29 469.891Z" fill="url(#paint13_linear_2881_3)"/>
<path d="M1120.84 521.916L1089.59 549.915L1082.45 612.357L1096.42 616.662L1105.36 609.496L1121.53 547.054L1126.56 544.526L1123.31 520.5L1120.84 521.916Z" fill="url(#paint14_linear_2881_3)"/>
<path d="M354.538 287.87L319.595 270.677L291.318 276.315L292.402 281.704L305.04 272.01L350.26 291.398L354.538 287.87Z" fill="url(#paint15_linear_2881_3)"/>
<path d="M765.6 62.076L764.711 65.5203L771.711 68.0202L787.321 63.326L789.488 50.2432L792.904 48.2711L791.793 43.2713L779.266 42.188L775.488 46.8267L777.127 47.1878L775.294 48.9932H773.183L771.35 47.91L768.683 48.2711L767.766 49.8821L768.877 52.4098L767.044 54.1875L771.35 56.5207L771.016 59.0484L768.655 60.1039L765.6 62.076Z" fill="url(#paint16_linear_2881_3)"/>
<path d="M1682.32 11.5225L1682.4 11.6889L1682.32 11.5225Z" fill="url(#paint17_linear_2881_3)"/>
<path d="M789.99 38.9378H790.017L794.323 41.6321L796.656 41.1043L795.045 43.6042L802.933 47.2152L804.572 49.7151L804.183 55.0759L800.045 55.4648L796.85 59.048H799.517L799.878 61.5479L793.073 64.2422L793.239 66.9365L801.156 67.8254L801.878 69.0753L789.656 77.325L791.962 78.4083L793.406 76.6028L827.155 71.9641L830.377 58.5202L823.238 58.1314L823.377 54.5482L810.655 32.8269L814.044 28.9104L806.35 26.0217L811.739 16.8832L811.183 15.1055L808.683 16.1332L806.35 19.5775L799.878 19.3831L791.267 27.6327L790.906 34.438L793.073 35.549L791.101 36.6045L789.99 38.9378Z" fill="url(#paint18_linear_2881_3)"/>
<path d="M589.444 472.752L558.195 452.309L534.53 451.198L530.586 453.364V444.781L512.642 437.226L506.531 442.615V435.782L497.226 430.06L498.309 422.504L493.976 418.921L490.032 404.227L444.811 384.089L441.589 376.59L429.757 370.84L429.423 366.923L418.368 358.646L407.869 358.09L406.258 361.313L373.148 346.535L363.204 358.368L363.732 367.007L359.149 362.118L362.398 357.563V351.119L366.426 348.424L364.815 344.924L342.205 354.591L337.372 365.923L301.568 370.479L288.124 356.229L293.235 325.814L285.152 319.87H260.125L276.263 281.149L254.736 283.566L250.181 297.038L227.293 303.204L221.655 298.899L221.405 299.982L210.877 276.039L220.044 239.429L248.848 220.596L259.875 222.208L262.542 224.902L269.291 223.791L276.013 217.069L292.957 216.541L298.068 222.208L305.595 219.263L312.067 226.235L310.178 235.124L317.456 252.373L320.956 253.706L322.567 215.486L369.12 174.598L368.565 164.349L372.898 163.571L377.176 154.405L381.481 154.933L389.842 144.433L412.452 137.989L415.146 135.045L411.924 132.35L418.646 122.379L452.839 110.268L442.312 116.99L444.478 122.101L472.727 112.435L475.699 107.851L483.227 106.49L481.615 103.268L482.171 98.9629L471.366 107.574L460.894 107.074L456.061 99.7684L464.922 84.9913L457.672 82.8247L431.284 94.6575L445.006 83.658L450.672 82.8247L457.144 76.9083L512.559 67.2143L513.67 68.5753L489.948 93.852L510.42 94.3798L511.753 98.1574L516.336 94.9353L518.753 101.102L526.836 94.9353L524.419 87.9356L526.586 81.4637L517.142 81.7414L516.058 68.0198L522.53 59.909L518.225 46.2152L503.142 35.1879L506.114 28.1882L502.087 6.91134L479.477 21.744L473.532 16.6054L474.088 9.88343L479.199 5.02253L470.838 2.35599L470.31 0.189415L462.255 -6.81028L459.811 -4.36594L442.062 -6.00476L423.618 20.9107L428.868 25.2161L424.812 34.8823L401.952 44.8541L397.647 62.6311L386.897 69.8808L382.12 58.3258L387.675 59.3813L388.508 55.6037L384.203 55.8814L390.119 42.9931L376.12 41.9098L372.926 38.1322L365.898 37.0489L365.343 34.0768L354.565 28.4382L348.121 29.2437L349.455 18.2164L343.01 17.1609L419.424 -27.5316L420.507 -26.9761L404.369 -14.0877L410.035 -13.2822L409.202 -10.0324L421.59 -16.2265L428.618 -12.1989L435.34 -12.4767L435.062 -17.5876L422.118 -27.5316L421.062 -30.2259L425.618 -29.6704L429.423 -26.4483L449.589 -37.2256L449.061 -40.7255L455.255 -46.6419L451.2 -50.9195L484.56 -45.2808L481.893 -42.8643L470.838 -41.5032L468.144 -36.1423L476.227 -35.059L482.421 -41.5032L489.143 -42.0587L490.226 -35.6146L475.949 -28.6149L475.699 -23.754L457.394 -24.0318L451.728 -19.4486L456.311 -15.421L474.866 -14.8655L478.671 -7.58802L499.67 -5.17146L493.976 -11.9212L508.253 -5.17146L510.392 -11.1156L515.253 -14.06L507.725 -24.0318L507.975 -28.0594L524.391 -21.3374L526.836 -25.365L540.28 -30.7537L526.558 -41.0032L522.78 -39.9199L519.308 -43.9476L524.697 -52.2805L520.364 -56.5859L513.642 -57.9469L512.003 -61.4468L481.338 -72.4741L478.643 -71.6686L475.171 -74.3629L453.894 -65.1966L454.172 -74.3629L430.201 -60.6413L430.479 -54.1693L443.117 -52.0305L419.451 -34.8091L418.368 -39.1144L423.757 -42.3365L415.674 -47.9752L414.341 -63.0578L442.867 -75.6962L420.507 -74.8906L394.425 -54.4193L393.869 -48.2529L383.675 -50.1417L372.926 -45.8364V-39.9199L326.067 -41.781L325.539 -38.0311L294.04 -38.3089L303.734 -42.6143L266.597 -49.0584L265.542 -53.086L256.903 -49.5862L254.486 -55.2526L132.325 -59.0302L132.853 -60.4468L133.103 -60.6135L62.356 -42.892L65.0225 -31.0592L54.523 -29.9759L57.2173 -33.7258L29.7463 -26.1983L30.3018 -23.254L28.413 -19.7542L44.3012 -18.1431L46.19 -12.7545L3.10857 -0.088356L-2.25231 12.55L7.16394 10.9389L1.7753 18.2164L15.7747 19.0219L-55 48.8817L56.1063 10.4112L55.6063 15.7998L117.215 13.3555L122.603 21.4385L120.992 45.1319L130.686 44.0486L129.325 72.8529L121.798 71.2419L121.52 78.2138L131.242 87.9078L95.1601 145.239L98.6599 186.154L112.937 198.514L119.381 230.54L114.02 234.318L120.187 242.901L122.631 243.207L127.492 248.845L125.575 256.373L136.353 271.705L140.936 267.15L122.076 219.235L123.964 208.208L131.77 209.819L145.241 242.901L143.63 250.179L163.268 273.594L162.99 283.01L160.018 287.594L161.629 294.066L178.073 306.148L180.74 305.621L212.238 321.509L222.738 318.287L290.846 376.423L293.263 374.812L305.068 382.617L309.651 379.895L308.345 374.812L312.623 370.507H316.4L320.428 373.729L320.15 377.479L325.011 385.284L325.261 407.088L315.039 418.143L314.789 424.588L308.595 427.004L303.207 449.614L308.595 454.447L300.234 464.697L375.592 566.054L393.869 740.796L398.536 740.463L395.675 732.574L399.258 732.935L402.119 750.49L399.258 747.962L394.953 752.657L398.536 755.879L396.036 767.35L401.063 768.073L404.647 770.934L401.063 777.044L441.951 820.82L466.005 826.903L476.393 819.376L447.339 799.988L444.811 792.822L448.756 789.961L453.783 773.1L442.312 763.767L443.006 755.49L447.339 753.018L449.117 740.435L453.061 735.768L445.2 734.713L441.589 728.991V724.658L453.45 725.352L456.672 720.714L457.033 710.658L476.755 707.797L477.838 688.409L471.366 677.993L467.783 678.715L471.033 675.493L488.948 682.687L505.475 649.994H510.836L518.725 629.912L516.947 618.051L556.807 592.941L589.444 472.752Z" fill="url(#paint19_linear_2881_3)"/>
<path d="M354.04 305.898L387.649 298.371L380.372 292.705L361.817 293.26L361.012 301.065H352.123L351.873 301.871L354.04 305.898Z" fill="url(#paint20_linear_2881_3)"/>
<path d="M1630 420.5C1631.2 402.5 1672.83 284.333 1693.5 227.5L1920.5 216.5L1932 405.5L1976 800.5L1774.5 819L1404.5 766.5C1405.67 697 1408 554.4 1408 540C1408 522 1465.5 518 1497.5 529.5C1529.5 541 1611.5 520 1626.5 510C1641.5 500 1643 488 1635.5 478C1628 468 1628.5 443 1630 420.5Z" fill="white"/>
</g>
</g>
<defs>
<linearGradient id="paint0_linear_2881_3" x1="1583" y1="421.087" x2="1583" y2="475.64" gradientUnits="userSpaceOnUse">
<stop stop-color="#63AB45"/>
<stop offset="1" stop-color="#63AB45" stop-opacity="0"/>
</linearGradient>
<linearGradient id="paint1_linear_2881_3" x1="1583.52" y1="298.398" x2="1583.52" y2="395.255" gradientUnits="userSpaceOnUse">
<stop stop-color="#63AB45"/>
<stop offset="1" stop-color="#63AB45" stop-opacity="0"/>
</linearGradient>
<linearGradient id="paint2_linear_2881_3" x1="1544.26" y1="460.53" x2="1544.26" y2="461.058" gradientUnits="userSpaceOnUse">
<stop stop-color="#63AB45"/>
<stop offset="1" stop-color="#63AB45" stop-opacity="0"/>
</linearGradient>
<linearGradient id="paint3_linear_2881_3" x1="1216.93" y1="-87.5851" x2="1216.93" y2="682.52" gradientUnits="userSpaceOnUse">
<stop stop-color="#63AB45"/>
<stop offset="1" stop-color="#63AB45" stop-opacity="0"/>
</linearGradient>
<linearGradient id="paint4_linear_2881_3" x1="664.605" y1="-117.139" x2="664.605" y2="10.4108" gradientUnits="userSpaceOnUse">
<stop stop-color="#63AB45"/>
<stop offset="1" stop-color="#63AB45" stop-opacity="0"/>
</linearGradient>
<linearGradient id="paint5_linear_2881_3" x1="1694.39" y1="437.587" x2="1694.39" y2="508.307" gradientUnits="userSpaceOnUse">
<stop stop-color="#63AB45"/>
<stop offset="1" stop-color="#63AB45" stop-opacity="0"/>
</linearGradient>
<linearGradient id="paint6_linear_2881_3" x1="1530.8" y1="385.923" x2="1530.8" y2="461.058" gradientUnits="userSpaceOnUse">
<stop stop-color="#63AB45"/>
<stop offset="1" stop-color="#63AB45" stop-opacity="0"/>
</linearGradient>
<linearGradient id="paint7_linear_2881_3" x1="1626.22" y1="510.083" x2="1626.22" y2="713.908" gradientUnits="userSpaceOnUse">
<stop stop-color="#63AB45"/>
<stop offset="1" stop-color="#63AB45" stop-opacity="0"/>
</linearGradient>
<linearGradient id="paint8_linear_2881_3" x1="1661.93" y1="720.353" x2="1661.93" y2="744.407" gradientUnits="userSpaceOnUse">
<stop stop-color="#63AB45"/>
<stop offset="1" stop-color="#63AB45" stop-opacity="0"/>
</linearGradient>
<linearGradient id="paint9_linear_2881_3" x1="1809.93" y1="680.159" x2="1809.93" y2="767.016" gradientUnits="userSpaceOnUse">
<stop stop-color="#63AB45"/>
<stop offset="1" stop-color="#63AB45" stop-opacity="0"/>
</linearGradient>
<linearGradient id="paint10_linear_2881_3" x1="1556.97" y1="252.095" x2="1556.97" y2="277.205" gradientUnits="userSpaceOnUse">
<stop stop-color="#63AB45"/>
<stop offset="1" stop-color="#63AB45" stop-opacity="0"/>
</linearGradient>
<linearGradient id="paint11_linear_2881_3" x1="1542.8" y1="476.363" x2="1542.8" y2="508.612" gradientUnits="userSpaceOnUse">
<stop stop-color="#63AB45"/>
<stop offset="1" stop-color="#63AB45" stop-opacity="0"/>
</linearGradient>
<linearGradient id="paint12_linear_2881_3" x1="1493.84" y1="290.844" x2="1493.84" y2="303.038" gradientUnits="userSpaceOnUse">
<stop stop-color="#63AB45"/>
<stop offset="1" stop-color="#63AB45" stop-opacity="0"/>
</linearGradient>
<linearGradient id="paint13_linear_2881_3" x1="1447.17" y1="394.172" x2="1447.17" y2="476.362" gradientUnits="userSpaceOnUse">
<stop stop-color="#63AB45"/>
<stop offset="1" stop-color="#63AB45" stop-opacity="0"/>
</linearGradient>
<linearGradient id="paint14_linear_2881_3" x1="1104.5" y1="520.5" x2="1104.5" y2="616.662" gradientUnits="userSpaceOnUse">
<stop stop-color="#63AB45"/>
<stop offset="1" stop-color="#63AB45" stop-opacity="0"/>
</linearGradient>
<linearGradient id="paint15_linear_2881_3" x1="322.928" y1="270.677" x2="322.928" y2="291.398" gradientUnits="userSpaceOnUse">
<stop stop-color="#63AB45"/>
<stop offset="1" stop-color="#63AB45" stop-opacity="0"/>
</linearGradient>
<linearGradient id="paint16_linear_2881_3" x1="778.808" y1="42.188" x2="778.808" y2="68.0202" gradientUnits="userSpaceOnUse">
<stop stop-color="#63AB45"/>
<stop offset="1" stop-color="#63AB45" stop-opacity="0"/>
</linearGradient>
<linearGradient id="paint17_linear_2881_3" x1="1682.36" y1="11.5225" x2="1682.36" y2="11.6889" gradientUnits="userSpaceOnUse">
<stop stop-color="#63AB45"/>
<stop offset="1" stop-color="#63AB45" stop-opacity="0"/>
</linearGradient>
<linearGradient id="paint18_linear_2881_3" x1="810.016" y1="15.1055" x2="810.016" y2="78.4083" gradientUnits="userSpaceOnUse">
<stop stop-color="#63AB45"/>
<stop offset="1" stop-color="#63AB45" stop-opacity="0"/>
</linearGradient>
<linearGradient id="paint19_linear_2881_3" x1="267.222" y1="-75.6962" x2="267.222" y2="826.903" gradientUnits="userSpaceOnUse">
<stop stop-color="#63AB45"/>
<stop offset="1" stop-color="#63AB45" stop-opacity="0"/>
</linearGradient>
<linearGradient id="paint20_linear_2881_3" x1="369.761" y1="292.705" x2="369.761" y2="305.898" gradientUnits="userSpaceOnUse">
<stop stop-color="#63AB45"/>
<stop offset="1" stop-color="#63AB45" stop-opacity="0"/>
</linearGradient>
</defs>
</svg>
