<svg width="1720" height="806" viewBox="0 0 1720 806" fill="none" xmlns="http://www.w3.org/2000/svg">
<mask id="mask0_2881_5" style="mask-type:alpha" maskUnits="userSpaceOnUse" x="0" y="0" width="1720" height="806">
<rect width="1720" height="806" fill="#D9D9D9"/>
</mask>
<g mask="url(#mask0_2881_5)">
<g opacity="0.05">
<path d="M1060.36 27.124L1060.64 27.0063L1060.36 27.124Z" fill="url(#paint0_linear_2881_5)"/>
<path d="M1383.52 457.105L1391.73 460.775L1401.16 457.411L1402.97 453.483L1401.75 450.73L1394.18 455.294L1376.84 453.153L1371.38 496.93L1376.84 495.401L1377.45 478.088L1382.32 481.734L1387.8 494.484L1391.35 492.531L1391.42 492.672L1391.38 492.531L1384.44 472.913L1391.42 467.15L1379.59 468.961L1376.23 464.115L1377.17 458.023L1383.52 457.105Z" fill="url(#paint1_linear_2881_5)"/>
<path d="M1408.13 419.421L1399.02 386.935L1378.06 370.516L1380.18 357.155L1375.01 346.828L1371.05 348.334L1369.55 361.718L1367.12 363.835L1368.94 372.045L1372.89 374.774L1371.99 379.314L1375.95 384.818L1378.06 385.406L1378.98 378.702L1394.48 391.169L1390.2 393.004L1383.83 389.664L1384.13 399.073L1387.17 399.967L1388.08 404.248L1392.34 405.142L1396.29 403.025L1392.65 395.427L1396.29 393.004L1400.53 406.083L1396.39 409.4L1394.15 409.118L1386.27 413.046L1385.33 420.973L1391.42 415.775L1393.87 415.492L1395.38 416.998L1395.96 422.197L1402.97 428.854L1404.79 420.338L1408.13 419.421Z" fill="url(#paint2_linear_2881_5)"/>
<path d="M1354.09 484.581L1354.66 484.134L1354.09 484.581Z" fill="url(#paint3_linear_2881_5)"/>
<path d="M1243.75 362.307L1248.45 358.637L1258.64 396.486L1256.49 397.239L1257.41 415.163L1261.22 413.94L1271.08 431.559L1270.04 434.429L1292.06 457.552L1262.31 395.992L1265.5 381.431L1267.93 379.737L1269.9 382.466L1269.62 386.888L1275.08 385.806L1286.49 399.92L1289.22 399.003L1292.72 401.449L1292.11 410.106L1314.46 390.958L1312.48 372.727L1293.33 350.545L1291.47 340.383L1303.8 330.644L1309.42 331.562L1310.48 338.242L1312.48 339.301L1320.69 329.727L1324.92 331.256L1344.21 321.682L1363.2 276.259L1356.21 278.54L1355.29 270.801L1356.8 267.626L1337.53 249.23L1347.41 236.457L1350.75 236.763L1338.92 232.529L1331.18 235.869L1330.71 232.364L1321.89 228.718L1322.05 225.519L1335.56 214.275L1338.61 216.862L1336.78 221.097L1337.86 227.354L1351.22 220.955L1356.4 222.626L1357.32 231.753L1368.09 237.375L1372.96 247.419L1371.59 251.512L1374.93 254.711L1383.59 251.371L1383.29 234.646L1366.7 222.673L1373.69 215.851L1373.08 209.923L1379.45 201.102L1384.3 204.466L1391.59 199.902L1395.85 166.029L1380.96 140.341L1366.35 135.637L1363.62 140.177L1356.8 129.709L1354.66 133.496L1346.75 131.214L1357.24 107.668L1394.01 106.021L1395.09 108.914L1411.02 107.221L1405.7 95.6707L1415.89 92.1892L1424.55 100.375L1430.12 94.0946L1427.01 90.3544L1430.94 88.9665L1435.34 97.0115L1429.11 120.558L1462.25 154.149L1464.06 153.702L1464.98 146.551L1462.25 143.846L1466.96 141.988L1462.39 136.225L1463.9 133.049L1467.4 134.108L1460.25 124.228L1463.01 125.286L1450.23 113.595L1447.17 114.042L1445.5 110.726L1446.42 108.138L1443.25 103.739L1450.33 101.293L1453.55 102.187L1455.22 104.633L1458.42 101.599L1471.29 103.88L1471.47 99.599L1478.95 91.0836L1493.84 89.7428L1476.08 80.31L1476.23 77.7224L1479.28 74.5468L1477.61 71.9592L1511.63 79.5337L1511.18 71.7946L1403 48.3889L1411.37 55.3753L1363.5 51.4234L1359.27 46.8364L1267.81 37.286L1274.61 42.4611L1247.89 39.8735L1248.05 46.1072L1205.05 30.77L1200.51 35.1689L1187.6 34.7219L1185.29 32.299L1168.28 32.4402L1161.74 27.712L1156.9 28.7941L1153.25 32.746L1142.92 33.4987L1157.98 24.6775L1154.64 19.9493L1060.71 26.9593L1065.3 30.7465L1045.21 32.252L1058.76 40.6027L1037.63 37.5682L1035.66 40.1558L1038.27 43.0492L1038.41 45.3309L1024.44 34.2279L1037.63 56.2457L1040.98 53.9639L1040.55 55.7752L1039.78 56.081L1039.02 67.4898L1034.76 68.4072L1030.81 67.0429L1035.38 63.5614L1035.99 58.8333L1022.16 43.0492L1021.4 35.8981L1011.5 32.252L1008.18 33.7575L1006.07 39.3795L1006.68 41.6613L1002.42 44.5546L1015.92 59.8918L975.957 47.2833L972.758 48.9535L980.356 57.7747L931.521 66.3136L928.181 63.9143L931.968 60.8798L927.711 56.7867L917.572 56.8103L921.947 65.3022L924.817 66.643L924.347 69.2305L908.257 73.4882L910.374 76.3581L907.786 77.8871L899.295 74.9937L895.178 76.2169L896.684 78.8045L901.859 80.0277L889.274 77.7459L882.593 68.172L911.315 66.8076L912.679 63.7496L911.762 61.1621L865.421 51.1412L868.479 47.3304L801.32 58.4334L807.695 59.045L788.406 84.5677L774.269 85.3204L768.2 91.1071L768.482 110.561L772.74 113.431L792.029 107.526L797.18 117.994L796.569 125.286L789.582 127.121L791.558 124.087L789.276 119.359L789.747 116.018L782.619 117.994L781.561 133.661L782.784 135.637L780.502 138.53L763.024 142.623L761.66 149.774L739.337 164.335L731.739 160.689L733.244 168.898L721.083 166.923L718.048 170.733L730.21 177.72L734.467 187.129L729.151 199.596L704.24 198.067L703.158 196.868H700.429L698.147 199.432L694.807 199.596L693.913 233.917L704.71 237.586L706.992 242.432L708.356 243.35L708.803 244.573L690.714 262.944L686.903 280.116L675.518 290.914L669.449 292.278L658.652 306.721V311.873L646.796 329.633L649.831 341.347L647.714 343.464L646.349 368.705L642.703 371.575L642.844 373.41L646.043 375.974L647.878 390.582L693.749 435.393L719.883 430.853L724.117 432.829L754.674 422.949L760.46 425.208L766.835 436.146L780.832 435.087L787.042 440.874L781.725 467.173L805.437 512.126L803.014 515.466L829.595 653.736L827.337 659.664L831.571 669.402L836.417 672.131L874.266 665.145L902.988 634.588L905.716 618.804L919.242 608.313L918.936 580.649L949.187 556.373L945.071 487.215L1006.47 389.358L970.617 398.156L964.548 391.781L965.465 387.218L909.551 292.701L915.784 292.09L960.149 362.754L954.809 357.884L953.751 361.107L967.136 384.654L975.651 382.984L977.156 379.62L1026.39 357.884L1027.76 352.733L1032.6 352.427L1033.97 348.945L1038.67 346.052L1039.26 338.454L1042.76 339.513L1043.84 336.925L1042.62 335.278L1047.94 327.539L1048.08 324.787L1028.48 308.062L1028.18 301.993L1007.53 315.966L1004.63 314.766L1004.18 307.309L1000.54 302.605L997.786 307.921L984.119 283.292L995.199 280.116L1015.99 300.934L1023.73 300.464L1027.99 297.265L1032.22 299.382L1032.84 304.416L1081.46 309.262L1099.69 323.423L1101.66 323.258L1096.82 325.399L1106.98 336.196L1113.21 332.385L1113.52 327.986L1115.52 328.127L1142.57 410.788L1147.58 412.905L1152.43 406.083L1155.93 405.472L1159.27 407.589L1164.28 425.067L1168.85 420.974L1170.82 413.964L1158.97 401.99L1159.6 404.107L1158.97 404.884L1155.49 403.519L1159.16 366.447L1197.29 329.374L1197.59 331.656L1212.04 326.363L1212.32 324.528L1223.73 342.477L1227.07 342.006L1226.01 347.04L1232.69 353.862L1232.22 364.8L1238.45 366.941L1243.75 362.307ZM798.286 132.273L799.368 128.156L809.53 131.05L810.894 129.826L808.777 128.603L815.764 124.51L818.351 118.582L816.963 116.747L819.104 111.29L825.479 107.62L826.843 83.7679L849.614 72.3826L850.225 74.4997L834.888 86.0496L837.311 101.857L839.875 103.669L866.927 100.634L868.761 101.998L863.61 106.562L845.379 107.926L844.768 110.114L848.884 112.843L849.19 118.465L843.121 116.489L835.805 124.981L837.334 129.85L807.107 137.142L804.966 136.225L803.296 133.049L793.275 136.836V136.531H793.252L798.286 132.273ZM919.148 249.042L912.985 265.226L885.863 272.965L850.766 262.262L850.296 260.898L841.874 263.838L834.135 278.423L817.74 272.73L813.411 267.72L796.522 262.027L790.147 237.633L784.242 235.14L716.072 249.277L711.297 245.396L712.426 242.691L734.067 233.799L735.879 229.024L739.078 227.636L737.949 223.755L744.535 213.499L753.874 208.935L755.238 200.961L762.084 198.914L769.846 201.431L781.467 193.457L786.712 194.586L817.246 224.437L810.871 231.964L799.25 231.517L810.659 238.598L814.07 236.316L815.199 232.223L822.044 227.448L821.809 225.848L823.879 224.225L820.656 218.768L824.797 216.956L829.101 219.473L829.807 216.721L816.352 209.664L815.905 207.383L799.039 189.599L803.367 183.906L835.029 215.569L834.135 218.979L848.72 238.81L853.871 239.351L855.353 234.246L859.893 230.835L853.048 221.967L853.965 217.615L858.764 219.897L863.516 215.569L876.077 238.363L886.569 242.456L892.261 239.492L906.846 242.926L912.985 239.962L919.148 249.042ZM941.919 208.935L936.908 213.946L908.21 206.865L889.532 213.24L873.348 205.712H875.865L875.419 199.573L877.677 198.185L879.276 191.575L882.029 190.446L882.711 187.035L888.639 180.401L898.895 183.601L895.249 187.011L904.14 193.151L905.505 190.869L914.161 188.117L907.786 185.153L911.197 179.907L924.653 176.732L916.208 187.011L916.655 189.74L941.919 208.935ZM994.093 239.68L980.426 227.613L983.39 224.413L984.072 219.191L985.437 218.956L968.571 200.279L969.935 195.95L965.842 195.033L964.924 191.387L984.284 177.72L990.871 180.684L990.635 188.893L986.095 187.976L996.798 211.664L1003.67 211.899L997.269 215.075L996.587 218.039L1002.75 223.99L1006.4 237.869L994.093 239.68Z" fill="url(#paint4_linear_2881_5)"/>
<path d="M675.07 82.8747L687.82 78.7816L690.548 73.7712L685.538 69.6782L662.297 72.4069L655.452 68.2903L647.266 72.8538L656.816 74.6886V78.7816L663.191 84.2626L675.07 82.8747Z" fill="url(#paint5_linear_2881_5)"/>
<path d="M665.92 49.6123L671.872 33.1931L682.339 27.2888L679.611 26.3478L680.505 19.5261L686.903 17.2443L682.339 9.03472L714.26 -4.63228L689.185 -1.90359L688.267 -5.07922L536.495 2.65992L536.025 5.85908L506.386 9.50519L504.574 12.7043L535.578 21.3609L541.953 39.5914L551.997 44.1314L541.035 45.9662L540.588 51.0002L549.715 49.1654L548.774 52.3645L542.4 53.7289L536.025 61.468L540.588 98.376L562.488 102.939L583.895 76.4994L665.92 49.6123Z" fill="url(#paint6_linear_2881_5)"/>
<path d="M1510.52 492.673L1509.04 487.192L1470.74 469.573L1454.6 479.594L1443.08 464.704L1430.3 466.562L1441.85 476.56L1444.3 485.687L1467.1 491.756L1474.69 510.01L1494.43 516.361L1498.97 511.209L1512.66 513.044L1519.06 520.642L1532.72 524.594L1516.92 502.717L1522.37 501.188L1510.52 492.673Z" fill="url(#paint7_linear_2881_5)"/>
<path d="M1369.85 429.772L1356.19 420.951L1326.1 452.542L1317.58 450.731L1318.17 453.483L1316.08 458.635L1323.65 482.041L1354.09 484.581L1368.02 456.8L1362.56 447.391L1369.85 429.772Z" fill="url(#paint8_linear_2881_5)"/>
<path d="M1520.87 595.375L1500.52 547.364L1495.04 547.975L1490.78 526.71L1489.28 526.099L1475.28 567.735L1463.73 563.171L1454.61 544.635L1455.83 541.012L1460.7 537.037V534.614L1450.35 534.92L1435.46 526.71L1437.15 533.861L1428.78 535.508L1420.57 547.669L1421.49 549.787L1412.66 551.927L1409.63 546.47L1400.53 546.776L1399.3 553.127L1394.74 551.927L1390.79 558.608L1386.88 560.137L1384.72 564.677L1383.52 559.831L1378.96 564.089L1377.43 571.052L1332.78 595.68L1331.86 593.257L1328.5 596.904V604.502L1325.16 609.042L1326.99 616.028L1321.82 618.78L1320.01 665.568L1317.28 665.874L1324.85 673.801L1407.82 653.712L1419.98 664.368L1419.37 670.131L1423.01 671.966L1436.07 660.416L1429.39 669.52L1429.67 672.272L1433.36 669.214L1434.87 670.437L1425.13 680.482L1436.07 679.87L1434.26 684.104L1449.15 695.678L1458.89 691.702L1462.51 698.712L1473.75 689.891L1482.58 688.974L1530.28 613.934L1520.87 595.375Z" fill="url(#paint9_linear_2881_5)"/>
<path d="M1453.41 708.734L1448.54 705.088V704.17L1442.77 723.624L1448.84 724.542L1465.26 706.899L1453.41 708.734Z" fill="url(#paint10_linear_2881_5)"/>
<path d="M1618.12 691.114L1612.03 684.104L1613.56 673.448L1608.08 670.132L1602.92 695.678L1595.02 698.712L1598.67 705.699L1593.49 710.262L1583.47 707.204L1532.73 739.431L1540.63 743.689L1589.56 711.485L1593.8 712.662L1610.22 703.864L1612.03 698.383L1615.39 698.712L1626 686.857L1618.12 691.114Z" fill="url(#paint11_linear_2881_5)"/>
<path d="M1366.51 328.88L1368.32 307.615L1365.29 308.815L1361.95 322.176L1366.51 328.88Z" fill="url(#paint12_linear_2881_5)"/>
<path d="M1327.3 511.491L1401.75 512.409L1390.81 520.924L1390.51 524.852L1410.88 510.574L1337.32 506.951L1340.68 502.411L1323.07 498.742L1321.23 502.694L1299.05 497.542L1295.4 501.776L1327.3 511.491Z" fill="url(#paint13_linear_2881_5)"/>
<path d="M1317.3 341.042H1317.28L1313.94 340.431L1310.9 341.63L1309.38 341.042L1306.04 345.606L1307.85 350.757H1312.1L1315.47 348.334L1317.3 341.042Z" fill="url(#paint14_linear_2881_5)"/>
<path d="M1299.35 492.061L1301.16 476.865L1297.52 477.476L1286.6 465.315L1289.31 461.669L1243.13 427.937L1294.77 497.542L1299.35 492.061Z" fill="url(#paint15_linear_2881_5)"/>
<path d="M995.783 536.12L969.319 559.831L963.273 612.712L975.106 616.358L982.68 610.289L996.371 557.408L1000.63 555.268L997.876 534.92L995.783 536.12Z" fill="url(#paint16_linear_2881_5)"/>
<path d="M423.586 14.0687L428.737 13.4571L428.432 6.14136L419.328 7.36457L423.586 14.0687Z" fill="url(#paint17_linear_2881_5)"/>
<path d="M398.062 9.81182L412.012 13.1521L416.293 9.50602L398.956 6.448L398.062 9.81182Z" fill="url(#paint18_linear_2881_5)"/>
<path d="M346.826 337.913L317.234 323.352L293.287 328.127L294.205 332.691L304.908 324.481L343.203 340.9L346.826 337.913Z" fill="url(#paint19_linear_2881_5)"/>
<path d="M694.944 146.693L694.191 149.61L700.119 151.727L713.339 147.752L715.174 136.672L718.068 135.002L717.127 130.768L706.518 129.851L703.318 133.779L704.706 134.085L703.154 135.614H701.366L699.813 134.696L697.555 135.002L696.779 136.367L697.72 138.507L696.167 140.013L699.813 141.989L699.531 144.129L697.532 145.023L694.944 146.693Z" fill="url(#paint20_linear_2881_5)"/>
<path d="M1471.29 103.881L1471.36 104.022L1471.29 103.881Z" fill="url(#paint21_linear_2881_5)"/>
<path d="M715.599 127.098H715.622L719.268 129.38L721.244 128.933L719.88 131.05L726.561 134.108L727.948 136.225L727.619 140.765L724.114 141.094L721.409 144.129H723.667L723.973 146.246L718.21 148.528L718.351 150.81L725.055 151.562L725.667 152.621L715.316 159.607L717.269 160.525L718.492 158.996L747.073 155.067L749.801 143.682L743.756 143.353L743.874 140.318L733.1 121.923L735.97 118.606L729.454 116.16L734.017 108.421L733.547 106.915L731.43 107.786L729.454 110.702L723.973 110.538L716.681 117.524L716.375 123.287L718.21 124.228L716.54 125.122L715.599 127.098Z" fill="url(#paint22_linear_2881_5)"/>
<path d="M917.383 56.7629L917.571 56.7865L917.383 56.7629Z" fill="url(#paint23_linear_2881_5)"/>
<path d="M393.494 24.7014L416.288 27.1243L420.828 20.7495L425.086 23.1724L423.251 25.5952L461.853 26.8185L443.951 21.6433L448.186 17.715L468.251 18.6324L470.368 15.2921L473.426 18.0208L549.688 -7.50195L436.636 0.684134L435.436 9.19955L443.928 12.8456L449.103 12.234L406.244 23.1959L404.103 17.4092L393.494 24.7014Z" fill="url(#paint24_linear_2881_5)"/>
<path d="M545.763 494.484L519.299 477.171L499.257 476.23L495.917 478.065V470.796L480.721 464.398L475.546 468.962V463.175L467.665 458.329L468.583 451.931L464.913 448.896L461.573 436.452L423.277 419.398L420.548 413.047L410.528 408.177L410.245 404.861L400.883 397.851L391.991 397.38L390.627 400.109L362.587 387.595L354.166 397.616L354.613 404.931L350.731 400.791L353.484 396.933V391.476L356.895 389.194L355.53 386.23L336.382 394.416L332.289 404.014L301.968 407.872L290.583 395.804L294.911 370.046L288.066 365.012H266.871L280.538 332.221L262.308 334.267L258.45 345.676L239.067 350.898L234.291 347.252L234.08 348.17L225.164 327.893L232.927 296.889L257.321 280.94L266.659 282.305L268.918 284.586L274.634 283.645L280.326 277.953L294.676 277.506L299.004 282.305L305.379 279.811L310.86 285.715L309.26 293.243L315.423 307.851L318.387 308.98L319.751 276.612L359.176 241.986L358.706 233.306L362.375 232.647L365.998 224.884L369.644 225.331L376.725 216.44L395.873 210.982L398.154 208.489L395.426 206.207L401.118 197.762L430.075 187.506L421.16 193.199L422.995 197.527L446.918 189.341L449.435 185.459L455.81 184.307L454.445 181.578L454.916 177.932L445.765 185.224L436.897 184.801L432.804 178.614L440.308 166.1L434.168 164.265L411.821 174.286L423.442 164.971L428.241 164.265L433.721 159.255L480.65 151.045L481.591 152.198L461.502 173.604L478.839 174.051L479.968 177.25L483.849 174.521L485.896 179.743L492.741 174.521L490.695 168.593L492.53 163.112L484.532 163.348L483.614 151.727L489.095 144.858L485.449 133.261L472.676 123.923L475.193 117.995L471.782 99.9759L452.634 112.537L447.6 108.186L448.071 102.493L452.399 98.3764L445.318 96.1181L444.871 94.2833L438.05 88.3555L435.98 90.4255L420.948 89.0376L405.329 111.832L409.775 115.478L406.34 123.664L386.981 132.109L383.335 147.164L374.231 153.303L370.185 143.517L374.89 144.411L375.596 141.212L371.949 141.447L376.96 130.533L365.104 129.615L362.399 126.416L356.448 125.499L355.977 122.982L346.85 118.206L341.393 118.889L342.522 109.55L337.064 108.656L401.777 70.8071L402.694 71.2776L389.027 82.1924L393.826 82.8745L393.12 85.6268L403.612 80.3811L409.563 83.792L415.256 83.5567L415.02 79.2284L404.059 70.8071L403.165 68.5254L407.023 68.9958L410.245 71.7245L427.323 62.5975L426.876 59.6336L432.122 54.6231L428.688 51.0006L456.939 55.7758L454.681 57.8223L445.318 58.9749L443.037 63.5149L449.882 64.4323L455.128 58.9749L460.82 58.5045L461.738 63.9619L449.647 69.8897L449.435 74.0063L433.933 73.771L429.134 77.6524L433.016 81.0633L448.729 81.5337L451.952 87.6968L469.736 89.7433L464.913 84.0272L477.004 89.7433L478.816 84.7094L482.932 82.2159L476.557 73.771L476.769 70.3602L490.671 76.0528L492.741 72.6419L504.126 68.0784L492.506 59.3984L489.307 60.3158L486.366 56.9049L490.93 49.8479L487.26 46.2018L481.568 45.0492L480.18 42.0852L454.21 32.7465L451.928 33.4287L448.988 31.1469L430.969 38.9096L431.204 31.1469L410.904 42.7674L411.139 48.2483L421.842 50.0596L401.8 64.644L400.883 60.9979L405.447 58.2692L398.601 53.494L397.472 40.7209L421.631 30.0178L402.694 30.7L380.606 48.0366L380.136 53.2588L371.502 51.6592L362.399 55.3053V60.3158L322.715 58.7397L322.268 61.9153L295.593 61.6801L303.803 58.034L272.352 52.5766L271.458 49.1657L264.142 52.1297L262.096 47.3309L158.641 44.1318L159.088 42.9321L159.299 42.7909L99.3857 57.7988L101.644 67.8197L92.7521 68.7371L95.0339 65.5614L71.7694 71.9362L72.2399 74.4297L70.6403 77.3936L84.0956 78.758L85.6952 83.3215L49.2106 94.0481L44.6706 104.751L52.645 103.387L48.0815 109.55L59.9372 110.232L0 135.52L94.0929 102.94L93.6695 107.503L145.844 105.433L150.408 112.279L149.043 132.344L157.253 131.427L156.1 155.82L149.725 154.456L149.49 160.36L157.723 168.57L127.167 217.122L130.131 251.771L142.221 262.239L147.679 289.362L143.139 292.561L148.361 299.829L150.431 300.088L154.548 304.863L152.925 311.238L162.052 324.223L165.933 320.365L149.961 279.788L151.56 270.449L158.17 271.813L169.579 299.829L168.215 305.993L184.846 325.823L184.61 333.797L182.093 337.678L183.458 343.159L197.383 353.392L199.642 352.945L226.317 366.4L235.209 363.671L292.888 412.906L294.934 411.541L304.932 418.151L308.813 415.846L307.707 411.541L311.33 407.895H314.529L317.94 410.624L317.705 413.8L321.821 420.41L322.033 438.875L313.377 448.238L313.165 453.695L307.919 455.741L303.356 474.889L307.919 478.982L300.839 487.663L364.657 573.499L380.136 721.484L384.087 721.201L381.665 714.521L384.699 714.826L387.122 729.693L384.699 727.553L381.053 731.528L384.087 734.257L381.97 743.972L386.228 744.583L389.263 747.006L386.228 752.181L420.854 789.254L441.225 794.406L450.023 788.031L425.418 771.612L423.277 765.543L426.617 763.12L430.875 748.841L421.16 740.937L421.748 733.927L425.418 731.834L426.923 721.178L430.264 717.226L423.606 716.332L420.548 711.486V707.816L430.593 708.405L433.322 704.476L433.627 695.961L450.329 693.538L451.246 677.119L445.765 668.297L442.731 668.909L445.483 666.18L460.656 672.273L474.652 644.586H479.192L485.872 627.579L484.367 617.534L518.123 596.269L545.763 494.484Z" fill="url(#paint25_linear_2881_5)"/>
<path d="M346.405 353.18L374.868 346.805L368.705 342.007L352.992 342.477L352.309 349.087H344.782L344.57 349.769L346.405 353.18Z" fill="url(#paint26_linear_2881_5)"/>
<path d="M283.5 43.5209L307.47 37.4519L300.813 50.8367L312.034 58.7405L352.165 56.3176L357.34 52.6715L358.539 32.3004L352.47 34.441L351.271 34.1352L347.295 38.981L321.773 27.1252L280.748 39.5926L283.5 43.5209Z" fill="url(#paint27_linear_2881_5)"/>
<path d="M378.913 36.2509L370.703 36.5567L392.909 37.1448L394.109 29.5703L378.913 31.6874V36.2509Z" fill="url(#paint28_linear_2881_5)"/>
<path d="M374.346 12.5396L379.216 7.97607L367.642 10.1167L367.337 12.2338L362.35 14.3744L374.346 12.5396Z" fill="url(#paint29_linear_2881_5)"/>
<path d="M330.288 22.2553L345.766 30.4884L374.347 24.7017L376.182 21.6437L372.206 20.444L373.147 17.4095L359.457 23.1727L345.484 18.6092L348.213 15.5747L347.295 12.5402L317.232 19.5266L330.288 22.2553Z" fill="url(#paint30_linear_2881_5)"/>
<path d="M1426.98 450.233C1428 434.99 1463.26 334.917 1480.76 286.787L1673 277.471L1682.74 437.53L1720 772.045L1549.35 787.712L1236.01 743.252C1237 684.394 1238.98 563.63 1238.98 551.435C1238.98 536.191 1287.67 532.804 1314.77 542.543C1341.87 552.282 1411.31 534.497 1424.02 526.029C1436.72 517.56 1437.99 507.397 1431.64 498.929C1425.29 490.46 1425.71 469.288 1426.98 450.233Z" fill="white"/>
</g>
</g>
<defs>
<linearGradient id="paint0_linear_2881_5" x1="1060.5" y1="27.0063" x2="1060.5" y2="27.124" gradientUnits="userSpaceOnUse">
<stop stop-color="#63AB45"/>
<stop offset="1" stop-color="#63AB45" stop-opacity="0"/>
</linearGradient>
<linearGradient id="paint1_linear_2881_5" x1="1387.18" y1="450.73" x2="1387.18" y2="496.93" gradientUnits="userSpaceOnUse">
<stop stop-color="#63AB45"/>
<stop offset="1" stop-color="#63AB45" stop-opacity="0"/>
</linearGradient>
<linearGradient id="paint2_linear_2881_5" x1="1387.63" y1="346.828" x2="1387.63" y2="428.854" gradientUnits="userSpaceOnUse">
<stop stop-color="#63AB45"/>
<stop offset="1" stop-color="#63AB45" stop-opacity="0"/>
</linearGradient>
<linearGradient id="paint3_linear_2881_5" x1="1354.38" y1="484.134" x2="1354.38" y2="484.581" gradientUnits="userSpaceOnUse">
<stop stop-color="#63AB45"/>
<stop offset="1" stop-color="#63AB45" stop-opacity="0"/>
</linearGradient>
<linearGradient id="paint4_linear_2881_5" x1="1077.17" y1="19.9493" x2="1077.17" y2="672.131" gradientUnits="userSpaceOnUse">
<stop stop-color="#63AB45"/>
<stop offset="1" stop-color="#63AB45" stop-opacity="0"/>
</linearGradient>
<linearGradient id="paint5_linear_2881_5" x1="668.907" y1="68.2903" x2="668.907" y2="84.2626" gradientUnits="userSpaceOnUse">
<stop stop-color="#63AB45"/>
<stop offset="1" stop-color="#63AB45" stop-opacity="0"/>
</linearGradient>
<linearGradient id="paint6_linear_2881_5" x1="609.417" y1="-5.07922" x2="609.417" y2="102.939" gradientUnits="userSpaceOnUse">
<stop stop-color="#63AB45"/>
<stop offset="1" stop-color="#63AB45" stop-opacity="0"/>
</linearGradient>
<linearGradient id="paint7_linear_2881_5" x1="1481.51" y1="464.704" x2="1481.51" y2="524.594" gradientUnits="userSpaceOnUse">
<stop stop-color="#63AB45"/>
<stop offset="1" stop-color="#63AB45" stop-opacity="0"/>
</linearGradient>
<linearGradient id="paint8_linear_2881_5" x1="1342.97" y1="420.951" x2="1342.97" y2="484.581" gradientUnits="userSpaceOnUse">
<stop stop-color="#63AB45"/>
<stop offset="1" stop-color="#63AB45" stop-opacity="0"/>
</linearGradient>
<linearGradient id="paint9_linear_2881_5" x1="1423.78" y1="526.099" x2="1423.78" y2="698.712" gradientUnits="userSpaceOnUse">
<stop stop-color="#63AB45"/>
<stop offset="1" stop-color="#63AB45" stop-opacity="0"/>
</linearGradient>
<linearGradient id="paint10_linear_2881_5" x1="1454.02" y1="704.17" x2="1454.02" y2="724.542" gradientUnits="userSpaceOnUse">
<stop stop-color="#63AB45"/>
<stop offset="1" stop-color="#63AB45" stop-opacity="0"/>
</linearGradient>
<linearGradient id="paint11_linear_2881_5" x1="1579.37" y1="670.132" x2="1579.37" y2="743.689" gradientUnits="userSpaceOnUse">
<stop stop-color="#63AB45"/>
<stop offset="1" stop-color="#63AB45" stop-opacity="0"/>
</linearGradient>
<linearGradient id="paint12_linear_2881_5" x1="1365.14" y1="307.615" x2="1365.14" y2="328.88" gradientUnits="userSpaceOnUse">
<stop stop-color="#63AB45"/>
<stop offset="1" stop-color="#63AB45" stop-opacity="0"/>
</linearGradient>
<linearGradient id="paint13_linear_2881_5" x1="1353.14" y1="497.542" x2="1353.14" y2="524.852" gradientUnits="userSpaceOnUse">
<stop stop-color="#63AB45"/>
<stop offset="1" stop-color="#63AB45" stop-opacity="0"/>
</linearGradient>
<linearGradient id="paint14_linear_2881_5" x1="1311.67" y1="340.431" x2="1311.67" y2="350.757" gradientUnits="userSpaceOnUse">
<stop stop-color="#63AB45"/>
<stop offset="1" stop-color="#63AB45" stop-opacity="0"/>
</linearGradient>
<linearGradient id="paint15_linear_2881_5" x1="1272.15" y1="427.937" x2="1272.15" y2="497.542" gradientUnits="userSpaceOnUse">
<stop stop-color="#63AB45"/>
<stop offset="1" stop-color="#63AB45" stop-opacity="0"/>
</linearGradient>
<linearGradient id="paint16_linear_2881_5" x1="981.951" y1="534.92" x2="981.951" y2="616.358" gradientUnits="userSpaceOnUse">
<stop stop-color="#63AB45"/>
<stop offset="1" stop-color="#63AB45" stop-opacity="0"/>
</linearGradient>
<linearGradient id="paint17_linear_2881_5" x1="424.033" y1="6.14136" x2="424.033" y2="14.0687" gradientUnits="userSpaceOnUse">
<stop stop-color="#63AB45"/>
<stop offset="1" stop-color="#63AB45" stop-opacity="0"/>
</linearGradient>
<linearGradient id="paint18_linear_2881_5" x1="407.178" y1="6.448" x2="407.178" y2="13.1521" gradientUnits="userSpaceOnUse">
<stop stop-color="#63AB45"/>
<stop offset="1" stop-color="#63AB45" stop-opacity="0"/>
</linearGradient>
<linearGradient id="paint19_linear_2881_5" x1="320.057" y1="323.352" x2="320.057" y2="340.9" gradientUnits="userSpaceOnUse">
<stop stop-color="#63AB45"/>
<stop offset="1" stop-color="#63AB45" stop-opacity="0"/>
</linearGradient>
<linearGradient id="paint20_linear_2881_5" x1="706.129" y1="129.851" x2="706.129" y2="151.727" gradientUnits="userSpaceOnUse">
<stop stop-color="#63AB45"/>
<stop offset="1" stop-color="#63AB45" stop-opacity="0"/>
</linearGradient>
<linearGradient id="paint21_linear_2881_5" x1="1471.32" y1="103.881" x2="1471.32" y2="104.022" gradientUnits="userSpaceOnUse">
<stop stop-color="#63AB45"/>
<stop offset="1" stop-color="#63AB45" stop-opacity="0"/>
</linearGradient>
<linearGradient id="paint22_linear_2881_5" x1="732.559" y1="106.915" x2="732.559" y2="160.525" gradientUnits="userSpaceOnUse">
<stop stop-color="#63AB45"/>
<stop offset="1" stop-color="#63AB45" stop-opacity="0"/>
</linearGradient>
<linearGradient id="paint23_linear_2881_5" x1="917.477" y1="56.7629" x2="917.477" y2="56.7865" gradientUnits="userSpaceOnUse">
<stop stop-color="#63AB45"/>
<stop offset="1" stop-color="#63AB45" stop-opacity="0"/>
</linearGradient>
<linearGradient id="paint24_linear_2881_5" x1="471.591" y1="-7.50195" x2="471.591" y2="27.1243" gradientUnits="userSpaceOnUse">
<stop stop-color="#63AB45"/>
<stop offset="1" stop-color="#63AB45" stop-opacity="0"/>
</linearGradient>
<linearGradient id="paint25_linear_2881_5" x1="272.881" y1="30.0178" x2="272.881" y2="794.406" gradientUnits="userSpaceOnUse">
<stop stop-color="#63AB45"/>
<stop offset="1" stop-color="#63AB45" stop-opacity="0"/>
</linearGradient>
<linearGradient id="paint26_linear_2881_5" x1="359.719" y1="342.007" x2="359.719" y2="353.18" gradientUnits="userSpaceOnUse">
<stop stop-color="#63AB45"/>
<stop offset="1" stop-color="#63AB45" stop-opacity="0"/>
</linearGradient>
<linearGradient id="paint27_linear_2881_5" x1="319.644" y1="27.1252" x2="319.644" y2="58.7405" gradientUnits="userSpaceOnUse">
<stop stop-color="#63AB45"/>
<stop offset="1" stop-color="#63AB45" stop-opacity="0"/>
</linearGradient>
<linearGradient id="paint28_linear_2881_5" x1="382.406" y1="29.5703" x2="382.406" y2="37.1448" gradientUnits="userSpaceOnUse">
<stop stop-color="#63AB45"/>
<stop offset="1" stop-color="#63AB45" stop-opacity="0"/>
</linearGradient>
<linearGradient id="paint29_linear_2881_5" x1="370.783" y1="7.97607" x2="370.783" y2="14.3744" gradientUnits="userSpaceOnUse">
<stop stop-color="#63AB45"/>
<stop offset="1" stop-color="#63AB45" stop-opacity="0"/>
</linearGradient>
<linearGradient id="paint30_linear_2881_5" x1="346.707" y1="12.5402" x2="346.707" y2="30.4884" gradientUnits="userSpaceOnUse">
<stop stop-color="#63AB45"/>
<stop offset="1" stop-color="#63AB45" stop-opacity="0"/>
</linearGradient>
</defs>
</svg>
