<svg width="88" height="20" viewBox="0 0 88 20" fill="none" xmlns="http://www.w3.org/2000/svg">
<path d="M8.37084 18.1448C12.9939 18.1448 16.7417 14.2876 16.7417 9.52965C16.7417 4.77166 12.9939 0.914551 8.37084 0.914551C3.74775 0.914551 0 4.77166 0 9.52965C0 14.2876 3.74775 18.1448 8.37084 18.1448Z" fill="#34E0A1"/>
<path d="M13.5422 7.84926L14.5523 6.71822H12.3123C11.1909 5.92985 9.83654 5.4707 8.37188 5.4707C6.90907 5.4707 5.55854 5.93084 4.43899 6.71822H2.19336L3.20347 7.84926C2.58432 8.43064 2.19618 9.26811 2.19618 10.198C2.19618 11.9528 3.57855 13.3754 5.28358 13.3754C6.09355 13.3754 6.83147 13.0539 7.38237 12.5284L8.3719 13.6373L9.36144 12.5293C9.91233 13.0549 10.6493 13.3754 11.4593 13.3754C13.1643 13.3754 14.5485 11.9528 14.5485 10.198C14.5495 9.26714 14.1613 8.4297 13.5422 7.84926ZM5.2845 12.3484C4.13034 12.3484 3.19507 11.3858 3.19507 10.198C3.19507 9.01012 4.13036 8.04755 5.2845 8.04755C6.43864 8.04755 7.37392 9.01012 7.37392 10.198C7.37392 11.3858 6.43864 12.3484 5.2845 12.3484ZM8.37282 10.1354C8.37282 8.72038 7.37301 7.50562 6.0533 6.98678C6.76692 6.6797 7.54976 6.50933 8.37188 6.50933C9.194 6.50933 9.97775 6.6797 10.6914 6.98678C9.37266 7.50658 8.37282 8.72041 8.37282 10.1354ZM11.4602 12.3484C10.3061 12.3484 9.37078 11.3858 9.37078 10.198C9.37078 9.01012 10.3061 8.04755 11.4602 8.04755C12.6144 8.04755 13.5497 9.01012 13.5497 10.198C13.5497 11.3858 12.6144 12.3484 11.4602 12.3484ZM11.4602 9.0698C10.8551 9.0698 10.365 9.5742 10.365 10.197C10.365 10.8198 10.8551 11.3242 11.4602 11.3242C12.0653 11.3242 12.5554 10.8198 12.5554 10.197C12.5554 9.57516 12.0653 9.0698 11.4602 9.0698ZM6.37972 10.198C6.37972 10.8207 5.88962 11.3251 5.2845 11.3251C4.67938 11.3251 4.18928 10.8207 4.18928 10.198C4.18928 9.57516 4.67938 9.07076 5.2845 9.07076C5.88962 9.0698 6.37972 9.57516 6.37972 10.198Z" fill="black"/>
<path d="M83.2458 12.8939C82.9906 12.8939 82.7834 13.1006 82.7834 13.3552C82.7834 13.6097 82.9906 13.8165 83.2458 13.8165C83.5009 13.8165 83.7082 13.6097 83.7082 13.3552C83.7082 13.1006 83.5009 12.8939 83.2458 12.8939ZM83.2458 13.7433C83.0307 13.7433 82.8567 13.5687 82.8567 13.3552C82.8567 13.1406 83.0317 12.967 83.2458 12.967C83.4609 12.967 83.6359 13.1416 83.6359 13.3552C83.6359 13.5687 83.4609 13.7433 83.2458 13.7433ZM83.3963 13.2762C83.3963 13.1923 83.3367 13.1425 83.2487 13.1425H83.101V13.5629H83.1734V13.4108H83.2526L83.3288 13.5629H83.407L83.323 13.3952C83.368 13.3747 83.3963 13.3337 83.3963 13.2762ZM83.2458 13.3454H83.1744V13.206H83.2458C83.2947 13.206 83.324 13.2303 83.324 13.2752C83.324 13.321 83.2937 13.3454 83.2458 13.3454ZM27.5285 8.22538V7.10971H25.8138V13.7472H27.5285V9.76727C27.5285 9.04655 27.9919 8.69252 28.7144 8.69252H29.6529V7.10973H28.8512C28.2236 7.10971 27.6781 7.43641 27.5285 8.22538ZM31.2591 4.48438C30.6726 4.48438 30.2228 4.94665 30.2228 5.53179C30.2228 6.10328 30.6726 6.56555 31.2591 6.56555C31.8457 6.56555 32.2954 6.10328 32.2954 5.53179C32.2954 4.94662 31.8457 4.48438 31.2591 4.48438ZM30.4037 13.7472H32.1145V7.10971H30.4037V13.7472ZM40.2639 10.4284C40.2639 12.3233 38.7242 13.8594 36.8247 13.8594C36.0582 13.8594 35.3631 13.6087 34.8059 13.1855V15.6958H33.0951V7.10971H34.8059V7.67144C35.3631 7.24819 36.0582 6.99755 36.8247 6.99755C38.7242 6.99755 40.2639 8.53356 40.2639 10.4284ZM38.5424 10.4284C38.5424 9.39958 37.7055 8.56476 36.6741 8.56476C35.6427 8.56476 34.8059 9.39958 34.8059 10.4284C34.8059 11.4573 35.6428 12.2921 36.6741 12.2921C37.7055 12.2921 38.5424 11.4583 38.5424 10.4284ZM69.9991 9.84624L69.0009 9.57317C68.344 9.40249 68.0888 9.2016 68.0888 8.8554C68.0888 8.51795 68.4486 8.28195 68.9628 8.28195C69.4526 8.28195 69.8368 8.60183 69.8368 9.01142V9.04944H71.4137V9.01142C71.4137 7.80698 70.4293 6.99753 68.9628 6.99753C67.5111 6.99753 66.4562 7.806 66.4562 8.9207C66.4562 9.78769 67.032 10.4411 68.037 10.7122L68.9931 10.9726C69.7195 11.1735 69.9893 11.3959 69.9893 11.7948C69.9893 12.2151 69.5993 12.4979 69.0185 12.4979C68.4134 12.4979 68.0057 12.1156 68.0057 11.548V11.51H66.3321V11.548C66.3321 12.9095 67.4309 13.8613 69.0049 13.8613C70.5211 13.8613 71.622 12.9319 71.622 11.6524C71.6219 11.0243 71.3404 10.2032 69.9991 9.84624ZM46.333 7.10971H48.0438V13.7472H46.333V13.1854C45.7757 13.6087 45.0806 13.8593 44.3142 13.8593C42.4147 13.8593 40.875 12.3233 40.875 10.4284C40.875 8.53351 42.4147 6.99753 44.3142 6.99753C45.0806 6.99753 45.7758 7.24817 46.333 7.67141V7.10971ZM46.333 10.4284C46.333 9.3986 45.4961 8.56476 44.4647 8.56476C43.4333 8.56476 42.5965 9.39958 42.5965 10.4284C42.5965 11.4573 43.4333 12.2921 44.4647 12.2921C45.4971 12.2921 46.333 11.4583 46.333 10.4284ZM54.2214 4.74768H55.9322V13.7482H54.2214V13.1864C53.6641 13.6097 52.969 13.8603 52.2026 13.8603C50.3031 13.8603 48.7633 12.3243 48.7633 10.4294C48.7633 8.53449 50.303 6.99851 52.2026 6.99851C52.969 6.99851 53.6641 7.24914 54.2214 7.67239V4.74768ZM54.2214 10.4284C54.2214 9.39958 53.3845 8.56476 52.3531 8.56476C51.3218 8.56476 50.4849 9.39958 50.4849 10.4284C50.4849 11.4573 51.3208 12.2921 52.3531 12.2921C53.3845 12.2921 54.2214 11.4583 54.2214 10.4284ZM63.8753 13.7472H65.5861V7.10971H63.8753V13.7472ZM64.7307 4.48438C64.1441 4.48438 63.6944 4.94665 63.6944 5.53179C63.6944 6.10328 64.1441 6.56555 64.7307 6.56555C65.3173 6.56555 65.767 6.10328 65.767 5.53179C65.767 4.94662 65.3173 4.48438 64.7307 4.48438ZM79.0166 10.4284C79.0166 12.3233 77.4769 13.8594 75.5773 13.8594C73.6779 13.8594 72.1381 12.3234 72.1381 10.4284C72.1381 8.53354 73.6778 6.99755 75.5773 6.99755C77.4769 6.99755 79.0166 8.53356 79.0166 10.4284ZM77.4456 10.4284C77.4456 9.39958 76.6088 8.56476 75.5774 8.56476C74.546 8.56476 73.7092 9.39958 73.7092 10.4284C73.7092 11.4573 74.545 12.2921 75.5774 12.2921C76.6087 12.2921 77.4456 11.4583 77.4456 10.4284ZM26.6526 4.74768H20.0898V6.27004H22.5192V13.7472H24.2242V6.27004H26.6536V4.74768H26.6526ZM59.8417 11.9293L58.3195 7.10973H56.5226L58.8054 13.7472H60.8642L63.1607 7.10973H61.3638L59.8417 11.9293ZM81.5232 8.22538V7.10971H79.8085V13.7472H81.5232V9.76727C81.5232 9.04655 81.9866 8.69252 82.709 8.69252H83.6476V7.10973H82.846C82.2183 7.10971 81.6738 7.43641 81.5232 8.22538Z" fill="black"/>
</svg>
