<svg width="31" height="30" viewBox="0 0 31 30" fill="none" xmlns="http://www.w3.org/2000/svg">
<path d="M15.1742 30C23.5547 30 30.3485 23.2843 30.3485 15C30.3485 6.71573 23.5547 0 15.1742 0C6.79373 0 0 6.71573 0 15C0 23.2843 6.79373 30 15.1742 30Z" fill="#34E0A1"/>
<path d="M24.5471 12.074L26.3782 10.1047H22.3176C20.2848 8.73205 17.8298 7.93262 15.1747 7.93262C12.523 7.93262 10.0748 8.73377 8.04537 10.1047H3.97461L5.80569 12.074C4.68333 13.0863 3.97971 14.5444 3.97971 16.1634C3.97971 19.2187 6.48561 21.6958 9.57641 21.6958C11.0447 21.6958 12.3823 21.136 13.381 20.2209L15.1748 22.1516L16.9685 20.2226C17.9672 21.1377 19.3032 21.6958 20.7714 21.6958C23.8622 21.6958 26.3715 19.2187 26.3715 16.1634C26.3731 14.5427 25.6696 13.0846 24.5471 12.074ZM9.57807 19.9075C7.48586 19.9075 5.79047 18.2316 5.79047 16.1634C5.79047 14.0952 7.48591 12.4192 9.57807 12.4192C11.6702 12.4192 13.3657 14.0952 13.3657 16.1634C13.3657 18.2316 11.6702 19.9075 9.57807 19.9075ZM15.1764 16.0544C15.1764 13.5907 13.364 11.4757 10.9717 10.5723C12.2653 10.0376 13.6844 9.74099 15.1747 9.74099C16.665 9.74099 18.0858 10.0376 19.3794 10.5723C16.9889 11.4773 15.1764 13.5908 15.1764 16.0544ZM20.7731 19.9075C18.6809 19.9075 16.9855 18.2316 16.9855 16.1634C16.9855 14.0952 18.6809 12.4192 20.7731 12.4192C22.8653 12.4192 24.5607 14.0952 24.5607 16.1634C24.5607 18.2316 22.8653 19.9075 20.7731 19.9075ZM20.7731 14.1991C19.6761 14.1991 18.7877 15.0773 18.7877 16.1617C18.7877 17.246 19.6761 18.1243 20.7731 18.1243C21.87 18.1243 22.7585 17.246 22.7585 16.1617C22.7584 15.079 21.87 14.1991 20.7731 14.1991ZM11.5634 16.1634C11.5634 17.2477 10.675 18.1259 9.57807 18.1259C8.48114 18.1259 7.59271 17.2477 7.59271 16.1634C7.59271 15.079 8.48114 14.2008 9.57807 14.2008C10.675 14.1991 11.5634 15.079 11.5634 16.1634Z" fill="black"/>
</svg>
