<svg width="136" height="40" viewBox="0 0 136 40" fill="none" xmlns="http://www.w3.org/2000/svg">
<path d="M3.77913 34.0214C3.68287 33.9801 3.49863 33.8616 3.51622 33.8005C3.60214 33.5044 3.23778 33.6172 3.24192 33.4424C3.2471 33.2365 3.28643 33.0306 3.30921 32.837C3.34336 32.8088 3.36199 32.7787 3.38269 32.7778C3.86298 32.7468 4.16626 32.383 4.47369 32.1442C4.72004 32.21 4.93637 32.2683 5.20238 32.3397C5.0378 32.0126 5.12268 31.7447 5.14959 31.4815C5.1703 31.2775 5.21688 31.082 5.04195 30.9099C4.97157 30.8404 4.94568 30.6815 4.9581 30.5697C4.99951 30.2115 4.7221 29.9662 4.6838 29.6842C4.64964 29.4294 4.896 29.1154 4.79146 28.7949C4.778 28.7545 4.75522 28.7178 4.73659 28.6802C4.89807 28.5448 5.05644 28.4123 5.21584 28.2788C5.26242 27.9282 5.41252 27.5559 4.84943 27.2316C5.39285 27.2617 5.80067 27.3529 5.91246 26.7992C6.10706 27.1696 6.28303 26.9694 6.45279 26.8199C6.41656 26.7325 6.38032 26.646 6.3441 26.5595C6.41966 26.567 6.49523 26.5745 6.59667 26.5839C6.71156 26.2418 6.82645 25.9118 6.52213 25.6007C6.47038 25.548 6.48797 25.4108 6.49522 25.313C6.5066 25.1739 6.73951 25.0761 6.55733 24.8787C6.52007 24.8383 6.68465 24.5967 6.813 24.3316C6.64014 24.4285 6.57181 24.4661 6.37825 24.5742C6.50143 24.3561 6.64117 24.1775 6.61425 24.1455C6.48383 23.9857 6.55111 23.808 6.52109 23.6426C6.49625 23.5054 6.35652 23.3963 6.28096 23.2666C6.26026 23.2318 6.30062 23.1632 6.29338 23.1134C6.24473 22.7533 5.99114 22.4431 6.10396 22.0361C6.1257 21.959 5.94662 21.8443 5.90729 21.7287C5.88245 21.6563 5.98803 21.5247 5.95697 21.4646C5.90625 21.3668 5.79239 21.3057 5.68163 21.2098C5.61953 21.3442 5.57813 21.4326 5.53155 21.5332C5.29865 21.5106 5.06161 21.4871 4.82561 21.4636C4.82768 21.4354 4.82872 21.4063 4.83079 21.3781C5.01297 21.3762 5.19515 21.3743 5.37732 21.3724C5.38457 21.3367 5.40837 21.2916 5.39595 21.2653C5.33177 21.1337 5.28209 20.9833 5.1848 20.8827C4.98502 20.6778 5.21585 20.5452 5.26346 20.3083C5.11545 20.1325 4.84632 19.9474 4.78214 19.7011C4.70865 19.4153 4.43538 19.3918 4.32359 19.1183C4.54717 18.8673 4.61238 18.5298 4.42814 18.2224C4.32566 18.0523 4.43124 17.9977 4.46333 17.8718C4.55338 17.5183 4.56684 17.1451 4.61031 16.7804C4.61342 16.7541 4.62894 16.7137 4.61755 16.7043C4.18695 16.3414 4.57099 15.7755 4.3443 15.3553C4.30083 15.2745 4.34222 15.063 4.41261 15.0056C4.63101 14.8308 4.4095 14.6691 4.43952 14.5629C4.52854 14.247 4.1083 14.3852 4.15074 14.1211C4.17972 13.9406 4.10105 13.7404 4.05136 13.5561C4.02652 13.4631 3.95717 13.3832 3.91163 13.3051C3.81226 13.3747 3.75532 13.4151 3.68701 13.4631C3.66113 13.3531 3.63939 13.26 3.60834 13.1331C3.28435 13.1463 2.95106 12.9695 2.61983 13.1999C2.32276 13.0654 2.02465 12.9301 1.72758 12.7956C1.65409 12.5212 1.36322 12.54 1.20278 12.3839C0.996795 12.1837 0.610709 12.2269 0.57241 11.7766C0.548603 11.4975 0.343661 11.2408 0.424399 10.9222C0.507206 10.5988 0.319844 10.4597 0 10.3713C0.591039 9.82139 1.34769 9.80071 1.99152 9.45478C1.94494 9.1662 2.12713 8.91145 1.95013 8.6191C1.87353 8.4922 1.92218 8.23745 2.07537 8.05321C2.40453 7.65839 2.52046 7.35571 2.5805 6.91671C2.6395 6.48148 2.63949 6.48148 2.99246 6.09513C2.76578 6.07257 2.57946 6.05471 2.33518 6.03027C2.66744 5.77176 3.12805 5.86482 3.23363 5.39951C3.46446 5.34781 3.70254 5.23689 3.92405 5.25851C4.31428 5.29705 4.6952 5.13536 4.92499 4.9248C5.24794 4.62869 5.69199 4.70295 5.96939 4.38146C6.1319 4.19252 6.21368 4.55349 6.45071 4.42752C6.93617 4.16808 7.50237 4.14646 8.03751 4.08441C8.23314 4.06185 8.41946 4.02895 8.59232 3.95469C8.77864 3.87479 8.9515 3.80335 9.15438 3.85411C9.24754 3.87667 9.40073 3.90487 9.44007 3.85599C9.75681 3.46776 10.1419 3.7084 10.4969 3.66422C11.2473 3.57116 12.0288 3.68678 12.7368 3.26283C12.8559 3.19139 13.0888 3.10397 13.1302 3.15191C13.4511 3.52792 13.7378 3.20455 14.0452 3.12747C14.2315 3.08047 14.4406 3.10115 14.6321 3.13311C14.9995 3.19421 15.3587 3.14909 15.72 3.07483C15.8576 3.04663 15.9912 2.99022 16.1288 2.96014C16.282 2.9263 16.5418 2.83794 16.576 2.8934C16.7261 3.14157 16.8172 2.83418 16.9424 2.8699C17.0635 2.90468 17.1971 2.7101 17.3513 2.88588C17.3979 2.93946 17.6132 2.83512 17.7508 2.80034C18.0945 2.71386 18.4381 2.62737 18.7797 2.53431C18.8242 2.52209 18.8656 2.43843 18.8998 2.44313C19.1358 2.47791 19.3097 2.71856 19.5726 2.65933C19.7734 2.61421 19.967 2.41117 20.1698 2.63771C20.1957 2.66591 20.2496 2.70728 20.2672 2.69694C20.7454 2.42245 21.236 2.84076 21.7173 2.62643C21.7618 2.60669 21.8622 2.73924 21.914 2.72138C22.004 2.69036 22.0713 2.58789 22.1593 2.53525C22.1997 2.51081 22.2711 2.51739 22.3177 2.53713C22.6365 2.67437 22.9532 2.7853 23.2948 2.57003C23.331 2.54747 23.3921 2.55969 23.4397 2.56721C23.9159 2.64805 23.9366 2.65181 24.2792 2.47321C24.4551 2.58601 24.6446 2.70728 24.834 2.82854C25.0068 2.47885 25.1549 2.94792 25.3774 2.82854C25.571 2.72514 25.9312 2.9263 26.0927 2.80786C26.546 2.47321 26.9963 2.67061 27.4497 2.62831C28.0241 2.57473 28.5914 2.42997 29.1731 2.48825C29.2528 2.49671 29.3563 2.42339 29.4288 2.36135C29.5809 2.23256 29.7124 2.13104 29.8594 2.35947C29.8894 2.40647 29.9929 2.42527 30.0591 2.41869C30.2713 2.39801 30.4815 2.35007 30.6937 2.32939C30.8831 2.31058 31.058 2.36041 31.2692 2.27486C31.4172 2.2147 31.6666 2.44313 31.8985 2.55593C32.1117 2.51739 32.3539 2.14608 32.6634 2.51269C32.7059 2.56345 32.8611 2.54935 32.9481 2.51551C33.3011 2.37827 33.6478 2.06806 33.9946 2.49201C34.3486 2.1865 34.7191 2.50423 35.1104 2.41493C35.0794 2.29836 35.0473 2.17522 34.9986 1.9891C35.2574 2.0032 35.4737 2.0267 35.6901 2.02294C36.0523 2.01636 36.4146 1.99662 36.7769 1.96654C36.8193 1.96277 36.8483 1.84809 36.8991 1.80861C36.9663 1.75691 37.0512 1.72965 37.1288 1.69111C37.2313 1.975 37.398 1.70897 37.5315 1.72871C37.7064 1.75409 37.8824 1.78135 38.0583 1.77665C38.166 1.77383 38.2737 1.71179 38.3803 1.67701C38.4051 1.77007 38.4103 1.87817 38.462 1.94961C38.4952 1.99474 38.6111 2.02106 38.666 1.99568C39.0831 1.80297 39.493 1.94679 39.906 1.96277C40.0023 1.96653 40.1461 1.99662 40.1886 1.94585C40.437 1.64223 40.6306 2.0267 40.8842 1.96371C41.3914 1.83869 41.9255 1.86783 42.4389 1.73717C42.8312 2.0878 43.3363 1.97312 43.7917 2.01542C44.4242 2.07464 45.068 2.06618 45.7067 2.04738C45.9323 2.0408 46.1652 1.93551 46.3826 1.84339C46.5316 1.77947 46.6589 1.65915 46.7976 1.56702C46.7997 1.56514 46.8266 1.62249 46.8432 1.62249C47.1434 1.62531 47.4446 1.61497 47.7437 1.63001C47.839 1.63471 47.9311 1.74469 48.0222 1.73999C48.2333 1.72871 48.4435 1.67137 48.6546 1.64411C48.7923 1.62625 48.9362 1.60368 49.0686 1.62719C49.2167 1.65351 49.7114 1.68829 49.963 1.68923C50.2404 1.69017 50.5147 1.75409 50.7921 1.75973C51.0788 1.76631 51.3593 1.90449 51.6626 1.70709C51.763 1.64129 52.0042 1.73247 52.1367 1.82177C52.3002 1.93175 52.4513 1.9985 52.5994 1.85561C52.8033 1.65915 52.8726 1.98534 53.0155 1.93363C53.1718 1.87629 53.3198 1.78887 53.4688 1.71085C53.6189 1.63189 53.7638 1.53976 53.9181 1.4702C53.9812 1.442 54.0858 1.42978 54.1313 1.46456C54.447 1.70991 54.8238 1.3762 55.1229 1.58018C55.2595 1.40534 55.3796 1.25212 55.4945 1.10547C56.2864 1.48618 57.0461 1.52378 57.8017 1.03497C57.8835 0.982328 57.9901 0.882685 58.0543 0.902425C58.5201 1.05095 58.9848 0.811243 59.4455 0.872344C60.1493 0.965407 60.8459 0.960707 61.5457 0.768941C61.7071 0.72476 61.9576 0.7257 62.0591 0.824403C62.3313 1.08855 62.6698 0.976687 62.9793 1.07069C63.0445 0.965407 63.1066 0.864824 63.1801 0.746381C63.3271 0.818763 63.4699 0.894905 63.6179 0.961647C63.7691 1.03027 63.946 0.752961 64.1034 1.00395C64.1862 1.13555 64.3943 0.73134 64.505 1.03591C64.741 0.938146 64.8331 0.747321 64.7876 0.429592C65.1644 0.553675 65.5039 0.329949 65.8227 0.521715C66.1301 0.219026 66.5017 0.623237 66.8174 0.396691C66.8443 0.376951 66.8919 0.37319 66.925 0.381651C67.9146 0.634518 67.9136 0.632638 69.0667 0.391991C69.1578 0.37319 69.2582 0.407031 69.3731 0.418312C69.343 0.489754 69.3316 0.527355 69.312 0.559316C69.2892 0.595977 69.2592 0.627938 69.1629 0.750141C69.4911 0.675879 69.7229 0.884565 70.0107 0.69844C70.1173 0.628878 70.2974 0.688099 70.4433 0.681519C70.8056 0.666479 71.1689 0.658958 71.5302 0.626998C71.8645 0.597857 71.8148 0.256627 71.9598 0C72.0757 0.0996428 72.2051 0.168265 72.2734 0.279188C72.3779 0.449333 72.5798 0.468133 72.6667 0.412672C72.998 0.203046 73.2474 0.327129 73.5579 0.451213C73.7567 0.531115 74.091 0.459673 74.2815 0.326189C74.68 0.0460613 75.0154 0.151344 75.3818 0.315849C75.5112 0.37413 75.6685 0.428652 75.8031 0.407031C76.0742 0.36379 76.2916 0.177665 76.627 0.306449C76.8785 0.402331 77.2294 0.196466 77.5534 0.263207C77.8722 0.329009 78.2055 0.334649 78.5316 0.36661C78.6568 0.378831 78.7862 0.417372 78.9083 0.399511C79.7644 0.273548 79.9486 0.282948 80.9195 0.604437C81.1286 0.673999 81.3439 0.420192 81.5385 0.620417C82.5198 0.390111 82.5198 0.390111 83.2619 0.971987C83.4214 0.883625 83.5828 0.7163 83.7174 0.733221C84.118 0.783042 84.5258 0.438052 84.9202 0.752021C85.1396 0.926866 85.4025 0.911826 85.6831 0.830983C85.889 0.771762 86.2037 0.72288 86.3227 0.835683C86.6053 1.10359 86.9345 1.01617 87.2398 1.05189C87.5234 1.08573 87.8185 1.22861 88.1155 1.04531C88.1414 1.02933 88.2107 1.11299 88.2646 1.12145C88.5327 1.16751 88.8494 1.31698 89.0637 1.22015C89.5388 1.00489 90.0346 1.35458 90.4879 1.03685C90.6587 0.917466 90.9392 0.770822 91.0697 0.837563C91.2187 0.914646 91.4371 0.927806 91.5116 1.02933C91.7508 1.35458 91.9919 1.12239 92.2507 1.07257C92.4888 1.4514 92.8159 1.45892 93.2516 1.42038C93.8727 1.36492 94.4896 1.30476 95.1076 1.21169C95.3249 1.17879 95.5537 1.24647 95.769 1.2681C95.8073 1.39594 95.8394 1.50404 95.8922 1.67795C96.1396 1.49276 96.3393 1.3433 96.5608 1.17785C97.3579 1.32826 98.1714 1.28502 98.9736 0.978567C99.0606 0.945666 99.2003 0.934386 99.2614 0.984208C99.7117 1.34894 100.269 1.17973 100.771 1.27186C100.968 1.30852 101.215 1.26904 101.398 1.17597C101.776 0.984208 102.084 1.09889 102.436 1.22861C102.68 1.31886 102.979 1.2587 103.283 1.26622C103.272 1.25306 103.3 1.27374 103.299 1.29348C103.298 1.3104 103.264 1.32638 103.245 1.34424C103.21 1.37714 103.176 1.41192 103.142 1.44482C103.368 1.71085 103.604 1.3527 103.813 1.4326C104.024 1.5125 104.208 1.66291 104.412 1.78793C104.532 1.60651 104.469 1.29912 104.741 1.22485C104.946 1.16845 105.159 1.14965 105.385 1.11111C105.469 1.21357 105.563 1.33108 105.672 1.46362C105.732 1.44576 105.799 1.41944 105.868 1.40628C106.119 1.35928 106.37 1.00959 106.621 1.38278C106.828 1.33578 107.036 1.29066 107.243 1.23989C107.334 1.21733 107.485 1.13461 107.504 1.16093C107.776 1.5407 108.12 1.27938 108.44 1.22955C108.468 1.35176 108.488 1.44576 108.512 1.55292C108.685 1.4373 108.86 1.33578 108.986 1.63095C109.081 1.53318 109.169 1.442 109.253 1.35458C109.312 1.37714 109.347 1.3856 109.378 1.40252C109.542 1.49182 109.695 1.62813 109.87 1.66103C110.04 1.69393 110.233 1.63471 110.411 1.59052C110.484 1.57266 110.552 1.49746 110.607 1.43542C110.965 1.03309 111.274 1.06411 111.515 1.52754C111.552 1.59992 111.617 1.65633 111.67 1.72025C111.743 1.63283 111.814 1.54446 111.874 1.47208C111.979 1.6018 112.163 1.87817 112.193 1.86031C112.439 1.71649 112.545 2.14138 112.81 1.93457C112.836 1.84057 112.874 1.69863 112.915 1.54728C112.994 1.5548 113.077 1.53788 113.128 1.57266C113.339 1.71743 113.323 1.95713 113.355 2.20906C113.47 2.06148 113.586 1.91389 113.669 1.80767C113.83 1.87159 113.979 1.92987 114.121 1.98628C114.17 1.90919 114.2 1.86971 114.221 1.82553C114.271 1.72119 114.318 1.61497 114.367 1.50968C114.45 1.60086 114.533 1.69111 114.671 1.84151C114.702 1.82741 114.8 1.76067 114.906 1.73999C115.023 1.71743 115.146 1.73623 115.332 1.73717C115.291 1.5736 115.26 1.44952 115.212 1.26152C115.368 1.3057 115.611 1.3339 115.612 1.37902C115.629 1.88757 115.999 1.84151 116.309 1.85091C116.518 1.85749 116.783 1.70051 116.931 1.78417C117.142 1.90355 117.311 1.83399 117.497 1.81143C117.657 1.79169 117.814 1.73153 118.007 1.68077C118.014 1.85561 118.02 2.00132 118.027 2.14326C118.587 2.0502 119.132 2.0126 119.623 2.34349C120.079 2.65181 120.6 2.60387 121.112 2.59823C121.227 2.59729 121.342 2.53525 121.458 2.52491C121.793 2.49577 122.134 2.71762 122.465 2.47133C122.734 2.77684 123.048 2.64617 123.387 2.60011C123.759 2.55029 123.765 2.61703 123.98 2.2899C124.219 2.38203 124.544 2.20624 124.752 2.52867C125.093 2.28144 125.537 2.61515 125.86 2.2899C126.069 2.08028 126.29 2.23726 126.504 2.22786C126.76 2.21658 126.899 2.33221 126.949 2.61797C126.991 2.85204 127.197 2.78718 127.38 2.72608C127.339 2.66121 127.303 2.60387 127.266 2.54559C127.275 2.53243 127.292 2.49765 127.3 2.49953C127.742 2.58225 128.204 2.18556 128.636 2.51927C128.691 2.56157 128.773 2.56815 128.823 2.61421C129.017 2.79752 129.239 2.39143 129.473 2.65557C129.575 2.7712 129.886 2.76838 130.095 2.58601C130.15 2.53901 130.328 2.55687 130.383 2.61327C130.699 2.93852 131.187 2.71668 131.535 2.99116C131.651 3.08235 131.933 2.9498 132.188 2.9122C132.301 3.09833 132.42 3.29385 132.488 3.4076C132.722 3.53262 133.009 3.15943 133.022 3.53544C133.037 3.94623 133.436 4.00545 133.557 4.33352C133.644 4.56759 134.03 4.67569 134.275 4.83456C134.244 4.86276 134.191 4.91258 134.142 4.95864C134.16 5.12502 134.579 5.17485 134.244 5.42583C134.305 5.74262 134.302 6.05941 134.288 6.38654C134.28 6.57924 134.458 6.78323 134.577 6.96465C134.616 7.02576 134.73 7.03328 134.841 7.07652C134.666 7.34913 134.522 7.57285 134.338 7.86144C134.572 7.91032 134.753 7.94792 135.005 8.00056C134.946 8.15943 134.888 8.30889 134.833 8.46024C134.751 8.69054 134.526 8.85129 134.54 9.13894C134.544 9.23294 134.424 9.35326 134.338 9.43504C134.097 9.66159 134.088 9.96992 134.168 10.2153C134.254 10.4822 134.545 10.8131 134.766 10.7295C135.06 10.6195 135.117 10.7614 135.23 10.9137C135.238 10.924 135.147 11.0152 135.072 11.1064C135.318 11.1609 135.51 11.3574 135.807 11.2549C135.792 11.3865 135.777 11.5097 135.759 11.6629C135.592 11.6469 135.424 11.63 135.242 11.6121C135.167 11.7908 135.137 11.9882 135.026 12.0916C134.886 12.2203 135.206 12.3463 134.981 12.4431C134.943 12.4591 134.957 12.6114 134.946 12.7007C135.004 12.6659 135.062 12.6311 135.12 12.5964C135.158 12.8878 135.449 12.9573 135.588 13.1453C135.536 13.3371 135.179 13.1698 135.271 13.4527C135.304 13.5533 135.363 13.8513 135.624 13.6078C135.661 13.574 135.854 13.7234 136 13.8015C135.853 13.9002 135.751 13.9697 135.648 14.0384C135.727 14.1399 135.806 14.2414 135.905 14.3674C135.852 14.404 135.752 14.5243 135.691 14.5074C135.552 14.4698 135.462 14.2273 135.273 14.4426C135.109 14.6296 134.935 14.8092 134.782 15.0056C134.75 15.0461 134.789 15.1457 134.795 15.2171L134.725 16.0312C134.514 16.2935 134.7 16.7043 134.389 16.9299C134.43 17.1696 134.47 17.4102 134.515 17.6744C133.898 17.7355 133.91 18.1641 133.902 18.6219C134.087 18.527 134.261 18.4377 134.496 18.3164C134.472 18.5166 134.458 18.6379 134.436 18.8203C134.34 18.825 134.203 18.8325 134.064 18.84C133.754 19.1737 133.756 19.5337 133.954 19.9116C134.088 19.8082 134.224 19.7039 134.393 19.5742C134.474 19.7359 134.529 19.8458 134.585 19.9558C134.838 19.6983 134.821 20.0667 134.944 20.1119C135.077 20.1598 135.209 20.2087 135.398 20.2773C135.128 20.4428 134.896 20.5847 134.656 20.7313C134.825 20.9626 135.02 21.1243 135.069 21.3283C135.121 21.5369 135.032 21.7879 135.006 21.9994C135.101 22.1226 135.179 22.2232 135.268 22.3388C135.161 22.3801 135.058 22.4187 134.958 22.4572C134.991 22.7515 135.024 23.041 135.055 23.3145C135.174 23.2807 135.295 23.2459 135.516 23.1829C135.253 23.5768 134.988 23.7056 134.68 23.6652C134.661 23.8268 134.646 23.95 134.63 24.0872C134.729 24.0478 134.801 24.0186 134.958 23.9566C134.892 24.106 134.847 24.185 134.824 24.2696C134.755 24.5196 134.535 24.5648 134.353 24.6616C134.091 24.7998 134.273 25.1062 134.115 25.2792C134.089 25.3074 134.017 25.2839 133.978 25.3074C133.794 25.423 133.788 25.4785 133.929 25.6176C133.988 25.6759 134.052 25.7323 134.093 25.8028C134.117 25.8432 134.169 26.3884 134.201 26.4401C134.141 26.5031 134.064 26.5661 134.012 26.645C133.921 26.7823 133.574 26.6319 133.67 26.9299C133.734 27.1282 133.327 27.1696 133.569 27.3651C133.336 27.8079 133.102 28.2506 132.86 28.7112C133.029 29.0393 133.217 29.404 133.409 29.7753C133.738 29.5384 133.83 29.9163 134.02 30.1166C133.921 30.2707 133.819 30.4268 133.692 30.6232C133.771 30.6966 133.879 30.7953 134.049 30.9504C133.804 30.972 133.663 30.9851 133.513 30.9983C133.519 31.0397 133.516 31.082 133.533 31.1121C133.671 31.3565 134.019 31.521 133.783 31.9177C133.67 31.9195 133.55 31.9224 133.4 31.9242C133.385 32.0427 133.371 32.1649 133.355 32.3012C133.156 32.3651 132.972 32.4741 132.798 32.4657C132.583 32.4553 132.432 32.5541 132.373 32.7101C132.252 33.0269 132.041 32.9949 131.782 33.0297C131.371 33.0852 131.022 33.3427 130.673 33.6868C130.785 33.8033 130.913 33.8927 130.98 34.0177C131.045 34.138 131.096 34.3053 131.068 34.435C131.007 34.7133 131.279 34.6559 131.336 34.7641C130.864 35.0846 130.393 35.4033 129.978 35.6853C130.091 35.8319 130.219 35.9983 130.443 36.2878C129.895 36.3189 129.711 36.5416 129.707 36.9073C129.554 36.9101 129.434 36.913 129.315 36.9158C129.26 37.0624 129.191 37.3228 129.159 37.319C128.862 37.2824 128.747 37.7186 128.415 37.6067C128.182 37.5287 127.905 37.5832 127.669 37.5108C127.478 37.4525 127.269 37.7421 127.104 37.4732C127.093 37.4553 126.959 37.4892 126.911 37.5324C126.705 37.7139 126.519 37.8436 126.261 37.6142C126.2 37.5606 125.995 37.6123 125.899 37.681C125.709 37.8154 125.551 37.8727 125.368 37.7026C125.333 37.6706 124.759 37.7703 124.744 37.8097C124.595 38.1886 124.306 38.025 124.164 37.9066C124.016 37.7825 123.796 38.0203 123.729 37.7703C123.556 37.8558 123.382 37.9413 123.198 38.0325C122.991 37.9122 122.782 37.6716 122.51 37.9677C122.316 37.7994 122.072 38.1867 121.887 37.9263C121.632 38.1904 121.463 37.9395 121.247 37.8596C121.116 37.8116 120.93 37.9451 120.769 37.9479C120.542 37.9517 120.31 37.9329 120.092 37.8802C119.93 37.8408 119.74 38.119 119.611 37.8408C119.323 38.0156 119.027 37.805 118.721 37.899C118.425 37.9912 118.127 37.806 117.775 37.9366C117.502 38.0382 117.054 38.0494 116.797 37.7646C116.632 37.5832 116.261 37.9131 116.215 37.4619C116.203 37.3425 115.892 37.2636 115.695 37.1536C115.596 37.2871 115.495 37.4262 115.388 37.5719C114.77 37.524 114.175 37.6603 113.592 37.9451C113.371 38.0532 113.101 38.0485 112.853 38.0946C112.686 37.7421 112.476 38.1303 112.28 38.0823C112.071 38.0316 111.823 38.0081 111.624 38.0767C111.454 38.135 111.296 37.9385 111.094 38.1763C110.917 38.385 110.465 38.1632 110.239 38.4988C110.228 38.5138 110.11 38.4631 110.048 38.4302C109.884 38.3437 109.689 38.2826 109.567 38.151C109.406 37.978 109.209 38.3822 109.082 38.0974C109.07 38.0682 108.937 38.0635 108.886 38.0946C108.22 38.496 107.52 38.4208 106.819 38.3268C106.694 38.3098 106.57 38.3014 106.454 38.2901C106.407 38.1782 106.363 38.0786 106.321 37.9789C106.2 38.0936 106.079 38.1773 105.95 37.9977C105.855 37.8652 105.759 37.9 105.633 37.9799C105.571 38.0194 105.419 38.0175 105.386 37.9724C105.178 37.6875 105.007 37.9122 104.903 38.0513C104.642 38.401 104.525 38.5242 104.145 38.5251C103.782 38.526 103.419 38.4377 103.086 38.7009C103.039 38.7375 102.914 38.6915 102.838 38.6558C102.043 38.2901 102.043 38.2882 101.12 38.6642C101.077 38.6821 101.018 38.715 100.986 38.6999C100.524 38.479 100.281 38.965 99.8928 39.0825C99.7551 38.9895 99.604 38.8785 99.4446 38.7836C99.3649 38.7357 99.2531 38.668 99.1827 38.6943C98.9457 38.7845 98.719 38.808 98.4685 38.7836C98.2325 38.7601 98.0069 38.6755 97.7388 38.7911C97.5297 38.8823 97.2419 38.7413 97.009 38.7996C96.536 38.919 96.0516 38.8757 95.5899 38.9829C95.1448 39.0863 94.7008 39.1399 94.2546 39.1953C94.237 39.1972 93.3707 39.0158 93.3448 38.9979C93.0622 38.809 92.7496 38.7977 92.4339 38.8889C91.8926 39.0459 91.3191 38.8691 90.7892 39.1192C90.5811 38.8033 90.2385 38.9218 89.96 38.9049C89.7251 38.8908 89.458 38.9603 89.2272 38.9509C88.9022 38.9378 88.5471 39.0196 88.2345 38.7404C88.0606 38.5853 87.7025 38.6699 87.4551 38.574C87.2212 38.4828 87.0193 38.6323 86.7896 38.5947C86.5401 38.5542 86.2637 38.4001 85.9946 38.6229C85.9346 38.6727 85.801 38.6435 85.7069 38.6257C85.4326 38.573 85.1924 38.2431 84.9005 38.4405C84.6221 38.6294 84.3643 38.3982 84.1035 38.511C84.1418 38.6266 84.177 38.7328 84.2256 38.8804C84.001 38.8804 83.8426 39.1342 83.6004 38.9124C83.5249 38.8428 83.3034 38.9434 83.1481 38.966C83.1295 38.8776 83.1098 38.7836 83.0777 38.6351C83.0156 38.7686 82.9763 38.8532 82.9318 38.9481C82.7661 38.84 82.6129 38.6981 82.4318 38.6323C82.1917 38.5458 81.9681 38.5975 81.7424 38.7949C81.3636 39.1258 81.1048 39.0393 80.8678 38.5768C80.815 38.4743 80.7405 38.385 80.6328 38.2262C80.608 38.4349 80.5935 38.5571 80.5697 38.7582C80.3782 38.7394 80.1743 38.7798 80.0542 38.6943C79.8368 38.5392 79.665 38.3888 79.4104 38.636C79.3731 38.6717 79.2303 38.6605 79.1961 38.6182C78.9798 38.3512 78.7044 38.6031 78.4902 38.5401C77.9323 38.3747 77.4478 38.714 76.9251 38.761C76.892 38.7639 76.8661 38.8879 76.8082 39.0214C76.6032 38.9885 76.3258 39.0158 76.1457 38.8936C75.9738 38.777 75.7544 39.0017 75.6323 38.7526C75.5153 38.5129 75.2534 38.5712 75.0412 38.5289C74.9295 38.5063 74.827 38.4433 74.652 38.3709C74.5496 38.4856 74.4005 38.6529 74.2535 38.8174C73.8467 38.3512 73.8509 38.3597 73.4317 38.5665C73.3074 38.6276 73.1553 38.6379 73.0145 38.6482C72.6719 38.6755 72.3365 38.4753 71.9856 38.6482C71.9525 38.6642 71.8842 38.6088 71.8356 38.5796C71.3004 38.2666 71.3004 38.2666 70.7715 38.683C70.7352 38.7112 70.6835 38.7178 70.639 38.7347C70.1628 38.3888 69.7643 38.7573 69.2996 38.9716C69.282 38.8456 69.2975 38.7338 69.2509 38.6755C69.1412 38.5373 69.0791 38.2713 68.7924 38.4913C68.6961 38.5655 68.4943 38.5477 68.3649 38.5035C68.0492 38.3954 67.8421 38.5843 67.5968 38.8071C67.4871 38.6868 67.4043 38.5636 67.2915 38.4809C67.1207 38.354 66.9561 38.3033 66.7004 38.3145C66.2616 38.3343 65.8403 38.355 65.4521 38.4762C65.3258 38.3127 65.1944 38.1416 65.0712 37.9818C64.8052 38.1359 64.6137 38.244 64.4263 38.3578C64.2245 38.4809 64.034 38.5627 63.8146 38.3907C63.7566 38.3446 63.6014 38.3568 63.5362 38.4076C63.3643 38.5411 63.1998 38.5383 63.0662 38.4085C62.763 38.1124 62.9617 38.6069 62.7412 38.5373C62.6915 38.4734 62.6098 38.3221 62.4876 38.2224C62.3831 38.1369 62.1833 38.0269 62.1119 38.0729C61.9431 38.1829 61.7941 38.1961 61.6181 38.1688C61.4691 38.1463 61.3169 38.1378 61.1503 38.1209C60.9257 38.4085 60.5965 38.4856 60.2746 38.6182C60.0448 38.7131 59.9692 38.4292 59.8605 38.527C59.6463 38.7197 59.6266 38.3061 59.4362 38.433C59.3068 38.5195 59.1349 38.5383 58.9403 38.6003C58.9352 38.3747 58.932 38.229 58.9289 38.0626C58.7457 38.2356 58.5822 38.3888 58.5418 38.4264C57.9353 38.4612 57.4974 38.4743 57.0616 38.5223C56.9861 38.5307 56.9209 38.6868 56.8505 38.7742C56.5203 38.3785 56.069 38.9368 55.7305 38.6605C55.7512 38.5665 55.7699 38.4762 55.7895 38.3869C55.4997 38.3982 55.2637 38.0654 54.9283 38.292C54.83 38.3578 54.6519 38.292 54.4781 38.3982C54.6654 38.496 54.8527 38.5937 55.0287 38.6858C54.9407 38.7686 54.8352 38.8597 54.7389 38.9603C54.5981 39.106 54.5546 39.0995 54.4377 38.9124C54.3942 38.8419 54.3373 38.7216 54.2876 38.7244C54.0029 38.7385 53.6997 38.7291 53.4398 38.8334C53.2639 38.9039 53.1521 39.1512 53.0041 39.3128C52.9337 39.389 52.8457 39.4482 52.6728 39.5939C52.7484 39.3739 52.7898 39.2536 52.8478 39.0854C52.7784 38.9039 52.5993 38.7789 52.3633 38.8832C52.2536 38.9321 52.1625 39.1042 52.1232 39.2376C52.0953 39.3316 52.1677 39.4548 52.1957 39.5667C52.0901 39.6005 51.9783 39.6371 51.8168 39.6889C51.8365 39.6964 51.7847 39.6936 51.7713 39.6691C51.5912 39.3326 51.2972 39.216 50.9494 39.1183C50.7993 39.076 50.7869 39.012 50.7403 39.1944C50.6906 39.3909 50.5261 39.2489 50.4298 39.295C50.3387 39.3382 50.2735 39.4444 50.1617 39.5591C50.1213 39.4538 50.0944 39.3288 50.0313 39.2311C49.8698 38.9838 49.8036 39.0055 49.6028 39.341C49.3512 39.2715 49.0904 39.1145 48.8585 39.1568C48.6132 39.2019 48.4724 38.7808 48.2261 39.0713C47.9994 38.9255 47.7758 38.9312 47.544 39.0891C47.4881 39.1277 47.369 39.1634 47.3452 39.1371C47.1775 38.95 47.0047 38.871 46.7707 39.0346C46.5761 39.17 46.3619 38.9961 46.1279 39.1173C45.9499 39.2094 45.6673 39.0844 45.4334 39.0412C45.3195 39.0196 45.1964 38.9857 45.1042 38.919C44.8517 38.7385 44.536 39.2818 44.3155 38.8588C44.0412 38.8278 43.7669 38.7996 43.4936 38.7639C43.2183 38.7272 43.0237 38.8541 42.8208 39.0468C42.6997 39.1624 42.4844 39.1718 42.2474 39.2489C42.1304 39.0976 41.9886 38.9133 41.8779 38.7704C41.647 38.7244 41.4762 39.075 41.3023 38.7629C41.2785 38.7206 41.1295 38.7234 41.0529 38.7516C40.7454 38.8635 40.4411 39.1192 40.1472 38.7535C39.5882 38.7432 39.0313 38.5054 38.4693 38.7911C38.4186 38.8165 38.3223 38.8485 38.3088 38.8297C38.0967 38.5336 37.9714 38.8278 37.8172 38.9152C37.8586 38.9754 37.8989 39.0355 37.9393 39.0957C37.9393 39.0957 37.2872 38.9481 37.2644 38.9425C37.1589 39.123 37.0491 39.311 36.927 39.5206C36.7862 39.4877 36.5254 39.6766 36.5368 39.2893C36.5378 39.2489 36.3722 39.1568 36.309 39.1784C36.1289 39.2395 35.9695 39.3862 35.7884 39.4228C35.6238 39.4557 35.5037 39.3946 35.4013 39.6437C35.2946 39.9013 35.1684 39.875 34.8775 39.6672C34.834 39.7565 34.7926 39.8449 34.7171 40C34.5287 39.8675 34.361 39.6795 34.1561 39.6212C33.861 39.5384 33.8372 39.2959 33.7482 39.0788C33.2452 39.4557 33.1665 39.4501 32.9988 38.9791C32.8674 39.1446 32.7525 39.2893 32.6303 39.4416C32.2918 39.4087 31.9409 39.373 31.589 39.342C31.5704 39.3401 31.5486 39.3702 31.5114 39.3984C31.5445 39.4529 31.5776 39.5093 31.6304 39.5967C30.9824 39.9069 30.7216 39.2865 30.2838 39.0412C30.2444 39.0816 30.1937 39.1248 30.1554 39.1775C30.1275 39.216 30.1171 39.2677 30.0798 39.3627C30.0001 39.326 29.9267 39.279 29.8449 39.2574C29.6358 39.201 29.4205 39.106 29.2114 39.122C29.0365 39.1352 28.8667 39.2837 28.6949 39.373C28.5593 39.1248 28.3067 39.2047 28.0987 39.153C27.9144 39.107 27.6867 39.2066 27.5459 38.9961C27.5356 38.981 27.4362 39.0214 27.3845 39.0487C27.1692 39.1606 26.9766 39.1427 26.7593 39.0374C26.6506 38.9848 26.4808 39.0572 26.339 39.0769C26.1982 39.0966 26.0099 39.0722 25.9271 39.1568C25.719 39.3683 25.719 39.0055 25.5762 39.0628C25.4892 39.0976 25.3888 39.1023 25.2946 39.1032C24.9934 39.1032 24.6829 39.4623 24.3899 39.1089C24.1995 39.3222 23.7213 39.0111 23.6861 39.5516C23.6799 39.6522 23.4511 39.7443 23.2565 39.8919C23.2482 39.6381 23.2441 39.4924 23.2389 39.3514C23.183 39.3316 23.1199 39.2865 23.0971 39.3034C22.7193 39.5854 22.2794 39.7095 21.8529 39.8684C21.8032 39.8872 21.7442 39.8834 21.6904 39.8844C21.4689 39.8872 21.148 39.984 21.0455 39.8703C20.7692 39.5629 20.5104 39.8101 20.2465 39.8092C19.9846 39.8082 19.6947 40.1119 19.4546 39.7443C19.4215 39.6945 19.2114 39.7255 19.113 39.7791C18.9816 39.8515 18.8988 39.8703 18.7952 39.7509C18.6628 39.5977 18.5137 39.6136 18.3326 39.7086C18.0458 39.8581 17.7043 39.6184 17.4155 39.8477C17.3989 39.8609 17.3213 39.8205 17.2975 39.7857C17.0884 39.4792 16.8596 39.733 16.576 39.7885C16.547 39.6616 16.5098 39.5008 16.4725 39.341C16.0305 39.9812 15.4757 39.4435 15.101 39.8581C14.9871 39.6108 14.8898 39.4012 14.8029 39.2123C14.6393 39.3044 14.6 39.3232 14.5638 39.3476C14.1746 39.6146 14.0607 39.6099 13.8382 39.2743C13.7181 39.0929 13.6291 38.8889 13.5266 38.6952C13.2865 38.8889 13.2264 38.6454 13.0991 38.5054C12.8724 38.5759 12.6333 38.7056 12.3984 38.7056C12.2379 38.7056 12.0361 38.5608 11.9346 38.417C11.7017 38.088 11.3995 38.1228 11.0745 38.1773C10.9337 38.2008 10.7919 38.2177 10.6501 38.2356C10.3892 38.2694 10.1978 38.0786 9.97314 38.0306C9.78993 37.9921 9.6212 38.2515 9.35622 38.1895C9.16369 38.1444 8.9308 38.2788 8.71343 38.3174C8.59439 38.338 8.47018 38.3268 8.34907 38.3268C8.08512 38.3286 7.82014 38.1961 7.55826 38.4001C7.49822 38.4471 7.33676 38.4245 7.26741 38.3719C7.03968 38.1989 6.80885 38.197 6.55836 38.3098C6.35548 38.0175 6.08739 38.3587 5.84828 38.2553C5.74477 38.2111 5.57813 38.3897 5.44253 38.2083C5.40527 38.1575 5.22722 38.1557 5.16098 38.2036C4.59168 38.6125 4.02031 38.307 3.34543 38.3409C3.47275 38.1312 3.53692 38.01 3.61559 37.9C3.70254 37.7797 3.82053 37.68 3.89506 37.5541C3.96855 37.429 3.96959 37.2373 4.06689 37.1555C4.16212 37.0746 4.38053 37.1517 4.33188 36.8528C4.16419 36.8208 3.97787 36.786 3.79466 36.7513C3.79983 36.3527 3.77913 36.1816 3.38993 35.5104C3.20051 35.1833 3.06181 34.9586 3.44687 34.6757C3.54106 34.6061 3.53382 34.3974 3.59386 34.263C3.6363 34.1869 3.71495 34.1342 3.77913 34.0214C3.76774 34.1211 3.75222 34.1718 3.7574 34.2198C3.76982 34.3307 3.79156 34.4407 3.80915 34.5507C3.8754 34.5375 3.94061 34.5234 4.00686 34.5102C3.98305 34.404 3.96337 34.2959 3.93232 34.1916C3.91887 34.1474 3.88057 34.1117 3.77913 34.0214ZM132.805 25.6524C132.516 26.2014 132.805 26.7108 132.726 27.2927C133.064 27.0267 133.246 26.6817 133.202 26.3912C133.166 26.1619 133.189 25.7436 132.805 25.6524Z" fill="#63AB45"/>
<path d="M1.7715 12.8114C1.70422 12.9684 1.65867 13.1413 1.56137 13.2757C1.50755 13.3509 1.36987 13.3622 1.21875 13.318C1.37194 13.1282 1.52514 12.9383 1.6773 12.7493C1.70939 12.77 1.74045 12.7907 1.7715 12.8114Z" fill="#63AB45"/>
<path d="M6.38894 26.5416C5.96662 26.7221 5.96662 26.7221 5.91797 26.4147C6.09808 26.3593 6.2668 26.3207 6.38894 26.5416Z" fill="#63AB45"/>
</svg>
