<svg width="177" height="47" viewBox="0 0 177 47" fill="none" xmlns="http://www.w3.org/2000/svg">
<path d="M4.91843 39.9752C4.79314 39.9266 4.55336 39.7874 4.57626 39.7156C4.68808 39.3677 4.21388 39.5002 4.21927 39.2948C4.226 39.0529 4.2772 38.811 4.30683 38.5835C4.35129 38.5503 4.37553 38.515 4.40248 38.5139C5.02755 38.4774 5.42227 38.05 5.82237 37.7694C6.14299 37.8468 6.42453 37.9152 6.77075 37.9992C6.55655 37.6148 6.66702 37.3 6.70204 36.9907C6.72899 36.7511 6.78962 36.5213 6.56195 36.3192C6.47035 36.2374 6.43666 36.0508 6.45283 35.9193C6.50671 35.4985 6.14567 35.2102 6.09583 34.8789C6.05137 34.5796 6.372 34.2106 6.23594 33.834C6.21843 33.7865 6.18878 33.7434 6.16454 33.6992C6.37469 33.5402 6.5808 33.3844 6.78826 33.2276C6.84889 32.8156 7.04423 32.3782 6.31139 31.9972C7.01864 32.0325 7.5494 32.1396 7.69489 31.4891C7.94815 31.9243 8.17718 31.689 8.39811 31.5134C8.35096 31.4107 8.30381 31.309 8.25665 31.2074C8.355 31.2163 8.45335 31.2251 8.58537 31.2361C8.7349 30.8341 8.88442 30.4464 8.48836 30.0808C8.421 30.0189 8.4439 29.8577 8.45333 29.7428C8.46815 29.5793 8.77127 29.4645 8.53417 29.2325C8.48568 29.185 8.69987 28.9012 8.86692 28.5897C8.64194 28.7034 8.55302 28.7476 8.3011 28.8746C8.46142 28.6184 8.64328 28.4085 8.60826 28.371C8.43852 28.1832 8.52608 27.9745 8.48701 27.7801C8.45468 27.6188 8.27282 27.4907 8.17448 27.3382C8.14754 27.2974 8.20008 27.2167 8.19065 27.1582C8.12733 26.7352 7.79729 26.3707 7.94412 25.8924C7.97241 25.8018 7.73936 25.6671 7.68816 25.5312C7.65583 25.4462 7.79324 25.2916 7.75282 25.2209C7.68681 25.106 7.53862 25.0342 7.39448 24.9215C7.31365 25.0795 7.25977 25.1833 7.19915 25.3015C6.89604 25.275 6.58754 25.2474 6.28039 25.2198C6.28308 25.1866 6.28444 25.1524 6.28713 25.1192C6.52423 25.117 6.76133 25.1148 6.99843 25.1126C7.00786 25.0706 7.03883 25.0176 7.02267 24.9867C6.93914 24.8321 6.87449 24.6553 6.74786 24.5372C6.48786 24.2964 6.78828 24.1406 6.85024 23.8623C6.6576 23.6557 6.30734 23.4381 6.22382 23.1488C6.12817 22.813 5.77252 22.7854 5.62703 22.464C5.91801 22.169 6.00288 21.7725 5.76309 21.4113C5.62972 21.2114 5.76713 21.1474 5.80889 20.9993C5.92609 20.584 5.94361 20.1455 6.00019 19.717C6.00423 19.6861 6.02443 19.6386 6.00961 19.6275C5.4492 19.2012 5.949 18.5362 5.65398 18.0425C5.5974 17.9475 5.65127 17.699 5.74288 17.6316C6.02713 17.4262 5.73884 17.2362 5.77791 17.1114C5.89376 16.7403 5.34683 16.9026 5.40206 16.5923C5.43978 16.3802 5.33739 16.1449 5.27273 15.9284C5.24039 15.8191 5.15014 15.7252 5.09087 15.6335C4.96154 15.7153 4.88744 15.7628 4.79853 15.8191C4.76485 15.6899 4.73656 15.5805 4.69614 15.4314C4.27449 15.4469 3.84072 15.2392 3.40963 15.5098C3.023 15.3519 2.63502 15.1928 2.24839 15.0349C2.15275 14.7124 1.77419 14.7344 1.56538 14.5511C1.2973 14.3158 0.794819 14.3666 0.744975 13.8376C0.713991 13.5095 0.447265 13.208 0.552342 12.8335C0.660114 12.4536 0.416268 12.2901 0 12.1863C0.76922 11.5401 1.75398 11.5158 2.59191 11.1094C2.53128 10.7703 2.76839 10.471 2.53803 10.1274C2.43834 9.97833 2.50165 9.679 2.70103 9.46252C3.12942 8.99861 3.2803 8.64295 3.35844 8.12714C3.43523 7.61574 3.43522 7.61574 3.8946 7.16178C3.59958 7.13527 3.35709 7.11428 3.03917 7.08557C3.4716 6.78182 4.07107 6.89117 4.20848 6.34443C4.50889 6.28368 4.81874 6.15334 5.10703 6.17875C5.6149 6.22403 6.11066 6.03405 6.40973 5.78664C6.83003 5.43871 7.40795 5.52597 7.76899 5.14822C7.98049 4.92621 8.08692 5.35035 8.39542 5.20234C9.02723 4.89749 9.76411 4.87209 10.4606 4.79919C10.7152 4.77268 10.9577 4.73402 11.1826 4.64676C11.4251 4.55288 11.6501 4.46893 11.9142 4.52858C12.0354 4.55509 12.2348 4.58822 12.286 4.53079C12.6982 4.07462 13.1993 4.35738 13.6614 4.30546C14.6381 4.19611 15.6552 4.33197 16.5766 3.83383C16.7315 3.74988 17.0347 3.64716 17.0885 3.70349C17.5062 4.14531 17.8793 3.76535 18.2794 3.67477C18.5219 3.61955 18.794 3.64385 19.0432 3.6814C19.5215 3.7532 19.9889 3.70018 20.4591 3.61292C20.6383 3.57979 20.812 3.51351 20.9912 3.47817C21.1906 3.43841 21.5287 3.33458 21.5732 3.39975C21.7685 3.69134 21.8871 3.33016 22.0501 3.37213C22.2077 3.413 22.3815 3.18436 22.5822 3.39091C22.6428 3.45387 22.923 3.33127 23.1022 3.2904C23.5494 3.18878 23.9967 3.08716 24.4413 2.97782C24.4992 2.96346 24.5531 2.86515 24.5975 2.87068C24.9047 2.91154 25.131 3.1943 25.4732 3.12472C25.7345 3.0717 25.9864 2.83312 26.2505 3.09931C26.2841 3.13245 26.3542 3.18105 26.3771 3.1689C26.9995 2.84638 27.638 3.33789 28.2645 3.08606C28.3224 3.06286 28.4531 3.2186 28.5204 3.19762C28.6376 3.16117 28.7252 3.04077 28.8397 2.97892C28.8922 2.9502 28.9852 2.95793 29.0458 2.98113C29.4607 3.14239 29.8729 3.27273 30.3175 3.01979C30.3646 2.99328 30.4441 3.00764 30.5061 3.01647C31.1258 3.11146 31.1527 3.11588 31.5986 2.90602C31.8276 3.03856 32.0742 3.18105 32.3207 3.32353C32.5457 2.91265 32.7383 3.46381 33.028 3.32353C33.2799 3.20204 33.7487 3.4384 33.9588 3.29923C34.5489 2.90602 35.1349 3.13797 35.7249 3.08827C36.4726 3.02531 37.2108 2.85521 37.9679 2.92369C38.0717 2.93363 38.2064 2.84748 38.3007 2.77458C38.4987 2.62326 38.6698 2.50397 38.8611 2.77237C38.9002 2.8276 39.0349 2.84969 39.1211 2.84196C39.3973 2.81766 39.6707 2.76133 39.9469 2.73703C40.1934 2.71494 40.4211 2.77348 40.6959 2.67296C40.8885 2.60227 41.2132 2.87068 41.515 3.00322C41.7925 2.95793 42.1077 2.52164 42.5105 2.95241C42.5657 3.01206 42.7678 2.99549 42.881 2.95572C43.3403 2.79446 43.7916 2.42997 44.2429 2.92811C44.7037 2.56914 45.1859 2.94247 45.6952 2.83754C45.6547 2.70058 45.613 2.55588 45.5497 2.33719C45.8864 2.35376 46.168 2.38137 46.4496 2.37695C46.9211 2.36922 47.3926 2.34602 47.8641 2.31068C47.9193 2.30626 47.957 2.17151 48.023 2.12512C48.1106 2.06437 48.2211 2.03234 48.3221 1.98705C48.4555 2.32062 48.6723 2.00804 48.8461 2.03123C49.0738 2.06105 49.3028 2.09309 49.5318 2.08756C49.6719 2.08425 49.812 2.01135 49.9508 1.97048C49.9831 2.07983 49.9899 2.20685 50.0572 2.2908C50.1003 2.34381 50.2512 2.37474 50.3226 2.34492C50.8655 2.11849 51.399 2.28748 51.9365 2.30626C52.0618 2.31068 52.249 2.34602 52.3042 2.28638C52.6276 1.92962 52.8795 2.38137 53.2095 2.30737C53.8696 2.16046 54.5647 2.1947 55.2329 2.04117C55.7435 2.45316 56.4009 2.31841 56.9937 2.36811C57.8168 2.4377 58.6547 2.42776 59.4859 2.40567C59.7796 2.39794 60.0827 2.27423 60.3656 2.16599C60.5596 2.09088 60.7252 1.9495 60.9058 1.84125C60.9085 1.83904 60.9435 1.90642 60.965 1.90642C61.3557 1.90973 61.7477 1.89758 62.1371 1.91526C62.261 1.92078 62.3809 2.05001 62.4994 2.04449C62.7743 2.03123 63.0477 1.96386 63.3225 1.93182C63.5017 1.91084 63.689 1.88433 63.8614 1.91194C64.054 1.94287 64.698 1.98374 65.0253 1.98484C65.3864 1.98595 65.7434 2.06105 66.1044 2.06768C66.4776 2.07541 66.8426 2.23778 67.2373 2.00583C67.368 1.92851 67.6819 2.03565 67.8543 2.14058C68.0672 2.26981 68.2639 2.34823 68.4565 2.18034C68.7219 1.9495 68.8122 2.33277 68.9981 2.27202C69.2015 2.20464 69.3941 2.10192 69.5881 2.01025C69.7834 1.91747 69.972 1.80922 70.1728 1.72749C70.2549 1.69435 70.391 1.67999 70.4503 1.72086C70.8612 2.00914 71.3515 1.61703 71.7409 1.85672C71.9187 1.65127 72.0749 1.47124 72.2245 1.29893C73.255 1.74626 74.2438 1.79044 75.2273 1.21609C75.3337 1.15423 75.4724 1.03715 75.556 1.06035C76.1622 1.23487 76.767 0.95321 77.3665 1.025C78.2826 1.13435 79.1892 1.12883 80.0999 0.903506C80.31 0.851593 80.636 0.852698 80.7681 0.968674C81.1224 1.27905 81.5629 1.14761 81.9657 1.25806C82.0506 1.13435 82.1314 1.01617 82.227 0.876998C82.4183 0.962046 82.6042 1.05151 82.7969 1.12994C82.9935 1.21057 83.2239 0.884729 83.4287 1.17964C83.5364 1.33427 83.8072 0.859325 83.9514 1.21719C84.2585 1.10232 84.3784 0.878102 84.3191 0.504771C84.8095 0.650569 85.2514 0.38769 85.6663 0.613015C86.0664 0.257356 86.55 0.732304 86.9609 0.466112C86.9959 0.442917 87.0579 0.438499 87.101 0.44844C88.3888 0.745558 88.3875 0.743349 89.8882 0.460589C90.0068 0.438499 90.1375 0.478262 90.287 0.491516C90.2479 0.575461 90.2331 0.619642 90.2075 0.657196C90.1779 0.700273 90.1388 0.737827 90.0135 0.881416C90.4406 0.794158 90.7423 1.03936 91.1168 0.820666C91.2556 0.738931 91.49 0.808517 91.6799 0.800785C92.1514 0.783112 92.6243 0.774276 93.0944 0.736722C93.5295 0.702482 93.4649 0.301537 93.6535 0C93.8044 0.11708 93.9728 0.197711 94.0617 0.328046C94.1978 0.527966 94.4605 0.550056 94.5736 0.484889C95.0047 0.238579 95.3293 0.384377 95.7335 0.530175C95.9921 0.62406 96.4273 0.540116 96.6751 0.383272C97.1938 0.054122 97.6303 0.177829 98.1072 0.371122C98.2756 0.439603 98.4803 0.503666 98.6554 0.478262C99.0084 0.427453 99.2913 0.208756 99.7278 0.360077C100.055 0.472739 100.512 0.230847 100.933 0.309269C101.348 0.386586 101.782 0.393213 102.207 0.430767C102.37 0.445126 102.538 0.490412 102.697 0.469426C103.811 0.321419 104.051 0.332464 105.314 0.710213C105.587 0.791949 105.867 0.493725 106.12 0.72899C107.397 0.45838 107.397 0.45838 108.363 1.14209C108.57 1.03826 108.781 0.841653 108.956 0.861534C109.477 0.920074 110.008 0.514711 110.521 0.883625C110.807 1.08907 111.149 1.0714 111.514 0.976405C111.782 0.90682 112.192 0.849384 112.346 0.981928C112.714 1.29672 113.143 1.194 113.54 1.23597C113.909 1.27573 114.293 1.44362 114.68 1.22824C114.713 1.20946 114.804 1.30776 114.874 1.31771C115.223 1.37183 115.635 1.54745 115.914 1.43368C116.532 1.18074 117.177 1.59163 117.767 1.2183C117.99 1.07802 118.355 0.905715 118.524 0.984137C118.718 1.07471 119.003 1.09017 119.1 1.20946C119.411 1.59163 119.725 1.31881 120.062 1.26027C120.371 1.7054 120.797 1.71423 121.364 1.66895C122.173 1.60378 122.975 1.53309 123.78 1.42374C124.063 1.38508 124.36 1.46461 124.641 1.49001C124.69 1.64023 124.732 1.76725 124.801 1.97159C125.123 1.754 125.383 1.57837 125.671 1.38398C126.708 1.5607 127.767 1.50989 128.811 1.14982C128.924 1.11116 129.106 1.0979 129.186 1.15644C129.772 1.585 130.497 1.38619 131.15 1.49443C131.407 1.53751 131.728 1.49112 131.966 1.38177C132.458 1.15644 132.859 1.2912 133.317 1.44362C133.635 1.54966 134.025 1.47897 134.419 1.4878C134.406 1.47234 134.442 1.49664 134.441 1.51983C134.44 1.53972 134.395 1.55849 134.371 1.57948C134.325 1.61814 134.281 1.65901 134.236 1.69766C134.53 2.01025 134.837 1.58942 135.109 1.68331C135.384 1.77719 135.624 1.95392 135.889 2.10082C136.045 1.88764 135.963 1.52646 136.318 1.4392C136.584 1.37293 136.862 1.35084 137.156 1.30556C137.265 1.42595 137.387 1.56402 137.529 1.71975C137.607 1.69877 137.694 1.66784 137.785 1.65238C138.111 1.59715 138.438 1.18627 138.764 1.62477C139.033 1.56954 139.304 1.51652 139.574 1.45688C139.692 1.43037 139.889 1.33317 139.913 1.3641C140.267 1.81033 140.715 1.50327 141.131 1.44473C141.167 1.58832 141.194 1.69877 141.225 1.82469C141.45 1.68883 141.678 1.56954 141.842 1.91636C141.966 1.80149 142.081 1.69435 142.19 1.59163C142.267 1.61814 142.312 1.62808 142.353 1.64796C142.566 1.75289 142.765 1.91305 142.993 1.95171C143.214 1.99036 143.466 1.92078 143.697 1.86887C143.792 1.84788 143.88 1.75952 143.952 1.68662C144.418 1.21388 144.819 1.25033 145.133 1.79486C145.182 1.87991 145.267 1.94618 145.335 2.02129C145.43 1.91857 145.523 1.81474 145.601 1.7297C145.737 1.88212 145.977 2.20685 146.016 2.18587C146.336 2.01687 146.474 2.51612 146.819 2.27312C146.852 2.16267 146.902 1.99589 146.956 1.81806C147.058 1.82689 147.166 1.80701 147.232 1.84788C147.507 2.01798 147.487 2.29963 147.529 2.59565C147.678 2.42224 147.829 2.24883 147.937 2.12401C148.147 2.19912 148.341 2.2676 148.525 2.33387C148.589 2.2433 148.628 2.19691 148.655 2.145C148.721 2.0224 148.781 1.89758 148.845 1.77388C148.954 1.88102 149.062 1.98705 149.241 2.16378C149.281 2.14721 149.409 2.06879 149.547 2.04449C149.699 2.01798 149.859 2.04007 150.102 2.04117C150.048 1.84898 150.007 1.70319 149.945 1.48228C150.149 1.53419 150.464 1.56733 150.465 1.62035C150.488 2.2179 150.969 2.16378 151.373 2.17482C151.645 2.18255 151.99 1.9981 152.183 2.0964C152.456 2.23668 152.677 2.15494 152.918 2.12843C153.127 2.10524 153.332 2.03455 153.583 1.9749C153.592 2.18034 153.6 2.35155 153.608 2.51833C154.337 2.40898 155.047 2.3648 155.685 2.7536C156.28 3.11588 156.957 3.05955 157.624 3.05292C157.774 3.05182 157.923 2.97892 158.074 2.96677C158.51 2.93253 158.954 3.1932 159.385 2.90381C159.735 3.26278 160.143 3.10925 160.585 3.05513C161.069 2.99659 161.077 3.07501 161.357 2.69064C161.667 2.79888 162.09 2.59233 162.361 2.97119C162.805 2.6807 163.383 3.07281 163.803 2.69064C164.076 2.44433 164.362 2.62878 164.641 2.61774C164.974 2.60448 165.156 2.74034 165.221 3.07612C165.274 3.35115 165.543 3.27493 165.781 3.20314C165.728 3.12693 165.681 3.05955 165.633 2.99107C165.645 2.97561 165.666 2.93474 165.677 2.93695C166.252 3.03415 166.853 2.56803 167.416 2.96014C167.488 3.00985 167.594 3.01758 167.659 3.0717C167.912 3.28708 168.2 2.80993 168.505 3.1203C168.638 3.25616 169.042 3.25284 169.315 3.03856C169.386 2.98334 169.618 3.00432 169.689 3.0706C170.101 3.45276 170.736 3.19209 171.188 3.51462C171.339 3.62176 171.707 3.46602 172.038 3.42184C172.185 3.64053 172.34 3.87028 172.429 4.00392C172.734 4.15083 173.107 3.71233 173.124 4.15414C173.143 4.63682 173.663 4.70641 173.821 5.09189C173.934 5.36692 174.436 5.49394 174.754 5.6806C174.715 5.71374 174.645 5.77228 174.582 5.8264C174.605 6.0219 175.15 6.08044 174.715 6.37535C174.793 6.74758 174.791 7.11981 174.772 7.50418C174.761 7.73061 174.993 7.9703 175.148 8.18347C175.199 8.25526 175.347 8.2641 175.491 8.31491C175.264 8.63522 175.076 8.8981 174.836 9.23719C175.141 9.29463 175.377 9.33881 175.705 9.40066C175.629 9.58733 175.553 9.76295 175.482 9.94078C175.374 10.2114 175.082 10.4003 175.099 10.7383C175.105 10.8487 174.948 10.9901 174.836 11.0862C174.524 11.3524 174.512 11.7147 174.616 12.0029C174.727 12.3166 175.106 12.7054 175.394 12.6071C175.777 12.4779 175.851 12.6447 175.998 12.8236C176.008 12.8358 175.89 12.9429 175.792 13.05C176.112 13.1141 176.363 13.3449 176.749 13.2245C176.729 13.3792 176.71 13.5239 176.686 13.7039C176.469 13.6851 176.251 13.6653 176.014 13.6443C175.916 13.8541 175.876 14.0861 175.732 14.2076C175.55 14.3589 175.967 14.5069 175.674 14.6207C175.625 14.6395 175.642 14.8184 175.629 14.9233C175.704 14.8825 175.779 14.8416 175.855 14.8007C175.905 15.1431 176.283 15.2249 176.464 15.4458C176.396 15.6711 175.932 15.4745 176.052 15.8069C176.095 15.9251 176.172 16.2753 176.511 15.9892C176.558 15.9494 176.81 16.125 177 16.2167C176.809 16.3327 176.675 16.4144 176.542 16.4951C176.644 16.6144 176.748 16.7336 176.876 16.8817C176.807 16.9247 176.677 17.0661 176.597 17.0462C176.417 17.002 176.299 16.7171 176.054 16.97C175.84 17.1898 175.614 17.4008 175.414 17.6316C175.373 17.6791 175.424 17.7962 175.432 17.8801L175.34 18.8367C175.065 19.1448 175.308 19.6275 174.904 19.8926C174.956 20.1743 175.009 20.457 175.067 20.7674C174.264 20.8392 174.28 21.3429 174.269 21.8808C174.51 21.7692 174.737 21.6643 175.043 21.5218C175.012 21.7571 174.993 21.8995 174.964 22.1138C174.839 22.1193 174.661 22.1282 174.481 22.137C174.077 22.5291 174.079 22.9522 174.337 23.3962C174.512 23.2747 174.688 23.1521 174.908 22.9997C175.014 23.1896 175.086 23.3189 175.158 23.4481C175.487 23.1454 175.466 23.5784 175.626 23.6314C175.798 23.6878 175.971 23.7452 176.216 23.8258C175.866 24.0202 175.563 24.187 175.251 24.3593C175.471 24.631 175.724 24.821 175.789 25.0607C175.856 25.3059 175.74 25.6008 175.707 25.8493C175.829 25.994 175.932 26.1122 176.048 26.2481C175.907 26.2967 175.774 26.342 175.643 26.3872C175.687 26.733 175.73 27.0732 175.77 27.3946C175.925 27.3548 176.083 27.3139 176.37 27.2399C176.027 27.7027 175.682 27.8541 175.282 27.8066C175.257 27.9965 175.238 28.1412 175.216 28.3025C175.346 28.2561 175.44 28.2219 175.643 28.149C175.559 28.3246 175.499 28.4174 175.47 28.5168C175.379 28.8106 175.094 28.8636 174.857 28.9774C174.516 29.1397 174.753 29.4998 174.547 29.703C174.513 29.7362 174.419 29.7086 174.369 29.7362C174.129 29.872 174.121 29.9372 174.304 30.1007C174.381 30.1692 174.465 30.2354 174.519 30.3183C174.55 30.3658 174.617 31.0064 174.659 31.0671C174.581 31.1411 174.481 31.2151 174.412 31.3079C174.294 31.4692 173.842 31.2925 173.968 31.6426C174.051 31.8757 173.522 31.9243 173.836 32.154C173.532 32.6742 173.228 33.1945 172.913 33.7357C173.134 34.1212 173.378 34.5497 173.628 34.986C174.056 34.7077 174.176 35.1517 174.423 35.387C174.294 35.5681 174.162 35.7515 173.996 35.9823C174.1 36.0685 174.24 36.1844 174.461 36.3667C174.141 36.3921 173.958 36.4075 173.763 36.423C173.771 36.4716 173.767 36.5213 173.79 36.5567C173.969 36.8438 174.422 37.0371 174.114 37.5032C173.968 37.5055 173.811 37.5088 173.616 37.511C173.597 37.6501 173.578 37.7937 173.558 37.9539C173.298 38.029 173.06 38.1571 172.833 38.1472C172.553 38.135 172.356 38.251 172.28 38.4344C172.122 38.8066 171.847 38.769 171.51 38.8099C170.976 38.8751 170.522 39.1777 170.068 39.582C170.213 39.7189 170.379 39.8239 170.466 39.9708C170.551 40.1121 170.617 40.3088 170.581 40.4612C170.501 40.7881 170.856 40.7207 170.93 40.8478C170.315 41.2244 169.703 41.5988 169.162 41.9302C169.309 42.1025 169.476 42.298 169.767 42.6382C169.055 42.6747 168.815 42.9364 168.809 43.3661C168.611 43.3694 168.455 43.3727 168.3 43.376C168.229 43.5483 168.138 43.8543 168.097 43.8499C167.71 43.8068 167.561 44.3193 167.128 44.1879C166.825 44.0962 166.464 44.1603 166.157 44.0752C165.909 44.0067 165.637 44.3469 165.423 44.031C165.408 44.01 165.234 44.0498 165.171 44.1006C164.903 44.3138 164.66 44.4662 164.325 44.1967C164.245 44.1337 163.978 44.1945 163.853 44.2751C163.607 44.4331 163.401 44.5004 163.162 44.3005C163.118 44.263 162.37 44.3801 162.351 44.4264C162.157 44.8716 161.78 44.6794 161.595 44.5402C161.403 44.3944 161.117 44.6739 161.03 44.3801C160.805 44.4806 160.578 44.5811 160.339 44.6882C160.069 44.5468 159.797 44.2641 159.443 44.612C159.191 44.4143 158.873 44.8694 158.632 44.5634C158.3 44.8738 158.081 44.5789 157.799 44.485C157.629 44.4287 157.387 44.5855 157.177 44.5888C156.882 44.5932 156.58 44.5711 156.296 44.5093C156.086 44.4629 155.838 44.7898 155.671 44.4629C155.295 44.6683 154.91 44.4209 154.512 44.5314C154.127 44.6396 153.739 44.422 153.281 44.5756C152.925 44.6948 152.342 44.7081 152.008 44.3734C151.794 44.1603 151.31 44.5479 151.251 44.0178C151.235 43.8775 150.83 43.7847 150.573 43.6555C150.445 43.8123 150.313 43.9758 150.174 44.147C149.37 44.0907 148.595 44.2508 147.837 44.5855C147.549 44.7125 147.197 44.707 146.875 44.7611C146.657 44.3469 146.385 44.8031 146.129 44.7468C145.857 44.6871 145.535 44.6595 145.275 44.7401C145.054 44.8086 144.849 44.5778 144.585 44.8572C144.355 45.1024 143.767 44.8417 143.472 45.2361C143.459 45.2537 143.305 45.1941 143.224 45.1554C143.01 45.0538 142.757 44.982 142.598 44.8274C142.389 44.6242 142.132 45.0991 141.967 44.7644C141.951 44.7302 141.779 44.7247 141.712 44.7611C140.845 45.2328 139.935 45.1444 139.021 45.0339C138.86 45.0141 138.698 45.0041 138.547 44.9909C138.485 44.8594 138.429 44.7423 138.373 44.6253C138.216 44.76 138.058 44.8583 137.891 44.6474C137.767 44.4916 137.642 44.5325 137.479 44.6264C137.398 44.6728 137.2 44.6705 137.157 44.6175C136.886 44.2829 136.664 44.5468 136.528 44.7103C136.188 45.1212 136.036 45.2659 135.542 45.267C135.069 45.2681 134.597 45.1643 134.163 45.4735C134.103 45.5166 133.94 45.4625 133.84 45.4205C132.806 44.9909 132.806 44.9887 131.605 45.4305C131.549 45.4515 131.472 45.4901 131.43 45.4724C130.829 45.2129 130.513 45.7839 130.008 45.922C129.828 45.8126 129.632 45.6823 129.424 45.5707C129.321 45.5144 129.175 45.4349 129.083 45.4658C128.775 45.5718 128.48 45.5995 128.154 45.5707C127.847 45.5431 127.553 45.4437 127.204 45.5796C126.932 45.6867 126.558 45.521 126.254 45.5895C125.639 45.7298 125.008 45.679 124.407 45.8049C123.828 45.9264 123.25 45.9894 122.67 46.0545C122.647 46.0567 121.519 45.8436 121.485 45.8226C121.118 45.6006 120.711 45.5873 120.3 45.6944C119.595 45.8789 118.849 45.6712 118.159 45.9651C117.889 45.5939 117.443 45.7331 117.08 45.7132C116.775 45.6967 116.427 45.7784 116.127 45.7673C115.704 45.7519 115.242 45.848 114.835 45.5199C114.608 45.3377 114.142 45.4371 113.82 45.3244C113.516 45.2173 113.253 45.3929 112.954 45.3487C112.629 45.3012 112.27 45.1201 111.919 45.3819C111.841 45.4404 111.668 45.4062 111.545 45.3852C111.188 45.3233 110.875 44.9356 110.496 45.1676C110.133 45.3896 109.798 45.1179 109.458 45.2504C109.508 45.3863 109.554 45.5111 109.617 45.6845C109.325 45.6845 109.119 45.9827 108.803 45.7221C108.705 45.6403 108.417 45.7585 108.215 45.785C108.191 45.6812 108.165 45.5707 108.123 45.3962C108.042 45.5531 107.991 45.6525 107.933 45.764C107.718 45.637 107.518 45.4702 107.283 45.3929C106.97 45.2913 106.679 45.352 106.385 45.584C105.892 45.9728 105.556 45.8712 105.247 45.3277C105.178 45.2073 105.081 45.1024 104.941 44.9158C104.909 45.161 104.89 45.3045 104.859 45.5409C104.61 45.5188 104.344 45.5663 104.188 45.4658C103.905 45.2836 103.682 45.1068 103.35 45.3973C103.302 45.4393 103.116 45.426 103.071 45.3763C102.79 45.0627 102.432 45.3587 102.153 45.2847C101.427 45.0903 100.796 45.489 100.116 45.5442C100.073 45.5475 100.039 45.6933 99.9635 45.8502C99.6968 45.8115 99.3358 45.8436 99.1014 45.7C98.8777 45.563 98.5921 45.827 98.4332 45.5343C98.2809 45.2526 97.9401 45.3211 97.664 45.2714C97.5185 45.2449 97.3851 45.1709 97.1574 45.0858C97.0241 45.2206 96.8301 45.4172 96.6388 45.6105C96.1093 45.0627 96.1147 45.0726 95.5691 45.3156C95.4075 45.3874 95.2094 45.3995 95.0262 45.4117C94.5803 45.4437 94.1439 45.2085 93.6872 45.4117C93.6441 45.4305 93.5552 45.3653 93.4919 45.3311C92.7954 44.9632 92.7954 44.9632 92.107 45.4526C92.0598 45.4857 91.9925 45.4934 91.9345 45.5133C91.3149 45.1068 90.7962 45.5398 90.1914 45.7916C90.1684 45.6436 90.1887 45.5122 90.128 45.4437C89.9852 45.2814 89.9044 44.9688 89.5312 45.2272C89.4059 45.3145 89.1433 45.2935 88.9749 45.2416C88.564 45.1146 88.2945 45.3366 87.9753 45.5984C87.8325 45.457 87.7247 45.3123 87.5779 45.2151C87.3556 45.066 87.1414 45.0063 86.8087 45.0196C86.2375 45.0428 85.6892 45.0671 85.184 45.2096C85.0196 45.0174 84.8486 44.8163 84.6883 44.6286C84.342 44.8097 84.0928 44.9367 83.849 45.0704C83.5863 45.2151 83.3384 45.3112 83.0528 45.109C82.9774 45.0549 82.7753 45.0693 82.6904 45.1289C82.4668 45.2858 82.2526 45.2825 82.0788 45.13C81.6841 44.7821 81.9428 45.3631 81.6558 45.2814C81.5912 45.2062 81.4847 45.0284 81.3258 44.9113C81.1897 44.8108 80.9297 44.6816 80.8368 44.7357C80.6172 44.8649 80.4232 44.8804 80.1942 44.8484C80.0002 44.8219 79.8022 44.8119 79.5853 44.792C79.293 45.13 78.8645 45.2206 78.4456 45.3763C78.1465 45.4879 78.0482 45.1543 77.9067 45.2692C77.6279 45.4956 77.6023 45.0096 77.3544 45.1587C77.186 45.2604 76.9624 45.2825 76.7091 45.3554C76.7024 45.0903 76.6983 44.9191 76.6943 44.7236C76.4558 44.9268 76.243 45.1068 76.1905 45.151C75.401 45.1919 74.8312 45.2073 74.264 45.2637C74.1657 45.2736 74.0808 45.457 73.9892 45.5597C73.5595 45.0947 72.9721 45.7508 72.5316 45.426C72.5586 45.3156 72.5828 45.2096 72.6084 45.1046C72.2312 45.1179 71.9241 44.7269 71.4876 44.9931C71.3596 45.0704 71.1279 44.9931 70.9016 45.1179C71.1454 45.2327 71.3892 45.3476 71.6183 45.4559C71.5037 45.5531 71.3663 45.6602 71.2411 45.7784C71.0579 45.9496 71.0013 45.9419 70.849 45.7221C70.7925 45.6392 70.7184 45.4978 70.6537 45.5012C70.2832 45.5177 69.8885 45.5067 69.5504 45.6293C69.3214 45.7121 69.1759 46.0026 68.9832 46.1926C68.8916 46.2821 68.7771 46.3516 68.5522 46.5228C68.6505 46.2644 68.7044 46.123 68.7798 45.9253C68.6896 45.7121 68.4565 45.5652 68.1494 45.6878C68.0066 45.7453 67.888 45.9474 67.8368 46.1042C67.8005 46.2147 67.8947 46.3594 67.9311 46.4908C67.7937 46.5306 67.6482 46.5737 67.4381 46.6344C67.4637 46.6432 67.3963 46.6399 67.3788 46.6112C67.1444 46.2158 66.7618 46.0788 66.3092 45.964C66.1138 45.9142 66.0977 45.8391 66.037 46.0534C65.9724 46.2843 65.7582 46.1175 65.6329 46.1716C65.5144 46.2224 65.4295 46.3472 65.284 46.482C65.2314 46.3583 65.1964 46.2114 65.1143 46.0965C64.9041 45.806 64.8179 45.8314 64.5565 46.2257C64.2292 46.144 63.8897 45.9595 63.5879 46.0092C63.2687 46.0623 63.0854 45.5674 62.7648 45.9087C62.4698 45.7375 62.1788 45.7441 61.8771 45.9297C61.8043 45.975 61.6494 46.017 61.6184 45.986C61.4002 45.7662 61.1752 45.6735 60.8707 45.8657C60.6175 46.0247 60.3386 45.8204 60.0342 45.9628C59.8024 46.0711 59.4347 45.9242 59.1302 45.8734C58.982 45.848 58.8217 45.8082 58.7018 45.7298C58.3731 45.5177 57.9622 46.1561 57.6753 45.6591C57.3183 45.6227 56.9613 45.5895 56.6057 45.5475C56.2473 45.5045 55.9941 45.6536 55.73 45.88C55.5724 46.0159 55.2922 46.0269 54.9837 46.1175C54.8315 45.9397 54.6469 45.7232 54.5028 45.5553C54.2024 45.5012 53.9801 45.9131 53.7538 45.5464C53.7228 45.4967 53.5288 45.5 53.4291 45.5332C53.029 45.6646 52.6329 45.9651 52.2504 45.5354C51.5229 45.5232 50.7981 45.2438 50.0666 45.5796C50.0006 45.6094 49.8754 45.6469 49.8578 45.6249C49.5817 45.2769 49.4187 45.6227 49.2179 45.7254C49.2718 45.7961 49.3244 45.8668 49.3769 45.9374C49.3769 45.9374 48.5282 45.764 48.4986 45.7574C48.3611 45.9695 48.2183 46.1904 48.0594 46.4367C47.8762 46.398 47.5367 46.62 47.5515 46.165C47.5529 46.1175 47.3373 46.0092 47.2551 46.0346C47.0207 46.1064 46.8133 46.2787 46.5775 46.3218C46.3633 46.3605 46.2071 46.2887 46.0737 46.5814C45.9349 46.884 45.7706 46.8531 45.3921 46.609C45.3355 46.7139 45.2816 46.8178 45.1832 47C44.9381 46.8443 44.7198 46.6234 44.4531 46.5549C44.0692 46.4577 44.0382 46.1727 43.9223 45.9176C43.2676 46.3605 43.1652 46.3539 42.947 45.8005C42.7759 45.9949 42.6264 46.165 42.4674 46.3439C42.0269 46.3053 41.5702 46.2633 41.1122 46.2268C41.0879 46.2246 41.0596 46.26 41.0111 46.2931C41.0542 46.3572 41.0974 46.4234 41.1661 46.5262C40.3227 46.8907 39.9833 46.1617 39.4134 45.8734C39.3622 45.9209 39.2962 45.9717 39.2464 46.0335C39.21 46.0788 39.1965 46.1396 39.148 46.2511C39.0443 46.2081 38.9487 46.1528 38.8422 46.1274C38.5701 46.0611 38.2899 45.9496 38.0178 45.9684C37.7901 45.9838 37.5692 46.1583 37.3456 46.2633C37.1691 45.9717 36.8404 46.0656 36.5696 46.0048C36.3298 45.9507 36.0334 46.0678 35.8502 45.8204C35.8367 45.8027 35.7074 45.8502 35.6401 45.8822C35.3599 46.0137 35.1093 45.9927 34.8264 45.869C34.6849 45.8071 34.464 45.8922 34.2795 45.9154C34.0962 45.9385 33.8511 45.9098 33.7433 46.0092C33.4725 46.2578 33.4725 45.8314 33.2866 45.8988C33.1735 45.9397 33.0428 45.9452 32.9202 45.9463C32.5282 45.9463 32.124 46.3682 31.7428 45.9529C31.4949 46.2036 30.8725 45.838 30.8267 46.4731C30.8186 46.5913 30.5209 46.6996 30.2677 46.873C30.2569 46.5748 30.2515 46.4036 30.2447 46.2379C30.172 46.2147 30.0898 46.1617 30.0602 46.1815C29.5685 46.5129 28.9959 46.6587 28.4409 46.8454C28.3763 46.8675 28.2995 46.863 28.2294 46.8641C27.9411 46.8675 27.5235 46.9812 27.3902 46.8476C27.0305 46.4864 26.6937 46.7769 26.3502 46.7758C26.0093 46.7747 25.6321 47.1314 25.3196 46.6996C25.2765 46.641 25.003 46.6775 24.875 46.7404C24.7039 46.8255 24.5962 46.8476 24.4615 46.7073C24.289 46.5273 24.095 46.546 23.8593 46.6576C23.4861 46.8332 23.0416 46.5516 22.6657 46.8211C22.6442 46.8365 22.5431 46.789 22.5121 46.7482C22.24 46.3881 21.9423 46.6863 21.5732 46.7515C21.5355 46.6024 21.487 46.4135 21.4385 46.2257C20.8632 46.9779 20.1412 46.3461 19.6535 46.8332C19.5053 46.5427 19.3787 46.2964 19.2655 46.0744C19.0527 46.1826 19.0015 46.2047 18.9543 46.2335C18.4478 46.5471 18.2996 46.5416 18.01 46.1473C17.8537 45.9341 17.7379 45.6944 17.6045 45.4669C17.292 45.6944 17.2138 45.4084 17.0481 45.2438C16.7531 45.3266 16.4419 45.4791 16.1361 45.4791C15.9273 45.4791 15.6646 45.309 15.5326 45.14C15.2295 44.7534 14.8361 44.7943 14.4131 44.8583C14.2299 44.8859 14.0453 44.9058 13.8608 44.9268C13.5213 44.9666 13.2721 44.7423 12.9798 44.686C12.7413 44.6407 12.5217 44.9456 12.1768 44.8727C11.9263 44.8197 11.6232 44.9776 11.3403 45.0229C11.1853 45.0472 11.0237 45.0339 10.8661 45.0339C10.5226 45.0361 10.1777 44.8804 9.83685 45.1201C9.75872 45.1753 9.54857 45.1488 9.45831 45.087C9.16194 44.8837 8.86152 44.8815 8.53551 45.0141C8.27147 44.6705 7.92256 45.0715 7.61137 44.95C7.47665 44.8981 7.25977 45.1079 7.0833 44.8948C7.0348 44.8351 6.80308 44.8329 6.71686 44.8892C5.97593 45.3697 5.23232 45.0107 4.35398 45.0505C4.51968 44.8042 4.6032 44.6617 4.70558 44.5325C4.81874 44.3911 4.97231 44.274 5.06931 44.126C5.16495 43.9791 5.16631 43.7538 5.29294 43.6577C5.41687 43.5627 5.70113 43.6533 5.63781 43.302C5.41958 43.2645 5.17708 43.2236 4.93864 43.1827C4.94537 42.7144 4.91843 42.5134 4.4119 41.7248C4.16537 41.3404 3.98486 41.0764 4.486 40.7439C4.60859 40.6622 4.59916 40.417 4.6773 40.259C4.73253 40.1696 4.8349 40.1077 4.91843 39.9752C4.90361 40.0923 4.88341 40.1519 4.89014 40.2082C4.90631 40.3386 4.9346 40.4678 4.9575 40.597C5.04372 40.5816 5.12859 40.565 5.21481 40.5495C5.18382 40.4247 5.15822 40.2977 5.1178 40.1751C5.10029 40.1232 5.05045 40.0812 4.91843 39.9752ZM172.841 30.1415C172.466 30.7866 172.841 31.3852 172.739 32.069C173.18 31.7564 173.415 31.351 173.359 31.0097C173.312 30.7402 173.341 30.2487 172.841 30.1415Z" fill="#FBB03B"/>
<path d="M2.30532 15.0534C2.21776 15.2378 2.15848 15.4411 2.03185 15.599C1.9618 15.6874 1.78262 15.7006 1.58594 15.6487C1.78531 15.4256 1.9847 15.2025 2.18273 14.9805C2.22449 15.0048 2.26491 15.0291 2.30532 15.0534Z" fill="#FBB03B"/>
<path d="M8.31608 31.1864C7.76645 31.3985 7.76644 31.3985 7.70312 31.0373C7.93753 30.9721 8.15712 30.9269 8.31608 31.1864Z" fill="#FBB03B"/>
</svg>
