<svg width="131" height="39" viewBox="0 0 131 39" fill="none" xmlns="http://www.w3.org/2000/svg">
<path d="M99.8147 1.24999C99.8648 1.25374 99.9178 1.27065 99.9629 1.26032C100.203 1.20303 100.442 1.13823 100.667 1.08C100.735 1.20491 100.808 1.33733 100.934 1.56553C100.99 1.31479 101.024 1.15795 101.062 0.98609C101.601 0.852733 101.728 1.29131 102.006 1.61719C102.022 1.44439 102.032 1.3392 102.041 1.24623C102.219 1.17861 102.362 1.09409 102.516 1.07343C102.63 1.0584 102.821 1.01614 102.826 1.24529C102.831 1.46974 103.067 1.31948 103.198 1.4472C103.245 1.28098 103.239 1.12039 103.324 1.05183C103.436 0.961672 103.616 0.935376 103.771 0.900628C103.881 0.876211 103.953 1.15419 104.102 0.946646C104.126 1.01145 104.177 1.08 104.167 1.14011C104.159 1.188 104.077 1.22463 104.021 1.27346C104.226 1.48383 104.532 1.01896 104.699 1.37113C104.725 1.31291 104.74 1.24717 104.78 1.19927C104.877 1.08564 105.043 1.09691 105.063 1.21148C105.104 1.44814 105.214 1.55145 105.471 1.59465C105.565 1.61061 105.632 1.76087 105.722 1.86042C106.262 1.74115 106.262 1.74115 106.459 2.09521C106.5 1.94307 106.532 1.82098 106.572 1.66978C107.016 2.08112 107.401 1.67917 107.814 1.62094C107.859 1.73176 107.897 1.82661 107.947 1.94964C107.997 1.84821 108.035 1.77214 108.098 1.6463C108.193 1.69795 108.279 1.75993 108.375 1.79187C108.484 1.82755 108.604 1.836 108.747 1.8623C108.76 1.728 108.77 1.62282 108.777 1.53924C108.991 1.37771 109.281 1.47068 109.699 1.81347C109.829 1.67917 109.961 1.54393 110.103 1.39837C110.183 1.43969 110.299 1.48759 110.295 1.49886C110.207 1.74585 110.523 1.67635 110.584 1.81534C110.253 1.98814 109.92 2.16094 109.588 2.33468C109.606 2.36943 109.623 2.40512 109.641 2.43987C109.749 2.41451 109.863 2.35535 109.963 2.37131C110.095 2.39291 110.209 2.48776 110.339 2.52721C110.615 2.60985 110.694 2.54129 110.692 2.18067C110.691 2.05482 111.001 1.96561 110.736 1.8191C110.819 1.81065 110.903 1.80126 110.986 1.7928C110.997 1.89987 111.009 2.00693 111.025 2.16282C111.135 2.17785 111.269 2.19569 111.482 2.22481C111.409 2.11774 111.378 2.07267 111.337 2.01162C111.646 1.9224 111.958 1.83319 112.316 1.72988C112.4 1.86042 112.493 2.00317 112.604 2.17597C113.238 2.15531 113.707 2.45865 114.021 3.01462C114.153 2.95545 114.254 2.87469 114.359 2.87281C114.476 2.87093 114.609 2.83149 114.693 3.0287C114.832 3.3527 114.877 3.32923 115.282 3.26067C115.467 3.22968 115.658 3.23625 115.84 3.22498C115.981 2.82585 115.513 3.06909 115.444 2.87656C115.634 2.83994 115.821 2.80237 116.019 2.76387C116.286 2.91413 116.141 3.1583 116.156 3.39497C116.291 3.3574 116.408 3.32359 116.541 3.28697C116.527 3.14328 116.51 2.97329 116.493 2.80425C116.632 2.95451 117.008 2.85027 116.934 3.15361C116.933 3.15643 117.022 3.19117 117.029 3.18178C117.214 2.97329 117.281 3.38088 117.442 3.2494C117.661 3.06815 117.88 3.12825 118.108 3.23437C118.35 3.34707 118.537 3.5086 118.671 3.72178C118.79 3.91055 118.91 4.09744 119.045 4.30874C118.881 4.31156 118.698 4.31438 118.515 4.31813C118.752 4.6365 118.856 4.66373 119.365 4.55292C119.455 4.53319 119.551 4.52756 119.645 4.5285C119.686 4.52944 119.728 4.56325 119.797 4.59518C119.49 4.87973 119.053 4.78676 118.643 4.9558C119.012 5.03563 119.317 5.11921 119.612 5.2629C119.925 5.4141 120.372 5.40941 120.742 5.36245C120.924 5.33897 120.928 5.42537 121.003 5.47233C121.163 5.57281 120.895 5.78975 121.136 5.87522C121.265 5.92123 121.39 5.97664 121.518 6.02454C121.533 6.03017 121.555 6.01796 121.599 6.00763C121.604 5.95504 121.629 5.88836 121.61 5.83483C121.59 5.77567 121.528 5.72871 121.456 5.64043C121.577 5.53619 121.684 5.41786 121.816 5.33334C122.019 5.20374 122.099 5.24412 122.264 5.48641C122.341 5.60005 122.455 5.69302 122.528 5.8076C122.581 5.89118 122.595 5.99449 122.651 6.16353C122.419 6.0884 122.23 6.02735 122.005 5.9541C121.93 6.04144 121.835 6.15226 121.74 6.26308C121.999 6.43588 121.683 6.53918 121.67 6.68193C121.658 6.81153 121.543 6.93362 121.424 7.14774C121.673 7.13178 121.825 7.15807 121.935 7.10736C122.157 7.00687 122.367 7.02002 122.543 7.14398C122.813 7.33275 122.94 7.2548 123.083 7.01344C123.156 6.89042 123.308 6.77584 123.501 6.96273C123.585 7.04444 123.757 7.05289 123.952 7.11393C123.758 7.21066 123.607 7.28579 123.464 7.35717C123.751 7.45578 123.883 7.81359 124.264 7.80232C124.451 8.1836 124.973 8.35922 125.086 8.73957C125.177 9.04103 125.587 9.05794 125.586 9.36503C125.792 9.10489 126.162 9.42796 126.367 9.17157C126.443 9.36316 126.513 9.54065 126.596 9.75383C126.709 9.71251 126.812 9.67401 126.922 9.63363C127.076 9.813 127.076 9.813 126.957 9.95481C127.045 10.0562 127.132 10.1577 127.229 10.2713C127.115 10.3276 127.012 10.3793 126.606 10.4685C126.498 10.5361 126.686 10.6019 126.827 10.4216C126.875 10.3605 126.863 10.26 126.878 10.1774C126.794 10.1896 126.71 10.2009 126.627 10.2131C126.694 10.4685 126.359 10.3183 126.606 10.4685C126.885 10.5521 126.938 10.6836 126.69 10.7005C126.521 10.7117 126.529 10.8254 126.687 10.9578C126.746 11.0076 126.79 11.0705 126.841 11.1278C126.765 11.1597 126.692 11.1973 126.613 11.2198C126.547 11.2386 126.422 11.2255 126.414 11.2508C126.289 11.6499 125.876 11.4969 125.569 11.619C125.615 11.7326 125.663 11.8481 125.71 11.9627C125.666 11.989 125.621 12.0153 125.577 12.0416C125.663 12.1092 125.748 12.1768 125.835 12.2444C125.898 12.513 126.179 12.4322 126.298 12.4003C126.467 12.3552 126.577 12.3562 126.695 12.4529C126.754 12.5008 126.799 12.5628 126.851 12.6182C126.76 12.6661 126.67 12.714 126.623 12.7393C126.739 12.8652 126.872 13.0089 127.044 13.1939C126.682 13.2803 126.426 13.3413 126.06 13.4287C126.349 13.5686 126.548 13.6634 126.784 13.7771C126.661 13.9057 126.545 14.0269 126.428 14.148C126.715 14.2288 126.774 14.2682 126.973 14.5143C126.816 14.6373 126.661 14.7622 126.501 14.8815C126.458 14.9134 126.401 14.9313 126.35 14.9557C126.541 15.0581 126.305 15.1595 126.346 15.2356C126.397 15.3285 126.685 15.2797 126.573 15.4788C126.511 15.5896 126.372 15.6553 126.55 15.7774C126.567 15.7896 126.529 15.9183 126.484 15.9427C126.306 16.0376 126.119 16.1202 125.929 16.1916C125.854 16.2198 125.736 16.1681 125.815 16.3212C125.854 16.3982 125.777 16.5231 125.818 16.5982C125.901 16.7523 126.028 16.8865 126.136 17.0284C125.92 16.9128 125.655 17.342 125.461 16.9758C125.432 17.0312 125.403 17.0856 125.374 17.1411C125.634 17.2509 125.675 17.6623 126.072 17.5749C126.091 17.666 126.124 17.7562 126.158 17.8454C126.258 17.8041 126.36 17.7675 126.457 17.7205C126.48 17.7092 126.485 17.666 126.507 17.6191C126.355 17.6069 126.219 17.5956 126.071 17.5749C126.101 17.388 126.118 17.2077 126.135 17.0284C126.322 17.1974 126.71 17.1918 126.688 17.5449C126.846 17.5308 127.001 17.6388 127.158 17.5665C127.223 17.5364 127.273 17.482 127.351 17.4237C127.47 17.4885 127.598 17.558 127.788 17.6623C127.682 17.7271 127.584 17.7618 127.528 17.8276C127.449 17.9196 127.401 18.0342 127.313 18.1863C127.184 18.2267 126.989 18.2887 126.804 18.346C126.836 18.4821 126.869 18.6192 126.901 18.7582C126.541 18.9799 126.032 18.8831 125.776 19.2766C125.942 19.3922 126.095 19.5631 126.283 19.6091C126.448 19.6485 126.649 19.5349 126.829 19.6664C126.891 19.7115 126.997 19.7077 127.165 19.7443C126.88 19.8335 126.685 19.8955 126.458 19.9669C126.451 20.0402 126.411 20.1369 126.441 20.2101C126.53 20.4318 126.574 20.6243 126.531 20.7868C126.766 21.0309 127.368 21.015 127.187 21.5916C126.915 21.4423 126.657 21.2995 126.376 21.1446C126.365 21.2526 126.355 21.3578 126.341 21.5033C126.493 21.5315 126.676 21.5653 126.859 21.5991C126.75 21.9494 126.624 22.2884 126.342 22.5542C126.695 22.8003 126.825 22.2227 127.068 22.4481C127.256 22.6228 127.559 22.2236 127.63 22.6012C127.717 22.5354 127.793 22.4772 127.862 22.4246C127.584 22.2668 127.302 22.1072 126.995 21.9325C127.263 21.8517 127.422 21.8799 127.793 21.9194C128.177 21.9607 128.558 21.986 128.911 22.1532C129.083 22.234 129.088 22.2246 129.238 22.5777C129.125 22.5599 129.023 22.5702 128.963 22.5298C128.776 22.4021 128.607 22.2556 128.429 22.1156C128.361 22.2133 128.301 22.3025 128.238 22.3899C128.161 22.495 128.018 22.5974 128.019 22.7007C128.02 22.8369 128.134 22.9731 128.22 23.1496C128.131 23.3994 127.928 23.1402 127.787 23.1675C127.46 23.2313 127.24 23.1102 126.978 22.9627C126.903 23.0351 126.809 23.1243 126.721 23.2088C126.778 23.2773 126.803 23.3121 126.833 23.3431C127.011 23.5234 127.243 23.1102 127.383 23.3722C127.498 23.5863 127.722 23.5178 127.884 23.5995C128.025 23.6699 128.177 23.7234 128.417 23.822C128.214 23.8389 128.095 23.8493 127.916 23.8652C127.9 23.9629 127.88 24.0841 127.846 24.2832C128.031 24.2287 128.149 24.1648 128.263 24.1705C128.355 24.1761 128.443 24.2653 128.583 24.348C128.553 23.9883 128.529 23.6981 128.499 23.329C128.745 23.4962 128.92 23.6145 129.139 23.7629C129.024 23.884 128.905 24.0099 128.755 24.1667C128.82 24.3113 128.897 24.4869 128.971 24.6532C128.842 24.841 128.678 25.027 128.579 25.2383C128.497 25.4111 128.531 25.4242 128.087 25.628C128.063 25.5435 128.041 25.4627 128.003 25.3275C127.903 25.4035 127.831 25.4899 127.737 25.5191C127.666 25.5416 127.564 25.474 127.479 25.4787C127.39 25.4834 127.274 25.504 127.226 25.5585C127.185 25.6055 127.26 25.736 127.218 25.782C127.17 25.8355 127.014 25.8158 126.975 25.8694C126.942 25.9163 127.02 26.0206 127.028 26.1004C127.035 26.1755 127.016 26.2535 127.009 26.3305C126.744 26.2506 126.791 26.6 126.606 26.5831C126.192 26.5446 125.865 26.9325 125.438 26.7615C125.121 26.6347 124.766 26.5352 124.519 26.3323C124.29 26.1436 124.09 26.0731 123.805 26.1116C123.636 26.5033 124.095 26.2854 124.173 26.4366C124.124 26.5512 123.889 26.6488 124.102 26.7991C124.316 26.9503 124.287 27.1456 124.257 27.402C124.077 27.3532 124.067 27.1081 123.86 27.0517C123.845 27.2095 123.835 27.3147 123.822 27.4527C123.984 27.4546 124.119 27.4565 124.257 27.403C124.525 27.4293 124.419 27.6274 124.335 27.7119C124.177 27.8706 124.209 27.9974 124.257 28.1806C124.292 28.3149 124.203 28.4867 124.13 28.6248C124.103 28.6755 123.965 28.6783 123.877 28.7027C123.895 28.7525 123.945 28.8257 123.926 28.8455C123.883 28.8896 123.793 28.8952 123.747 28.9384C123.651 29.0277 123.575 29.1357 123.482 29.2268C123.383 29.3235 123.272 29.4099 123.164 29.5029C123.332 29.6531 123.497 29.624 123.668 29.4906C123.738 29.4352 123.822 29.378 123.909 29.361C124.106 29.3235 124.229 29.4371 124.328 29.5733C123.929 29.8616 124.52 30.0325 124.436 30.2842C124.429 30.3049 124.431 30.3293 124.397 30.3133C124.271 30.3706 124.181 30.4617 124.073 30.5716C124.188 30.7801 124.296 30.9764 124.408 31.182C124.463 31.1398 124.479 31.121 124.501 31.1125C124.606 31.074 124.712 31.0383 124.816 31.0017C124.817 30.8148 124.817 30.8148 124.397 30.3133C124.568 30.2532 124.707 30.1546 124.884 30.0288C125.059 30.241 125.195 30.6242 125.67 30.5904C125.721 30.7528 125.809 30.8806 125.997 30.9519C126.017 30.9595 125.966 31.1886 125.905 31.2938C125.792 31.4891 125.693 31.3079 125.582 31.2675C125.497 31.2365 125.393 31.2468 125.3 31.2393C125.295 31.2619 125.207 31.6657 125.207 31.6657C125.229 31.8911 125.088 31.8807 124.89 31.8995C124.705 31.9174 124.466 31.9859 124.618 32.294C124.676 32.4123 124.513 32.618 124.435 32.8264C124.208 32.7034 123.993 32.5879 123.768 32.4658C123.612 32.5428 123.447 32.6912 123.284 32.6875C123.06 32.6828 123.002 32.7804 122.931 32.9382C122.692 32.7739 122.458 32.6123 122.203 32.4367C122.078 32.7701 121.968 33.0678 121.848 33.389C121.777 33.3449 121.714 33.3063 121.549 33.2049C121.629 33.3956 121.698 33.4979 121.71 33.6059C121.725 33.7374 121.691 33.8726 121.676 34.0323C121.483 34.0398 121.253 33.9891 121.119 34.0699C120.937 34.1779 120.828 34.3873 120.615 34.6399C120.975 34.5873 121.234 34.6371 121.348 34.8484C121.454 35.0456 121.645 35.2503 121.49 35.5612C121.348 35.4973 121.218 35.3997 121.08 35.3884C120.927 35.3762 120.766 35.4673 120.608 35.4682C120.447 35.4692 120.285 35.4748 120.139 35.3311C119.988 35.1827 119.764 35.0869 119.556 34.9968C119.517 34.9799 119.409 35.0916 119.284 35.1771C119.46 35.2269 119.601 35.2663 119.839 35.3339C119.664 35.4485 119.552 35.5227 119.441 35.596C119.517 35.6354 119.612 35.6861 119.814 35.7913C119.586 35.7875 119.469 35.7857 119.305 35.7828C119.257 35.5884 119.202 35.3903 119.162 35.1893C119.128 35.0165 118.975 35.0879 118.884 35.0278C118.76 34.9526 118.521 34.931 118.501 34.8597C118.364 34.3732 118.009 34.6587 117.752 34.6362C117.605 34.6268 117.631 34.407 117.439 34.4371C117.451 34.5789 117.271 34.7329 117.557 34.824C117.729 34.8794 117.873 34.9733 118.179 35.0024C118.248 35.009 118.352 35.0156 118.377 35.055C118.549 35.3208 118.709 35.0484 118.885 35.0287C118.833 35.2926 118.912 35.5678 118.636 35.6861C118.371 35.564 118.129 35.4513 117.847 35.3208C117.795 35.5011 117.759 35.6232 117.725 35.7406C117.701 35.749 117.673 35.7659 117.665 35.7603C117.537 35.6654 117.422 35.5509 117.28 35.4757C117.162 35.4128 117.003 35.4156 116.882 35.3555C116.74 35.2851 116.61 35.1865 116.494 35.0822C116.464 35.055 116.479 34.9526 116.512 34.9076C116.602 34.7827 116.674 34.6352 116.665 34.5451C116.659 34.4821 116.659 34.4183 116.651 34.2154C116.504 34.4342 116.386 34.5394 116.361 34.6596C116.224 35.3067 116.053 35.3743 115.333 35.0447C115.324 35.0409 115.296 35.071 115.257 35.101C115.218 35.4588 115.79 35.4861 115.753 35.8749C115.519 35.9059 115.19 35.7622 114.978 36.0458C114.943 36.0918 114.691 36.0627 114.598 35.9988C114.499 35.9312 114.475 35.7772 114.405 35.6683C114.388 35.641 114.32 35.6354 114.274 35.6307C114.103 35.6138 113.932 35.6016 113.736 35.5847C113.724 35.7115 113.714 35.8166 113.7 35.9669C113.238 35.9613 112.788 35.9284 112.373 36.1369C112.291 36.1782 112.093 36.0308 111.933 35.9632C111.95 36.1547 111.965 36.3238 111.985 36.5482C111.514 36.1538 111.252 36.0871 110.81 36.2139C110.858 36.305 110.905 36.3961 110.953 36.4872C110.884 36.5154 110.834 36.5511 110.816 36.5407C110.596 36.4186 110.44 36.0946 110.098 36.3651C110.08 36.3792 109.901 36.29 109.9 36.2477C109.896 35.9641 109.658 36.1031 109.471 36.0383C109.517 36.1557 109.596 36.2533 109.572 36.32C109.539 36.4139 109.437 36.5473 109.35 36.5557C108.949 36.5924 108.743 36.8807 108.644 37.1305C108.533 37.4104 108.345 37.2714 108.185 37.3211C108.065 37.4845 108.082 37.6404 108.238 37.786C107.999 37.8996 108.054 38.049 108.215 38.2312C107.944 38.2086 107.71 38.1898 107.3 38.1551C107.579 38.0593 107.718 38.0123 107.897 37.9513C107.584 37.5709 107.681 37.1098 107.127 36.8976C107.133 37.1051 107.138 37.261 107.145 37.4921C107.025 37.5625 106.817 37.6846 106.632 37.7935C106.664 37.8827 106.698 37.9767 106.732 38.0706C106.7 38.0903 106.668 38.1091 106.636 38.1288C106.554 38.0396 106.489 37.9175 106.384 37.8705C106.27 37.8198 106.119 37.8395 105.919 37.8226C105.994 37.972 106.04 38.0649 106.088 38.1607C105.89 38.1889 105.682 38.2171 105.477 38.249C105.456 38.2528 105.439 38.2762 105.418 38.2922C105.321 38.1936 105.225 38.095 105.101 37.9691C105.023 38.0076 104.936 38.0377 104.865 38.0865C104.659 38.2265 104.491 38.4622 104.138 38.2903C104.27 38.1607 104.389 38.0443 104.529 37.9072C104.155 37.6311 103.876 38.0358 103.604 37.8809C103.646 38.0724 103.677 38.2143 103.733 38.4697C103.468 38.2734 103.205 38.2462 103.182 37.9795C102.892 38.0443 102.6 38.1081 102.311 38.1758C102.267 38.1861 102.194 38.2124 102.193 38.234C102.189 38.3692 102.12 38.4838 101.982 38.4068C101.897 38.3589 101.896 38.1889 101.848 38.0462C101.745 38.0039 101.577 37.9673 101.453 37.879C101.033 37.5794 100.745 37.4883 100.127 37.5155C100.215 37.8771 100.533 38.0621 100.946 38.3673C100.657 38.2978 100.527 38.2697 100.399 38.234C100.314 38.2105 100.182 38.1307 100.158 38.1532C100.009 38.2903 99.8267 38.2866 99.6925 38.1973C99.6003 38.1363 99.5883 37.9776 99.5372 37.8555C99.6254 37.7747 100.005 37.8677 99.7606 37.5437C99.4661 37.5991 99.1776 37.6592 99.1786 38.1053C98.9412 37.9654 98.7609 37.8442 98.5666 37.7494C98.3543 37.6461 98.165 37.5202 97.8735 37.6573C97.6261 37.7738 97.3967 37.7165 97.003 37.524C96.8147 37.432 96.8207 37.6001 96.6665 37.6019C97.0201 37.909 97.4718 38.0734 97.6832 38.4791C97.5449 38.6528 97.3326 38.6312 97.2494 38.5298C97.0882 38.3354 96.8688 38.28 96.6495 38.202C96.5994 38.1842 96.5343 38.1476 96.4962 38.1617C96.367 38.2114 96.2538 38.295 96.1226 38.3373C96.0334 38.3664 96.0364 38.1692 95.8481 38.2509C95.6087 38.3542 95.8131 38.1372 95.6198 38.0734C95.8972 38.0602 96.0354 38.0537 96.1907 38.0462C95.8381 37.6357 95.8381 37.6357 95.5206 37.7513C95.4545 37.6498 95.3824 37.5381 95.3092 37.4254C95.0578 37.6151 94.8485 37.7747 94.6431 37.9297C94.4719 37.9156 94.3056 37.9015 94.0722 37.8827C94.1613 37.7099 94.2335 37.5719 94.3236 37.3991C94.1073 37.3812 93.941 37.3672 93.7216 37.3493C93.6996 37.585 93.6755 37.8424 93.6435 38.1767C93.5303 38.0865 93.4872 38.0518 93.4181 37.9964C93.3029 38.0734 93.1787 38.1579 93.0605 38.2368C92.7991 38.095 92.5617 37.9663 92.2632 37.8048C92.4625 37.7841 92.6108 37.7682 92.7971 37.7484C92.6458 37.6602 92.5327 37.5944 92.4045 37.5202C92.145 37.7569 91.8666 38.0105 91.5851 38.2659C91.3267 38.1391 91.0562 38.0677 90.894 37.9072C90.7557 37.77 90.7427 37.5296 90.6566 37.2845C90.4512 37.5024 90.314 37.6818 90.1367 37.8198C90.0656 37.8752 89.8953 37.8151 89.7931 37.8555C89.727 37.8818 89.724 38.0199 89.6569 38.0621C89.5668 38.1185 89.4426 38.1297 89.2743 38.1776C89.2232 38.0227 89.1651 37.8442 89.104 37.6592C89.088 37.663 89.0369 37.6611 89.0199 37.6818C88.9518 37.7653 88.9057 37.8658 88.8286 37.941C88.7885 37.9795 88.6913 38.0029 88.6362 37.987C88.5922 37.9738 88.5331 37.864 88.5511 37.8414C88.7444 37.5935 88.6453 37.4554 88.3478 37.4338C88.1324 37.4179 87.9842 37.3916 87.9541 37.1596C87.9501 37.1267 87.7327 37.0967 87.6155 37.0986C87.1979 37.1042 86.9855 37.0723 86.663 36.9389C86.5778 36.9042 86.4817 36.892 86.3985 36.8563C86.3144 36.8206 86.2393 36.768 86.2343 36.7652C86.064 36.8581 85.8967 36.9492 85.7485 37.03C85.7725 37.1108 85.7725 37.1765 85.7986 37.1878C85.9999 37.2685 86.1972 37.3446 86.1561 37.6273C85.9538 37.6188 85.6974 37.7484 85.7114 37.3296C85.6153 37.3869 85.5552 37.4479 85.486 37.4583C85.3909 37.4723 85.2827 37.462 85.1905 37.4348C85.0864 37.4038 84.9942 37.3427 84.8961 37.2939C84.854 37.3681 84.827 37.4883 84.7658 37.5052C84.6617 37.5334 84.5014 37.5353 84.4253 37.4799C84.273 37.3681 84.1609 37.2103 84.0326 37.0713C83.8063 37.3183 83.5158 37.0892 83.2393 37.1775C83.1562 37.3108 83.055 37.4742 82.9428 37.6545C82.8938 37.6104 82.8276 37.5775 82.8076 37.5287C82.7064 37.2808 82.5712 37.0601 82.2497 36.8779C82.1976 36.9802 82.1425 37.0873 82.0964 37.1775C82.1095 37.1887 82.2106 37.277 82.41 37.4507C82.0804 37.4235 81.8971 37.4085 81.6667 37.3888C81.7238 37.3305 81.7629 37.2911 81.858 37.1953C81.6357 37.1643 81.4554 37.138 81.225 37.1061C81.3562 37.3052 81.4484 37.446 81.5856 37.6536C81.3682 37.6527 81.233 37.6517 81.0828 37.6508C81.0718 37.4958 81.0627 37.3709 81.0527 37.23C80.9526 37.2629 80.7362 37.1286 80.8534 37.3427C80.9526 37.5249 80.7452 37.4939 80.7412 37.5146C80.6491 37.4273 80.5259 37.3099 80.4277 37.216C80.4708 37.1859 80.5789 37.1108 80.7883 36.9643C80.4968 36.9962 80.3486 37.0112 80.2013 37.0291C80.0681 37.046 79.9359 37.0666 79.7997 37.0864C79.7456 36.984 79.6744 36.8497 79.6043 36.7173C79.2197 36.8497 79.0755 37.0976 79.1326 37.4902C78.8381 37.3512 78.6037 37.2394 78.3433 37.1164C78.5556 36.9821 78.6468 36.8826 78.4705 36.7098C78.3302 36.5726 78.169 36.537 78.0197 36.6271C77.8595 36.7238 77.7383 36.8741 77.7142 36.8957C77.2625 37.0291 77.0762 36.567 76.7576 36.8206C76.5353 36.7492 76.3129 36.6778 76.0374 36.5886C75.9213 36.7483 75.769 36.9586 75.5827 37.216C75.4385 37.1596 75.2732 37.0957 75.1099 37.0328C75.3133 36.8309 75.4795 36.6656 75.7119 36.4355C75.4805 36.3895 75.3513 36.3632 75.2401 36.3407C75.1981 36.3726 75.179 36.3867 75.16 36.4017C75.4845 36.6929 75.136 36.6957 74.9707 36.8206C74.531 37.153 74.4278 37.1474 74.1343 36.6769C74.0021 36.6374 74.1463 37.1333 73.8568 36.7915C73.6625 37.0037 73.4672 37.2178 73.1887 37.5221C73.1627 37.2995 73.1597 37.185 73.1327 37.0751C73.1026 36.953 73.0515 36.8356 73.0115 36.721C72.7791 36.8938 72.5757 37.046 72.3724 37.1972C72.3133 36.8243 71.9036 36.9831 71.7223 36.8412C71.4228 36.6074 71.4389 36.8741 71.3417 36.9755C70.9611 37 70.5704 36.7802 70.1938 37.0112C70.1618 37.0309 70.0646 36.9755 70.0065 36.9436C69.8482 36.8572 69.693 36.7652 69.5317 36.6825C69.3444 36.5623 69.4886 37.1765 69.1711 36.8159C69.1291 36.768 68.8766 36.8713 68.6893 36.9117C68.6693 36.7558 68.6513 36.614 68.6252 36.4186C68.3678 36.5351 68.1635 36.6318 67.9541 36.7201C67.6897 36.8309 68.3227 37.123 67.7408 37.1634C67.7678 37.185 67.7307 37.1455 67.6857 37.1211C67.6256 37.0901 67.5575 37.0704 67.4393 37.0263C67.4523 36.8844 67.4683 36.7173 67.4853 36.5388C67.3651 36.5285 67.2399 36.5163 67.2389 36.5191C67.1748 36.953 66.7972 37.0957 66.4376 37.2253C66.08 37.0741 66.1501 36.7126 65.9628 36.4121C66.079 36.351 66.2062 36.2843 66.3975 36.1838C66.2393 36.0477 66.053 35.8552 66.0289 35.8702C65.7445 36.0524 65.6693 35.8148 65.4951 35.6514C65.458 35.795 65.4279 35.9096 65.3969 36.0298C65.2637 36.2139 64.833 35.812 64.7919 36.3022C65.2036 36.3181 65.6223 36.3135 65.7915 36.7492C65.6663 36.7595 65.5281 36.7717 65.3769 36.784C65.3448 36.9042 65.3117 37.0263 65.2787 37.1493C65.2517 37.1474 65.2256 37.1455 65.1986 37.1446C65.1906 37.0272 65.1835 36.9098 65.1745 36.7717C64.9672 36.6947 64.7638 36.6168 64.7027 36.938C64.6677 36.9286 64.6316 36.9239 64.6006 36.9089C64.2921 36.7614 63.9755 36.6487 63.7001 36.4233C63.5188 36.2749 63.1572 36.3078 62.8517 36.3341C63.036 36.4214 63.2213 36.5088 63.4737 36.6281C63.2443 36.7727 62.8837 36.5914 62.8827 36.9314C62.6774 36.9652 62.4731 36.9981 62.2076 37.0413C62.1095 36.9051 61.9893 36.7379 61.8691 36.5689C61.5395 36.8309 61.2571 36.9718 60.8434 36.8046C60.6931 36.7436 60.4457 36.8685 60.2474 36.9239C60.004 36.9915 59.7926 37.1568 59.5052 37.092C59.4481 37.0788 59.3269 37.1465 59.3038 37.2009C59.2177 37.4057 59.0965 37.3587 58.9913 37.2385C58.9062 37.1408 58.8631 37.014 58.78 36.86C58.7279 37.0234 58.6858 37.1568 58.6307 37.3305C58.4013 37.2019 58.209 37.0929 57.9246 36.9333C57.9877 37.0798 58.0057 37.169 58.0598 37.2338C58.1039 37.2864 58.191 37.3089 58.2882 37.3606C57.8244 37.6151 57.8244 37.6151 57.4398 38.1748C57.2945 38.0574 57.1553 37.9438 57.0081 37.8245C56.6174 37.9992 56.1767 37.986 55.8321 37.8085C55.6258 37.7024 55.4665 37.9973 55.3573 37.7766C55.2652 37.5916 55.1019 37.9062 54.9697 37.694C54.8725 37.539 54.6271 37.6959 54.4528 37.7531C54.4318 37.7597 54.4028 37.7531 54.3787 37.7475C54.1604 37.6996 53.925 37.5803 53.7276 37.6179C53.4572 37.6705 53.3971 37.4507 53.1026 37.446C52.7961 37.5475 52.4786 37.9588 51.9146 37.8057C51.8966 37.6761 51.8776 37.5353 51.8465 37.3089C51.4108 37.6743 50.892 37.6564 50.4342 37.8057C50.3761 37.6949 50.306 37.5625 50.2058 37.3719C50.0646 37.5184 49.9554 37.6329 49.8412 37.7513C49.5608 37.4573 49.3214 37.6573 49.09 37.8546C48.9798 37.755 49.068 37.5071 48.7925 37.5578C48.512 37.6085 48.4039 37.4094 48.2496 37.2451C48.1484 37.4141 48.0413 37.5681 47.7838 37.4761C47.5805 37.4038 47.5294 37.5287 47.5024 37.6987C47.288 37.6808 47.0727 37.663 46.8333 37.6433C46.8062 37.5775 46.7682 37.4836 46.7221 37.37C46.6089 37.5531 46.5077 37.7165 46.4296 37.8405C46.083 37.9081 45.7675 37.9691 45.4119 38.0377C45.3588 37.864 45.2867 37.6292 45.2016 37.3465C45.0463 37.4432 44.9091 37.5231 44.7779 37.6104C44.5425 37.7663 44.2901 37.8959 43.9906 37.8358C43.63 37.7635 43.4647 37.9457 43.3235 38.233C43.1432 38.157 42.9609 38.1044 42.8096 38.0105C42.3639 37.7334 41.8821 37.648 41.3833 37.8114C41.1269 37.8959 40.9476 37.8959 40.7142 37.7531C40.5128 37.6301 40.2494 37.5982 40.0531 37.8057C39.8878 37.9795 39.5823 37.9419 39.5162 37.864C39.2878 37.5935 38.9753 37.7653 38.8942 37.8414C38.5967 38.1213 38.2681 38.0471 37.9296 38.0189C37.8314 38.0105 37.7343 38.0029 37.6421 37.9954C37.5009 37.6893 37.3606 37.6038 37.1553 37.7588C36.968 37.9006 36.7727 37.9137 36.5623 37.9438C36.5203 37.9494 36.4531 38.0245 36.4521 38.0236C36.0204 37.5954 35.8061 38.1156 35.4815 38.2199C35.4705 38.0715 35.4615 37.9447 35.4515 37.8132C35.0548 37.9363 34.7413 38.1241 34.4789 38.3908C34.3106 38.2941 34.1403 38.1955 33.952 38.0865C33.7757 38.157 33.5864 38.2312 33.4231 38.296C33.1607 38.1945 32.9964 37.8564 32.6228 38.1156C32.5207 38.187 32.3874 37.8471 32.2292 38.0875C32.149 37.9504 32.0128 37.9231 31.8566 37.9203C31.7334 37.9184 31.6102 37.9015 31.508 37.8931C31.3567 38.002 31.2215 38.0987 31.0893 38.1945C31.1354 38.2509 31.1764 38.3016 31.2716 38.418C31.0913 38.403 30.9731 38.403 30.8599 38.3824C30.2259 38.265 30.2259 38.264 29.7361 38.5655C29.5117 38.4885 29.3274 38.2546 29.0279 38.4857C28.9107 38.5758 28.6643 38.527 28.478 38.5486C28.3508 38.5636 28.2526 38.4575 28.0853 38.5448C27.9461 38.6171 27.7047 38.5307 27.4092 38.5063C27.4934 38.619 27.5344 38.6735 27.5635 38.712C27.1889 38.7946 26.8082 38.8782 26.3875 38.9703C26.4416 38.8547 26.5528 38.7308 26.5208 38.6585C26.4747 38.5552 26.3354 38.449 26.2153 38.4209C26.1211 38.3983 25.9869 38.5918 25.8607 38.3157C25.8116 38.5411 25.7765 38.7035 25.7405 38.866C25.4069 39.005 25.0694 39.0745 24.6507 38.8801C24.7629 38.8191 24.843 38.7702 24.9271 38.7308C25.0173 38.6895 25.0664 38.9646 25.1645 38.7721C25.2326 38.6397 25.1265 38.5824 24.9732 38.5683C24.9191 38.5636 24.874 38.4782 24.845 38.4509C24.7498 38.527 24.6677 38.6378 24.5585 38.6688C24.4073 38.7111 24.251 38.6369 24.0717 38.7345C23.5138 39.0369 23.3896 39.0069 22.9469 38.6284C22.8968 38.5852 22.8377 38.5523 22.7936 38.5214C22.6163 38.6688 22.456 38.804 22.2988 38.9355C22.0404 38.7223 21.9232 38.4472 21.5295 38.6519C21.1769 38.835 21.1459 38.7871 20.8344 38.4274C20.7122 38.2875 20.6611 38.3091 20.4978 38.588C20.2755 38.5692 20.0421 38.5505 19.8658 38.5354C19.8648 38.3993 19.8107 38.2443 19.8718 38.1851C20.2204 37.8461 20.2164 37.7747 19.8117 37.6001C19.5362 37.4808 19.2938 37.2817 19.0084 37.2056C18.6968 37.122 18.4665 36.9549 18.2171 36.7943C17.9907 36.6497 17.7493 36.5229 17.4548 36.3548C17.4278 36.3933 17.3646 36.4825 17.2575 36.6337C17.0672 36.3745 16.7216 36.4271 16.6945 36.0712C16.6735 35.7885 16.2598 35.7453 16.1216 35.4626C16.0004 35.2137 15.4044 35.395 15.2852 35.7049C15.2702 35.7443 15.3103 35.8016 15.3213 35.8514C15.3213 35.8533 15.2802 35.8645 15.2572 35.8664C15.2331 35.8683 15.2011 35.8711 15.1841 35.8598C15.127 35.8204 15.0749 35.7744 14.9807 35.6993C14.9547 35.8091 14.9246 35.9021 14.9136 35.996C14.9036 36.0777 14.9146 36.1622 14.9166 36.2336C15.183 36.3172 15.3884 35.9829 15.6328 36.2308C15.6428 36.4449 15.4866 36.5294 15.2802 36.5445C15.162 36.5539 15.0328 36.5323 14.9196 36.4966C14.7013 36.4271 14.4939 36.2806 14.2776 36.2712C14.0822 36.2637 13.8809 36.3952 13.6836 36.4684C13.6205 36.4919 13.5614 36.5238 13.4572 36.5727C13.354 36.4186 13.2599 36.2787 13.1397 36.1003C12.717 36.2881 12.2382 36.1557 11.7634 36.1125C11.6162 36.0993 11.4549 36.0017 11.3447 35.9012C11.1083 35.687 10.917 35.4485 10.5775 35.3245C10.4252 35.2691 10.3611 35.0146 10.2409 34.824C10.291 34.5329 10.8329 34.9367 10.8429 34.4887C10.7387 34.4239 10.6105 34.3441 10.4863 34.2661C10.308 34.3863 10.1167 34.515 9.8803 34.6756C9.82321 34.5253 9.78715 34.4324 9.75109 34.3385C9.48565 34.3169 9.21921 34.2943 8.96078 34.2727C8.90469 34.3704 8.85661 34.454 8.81154 34.5329C8.39986 34.3882 8.34276 33.9581 7.94711 33.8726C7.92507 33.8679 7.91005 33.7966 7.91105 33.7562C7.91205 33.6735 7.92407 33.5909 7.9381 33.45C8.04527 33.5477 8.09235 33.5909 8.17449 33.666C8.20053 33.5712 8.20854 33.4904 8.2436 33.4219C8.32774 33.2603 8.34577 33.0847 8.6683 33.2613C8.98783 33.4359 9.36545 33.2801 9.65994 33.0415C9.73807 33.1927 9.79115 33.296 9.84725 33.4059C10.1938 33.1223 10.5053 32.8678 10.7828 32.6396C10.8719 32.6471 10.905 32.6405 10.92 32.6527C10.9761 32.695 11.0252 32.7438 11.1404 32.8471C11.1234 32.7034 11.1434 32.5616 11.0963 32.54C10.911 32.4546 10.7087 32.386 10.5043 32.3503C10.2619 32.3071 10.0115 32.3043 9.77813 32.2846C9.72204 32.1803 9.68498 32.0244 9.62087 32.0141C9.49466 31.9934 9.34442 32.0357 9.21921 32.0845C8.94275 32.1925 8.67531 32.3203 8.40487 32.4405C8.11839 32.1005 7.59152 32.4217 7.3321 32.1465C7.13978 31.9427 6.99654 32.201 6.78419 32.0808C6.53178 31.9371 6.59388 31.83 6.62493 31.6262C6.80022 31.7258 6.96148 31.8169 7.12075 31.907C7.19888 31.66 7.41523 31.5267 7.68067 31.5013C7.84094 31.4863 8.07132 31.522 8.16848 31.6187C8.41889 31.8685 8.70737 31.738 9.02789 31.7248C8.9688 31.6591 8.91571 31.5455 8.8486 31.538C8.58617 31.5079 8.46196 31.3886 8.43291 31.0844C8.61922 31.1304 8.82256 31.1257 8.89968 31.2121C9.06796 31.4008 9.30535 31.0336 9.42455 31.2994C9.45259 31.2421 9.48164 31.1858 9.50969 31.1285C9.05394 31.0027 8.73842 30.6148 8.2426 30.5697C8.20754 30.5669 8.16647 30.6232 8.03926 30.72C8.10537 30.5312 8.14143 30.427 8.18951 30.2889C8.20053 30.2992 8.17148 30.2513 8.14143 30.2504C7.88801 30.2438 7.65463 30.2194 7.50138 29.9921C7.47032 29.9452 7.28802 29.9133 7.26599 29.9396C7.0907 30.1424 7.04663 29.8297 6.92142 29.8748C6.9735 29.8081 7.02659 29.7414 7.08269 29.6691C6.80423 29.5686 6.52376 29.4672 6.2433 29.3667C6.20624 29.1422 6.26934 28.9582 6.41058 28.76C6.52276 28.6032 6.88937 28.6079 6.76817 28.3092C6.97851 28.2472 7.18986 28.1853 7.42625 28.1158C7.31807 27.9993 7.25397 27.9298 7.18986 27.8603C6.98352 28.1402 6.91541 28.1674 6.66199 28.0303C6.36851 27.8725 6.08404 27.7016 5.84164 27.5626C5.85967 27.4725 5.90174 27.3616 5.8807 27.3504C5.54014 27.1729 5.25367 26.9043 4.84299 26.8442C4.77788 26.8348 4.69274 26.8038 4.66269 26.7578C4.6066 26.6714 4.58456 26.5681 4.5485 26.4713C4.63665 26.4469 4.72379 26.4216 4.88506 26.3765C4.71177 26.261 4.58657 26.1445 4.43432 26.0854C4.29609 26.0318 4.06571 26.0929 3.98558 26.013C3.76121 25.7905 3.64101 26.1511 3.41163 26.0243C3.36956 25.8139 3.31447 25.5303 3.61897 25.4411C3.94551 25.3453 4.22798 24.9509 4.65768 25.2674C4.85401 25.4129 5.08739 25.5172 5.29574 25.6364C5.37086 25.5097 5.41894 25.3162 5.55316 25.227C5.7595 25.0899 5.71843 24.9359 5.74648 24.8006C5.61426 24.7067 5.50508 24.9715 5.46101 24.7687C5.43096 24.6344 5.41093 24.563 5.25367 24.5687C5.2717 24.4926 5.3318 24.3752 5.29974 24.347C5.18255 24.2465 5.0333 24.177 4.7889 24.0315C5.10142 24.0268 5.28772 24.024 5.47603 24.0221C5.56418 23.8756 5.5762 23.7826 5.34281 23.7544C5.15951 23.7328 4.95618 23.9469 4.79491 23.715C4.72279 23.7826 4.65067 23.8512 4.57355 23.9235C4.28106 23.792 3.96855 23.6511 3.64001 23.5037C3.61396 23.6211 3.59092 23.7263 3.55487 23.8944C3.40662 23.8296 3.27641 23.7356 3.13918 23.7234C3.00295 23.7112 2.85872 23.7807 2.7305 23.8117C2.56623 23.5056 3.18926 23.4971 2.9078 23.2032C3.21731 23.0557 3.44368 23.2905 3.74117 23.3825C3.76421 23.1412 3.78424 22.9299 3.80928 22.6622C3.5769 22.6913 3.35754 22.7186 3.12215 22.7486C3.00095 22.3833 3.41163 22.1917 3.49777 21.802C3.30946 21.8649 3.19727 21.9203 3.07808 21.9353C2.96589 21.9494 2.84569 21.9212 2.65438 21.9053C2.72249 22.0715 2.76055 22.1654 2.80162 22.265C2.7876 22.2734 2.74753 22.3194 2.71848 22.3147C2.29679 22.2387 2.23168 22.187 2.27375 21.8621C2.29779 21.6752 2.20464 21.4536 2.42801 21.2995C2.46607 21.2732 2.42801 21.1512 2.41799 21.0732C2.40196 20.9511 2.37993 20.83 2.35789 20.69C2.53919 20.6806 2.67842 20.6731 2.92983 20.6609C2.77658 20.506 2.68443 20.413 2.56824 20.2965C2.56824 20.2975 2.55221 20.2242 2.57425 20.213C2.82566 20.0834 2.86773 19.8364 2.99895 19.6373C3.14218 19.4213 2.90279 19.5208 2.88075 19.471C2.85371 19.41 2.94987 19.2738 2.91882 19.2494C2.75755 19.1245 3.04302 18.9846 2.86473 18.8324C2.76456 18.747 2.91481 18.5591 3.029 18.4361C3.05704 18.4061 2.94586 18.2887 2.94085 18.2098C2.93584 18.1384 2.96589 18.0417 3.01998 17.9957C3.22131 17.8247 3.22732 17.8304 3.06906 17.6134C2.72349 17.7083 2.6073 17.7064 2.13652 17.6501C1.97125 17.6303 1.76692 17.5965 1.6387 17.6623C1.27811 17.8454 1.57159 17.4726 1.44538 17.4848C1.06876 17.4228 0.701157 17.3617 0.317524 17.2979C0.303501 17.3242 0.263435 17.3993 0.213352 17.4942C0.146241 17.3552 0.0871438 17.234 0 17.0537C0.21836 17.0932 0.443732 17.0753 0.572945 17.1673C0.897481 17.4003 0.673111 16.988 0.847398 17.0359C1.11083 17.1561 1.41233 17.2932 1.73286 17.4388C1.74087 17.4219 1.78494 17.3702 1.78795 17.3167C1.80999 16.9326 1.85105 16.8837 2.2417 16.6809C2.30881 16.6461 2.32083 16.5325 2.37492 16.4668C2.41799 16.4142 2.4861 16.3785 2.5432 16.3353C2.63334 16.3926 2.72449 16.4508 2.87875 16.5494C2.91681 16.3249 2.94386 16.1606 2.97691 15.9681C2.87174 16.0808 2.7876 16.1709 2.7305 16.232C2.17759 15.8967 1.67576 16.0488 1.23504 15.923C1.17594 16.0385 1.13788 16.1146 1.04573 16.293C1.03371 15.7587 0.666099 15.7258 0.185306 15.7295C0.699153 15.3426 1.25607 15.5821 1.70581 15.3379C1.5766 15.043 1.25207 15.0261 0.93955 14.904C1.17694 14.5951 1.40832 14.2936 1.64271 13.9874C1.58662 13.8766 1.24305 13.9518 1.39831 13.6926C1.76792 13.7348 1.65473 13.4005 1.78795 13.254C1.86508 13.3376 1.93018 13.4071 1.9973 13.4803C1.94521 13.5235 1.89412 13.5667 1.84204 13.6099C1.90514 13.6775 1.96925 13.747 2.07743 13.8625C2.1215 13.6212 2.15956 13.4174 2.22167 13.0793C2.27876 13.2352 2.28978 13.2925 2.31883 13.3413C2.3649 13.4183 2.422 13.4888 2.50714 13.6062C2.59929 13.5357 2.70647 13.4869 2.75454 13.408C2.79862 13.3357 2.77858 13.2324 2.79161 13.0971C3.02499 13.1047 3.26238 13.1122 3.65503 13.1244C3.43066 12.9835 3.32348 12.8765 3.19427 12.8455C3.03 12.807 2.87675 12.8023 2.73551 12.6764C2.67842 12.6248 2.427 12.5346 2.35088 12.8117C2.29378 13.0192 2.03636 13.0502 1.6978 12.9525C1.91115 12.8351 2.0614 12.7525 2.21666 12.667C2.13152 12.6285 2.04838 12.591 1.96124 12.5515C1.98528 12.5233 2.01232 12.4707 2.03235 12.4726C2.23769 12.4942 2.34687 12.3966 2.22066 12.2557C2.09746 12.1186 1.8811 12.05 1.65673 11.9242C1.88411 11.943 2.15355 11.8951 2.23769 11.9862C2.47308 12.2416 2.5432 11.7054 2.72449 12.051C2.74954 11.7871 2.76356 11.6359 2.7886 11.3701C2.59729 11.5607 2.48009 11.6781 2.35989 11.7983C2.33385 11.5908 2.30881 11.3851 2.28176 11.1663C2.46707 11.1024 2.70246 11.0207 2.9098 10.9484C2.98693 11.0367 3.07207 11.1344 3.16723 11.2452C3.42765 10.9437 3.2113 10.7005 3.16923 10.4582C3.48775 10.4103 3.63199 10.291 3.46371 10.0093C3.28442 10.0384 3.10312 10.0675 2.92282 10.0966C2.91381 9.90691 3.07107 9.75853 2.99694 9.52938C2.9078 9.25515 3.32849 9.15185 3.42866 8.91519C3.74718 8.94242 3.60094 8.82409 3.50578 8.71609C3.49477 8.70294 3.49777 8.66256 3.51179 8.65129C3.74017 8.46347 3.64602 8.24465 3.52181 7.99672C3.70511 8.01174 3.8213 8.02113 3.95953 8.03334C4.03065 8.19393 4.11479 8.38552 4.20894 8.59964C4.39124 8.53578 4.56153 8.47661 4.81795 8.38833C4.57355 8.27846 4.38624 8.19487 4.15385 8.09063C4.21295 7.98169 4.32313 7.86148 4.33615 7.73376C4.35018 7.59571 4.27405 7.4492 4.242 7.3243C4.4834 7.17967 4.71879 7.03786 4.96619 6.88854C5.04332 6.96649 5.13748 7.06134 5.23263 7.15713C5.48805 7.04819 5.0283 6.78993 5.34682 6.69414C5.36585 6.44057 5.47403 6.44715 5.67236 6.58332C5.72044 6.61619 5.85466 6.54576 6.07102 6.49316C5.86167 6.39362 5.73045 6.33163 5.65333 6.29501C5.78955 6.09028 5.85967 5.98415 5.9378 5.86582C5.98588 5.90808 6.03295 5.94941 6.09005 6.00012C6.14414 5.91748 6.19823 5.83389 6.30941 5.66391C6.3044 5.96443 6.3014 6.17668 6.29739 6.434C6.39155 6.38516 6.45665 6.32976 6.52977 6.32036C6.62393 6.30722 6.72409 6.33163 6.87434 6.34384C6.89137 6.16635 6.90639 5.99918 6.92943 5.75595C7.11073 6.04144 7.58351 5.85643 7.55446 6.25087C7.62258 6.24899 7.71172 6.27059 7.75179 6.2396C7.79186 6.20861 7.81589 6.10249 7.78885 6.06962C7.71873 5.98603 7.62658 5.90621 7.52441 5.85737C7.34111 5.77003 7.14379 5.70711 6.9705 5.64137C6.98753 5.46106 7.00155 5.30986 7.01658 5.15208C7.17183 5.17838 7.34812 5.44228 7.41824 5.2197C7.50238 4.95393 7.68869 5.11264 7.80287 5.05066C7.93209 4.98116 7.99319 4.81212 8.1194 4.73135C8.20353 4.67782 8.34877 4.70224 8.47899 4.69191C8.57314 4.49751 8.67531 4.28808 8.80052 4.03264C9.04693 4.11246 9.28332 4.18947 9.56278 4.27963C9.70902 3.78658 10.1928 3.76123 10.6115 3.66825C10.8699 3.61097 11.0933 3.72836 11.2095 3.97441C11.4839 3.84293 11.7023 3.69267 11.6743 3.34237C12.0278 3.3837 12.3564 3.32265 12.6098 3.64384C12.6819 3.73493 12.9924 3.8589 13.1868 3.54898C13.2889 3.38557 13.6505 3.35646 13.9901 3.23156C13.8749 3.45037 13.8028 3.58937 13.7126 3.76123C13.8899 3.77625 14.0061 3.78564 14.1884 3.80067C14.1614 3.68516 14.1353 3.57622 14.1063 3.45413C14.2165 3.39121 14.3016 3.16676 14.552 3.37712C14.6572 3.4654 14.9326 3.52738 15.0208 3.46728C15.2381 3.32171 15.4435 3.38651 15.6548 3.39966C16.1607 3.43253 16.1917 3.48324 16.7236 3.19305C17.1463 2.96203 17.4338 3.09069 17.7853 3.27851C17.8274 3.21277 17.8825 3.12731 17.9406 3.03716C17.9767 3.07848 18.0067 3.11323 18.0738 3.1893C18.209 3.01743 18.3413 2.82867 18.6237 3.01743C18.763 3.11135 18.9733 3.11886 19.1436 3.163C19.386 2.97987 19.5933 2.82303 19.7957 2.66995C19.8387 2.7047 19.9269 2.78547 19.9349 2.77889C20.1102 2.64648 20.2755 2.61736 20.4578 2.7742C20.4858 2.79768 20.5639 2.78735 20.613 2.77514C20.8354 2.71785 21.0988 2.50561 21.2701 2.65681C21.4374 2.80519 21.6147 2.66056 21.7779 2.79862C21.9272 2.9254 22.2136 2.91882 22.4921 2.98362C22.5051 2.94512 22.5292 2.87093 22.5542 2.79674C22.5742 2.73757 22.5943 2.67841 22.6293 2.57604C22.7525 2.64648 22.8477 2.70189 22.9969 2.78735C23.1232 2.67277 23.2794 2.53096 23.4777 2.34971C23.8013 2.82585 24.3221 2.78829 24.7929 2.77889C25.2256 2.7695 25.6092 2.53754 26.0189 2.34783C26.0289 2.49622 26.037 2.62206 26.044 2.72818C26.2723 2.86717 26.046 2.35441 26.3555 2.59201C26.4827 2.68968 26.691 2.8174 26.8012 2.51688C26.8323 2.43329 27.0316 2.33938 27.1408 2.35159C27.4693 2.38915 27.7939 2.12714 28.1344 2.37507C28.2276 2.44268 28.4549 2.37507 28.6172 2.34877C28.9808 2.28961 29.065 2.299 29.4406 2.50467C29.5387 2.39291 29.6389 2.27834 29.7471 2.15625C29.8012 2.16658 29.8883 2.18348 29.9745 2.19945C29.9674 2.06421 30.0416 1.94776 30.1828 2.02195C30.4562 2.16658 30.4863 1.69701 30.7928 1.87075C30.9821 1.97875 31.2636 1.95715 31.505 1.98533C31.6963 2.00787 31.8896 2.0182 32.0749 2.13747C31.8966 2.13371 31.7183 2.13559 31.541 2.12432C31.3367 2.11117 31.2305 2.21166 31.2165 2.46335C31.1484 2.5535 31.2225 2.31872 31.0142 2.35347C30.8339 2.38352 30.6826 2.46335 30.6946 2.63896C30.7007 2.72442 30.8158 2.80519 30.8539 2.85309C31.0031 2.7479 31.1354 2.65587 31.2165 2.46335C31.3948 2.35628 31.6512 2.49809 31.8556 2.28773C32.0679 2.37037 32.2803 2.45208 32.5307 2.54975C32.4626 2.64366 32.4005 2.72912 32.3353 2.8174C32.3874 2.87375 32.4515 2.94324 32.5467 3.04561C32.6358 2.5967 32.9063 2.34783 33.4632 2.37976C33.4011 2.24641 33.356 2.15249 33.3059 2.04543C33.357 2.03698 33.4512 1.99472 33.4872 2.02007C33.8719 2.28679 34.3487 2.30088 34.7343 2.19194C35.0759 2.09521 35.2211 2.27082 35.1911 2.40042C35.1139 2.73288 35.4385 2.7094 35.5527 2.8343C35.6628 2.63708 35.7239 2.34689 35.9062 2.25674C36.0485 2.1863 36.363 2.05294 36.5984 2.25392C36.5433 2.40794 36.4912 2.52815 36.4051 2.72818C36.6034 2.63427 36.7326 2.57322 36.8668 2.5103C36.7797 2.41451 36.7166 2.34595 36.5984 2.25392C36.6835 2.16094 36.7887 2.05107 36.8999 1.93461C36.8147 1.89799 36.7316 1.8623 36.5663 1.79093C36.7446 1.73927 36.8849 1.69889 36.988 1.66884C36.8358 1.35141 36.5243 1.24717 36.5503 0.93162C36.7426 1.00393 36.9169 1.19364 37.0892 0.965429C37.2074 1.1711 37.4348 1.09033 37.6151 1.13635C37.8164 1.188 38.0127 1.30352 38.211 1.30539C38.3753 1.30633 38.5496 1.05746 38.6988 1.435C38.765 1.22745 38.807 1.09409 38.8441 0.976698C39.1696 1.06122 39.4651 1.13823 39.7816 1.21993C39.8197 1.35517 39.8548 1.51013 40.1342 1.49134C40.2775 1.48195 40.4307 1.59465 40.626 1.66978C40.7042 1.58338 40.7983 1.48007 40.9736 1.28755C40.9896 1.53642 40.9966 1.65475 41.0047 1.77684C41.231 1.85197 41.3993 2.11211 41.7198 1.95621C41.6197 1.90174 41.5295 1.85197 41.4334 1.80032C41.5906 1.728 41.839 1.7374 41.7629 1.47913C41.9272 1.49604 42.1045 1.5336 42.0834 1.28943C42.0784 1.22651 42.0934 1.16265 42.0995 1.09879C42.2237 1.10912 42.3479 1.11945 42.4721 1.12978L42.7796 0.86682C42.9589 0.825498 43.035 0.615132 43.2694 0.644245C43.3685 0.656454 43.5549 0.532488 43.5759 0.557845C43.7642 0.777602 44.0417 0.663028 44.258 0.740976C44.4273 0.80202 44.5715 0.92035 44.7849 1.04713C44.883 0.883724 44.9872 0.710924 45.1054 0.516523C45.2797 0.586958 45.475 0.642367 45.2887 0.917533C45.5582 0.940072 45.8366 0.962611 46.1692 0.990785C46.1752 0.925046 46.1832 0.841463 46.1912 0.75788C46.5218 0.755063 46.8623 0.894054 47.2169 0.723132C47.1318 1.01051 47.3311 1.15607 47.5955 1.2575C47.6646 1.15232 47.7338 1.04713 47.8079 0.933498C47.7348 0.902507 47.6516 0.86682 47.5625 0.829254C47.5815 0.799202 47.5945 0.763515 47.6216 0.740976C47.6757 0.695897 47.7327 0.630158 47.7959 0.622645C48.0483 0.593532 48.3027 0.583202 48.5781 0.564419C48.5872 0.619828 48.5982 0.68181 48.6142 0.780419C48.7434 0.761637 48.8847 0.742854 49.0249 0.719376C49.1621 0.695897 49.2663 0.993603 49.4235 0.753185C49.6569 1.14762 49.8703 0.645184 50.1858 0.885602C50.0736 0.601984 50.0205 0.468627 49.9664 0.332453C50.0366 0.302401 50.0836 0.263896 50.1197 0.27047C50.4272 0.32494 50.7537 0.256383 51.0512 0.414158C51.1344 0.458297 51.3507 0.431062 51.4018 0.367201C51.6412 0.0685567 51.8936 0.393497 52.148 0.343723C52.3504 0.304279 52.6599 0.376592 52.6789 0.694019C52.6799 0.717498 52.75 0.750367 52.7931 0.75788C52.8853 0.773845 52.9794 0.775724 53.1747 0.791689C53.0185 0.620767 52.9283 0.521219 52.8382 0.421671C52.8622 0.396314 52.8852 0.370957 52.9093 0.34654C53.0195 0.405705 53.1266 0.504314 53.2418 0.514645C53.37 0.525914 53.5043 0.440453 53.6395 0.426366C53.7607 0.414158 53.8899 0.431062 54.0111 0.45454C54.2685 0.505253 54.3136 0.657393 54.1684 0.922228C54.1403 0.973881 54.1473 1.0415 54.1213 1.21712C54.2806 0.993602 54.3797 0.853672 54.4799 0.713741C54.5049 0.756002 54.53 0.798263 54.555 0.840524C54.549 0.773845 54.5119 0.686506 54.545 0.645184C54.5841 0.596349 54.7283 0.549393 54.7493 0.569114C54.9326 0.740976 55.17 0.669602 55.3804 0.694019C55.4815 0.705289 55.6057 0.586958 55.6989 0.607619C55.767 0.622645 55.7951 0.771967 55.8562 0.851793C55.8762 0.879028 55.9423 0.878089 55.9884 0.889359C56.2208 0.944768 56.4431 0.631097 56.6605 0.847098C56.8698 1.05465 57.1303 0.93162 57.3777 1.02084C57.4157 0.939133 57.4508 0.864002 57.4929 0.772906C57.576 0.796385 57.6601 0.836767 57.7453 0.839585C57.8815 0.84428 58.0227 0.800141 58.1529 0.820802C58.2501 0.835828 58.3332 0.92035 58.4855 1.01239C58.5827 0.457358 57.7933 0.684628 57.8084 0.1944C57.9075 0.269531 57.9486 0.300523 58.0067 0.345601C58.0989 0.277983 58.194 0.150261 58.3022 0.14087C58.5486 0.11927 58.7299 0.24887 58.8511 0.450784C58.8882 0.511827 58.9713 0.550332 59.0334 0.599167C59.2047 0.348418 59.401 0.775724 59.6414 0.571932C59.7676 0.464871 60.1152 0.599167 60.3486 0.560662C60.5208 0.532488 60.6701 0.399131 60.9015 0.274227C60.9215 0.453601 60.9345 0.571932 60.9526 0.729706C60.9966 0.716558 61.0447 0.689323 61.0928 0.691202C61.3773 0.70435 61.6607 0.724071 61.9452 0.744732C61.9622 0.745672 61.9752 0.789811 61.9943 0.792628C62.2086 0.829254 62.5051 0.959794 62.6223 0.878089C62.9929 0.621706 62.8046 1.0415 62.9458 1.06685C63.1412 1.1016 63.3235 1.20021 63.5539 1.28661C63.5699 1.11569 63.5799 1.00957 63.5899 0.89875C63.4667 0.811411 63.3275 0.712802 63.1872 0.614193C63.2043 0.58508 63.2213 0.555967 63.2373 0.526854C63.5228 0.642367 63.8083 0.75788 64.0857 0.870576C64.3532 0.746611 64.6216 0.622645 64.8901 0.49868C64.9842 0.670541 65.0563 0.802019 65.1284 0.933498C65.3288 0.864941 65.5091 0.760698 65.6964 0.752245C65.8897 0.742854 66.09 0.826437 66.2924 0.870576C66.3184 0.818924 66.3565 0.742854 66.4026 0.651758C66.4957 1.02272 66.9024 1.04619 67.2479 1.35705C67.1658 1.15232 67.1598 1.04056 67.0977 0.999237C66.8974 0.865881 66.8242 0.694019 66.7862 0.404766C67.269 0.760698 67.7297 0.598228 68.1424 0.462053C68.4049 0.375653 68.5331 0.468627 68.7084 0.559723C68.8105 0.396314 68.9117 0.232905 69.0038 0.084522C69.113 0.133357 69.2623 0.242296 69.3073 0.214122C69.722 -0.0450784 69.9835 0.16247 70.2018 0.428245C70.4152 0.397253 70.5995 0.377531 70.7808 0.342783C70.893 0.321183 71.0132 0.296766 71.1043 0.240418C71.2506 0.150261 71.3717 0.0178435 71.533 0.224453C71.541 0.235722 71.6743 0.171861 71.7454 0.136174C71.8255 0.0967307 71.9016 0.049774 71.9898 0C72.126 0.495862 72.127 0.496801 71.7644 0.697776C71.7093 0.727828 71.6312 0.740037 71.5971 0.782298C71.535 0.859307 71.497 0.95322 71.4319 1.06967C71.8906 1.17767 72.1831 0.744732 72.5397 0.806715C72.743 0.785115 72.4465 1.16077 72.8031 0.97482C73.0075 0.868698 73.369 1.00863 73.4091 0.648002C73.6275 0.592593 73.921 0.428245 74.0482 0.501497C74.3547 0.678993 74.5109 0.526853 74.7273 0.393497C74.7493 0.474262 74.7714 0.555027 74.7934 0.635793C74.8104 0.648002 74.8265 0.66021 74.8435 0.672419C75.1169 0.347479 75.3573 0.909081 75.6759 0.689324C75.9413 0.507132 76.1546 0.848037 76.4121 0.902507C76.5343 0.928802 76.6865 0.793567 76.7787 0.960733C76.8398 0.840524 76.989 0.678054 76.9479 0.607619C76.7707 0.307096 77.0271 0.269531 77.2114 0.201914C77.3586 0.147444 77.5249 0.136174 77.7202 0.0976698C77.8114 0.185948 77.9185 0.290192 78.0327 0.400071C78.0788 0.319305 78.2882 0.217879 78.4334 0.212244C78.6508 0.204731 78.9262 0.291131 79.0745 0.200035C79.409 -0.00469566 79.376 0.390679 79.5683 0.390679C79.6925 0.35781 79.8237 0.318366 79.9569 0.289253C80.0801 0.262018 80.2925 0.19534 80.3185 0.231966C80.4557 0.423549 80.7873 0.249809 80.8794 0.506193C80.9025 0.570054 81.0167 0.62828 81.1008 0.650819C81.3963 0.729706 81.6968 0.791689 82.1015 0.883724C82.1345 0.847098 82.1956 0.740037 82.2918 0.677115C82.442 0.577567 82.6083 0.468627 82.7836 0.438575C82.9138 0.416036 83.1221 0.475201 83.2033 0.565358C83.4176 0.803898 83.624 0.629219 83.8403 0.600106C83.8964 0.709984 83.9495 0.813289 83.9966 0.903446C84.238 0.700593 84.4513 0.521219 84.7899 0.236661C84.8179 0.603862 84.832 0.777602 84.847 0.973881C84.9251 0.924107 84.9802 0.88842 85.1124 0.803898C85.0553 0.983272 85.0183 1.10066 84.9742 1.24247C85.3178 1.31948 85.2997 0.819863 85.6814 0.870576C85.8707 0.895933 86.1031 0.642367 86.3525 0.493045C86.4837 0.624523 86.5949 0.73628 86.705 0.846159C86.7581 0.847098 86.8313 0.86682 86.8513 0.84522C87.0486 0.636732 87.287 0.58508 87.5805 0.640489C87.7458 0.67148 87.9281 0.685567 88.0903 0.654576C88.2446 0.624523 88.3938 0.540941 88.524 0.455479C88.7003 0.339027 88.7494 0.721254 88.9447 0.531549C88.9748 0.501497 89.111 0.575688 89.1972 0.57381C89.2793 0.571932 89.3614 0.535306 89.4876 0.501497C89.4686 0.706228 89.4546 0.856489 89.4346 1.06592C89.5307 1.03586 89.5768 1.01426 89.6259 1.00581C89.9975 0.944768 90.3571 0.823619 90.7497 0.902507C90.9671 0.946646 91.2115 0.99642 91.4148 0.947585C91.6061 0.901568 91.7434 0.894994 91.8916 1.00205C91.9838 0.83395 92.3704 1.14856 92.3584 0.748489C92.3534 0.579445 92.5847 0.505254 92.8131 0.529671C93.358 0.587897 93.9059 0.624523 94.4518 0.669602C94.7623 0.871515 94.9787 0.975759 95.151 0.998298C95.2491 1.01145 95.3493 1.0152 95.4485 1.02365C95.6919 1.04338 95.9353 1.06404 96.1787 1.08376C96.1887 1.05746 96.1997 1.03211 96.2097 1.00581C96.1286 0.967307 96.0465 0.928802 95.8301 0.826437C96.4081 0.889359 96.7296 0.710924 96.9299 0.290192C97.0191 0.462053 97.0802 0.580384 97.1423 0.699654C96.952 0.922228 96.365 0.842402 96.5403 1.38804C96.7687 1.3824 97.0111 1.39367 97.2474 1.36362C97.4297 1.34108 97.6411 1.30164 97.581 1.04244C97.575 1.01708 97.6671 0.960733 97.7242 0.942889C97.7563 0.932559 97.8084 0.969185 97.8484 0.990785C97.8574 0.995481 97.8605 1.02835 97.8524 1.03586C97.8174 1.06779 97.7773 1.09503 97.6852 1.16452C98.0227 1.20209 98.161 1.57305 98.5516 1.45566C98.5766 1.44814 98.6528 1.58338 98.7579 1.48289C99.0033 1.25092 99.2868 1.22087 99.6103 1.35799C99.6524 1.37771 99.7456 1.28943 99.8147 1.24999ZM12.2883 35.1452C12.4926 35.2973 12.5848 35.3659 12.705 35.456C12.5557 35.5368 12.4035 35.6185 12.2031 35.7265C12.6569 35.8176 13.0025 35.719 13.354 35.5922C13.6054 35.502 13.7647 35.6053 13.7847 35.9077C13.8989 35.7904 13.9931 35.6946 14.0502 35.6363C14.2515 35.7556 14.4018 35.8561 14.564 35.935C14.6131 35.9585 14.6962 35.9237 14.7493 35.9181C14.7614 35.7913 14.7714 35.6861 14.7814 35.5734C14.6472 35.5481 14.5119 35.5537 14.4228 35.4973C14.3547 35.4541 14.3457 35.3349 14.3086 35.2428C14.1293 35.3537 14.0241 35.533 13.7817 35.4701C13.5574 35.4119 13.2769 35.5171 13.1136 35.287C12.9474 35.0513 12.708 35.0963 12.2883 35.1452ZM98.5205 37.0695C98.5546 37.1249 98.5897 37.1803 98.6237 37.2347C98.4815 37.2685 98.3392 37.3024 98.196 37.3371C98.5165 37.3859 98.804 37.6123 99.0564 37.3484C99.0785 37.3258 99.0825 37.2892 99.0945 37.2601C99.0023 37.2235 98.9182 37.1897 98.9032 37.1831C98.9523 37.0065 98.9933 36.8563 99.0444 36.6694C98.7429 36.66 98.5115 36.6534 98.2952 36.6468C98.2281 36.8835 98.2391 37.0422 98.5205 37.0695ZM12.3183 34.8756C12.2352 34.7864 12.1721 34.7179 12.108 34.6493C11.7814 34.9254 11.5 34.6671 11.2065 34.5563C11.1254 34.7423 11.0542 34.9057 10.9831 35.07C11.1234 35.2494 11.2896 35.349 11.53 35.2175C11.4839 35.164 11.4409 35.1132 11.3718 35.0325C11.6863 34.9789 11.9788 34.931 12.3183 34.8756ZM124.546 11.1851C124.744 11.5203 124.903 11.7908 125.089 12.1082C125.216 12.02 125.307 11.9552 125.421 11.8753C125.258 11.6556 125.105 11.4283 124.924 11.2226C124.882 11.1757 124.74 11.201 124.546 11.1851ZM123.653 9.41856C123.77 8.64096 123.672 8.55081 122.972 8.7283C123.029 8.80813 123.09 8.87387 123.125 8.949C123.155 9.0138 123.155 9.08987 123.171 9.17251C123.501 9.04009 123.501 9.04009 123.653 9.41856ZM124.408 32.1784C124.267 32.0996 124.137 31.9794 123.99 31.9578C123.842 31.9352 123.672 31.9963 123.524 32.0488C123.447 32.0761 123.397 32.1644 123.301 32.2573C123.663 32.3991 123.962 32.2376 124.25 32.3005C124.29 32.308 124.354 32.2216 124.408 32.1784ZM97.3246 37.4752C97.1883 37.1878 97.7883 36.9445 97.3246 36.7013C97.1262 36.8901 96.9349 37.0713 96.7456 37.2507C96.9039 37.3117 97.0712 37.3765 97.3246 37.4752ZM11.6863 33.3007C10.7698 33.1448 10.7698 33.1448 10.6556 33.4134C11.0222 33.5036 11.3698 33.5364 11.6863 33.3007ZM120.357 35.0043C120.429 34.8428 119.915 34.7723 120.281 34.562C120.15 34.4897 120.022 34.4183 119.892 34.3469C119.793 34.9573 119.803 34.9705 120.357 35.0043ZM15.0298 34.7968C14.8725 34.7517 14.7423 34.716 14.6141 34.6765C14.563 34.6606 14.5149 34.638 14.4649 34.6183C14.4599 34.6775 14.4238 34.7676 14.4538 34.7911C14.6061 34.9141 14.6492 35.1583 14.9717 35.1499C14.9897 35.0372 15.0098 34.9188 15.0298 34.7968ZM126.263 11.1287C125.949 10.971 125.915 10.9672 125.369 11.0301C125.608 11.5175 125.941 11.1747 126.263 11.1287ZM24.3993 2.99677C24.1098 3.11698 23.9405 3.17709 23.7832 3.25785C23.7352 3.28227 23.6951 3.36585 23.7031 3.41657C23.7091 3.45789 23.7862 3.5039 23.8413 3.52269C23.9074 3.54429 23.9846 3.53865 24.0767 3.54617C24.1639 3.39684 24.255 3.24189 24.3993 2.99677ZM123.282 31.8939C122.819 31.8319 122.872 32.263 122.618 32.3541C122.732 32.3635 122.846 32.3728 122.991 32.3851C123.068 32.2555 123.159 32.1024 123.282 31.8939ZM111.552 2.67653C111.535 2.95921 111.703 3.06627 111.978 3.06815C112.028 3.06815 112.11 3.01462 112.12 2.97423C112.132 2.9254 112.098 2.82961 112.058 2.81458C111.903 2.75729 111.736 2.72442 111.552 2.67653ZM110.683 2.92258C111.158 2.97611 111.378 2.91882 111.365 2.79768C111.248 2.73194 111.135 2.66808 111.008 2.5967C110.931 2.67465 110.842 2.76387 110.683 2.92258ZM125.046 9.16218C124.749 9.2899 124.583 9.48243 124.642 9.53783C124.786 9.55004 124.9 9.55943 125.044 9.57164C125.045 9.4242 125.045 9.30399 125.046 9.16218ZM3.22933 20.3266C3.51079 20.0618 3.51079 20.0618 3.28442 19.7716C3.2133 19.8326 3.14218 19.8937 3.07407 19.9519C3.11814 20.0561 3.16422 20.1698 3.22933 20.3266ZM123.511 30.7397C123.576 30.8693 123.632 30.9811 123.682 31.0806C123.942 30.9782 123.998 30.8148 123.915 30.6007C123.77 30.6505 123.632 30.6984 123.511 30.7397ZM10.0746 34.1835C10.1127 34.1328 10.1497 34.0811 10.1878 34.0304C9.94641 33.9243 9.70301 33.8219 9.38348 33.8567C9.61286 33.9666 9.84424 34.0746 10.0746 34.1835ZM28.506 37.5653C28.6222 37.4977 28.7314 37.4705 28.7514 37.416C28.8055 37.2667 28.6843 37.2225 28.5491 37.2376C28.469 37.246 28.3948 37.2911 28.3177 37.3202C28.3718 37.3906 28.4269 37.462 28.506 37.5653ZM126.582 24.8654C126.562 24.8391 126.542 24.8128 126.522 24.7865C126.349 24.8438 126.177 24.902 125.993 24.964C126.055 25.0354 126.113 25.1021 126.162 25.1594C126.303 25.0598 126.443 24.9622 126.582 24.8654ZM113.669 3.34895C113.942 3.37149 114.105 3.39403 114.269 3.39121C114.301 3.39027 114.336 3.2926 114.353 3.23531C114.356 3.22498 114.25 3.1677 114.24 3.17709C114.101 3.2926 113.987 3.27382 113.886 3.13576C113.837 3.1846 113.786 3.23343 113.669 3.34895ZM59.0204 35.4729C59.1496 35.3753 59.2858 35.272 59.395 35.1893C59.3189 35.1827 59.1887 35.1724 59.0494 35.1611C59.0374 35.2889 59.0284 35.3912 59.0204 35.4729ZM8.49502 5.71087C8.33175 5.67612 8.20654 5.63855 8.07933 5.62916C8.05228 5.62728 7.98317 5.73435 7.99319 5.7813C8.03325 5.97664 8.22557 5.87897 8.34978 5.90715C8.37181 5.91184 8.42089 5.81417 8.49502 5.71087ZM6.68403 26.353C6.71608 26.337 6.74813 26.3201 6.78019 26.3042C6.74112 26.1849 6.71408 26.0591 6.65598 25.9482C6.63595 25.9097 6.52276 25.8778 6.47368 25.8947C6.4276 25.9107 6.36851 26.0196 6.38654 26.0431C6.47168 26.1549 6.58186 26.2516 6.68403 26.353ZM125.853 21.9231C125.85 21.9607 125.847 21.9982 125.844 22.0358C125.934 22.0433 126.029 22.0368 126.112 22.0621C126.204 22.0903 126.284 22.1476 126.216 22.1119C126.408 22.08 126.5 22.064 126.591 22.049C126.574 22.0264 126.557 22.0029 126.54 21.9804C126.31 21.9607 126.082 21.9419 125.853 21.9231ZM79.9489 0.556906C79.6915 0.535306 79.5282 0.51934 79.3639 0.512767C79.3449 0.511827 79.3239 0.566297 79.3038 0.59541C79.7486 0.805776 79.7486 0.805776 79.9489 0.556906ZM24.7068 37.045C24.4063 37.0394 24.2851 37.1559 24.25 37.3831C24.4043 37.2704 24.5415 37.1681 24.7068 37.045ZM4.84199 8.22305C4.87003 8.15825 4.9101 8.10284 4.91511 8.04555C4.92312 7.94976 4.99224 7.8164 4.79691 7.7995C4.75484 7.79574 4.67271 7.82298 4.67371 7.82767C4.68874 7.92159 4.70677 8.0155 4.73782 8.10566C4.75084 8.14416 4.79591 8.17421 4.84199 8.22305ZM24.3392 38.3927C24.4203 38.3429 24.4834 38.3213 24.5164 38.28C24.5685 38.2152 24.6076 38.1401 24.6306 38.0631C24.6346 38.0508 24.4884 37.9738 24.4654 37.9898C24.4043 38.033 24.3582 38.1053 24.3331 38.1748C24.3131 38.2293 24.3341 38.296 24.3392 38.3927ZM23.4367 38.0687C23.4347 38.0912 23.4327 38.1138 23.4307 38.1363C23.6791 38.157 23.9275 38.1776 24.1769 38.1983C24.1789 38.1758 24.1809 38.1532 24.1829 38.1307C23.9335 38.11 23.6851 38.0893 23.4367 38.0687ZM116.079 34.8597C115.845 34.8399 115.649 34.824 115.389 34.8024C115.571 34.9104 115.694 34.9836 115.818 35.0569C115.89 35.0024 115.964 34.947 116.079 34.8597ZM64.7448 35.2635C64.6937 35.2212 64.6747 35.1921 64.6607 35.194C64.5355 35.2137 64.3692 35.0804 64.2921 35.2682C64.278 35.3029 64.2821 35.364 64.3071 35.3884C64.4593 35.5349 64.5565 35.3987 64.6637 35.3245C64.6827 35.3114 64.7007 35.2964 64.7448 35.2635ZM3.0891 21.0122C3.20328 20.8159 3.26038 20.7577 3.2704 20.6929C3.28442 20.5989 3.34953 20.4628 3.15621 20.4487C3.11013 20.4459 3.06005 20.4938 3.01197 20.5191C3.12716 20.6046 3.13117 20.6788 2.99795 20.7558C2.98593 20.7614 3.03 20.8488 3.0891 21.0122Z" fill="#63AB45"/>
<path d="M15.582 37.4621C15.6431 36.9944 16.0929 36.7878 16.4955 36.4619C16.4885 36.6544 16.4455 36.8122 16.4895 36.9456C16.5346 37.0827 16.6658 37.1973 16.755 37.3146C16.4965 37.6753 16.4965 37.6753 16.0999 37.8443C15.9276 37.7166 15.7483 37.5842 15.582 37.4621Z" fill="#63AB45"/>
<path d="M41.7636 1.47492C41.5933 1.41482 41.408 1.37631 41.2568 1.28897C41.1065 1.20163 41.1616 0.879512 41.375 0.576172C41.5312 0.864486 42.0311 0.694503 42.1002 1.09457C42.002 1.11242 41.9039 1.13026 41.8047 1.1481C42.0581 1.28616 41.7436 1.36317 41.7636 1.47492Z" fill="#63AB45"/>
<path d="M16.8909 38.1161C17.2435 38.0381 17.4899 37.9836 17.7493 37.9264C17.6431 37.8043 17.556 37.7038 17.4778 37.6136C17.6651 37.5188 17.8474 37.4258 18.0418 37.3281C18.4514 37.4502 17.7613 37.8061 18.205 37.9207C17.8244 38.2306 17.4268 38.2851 16.8909 38.1161Z" fill="#63AB45"/>
<path d="M18.6367 37.9033C18.778 37.7436 18.9202 37.5821 19.0484 37.4365C19.1906 37.6131 19.3449 37.8037 19.4961 37.9916C19.0194 38.3109 18.9713 38.308 18.6367 37.9033Z" fill="#63AB45"/>
<path d="M128.809 22.9571C128.877 22.8445 128.937 22.7458 128.985 22.666C129.191 22.9121 129.35 23.1027 129.517 23.2999C129.526 23.2943 129.441 23.3863 129.338 23.4042C129.173 23.4342 129.208 23.2877 129.153 23.2041C129.069 23.0774 128.88 23.005 128.809 22.9571Z" fill="#63AB45"/>
<path d="M127.758 12.0456C128.063 11.6136 128.476 11.6427 128.809 11.5234C129.022 11.731 128.82 11.8465 128.689 11.8859C128.433 11.9648 128.152 11.9827 127.758 12.0456Z" fill="#63AB45"/>
<path d="M6.94128 29.8738C6.80305 30.0466 6.66782 30.2157 6.53761 30.3791C6.18202 30.35 5.85649 30.3237 5.54297 30.2082C5.79639 30.1875 6.06182 30.2007 6.30122 30.1368C6.51658 30.0795 6.61474 29.779 6.94128 29.8738Z" fill="#63AB45"/>
<path d="M94.3398 0.450076C94.7706 0.202145 94.8787 0.224685 95.2604 0.683921C94.8938 0.698947 94.5572 0.813521 94.3398 0.450076Z" fill="#63AB45"/>
<path d="M127.734 18.2593C127.841 17.9484 127.89 17.6413 128.213 17.5859C128.541 17.7597 127.984 17.9372 128.289 18.0827C128.238 18.1259 128.193 18.1936 128.133 18.2086C128.005 18.2396 127.868 18.2443 127.734 18.2593Z" fill="#63AB45"/>
<path d="M7.19736 4.84862C6.76264 4.87304 6.52225 4.69179 6.29688 4.44574C6.72959 4.2936 6.95997 4.51242 7.19736 4.84862Z" fill="#63AB45"/>
<path d="M127.729 12.5776C127.57 12.6978 127.439 12.7974 127.281 12.9167C127.013 12.8368 127.112 12.665 127.221 12.5175C127.353 12.34 127.475 12.3616 127.729 12.5776Z" fill="#63AB45"/>
<path d="M1.8125 8.70119C1.9347 8.6749 2.02385 8.65517 2.113 8.63545C2.07593 8.42978 2.12502 8.37343 2.4205 8.28516C2.44655 8.76505 2.36541 8.82516 1.8125 8.70119Z" fill="#63AB45"/>
<path d="M129.862 22.0273C129.992 22.1579 130.058 22.2227 130.129 22.2922C130.112 22.3222 130.103 22.3664 130.076 22.3795C129.847 22.4903 129.846 22.4894 129.402 22.4133C129.544 22.295 129.68 22.1804 129.862 22.0273Z" fill="#63AB45"/>
<path d="M100.609 0.742824C100.638 0.627311 100.636 0.493015 100.705 0.401919C100.775 0.308005 100.916 0.167135 101.048 0.295797C101.109 0.354962 101.074 0.538093 101.022 0.63858C100.981 0.717467 100.848 0.75785 100.756 0.815137C100.707 0.791659 100.657 0.767241 100.609 0.742824Z" fill="#63AB45"/>
<path d="M2.44746 18.4067C2.17601 18.5241 1.95565 18.6189 1.62109 18.7635C1.73729 18.5757 1.79839 18.4987 1.83445 18.4123C1.8665 18.3353 1.87051 18.2489 1.89555 18.123C2.10089 18.2292 2.25915 18.3099 2.44746 18.4067Z" fill="#63AB45"/>
<path d="M128.695 12.0898C128.571 12.3143 128.456 12.5209 128.307 12.7895C128.194 12.1762 128.194 12.1762 128.695 12.0898Z" fill="#63AB45"/>
<path d="M71.3436 36.9707C71.5329 36.9867 71.7242 36.9914 71.9095 37.0242C71.9726 37.0355 72.0207 37.1181 72.0768 37.1679C71.8935 37.2675 71.6992 37.2844 71.4878 37.2581C71.2494 37.228 71.3506 37.0825 71.3436 36.9707Z" fill="#63AB45"/>
<path d="M128.675 26.4101C128.673 26.4091 128.556 26.3406 128.438 26.2729C128.613 25.9874 128.888 26.1161 129.067 26.1142C128.964 26.1912 128.827 26.2945 128.675 26.4101Z" fill="#63AB45"/>
<path d="M125.836 12.2442C125.749 12.1766 125.664 12.109 125.578 12.0413C125.622 12.015 125.667 11.9888 125.711 11.9625C125.901 11.9117 126.08 11.754 126.291 11.9193C126.14 12.0273 125.988 12.1362 125.836 12.2442Z" fill="#63AB45"/>
<path d="M3.92578 7.21178C4.03696 6.94601 4.11509 6.75912 4.20524 6.54688C4.31542 6.55627 4.44764 6.5666 4.57886 6.57787C4.17219 6.62388 4.34948 7.09909 3.92578 7.21178Z" fill="#63AB45"/>
<path d="M89.7305 38.1915C90.038 37.8797 90.2503 38.0234 90.5258 38.0225C90.4517 38.1305 90.4076 38.2573 90.3535 38.261C90.1942 38.2695 90.032 38.23 89.7305 38.1915Z" fill="#63AB45"/>
<path d="M121.561 34.7782C121.432 34.564 121.179 34.4833 121.209 34.2297C121.61 34.226 121.642 34.2635 121.561 34.7782Z" fill="#63AB45"/>
<path d="M126.734 27.3984C126.888 27.4689 127.048 27.5318 127.192 27.6163C127.23 27.6389 127.218 27.7309 127.229 27.791C127.146 27.8013 127.031 27.8483 126.986 27.8154C126.858 27.7215 126.759 27.5947 126.648 27.4811C126.677 27.4538 126.706 27.4266 126.734 27.3984Z" fill="#63AB45"/>
<path d="M109.172 37.7084C109.245 37.653 109.302 37.6098 109.322 37.5947C109.434 37.7159 109.549 37.8389 109.653 37.9525C109.478 38.0239 109.301 37.9507 109.172 37.7084Z" fill="#63AB45"/>
<path d="M12.7467 36.9273C12.5313 36.8042 12.316 36.8643 12.1407 36.8183C12.0706 36.7995 12.0275 36.6934 12.0315 36.5723C12.1176 36.6155 12.1988 36.6728 12.2899 36.699C12.3811 36.7244 12.4963 36.6962 12.5754 36.7338C12.6495 36.7695 12.6906 36.8606 12.7467 36.9273Z" fill="#63AB45"/>
<path d="M99.2165 0.522981C99.1273 0.430007 99.0652 0.364268 98.957 0.250633C99.1333 0.212128 99.3527 0.114458 99.4048 0.162354C99.5941 0.33985 99.3256 0.393381 99.2165 0.522981Z" fill="#63AB45"/>
<path d="M129.847 20.4404C129.566 20.4169 129.285 20.3934 129.004 20.3709C129.294 20.2291 129.575 20.3324 129.847 20.4404Z" fill="#63AB45"/>
<path d="M46.21 0.733919C46.0066 0.717014 45.8163 0.701049 45.625 0.685084C45.7061 0.33197 46.0237 0.649397 46.1689 0.501953C46.1829 0.585536 46.1979 0.66818 46.21 0.733919Z" fill="#63AB45"/>
<path d="M2.9175 10.1104C2.90848 10.2014 2.89847 10.3132 2.88144 10.4898C2.77526 10.4287 2.70114 10.3677 2.615 10.3404C2.52786 10.3132 2.42869 10.3207 2.3125 10.3113C2.34555 10.2465 2.35557 10.1949 2.37661 10.1911C2.5579 10.1582 2.74021 10.1348 2.9175 10.1104Z" fill="#63AB45"/>
<path d="M126.914 14.5099C127.146 14.2995 127.318 14.1821 127.567 14.3296C127.451 14.6 127.202 14.5268 126.914 14.5099Z" fill="#63AB45"/>
<path d="M116.691 35.4922C117.01 35.7072 117.013 35.7119 117.102 36.0867C116.885 35.8988 116.885 35.8988 116.691 35.4922Z" fill="#63AB45"/>
<path d="M5.81532 32.599C5.73218 32.3445 5.67609 32.1755 5.58594 31.8984C5.9255 32.1943 5.9255 32.1943 5.81532 32.599Z" fill="#63AB45"/>
<path d="M1.36719 12.3877C1.37921 12.2628 1.38822 12.1604 1.40625 11.9707C1.58154 12.1219 1.68471 12.2553 1.857 12.4281C1.65967 12.4121 1.54648 12.4027 1.36719 12.3877Z" fill="#63AB45"/>
<path d="M2.33396 19.322C2.18973 19.5596 1.9944 19.5803 1.75 19.4779C1.89524 19.2403 2.09056 19.2197 2.33396 19.322Z" fill="#63AB45"/>
<path d="M99.8087 1.33556C99.7095 1.21535 99.6705 1.18436 99.6555 1.14585C99.6204 1.05663 99.5974 0.96366 99.5703 0.871625C99.6344 0.859416 99.6995 0.848146 99.7636 0.835938C99.7857 0.93079 99.8107 1.0247 99.8267 1.12049C99.8347 1.16276 99.8217 1.20596 99.8087 1.33556Z" fill="#63AB45"/>
<path d="M131 23.6979C130.879 23.7533 130.796 23.8124 130.776 23.7983C130.677 23.7288 130.596 23.6396 130.508 23.557C130.599 23.5485 130.694 23.5213 130.779 23.5391C130.845 23.5532 130.898 23.6218 131 23.6979Z" fill="#63AB45"/>
<path d="M5.02407 27.6967C4.7987 27.7428 4.51523 27.924 4.375 27.4629C4.53927 27.5568 4.60939 27.615 4.69152 27.6404C4.7967 27.6723 4.91289 27.6789 5.02407 27.6967Z" fill="#63AB45"/>
<path d="M74.3452 37.4736C74.0787 37.3787 73.9105 37.3186 73.7422 37.2585C73.7642 37.2294 73.7873 37.1768 73.8073 37.1777C73.9525 37.1824 74.1038 37.1815 74.241 37.2191C74.2881 37.2322 74.2991 37.3524 74.3452 37.4736Z" fill="#63AB45"/>
<path d="M125.928 30.5437C125.675 30.4028 125.515 30.3145 125.293 30.1905C125.631 30.1417 125.822 30.183 125.928 30.5437Z" fill="#63AB45"/>
<path d="M111.193 1.71874C111.057 1.56848 110.962 1.5018 110.932 1.4154C110.915 1.36939 111.009 1.29144 111.052 1.22852C111.11 1.27829 111.198 1.31961 111.218 1.37878C111.242 1.45203 111.209 1.54031 111.193 1.71874Z" fill="#63AB45"/>
</svg>
