<svg width="60" height="10" viewBox="0 0 60 10" fill="none" xmlns="http://www.w3.org/2000/svg">
<path d="M4.69585 0.650879C2.23543 0.650879 0.230469 2.65062 0.230469 5.10466C0.230469 7.55869 2.23543 9.55843 4.69585 9.55843C7.15628 9.55843 9.16124 7.56166 9.16124 5.10466C9.16124 2.65062 7.15926 0.650879 4.69585 0.650879Z" fill="#00AA6C"/>
<path d="M17.3482 0.650879C14.8878 0.650879 12.8828 2.65062 12.8828 5.10466C12.8828 7.55869 14.8878 9.55843 17.3482 9.55843C19.8086 9.55843 21.8136 7.56166 21.8136 5.10466C21.8136 2.65062 19.8116 0.650879 17.3482 0.650879Z" fill="#00AA6C"/>
<path d="M30.0005 0.650879C27.5401 0.650879 25.5352 2.65062 25.5352 5.10466C25.5352 7.55869 27.5401 9.55843 30.0005 9.55843C32.461 9.55843 34.4659 7.56166 34.4659 5.10466C34.4659 2.65062 32.4639 0.650879 30.0005 0.650879Z" fill="#00AA6C"/>
<path d="M42.6529 0.650879C40.1925 0.650879 38.1875 2.65062 38.1875 5.10466C38.1875 7.55869 40.1925 9.55843 42.6529 9.55843C45.1133 9.55843 47.1183 7.56166 47.1183 5.10466C47.1183 2.65062 45.1163 0.650879 42.6529 0.650879Z" fill="#00AA6C"/>
<path d="M55.3013 0.650879C52.8413 0.650879 50.8359 2.651 50.8359 5.10466C50.8359 7.56166 52.8413 9.55843 55.3013 9.55843C57.7647 9.55843 59.7667 7.56203 59.7667 5.10466C59.7667 2.64728 57.7651 0.650879 55.3013 0.650879ZM55.3013 1.39318C55.7902 1.39239 56.2744 1.48786 56.7263 1.6741C57.1781 1.86034 57.5886 2.1337 57.9343 2.4785C58.28 2.8233 58.5541 3.23276 58.7408 3.68341C58.9275 4.13406 59.0233 4.61704 59.0225 5.10466C59.0237 5.59238 58.9282 6.07554 58.7416 6.52637C58.555 6.97719 58.281 7.38681 57.9352 7.73169C57.5894 8.07657 57.1787 8.34991 56.7267 8.53601C56.2747 8.72211 55.7903 8.81731 55.3013 8.81614V1.39318Z" fill="#00AA6C"/>
</svg>
