<svg width="114" height="24" viewBox="0 0 114 24" fill="none" xmlns="http://www.w3.org/2000/svg">
<g clip-path="url(#clip0_1870_983)">
<path d="M95.4912 14.847C95.2104 14.847 94.9824 15.0661 94.9824 15.3357C94.9824 15.6054 95.2104 15.8244 95.4912 15.8244C95.7719 15.8244 96 15.6054 96 15.3357C96 15.0661 95.7719 14.847 95.4912 14.847ZM95.4912 15.7469C95.2545 15.7469 95.0631 15.5619 95.0631 15.3357C95.0631 15.1084 95.2556 14.9245 95.4912 14.9245C95.7279 14.9245 95.9204 15.1095 95.9204 15.3357C95.9204 15.562 95.7278 15.7469 95.4912 15.7469ZM95.6568 15.252C95.6568 15.1632 95.5912 15.1105 95.4944 15.1105H95.3319V15.5558H95.4115V15.3946H95.4986L95.5826 15.5558H95.6686L95.5761 15.3781C95.6256 15.3564 95.6568 15.313 95.6568 15.252ZM95.4912 15.3254H95.4127V15.1777H95.4912C95.545 15.1777 95.5772 15.2035 95.5772 15.251C95.5772 15.2996 95.5439 15.3254 95.4912 15.3254ZM34.1849 9.9015V8.71962H32.2981V15.751H34.1849V11.5349C34.1849 10.7714 34.6947 10.3964 35.4897 10.3964H36.5223V8.71964H35.6403C34.9497 8.71962 34.3495 9.06571 34.1849 9.9015ZM38.2897 5.93848C37.6443 5.93848 37.1495 6.42818 37.1495 7.04805C37.1495 7.65346 37.6443 8.14316 38.2897 8.14316C38.9351 8.14316 39.4299 7.65346 39.4299 7.04805C39.4299 6.42816 38.9351 5.93848 38.2897 5.93848ZM37.3485 15.751H39.2309V8.71962H37.3485V15.751ZM48.1978 12.2353C48.1978 14.2427 46.5036 15.8698 44.4135 15.8698C43.5702 15.8698 42.8054 15.6043 42.1922 15.1559V17.8152H40.3098V8.71962H42.1922V9.31468C42.8054 8.86631 43.5702 8.6008 44.4135 8.6008C46.5036 8.6008 48.1978 10.228 48.1978 12.2353ZM46.3035 12.2353C46.3035 11.1454 45.3827 10.261 44.2479 10.261C43.113 10.261 42.1922 11.1454 42.1922 12.2353C42.1922 13.3253 43.113 14.2096 44.2479 14.2096C45.3827 14.2096 46.3035 13.3263 46.3035 12.2353ZM80.9157 11.6186L79.8174 11.3293C79.0946 11.1485 78.8138 10.9357 78.8138 10.5689C78.8138 10.2114 79.2097 9.96143 79.7755 9.96143C80.3144 9.96143 80.7371 10.3003 80.7371 10.7342V10.7745H82.4722V10.7342C82.4722 9.45827 81.389 8.60078 79.7755 8.60078C78.1781 8.60078 77.0174 9.45723 77.0174 10.6381C77.0174 11.5565 77.651 12.2487 78.7568 12.5359L79.8088 12.8118C80.608 13.0246 80.9049 13.2602 80.9049 13.6827C80.9049 14.128 80.4758 14.4276 79.8368 14.4276C79.1709 14.4276 78.7224 14.0226 78.7224 13.4213V13.381H76.8808V13.4213C76.8808 14.8636 78.0899 15.8719 79.8218 15.8719C81.4901 15.8719 82.7014 14.8873 82.7014 13.5319C82.7013 12.8665 82.3915 11.9967 80.9157 11.6186ZM54.8756 8.71962H56.758V15.751H54.8756V15.1559C54.2625 15.6043 53.4976 15.8698 52.6543 15.8698C50.5643 15.8698 48.8701 14.2427 48.8701 12.2353C48.8701 10.2279 50.5643 8.60078 52.6543 8.60078C53.4976 8.60078 54.2625 8.86629 54.8756 9.31465V8.71962ZM54.8756 12.2353C54.8756 11.1443 53.9548 10.261 52.82 10.261C51.6851 10.261 50.7644 11.1454 50.7644 12.2353C50.7644 13.3253 51.6851 14.2096 52.82 14.2096C53.9559 14.2096 54.8756 13.3263 54.8756 12.2353ZM63.5553 6.21741H65.4378V15.752H63.5553V15.157C62.9421 15.6053 62.1773 15.8709 61.334 15.8709C59.2439 15.8709 57.5497 14.2437 57.5497 12.2363C57.5497 10.229 59.2439 8.60182 61.334 8.60182C62.1773 8.60182 62.9421 8.86733 63.5553 9.31569V6.21741ZM63.5553 12.2353C63.5553 11.1454 62.6345 10.261 61.4996 10.261C60.3648 10.261 59.444 11.1454 59.444 12.2353C59.444 13.3253 60.3637 14.2096 61.4996 14.2096C62.6345 14.2096 63.5553 13.3263 63.5553 12.2353ZM74.1776 15.751H76.0601V8.71962H74.1776V15.751ZM75.1188 5.93848C74.4734 5.93848 73.9786 6.42818 73.9786 7.04805C73.9786 7.65346 74.4734 8.14316 75.1188 8.14316C75.7643 8.14316 76.2591 7.65346 76.2591 7.04805C76.2591 6.42816 75.7643 5.93848 75.1188 5.93848ZM90.8378 12.2353C90.8378 14.2427 89.1436 15.8698 87.0535 15.8698C84.9635 15.8698 83.2693 14.2427 83.2693 12.2353C83.2693 10.2279 84.9635 8.6008 87.0535 8.6008C89.1436 8.6008 90.8378 10.228 90.8378 12.2353ZM89.1092 12.2353C89.1092 11.1454 88.1884 10.261 87.0535 10.261C85.9187 10.261 84.9979 11.1454 84.9979 12.2353C84.9979 13.3253 85.9176 14.2096 87.0535 14.2096C88.1884 14.2096 89.1092 13.3263 89.1092 12.2353ZM33.221 6.21741H26V7.83012H28.6731V15.751H30.5491V7.83012H33.2222V6.21741H33.221ZM69.7394 13.8253L68.0646 8.71964H66.0874L68.5992 15.751H70.8645L73.3913 8.71964H71.4142L69.7394 13.8253ZM93.5958 9.9015V8.71962H91.7091V15.751H93.5958V11.5349C93.5958 10.7714 94.1057 10.3964 94.9006 10.3964H95.9333V8.71964H95.0512C94.3606 8.71962 93.7615 9.06571 93.5958 9.9015Z" fill="#100C08"/>
<path d="M12.1252 23.7535C18.8218 23.7535 24.2504 18.4361 24.2504 11.8767C24.2504 5.3174 18.8218 0 12.1252 0C5.42864 0 0 5.3174 0 11.8767C0 18.4361 5.42864 23.7535 12.1252 23.7535Z" fill="#34E0A1"/>
<path d="M19.6146 9.55983L21.0777 8.00058H17.8331C16.2087 6.91374 14.247 6.28076 12.1254 6.28076C10.0065 6.28076 8.05026 6.9151 6.42858 8.00058H3.17578L4.63894 9.55983C3.74209 10.3613 3.17986 11.5158 3.17986 12.7977C3.17986 15.2169 5.18224 17.1782 7.65199 17.1782C8.82522 17.1782 9.89411 16.735 10.6921 16.0104L12.1254 17.5391L13.5588 16.0118C14.3568 16.7363 15.4243 17.1782 16.5975 17.1782C19.0673 17.1782 21.0723 15.2169 21.0723 12.7977C21.0737 11.5145 20.5115 10.36 19.6146 9.55983ZM7.65331 15.7623C5.9815 15.7623 4.62677 14.4353 4.62677 12.7977C4.62677 11.1602 5.98154 9.83318 7.65331 9.83318C9.32509 9.83318 10.6799 11.1602 10.6799 12.7977C10.6799 14.4353 9.32509 15.7623 7.65331 15.7623ZM12.1268 12.7115C12.1268 10.7608 10.6785 9.08608 8.76693 8.37081C9.80061 7.94748 10.9346 7.7126 12.1254 7.7126C13.3162 7.7126 14.4515 7.94748 15.4852 8.37081C13.575 9.08742 12.1268 10.7608 12.1268 12.7115ZM16.5989 15.7623C14.9271 15.7623 13.5723 14.4353 13.5723 12.7977C13.5723 11.1602 14.9271 9.83318 16.5989 9.83318C18.2707 9.83318 19.6254 11.1602 19.6254 12.7977C19.6254 14.4353 18.2707 15.7623 16.5989 15.7623ZM16.5989 11.2425C15.7223 11.2425 15.0124 11.9378 15.0124 12.7964C15.0124 13.655 15.7223 14.3503 16.5989 14.3503C17.4754 14.3503 18.1853 13.655 18.1853 12.7964C18.1853 11.9391 17.4754 11.2425 16.5989 11.2425ZM9.23974 12.7977C9.23974 13.6563 8.52983 14.3517 7.65331 14.3517C6.77679 14.3517 6.06688 13.6563 6.06688 12.7977C6.06688 11.9391 6.77679 11.2438 7.65331 11.2438C8.52983 11.2425 9.23974 11.9391 9.23974 12.7977Z" fill="black"/>
</g>
<defs>
<clipPath id="clip0_1870_983">
<rect width="114" height="23.7535" fill="white"/>
</clipPath>
</defs>
</svg>
