<svg width="99" height="25" viewBox="0 0 99 25" fill="none" xmlns="http://www.w3.org/2000/svg">
<path d="M25.9618 8.8208L35.9534 8.8208V10.7302L32.0193 10.7302V21.4938H29.863V10.7302H25.9453L25.9618 8.8208ZM35.5254 12.3186H37.369V14.0928H37.402C37.4678 13.8393 37.583 13.6028 37.7476 13.3662C37.9122 13.1296 38.1098 12.91 38.3567 12.7241C38.5871 12.5213 38.8505 12.3693 39.1468 12.251C39.4266 12.1327 39.7229 12.0651 40.0192 12.0651C40.2497 12.0651 40.4143 12.082 40.4966 12.082C40.5789 12.0989 40.6776 12.1158 40.7599 12.1158V14.059C40.6283 14.0252 40.4801 14.0083 40.332 13.9914C40.1838 13.9745 40.0521 13.9576 39.904 13.9576C39.5748 13.9576 39.262 14.0252 38.9657 14.1604C38.6694 14.2956 38.4225 14.4983 38.1921 14.7518C37.9781 15.0221 37.797 15.3432 37.6653 15.7318C37.5336 16.1205 37.4678 16.5767 37.4678 17.0836V21.4432H35.4925L35.5254 12.3186ZM49.8133 21.4938H47.871V20.2096H47.838C47.5911 20.6828 47.229 21.0376 46.7516 21.3249C46.2743 21.6121 45.7804 21.7473 45.2866 21.7473C44.1179 21.7473 43.262 21.4601 42.7352 20.8517C42.2085 20.2603 41.9451 19.3479 41.9451 18.1482V12.3186H43.9204V17.9454C43.9204 18.7565 44.0685 19.331 44.3813 19.652C44.6776 19.99 45.1056 20.159 45.6488 20.159C46.0603 20.159 46.406 20.0914 46.6858 19.9562C46.9656 19.821 47.1961 19.652 47.3607 19.4324C47.5417 19.2127 47.657 18.9423 47.7393 18.6382C47.8216 18.334 47.8545 17.9961 47.8545 17.6412V12.3186H49.8298V21.4938H49.8133ZM53.1713 18.5537C53.2371 19.1451 53.4511 19.5506 53.8297 19.8041C54.2083 20.0407 54.6692 20.159 55.196 20.159C55.377 20.159 55.591 20.1421 55.8215 20.1083C56.0519 20.0745 56.2824 20.0238 56.4799 19.9393C56.6939 19.8548 56.8585 19.7365 56.9902 19.5675C57.1219 19.3986 57.1877 19.1958 57.1712 18.9423C57.1548 18.6889 57.0725 18.4692 56.8914 18.3002C56.7103 18.1313 56.4964 18.013 56.233 17.8947C55.9696 17.7933 55.6569 17.7088 55.3112 17.6412C54.9655 17.5737 54.6198 17.4892 54.2577 17.4047C53.8956 17.3202 53.5334 17.2188 53.1878 17.1005C52.8421 16.9822 52.5458 16.8302 52.266 16.6105C52.0026 16.4077 51.7721 16.1543 51.624 15.8332C51.4594 15.5122 51.3771 15.1404 51.3771 14.6673C51.3771 14.1604 51.4923 13.7548 51.7392 13.4169C51.9697 13.0789 52.2824 12.8086 52.6446 12.6058C53.0067 12.403 53.4182 12.251 53.8626 12.1665C54.3071 12.082 54.7351 12.0482 55.1301 12.0482C55.591 12.0482 56.0355 12.0989 56.447 12.2003C56.8585 12.3017 57.2535 12.4537 57.5828 12.6903C57.9284 12.91 58.2083 13.2141 58.4223 13.569C58.6527 13.9238 58.7844 14.3631 58.8502 14.8701H56.7927C56.6939 14.38 56.4799 14.059 56.1507 13.89C55.805 13.721 55.4264 13.6366 54.982 13.6366C54.8503 13.6366 54.6692 13.6535 54.4882 13.6704C54.2906 13.7041 54.126 13.7379 53.945 13.8055C53.7803 13.8731 53.6322 13.9745 53.517 14.0928C53.4017 14.2111 53.3359 14.38 53.3359 14.5828C53.3359 14.8363 53.4182 15.0221 53.5828 15.1742C53.7474 15.3263 53.9614 15.4446 54.2412 15.5629C54.5046 15.6642 54.8174 15.7487 55.163 15.8163C55.5087 15.8839 55.8709 15.9684 56.233 16.0529C56.5951 16.1374 56.9408 16.2388 57.2865 16.357C57.6321 16.4753 57.9449 16.6274 58.2083 16.8471C58.4716 17.0498 58.7021 17.3033 58.8667 17.6074C59.0313 17.9116 59.1136 18.3002 59.1136 18.7396C59.1136 19.2803 58.9984 19.7365 58.7515 20.1252C58.5046 20.4969 58.1918 20.818 57.8132 21.0545C57.4346 21.2911 56.9902 21.4601 56.5293 21.5783C56.0519 21.6797 55.591 21.7473 55.1301 21.7473C54.5705 21.7473 54.0437 21.6797 53.5664 21.5445C53.089 21.4094 52.661 21.2066 52.3153 20.9531C51.9697 20.6828 51.6898 20.3617 51.4923 19.9562C51.2948 19.5675 51.1796 19.0944 51.1631 18.5368H53.1548V18.5537H53.1713ZM59.6733 12.3186H61.1712V9.54739L63.1465 9.54739V12.3017L64.9242 12.3017V13.8055H63.1465V18.7058C63.1465 18.9254 63.1629 19.0944 63.1794 19.2634C63.1959 19.4155 63.2452 19.5506 63.2946 19.652C63.3605 19.7534 63.4592 19.8379 63.5745 19.8886C63.7061 19.9393 63.8707 19.9731 64.1012 19.9731C64.2329 19.9731 64.381 19.9731 64.5127 19.9562C64.6444 19.9393 64.7925 19.9224 64.9242 19.8886V21.4601C64.7102 21.4938 64.4963 21.5107 64.2823 21.5276C64.0683 21.5614 63.8708 21.5614 63.6403 21.5614C63.1136 21.5614 62.702 21.5107 62.3893 21.4094C62.0765 21.308 61.8296 21.1559 61.6486 20.97C61.4675 20.7673 61.3523 20.5307 61.2864 20.2434C61.2206 19.9562 61.1877 19.6013 61.1712 19.2296V13.8224H59.6733V12.2848V12.3186ZM66.3069 12.3186H68.167V13.569H68.1999C68.4797 13.0282 68.8583 12.6565 69.3522 12.4199C69.846 12.1834 70.3727 12.0651 70.9653 12.0651C71.6731 12.0651 72.2822 12.1834 72.8089 12.4537C73.3356 12.7072 73.7636 13.0451 74.1093 13.5014C74.455 13.9407 74.7183 14.4645 74.8829 15.0559C75.0476 15.6473 75.1463 16.2894 75.1463 16.9484C75.1463 17.5736 75.064 18.1651 74.9159 18.7396C74.7513 19.3141 74.5208 19.8379 74.2081 20.2772C73.8953 20.7166 73.5003 21.0714 73.0064 21.3418C72.5126 21.6121 71.9529 21.7473 71.2945 21.7473C71.0147 21.7473 70.7184 21.7135 70.4386 21.6628C70.1587 21.6121 69.8789 21.5276 69.6155 21.4094C69.3522 21.2911 69.1052 21.139 68.8913 20.9531C68.6608 20.7673 68.4797 20.5476 68.3316 20.311H68.2987V24.8902H66.3234V12.3186H66.3069ZM73.204 16.9147C73.204 16.5091 73.1546 16.1036 73.0394 15.7149C72.9406 15.3263 72.776 14.9883 72.562 14.6842C72.348 14.38 72.0846 14.1435 71.7883 13.9576C71.4756 13.7717 71.1135 13.6872 70.7184 13.6872C69.8954 13.6872 69.2699 13.9745 68.8419 14.5659C68.4304 15.1573 68.2164 15.9515 68.2164 16.9316C68.2164 17.4047 68.2658 17.8271 68.381 18.2157C68.4962 18.6044 68.6443 18.9423 68.8748 19.2296C69.0888 19.5168 69.3522 19.7365 69.6649 19.9055C69.9777 20.0745 70.3233 20.159 70.7349 20.159C71.1958 20.159 71.5579 20.0576 71.8706 19.8717C72.1834 19.6858 72.4303 19.4324 72.6443 19.1451C72.8418 18.841 72.99 18.503 73.0723 18.1144C73.1546 17.7088 73.204 17.3202 73.204 16.9147ZM76.6772 8.8208L78.6524 8.8208V10.7302H76.6772V8.8208ZM76.6772 12.3186H78.6524V21.4938H76.6772V12.3186ZM80.4137 8.8208H82.389V21.4938H80.4137V8.8208ZM88.4136 21.7473C87.7058 21.7473 87.0639 21.629 86.5042 21.3756C85.9445 21.1221 85.4836 20.8011 85.0886 20.3786C84.71 19.9562 84.4137 19.4324 84.2162 18.841C84.0186 18.2495 83.9034 17.5905 83.9034 16.8978C83.9034 16.205 84.0022 15.5629 84.2162 14.9715C84.4137 14.38 84.71 13.8731 85.0886 13.4338C85.4672 13.0114 85.9445 12.6734 86.5042 12.4368C87.0639 12.2003 87.7058 12.0651 88.4136 12.0651C89.1214 12.0651 89.7634 12.1834 90.3231 12.4368C90.8827 12.6734 91.3436 13.0114 91.7387 13.4338C92.1173 13.8562 92.4136 14.38 92.6111 14.9715C92.8086 15.5629 92.9239 16.205 92.9239 16.8978C92.9239 17.6074 92.8251 18.2495 92.6111 18.841C92.3971 19.4324 92.1173 19.9393 91.7387 20.3786C91.3601 20.8011 90.8827 21.139 90.3231 21.3756C89.7634 21.6121 89.1379 21.7473 88.4136 21.7473ZM88.4136 20.1421C88.8416 20.1421 89.2367 20.0407 89.5494 19.8548C89.8786 19.6689 90.1255 19.4155 90.3395 19.1113C90.5535 18.8072 90.7017 18.4523 90.8004 18.0806C90.8992 17.6919 90.9486 17.3033 90.9486 16.8978C90.9486 16.5091 90.8992 16.1205 90.8004 15.7318C90.7017 15.3432 90.5535 15.0052 90.3395 14.7011C90.1255 14.3969 89.8622 14.1604 89.5494 13.9745C89.2202 13.7886 88.8416 13.6872 88.4136 13.6872C87.9857 13.6872 87.5906 13.7886 87.2779 13.9745C86.9486 14.1604 86.7017 14.4138 86.4877 14.7011C86.2738 15.0052 86.1256 15.3432 86.0268 15.7318C85.9281 16.1205 85.8787 16.5091 85.8787 16.8978C85.8787 17.3033 85.9281 17.6919 86.0268 18.0806C86.1256 18.4692 86.2738 18.8072 86.4877 19.1113C86.7017 19.4155 86.9651 19.6689 87.2779 19.8548C87.6071 20.0576 87.9857 20.1421 88.4136 20.1421ZM93.5164 12.3186H95.0144V9.54739H96.9897V12.3017H98.7674V13.8055H96.9897V18.7058C96.9897 18.9254 97.0061 19.0944 97.0226 19.2634C97.039 19.4155 97.0884 19.5506 97.1378 19.652C97.2036 19.7534 97.3024 19.8379 97.4176 19.8886C97.5493 19.9393 97.7139 19.9731 97.9444 19.9731C98.0761 19.9731 98.2242 19.9731 98.3559 19.9562C98.4876 19.9393 98.6357 19.9224 98.7674 19.8886V21.4601C98.5534 21.4938 98.3394 21.5107 98.1254 21.5276C97.9115 21.5614 97.7139 21.5614 97.4835 21.5614C96.9567 21.5614 96.5452 21.5107 96.2325 21.4094C95.9197 21.308 95.6728 21.1559 95.4917 20.97C95.3107 20.7673 95.1954 20.5307 95.1296 20.2434C95.0638 19.9562 95.0308 19.6013 95.0144 19.2296V13.8224L93.5164 13.8224V12.2848V12.3186Z" fill="#100C08"/>
<path d="M23.654 8.82093L14.6171 8.82093L11.8352 0.000488281L9.03692 8.82093L0 8.80403L7.30855 14.2619L4.51023 23.0823L11.8188 17.6245L19.1273 23.0823L16.3455 14.2619L23.654 8.82093Z" fill="#00B67A"/>
<path d="M16.9717 16.2556L16.3462 14.2617L11.8359 17.6243L16.9717 16.2556Z" fill="#005128"/>
</svg>
