<svg width="59" height="11" viewBox="0 0 59 11" fill="none" xmlns="http://www.w3.org/2000/svg">
<path d="M0 0.10498H10.927V11.0004H0V0.10498ZM11.8376 0.10498H22.7645V11.0004H11.8376V0.10498ZM23.6751 0.10498H34.6021V11.0004H23.6751V0.10498ZM35.5127 0.10498H46.4396V11.0004H35.5127V0.10498ZM47.3502 0.10498H58.2772V11.0004H47.3502V0.10498Z" fill="#00B67A"/>
<path d="M5.46116 7.4478L7.12297 7.02788L7.81729 9.16156L5.46116 7.4478ZM9.2856 4.68991H6.36036L5.46116 1.94336L4.56196 4.68991H1.63672L4.00423 6.39231L3.10503 9.13886L5.47254 7.43645L6.92947 6.39231L9.2856 4.68991ZM17.2987 7.4478L18.9605 7.02788L19.6548 9.16156L17.2987 7.4478ZM21.1232 4.68991H18.1979L17.2987 1.94336L16.3995 4.68991H13.4743L15.8418 6.39231L14.9426 9.13886L17.3101 7.43645L18.767 6.39231L21.1232 4.68991ZM29.1363 7.4478L30.7981 7.02788L31.4924 9.16156L29.1363 7.4478ZM32.9607 4.68991H30.0355L29.1363 1.94336L28.2371 4.68991H25.3118L27.6793 6.39231L26.7801 9.13886L29.1477 7.43645L30.6046 6.39231L32.9607 4.68991ZM40.9738 7.4478L42.6356 7.02788L43.33 9.16156L40.9738 7.4478ZM44.7983 4.68991H41.873L40.9738 1.94336L40.0746 4.68991H37.1494L39.5169 6.39231L38.6177 9.13886L40.9852 7.43645L42.4421 6.39231L44.7983 4.68991ZM52.8114 7.4478L54.4732 7.02788L55.1675 9.16156L52.8114 7.4478ZM56.6358 4.68991H53.7106L52.8114 1.94336L51.9122 4.68991H48.9869L51.3545 6.39231L50.4553 9.13886L52.8228 7.43645L54.2797 6.39231L56.6358 4.68991Z" fill="white"/>
</svg>
